M48
;DRILL file {KiCad 4.0.4-stable} date 01/25/18 23:42:27
;FORMAT={-:-/ absolute / inch / decimal}
FMAT,2
INCH,TZ
T1C0.021
T2C0.026
T3C0.031
T4C0.032
T5C0.035
T6C0.039
T7C0.043
T8C0.047
T9C0.051
T10C0.055
T11C0.081
T12C0.091
T13C0.325
T14C0.026
T15C0.031
T16C0.037
T17C0.128
%
G90
G05
M72
T1
X12.38Y-2.76
X12.38Y-2.94
T2
X12.38Y-2.7
X12.38Y-3.
T3
X2.Y-2.56
X2.Y-2.7096
X2.35Y-2.62
X2.35Y-2.7184
X2.64Y-2.66
X2.64Y-2.7387
T4
X12.3Y-2.62
X12.3Y-3.08
T5
X9.54Y-2.75
X9.59Y-2.65
X9.64Y-2.75
X9.69Y-2.65
X9.74Y-2.75
X9.79Y-2.65
X9.84Y-2.75
X9.89Y-2.65
T6
X8.38Y-2.77
X8.48Y-2.77
X8.5599Y-2.77
X8.6599Y-2.77
T7
X8.9332Y-2.7918
X8.9474Y-2.5576
X9.2726Y-2.5576
X9.2868Y-2.7918
T8
X8.2174Y-2.6068
X8.5226Y-2.6068
T9
X12.18Y-2.5
X12.18Y-3.2
T10
X8.2233Y-2.4572
X8.5167Y-2.4572
T11
X12.Y-2.5
X12.Y-3.2
T12
X8.2398Y-2.8751
X8.78Y-2.8751
T13
X12.Y-2.85
T14
X8.9683Y-2.5083
T15
X8.2716Y-2.4985
X8.4684Y-2.4985
T16
X9.2517Y-2.5083
T17
X9.4813Y-3.
X9.9487Y-3.
T0
M30
