G04 #@! TF.FileFunction,Soldermask,Bot*
%FSLAX46Y46*%
G04 Gerber Fmt 4.6, Leading zero omitted, Abs format (unit mm)*
G04 Created by KiCad (PCBNEW 4.0.4-stable) date 03/15/18 20:51:04*
%MOMM*%
%LPD*%
G01*
G04 APERTURE LIST*
%ADD10C,0.100000*%
%ADD11C,0.152400*%
%ADD12C,0.300000*%
%ADD13C,0.254000*%
%ADD14C,0.010000*%
%ADD15C,2.000000*%
%ADD16C,1.800000*%
%ADD17C,0.800000*%
%ADD18R,1.600000X1.600000*%
%ADD19C,1.600000*%
%ADD20C,1.400000*%
%ADD21C,0.950000*%
%ADD22C,0.650000*%
%ADD23C,3.650000*%
%ADD24R,1.500000X1.500000*%
%ADD25C,1.500000*%
%ADD26C,3.000000*%
%ADD27R,1.550000X0.300000*%
%ADD28R,0.300000X1.550000*%
%ADD29R,1.200000X0.280000*%
%ADD30R,0.280000X1.200000*%
%ADD31R,1.000000X0.250000*%
%ADD32R,0.250000X1.000000*%
%ADD33R,1.450000X0.200000*%
%ADD34R,0.200000X1.450000*%
%ADD35C,0.400000*%
%ADD36C,0.250000*%
%ADD37R,0.850000X0.300000*%
%ADD38R,0.300000X0.850000*%
%ADD39R,1.837500X1.837500*%
%ADD40R,0.700000X0.250000*%
%ADD41R,0.250000X0.700000*%
%ADD42R,1.725000X1.725000*%
%ADD43C,0.470000*%
%ADD44C,0.330000*%
%ADD45O,0.750000X0.300000*%
%ADD46O,0.300000X0.750000*%
%ADD47R,0.900000X0.900000*%
%ADD48C,0.762000*%
%ADD49C,1.397000*%
%ADD50C,3.810000*%
%ADD51C,11.684000*%
%ADD52C,2.286000*%
%ADD53C,1.016000*%
G04 APERTURE END LIST*
D10*
D11*
X246780000Y-80500000D02*
X246780000Y-79500000D01*
X245780000Y-79500000D02*
X246780000Y-79500000D01*
X246780000Y-79500000D02*
G75*
G03X246780000Y-83500000I2000000J-2000000D01*
G01*
X252780000Y-81500000D02*
X251780000Y-82500000D01*
X252780000Y-81500000D02*
X251780000Y-80500000D01*
X244780000Y-81500000D02*
X252780000Y-81500000D01*
X229280000Y-76000000D02*
X229280000Y-84000000D01*
X229280000Y-84000000D02*
X228280000Y-83000000D01*
X229280000Y-84000000D02*
X230280000Y-83000000D01*
X229280000Y-76000000D02*
X237280000Y-76000000D01*
X236280000Y-75000000D02*
X237280000Y-76000000D01*
X236280000Y-77000000D02*
X237280000Y-76000000D01*
X229280000Y-76000000D02*
X233280000Y-80000000D01*
X233280000Y-80000000D02*
X233280000Y-79000000D01*
X233280000Y-80000000D02*
X232280000Y-80000000D01*
X218780000Y-80000000D02*
X217780000Y-80000000D01*
X218780000Y-80000000D02*
X218780000Y-79000000D01*
X214780000Y-76000000D02*
X218780000Y-80000000D01*
X221780000Y-77000000D02*
X222780000Y-76000000D01*
X221780000Y-75000000D02*
X222780000Y-76000000D01*
X214780000Y-76000000D02*
X222780000Y-76000000D01*
X214780000Y-84000000D02*
X215780000Y-83000000D01*
X214780000Y-84000000D02*
X213780000Y-83000000D01*
X214780000Y-76000000D02*
X214780000Y-84000000D01*
X209280000Y-85500000D02*
X208280000Y-85500000D01*
X209280000Y-55500000D02*
X209280000Y-85500000D01*
X179280000Y-55500000D02*
X209280000Y-55500000D01*
X179280000Y-56500000D02*
X179280000Y-55500000D01*
X190280000Y-85500000D02*
X208280000Y-85500000D01*
X179280000Y-56500000D02*
X179280000Y-74500000D01*
X208280000Y-56500000D02*
X179280000Y-56500000D01*
X208280000Y-85500000D02*
X208280000Y-56500000D01*
X207280000Y-57500000D02*
X207280000Y-85500000D01*
X179280000Y-57500000D02*
X207280000Y-57500000D01*
X206280000Y-58500000D02*
X179280000Y-58500000D01*
X206280000Y-85500000D02*
X206280000Y-58500000D01*
X205280000Y-59500000D02*
X205280000Y-85500000D01*
X179280000Y-59500000D02*
X205280000Y-59500000D01*
X204280000Y-60500000D02*
X179280000Y-60500000D01*
X204280000Y-85500000D02*
X204280000Y-60500000D01*
X203280000Y-61500000D02*
X203280000Y-85500000D01*
X179280000Y-61500000D02*
X203280000Y-61500000D01*
X202280000Y-62500000D02*
X179280000Y-62500000D01*
X202280000Y-85500000D02*
X202280000Y-62500000D01*
X201280000Y-63500000D02*
X201280000Y-85500000D01*
X179280000Y-63500000D02*
X201280000Y-63500000D01*
X200280000Y-64500000D02*
X179280000Y-64500000D01*
X200280000Y-85500000D02*
X200280000Y-64500000D01*
X199280000Y-85500000D02*
X199280000Y-85000000D01*
X199280000Y-65500000D02*
X199280000Y-85000000D01*
X179280000Y-65500000D02*
X199280000Y-65500000D01*
X198280000Y-66500000D02*
X179280000Y-66500000D01*
X198280000Y-85500000D02*
X198280000Y-66500000D01*
X197280000Y-67500000D02*
X197280000Y-85500000D01*
X179280000Y-67500000D02*
X197280000Y-67500000D01*
X196280000Y-68500000D02*
X196280000Y-85500000D01*
X179280000Y-68500000D02*
X196280000Y-68500000D01*
X195280000Y-69500000D02*
X195280000Y-85500000D01*
X179280000Y-69500000D02*
X195280000Y-69500000D01*
X194280000Y-70500000D02*
X179280000Y-70500000D01*
X194280000Y-71000000D02*
X194280000Y-70500000D01*
X194280000Y-85500000D02*
X194280000Y-71000000D01*
X193280000Y-71500000D02*
X193280000Y-85500000D01*
X179280000Y-71500000D02*
X193280000Y-71500000D01*
X192280000Y-72500000D02*
X179280000Y-72500000D01*
X192280000Y-85500000D02*
X192280000Y-72500000D01*
X191280000Y-73500000D02*
X191280000Y-85500000D01*
X179280000Y-73500000D02*
X191280000Y-73500000D01*
X190280000Y-85500000D02*
X189280000Y-85500000D01*
X190280000Y-74500000D02*
X190280000Y-85500000D01*
X179280000Y-74500000D02*
X190280000Y-74500000D01*
X179280000Y-75500000D02*
X179280000Y-74500000D01*
X189280000Y-85500000D02*
X188280000Y-85500000D01*
X189280000Y-75500000D02*
X189280000Y-85500000D01*
X179280000Y-75500000D02*
X189280000Y-75500000D01*
X179280000Y-76500000D02*
X179280000Y-75500000D01*
X188280000Y-85500000D02*
X187280000Y-85500000D01*
X188280000Y-76500000D02*
X188280000Y-85500000D01*
X179280000Y-76500000D02*
X188280000Y-76500000D01*
X179280000Y-77500000D02*
X179280000Y-76500000D01*
X187280000Y-85500000D02*
X186280000Y-85500000D01*
X187280000Y-77500000D02*
X187280000Y-85500000D01*
X179280000Y-77500000D02*
X187280000Y-77500000D01*
X179280000Y-78500000D02*
X179280000Y-77500000D01*
X186280000Y-85500000D02*
X185280000Y-85500000D01*
X186280000Y-78500000D02*
X186280000Y-85500000D01*
X179280000Y-78500000D02*
X186280000Y-78500000D01*
X179280000Y-79500000D02*
X179280000Y-78500000D01*
X185280000Y-85500000D02*
X184280000Y-85500000D01*
X185280000Y-79500000D02*
X185280000Y-85500000D01*
X179280000Y-79500000D02*
X185280000Y-79500000D01*
X179280000Y-80500000D02*
X179280000Y-79500000D01*
X184280000Y-85500000D02*
X183280000Y-85500000D01*
X184280000Y-80500000D02*
X184280000Y-85500000D01*
X179280000Y-80500000D02*
X184280000Y-80500000D01*
X179280000Y-81500000D02*
X179280000Y-80500000D01*
X183280000Y-85500000D02*
X182280000Y-85500000D01*
X183280000Y-81500000D02*
X183280000Y-85500000D01*
X179280000Y-81500000D02*
X183280000Y-81500000D01*
X179280000Y-82500000D02*
X179280000Y-81500000D01*
X182280000Y-85500000D02*
X181280000Y-85500000D01*
X182280000Y-82500000D02*
X182280000Y-85500000D01*
X179280000Y-82500000D02*
X182280000Y-82500000D01*
X179280000Y-83500000D02*
X179280000Y-82500000D01*
X181280000Y-85500000D02*
X180280000Y-85500000D01*
X181280000Y-83500000D02*
X181280000Y-85500000D01*
X179280000Y-83500000D02*
X181280000Y-83500000D01*
X179280000Y-84500000D02*
X179280000Y-83500000D01*
X180280000Y-85500000D02*
X179280000Y-85500000D01*
X180280000Y-84500000D02*
X180280000Y-85500000D01*
X179280000Y-84500000D02*
X180280000Y-84500000D01*
X179280000Y-85500000D02*
X179280000Y-84500000D01*
D12*
X15542381Y-84347976D02*
X15542381Y-85617976D01*
X15965714Y-84710833D01*
X16389048Y-85617976D01*
X16389048Y-84347976D01*
X16993810Y-85013214D02*
X17417143Y-85013214D01*
X17598572Y-84347976D02*
X16993810Y-84347976D01*
X16993810Y-85617976D01*
X17598572Y-85617976D01*
X17961429Y-85617976D02*
X18687144Y-85617976D01*
X18324287Y-84347976D02*
X18324287Y-85617976D01*
X19836191Y-84347976D02*
X19412858Y-84952738D01*
X19110477Y-84347976D02*
X19110477Y-85617976D01*
X19594286Y-85617976D01*
X19715239Y-85557500D01*
X19775715Y-85497024D01*
X19836191Y-85376071D01*
X19836191Y-85194643D01*
X19775715Y-85073690D01*
X19715239Y-85013214D01*
X19594286Y-84952738D01*
X19110477Y-84952738D01*
X20380477Y-84347976D02*
X20380477Y-85617976D01*
X21710953Y-84468929D02*
X21650477Y-84408452D01*
X21469048Y-84347976D01*
X21348096Y-84347976D01*
X21166668Y-84408452D01*
X21045715Y-84529405D01*
X20985239Y-84650357D01*
X20924763Y-84892262D01*
X20924763Y-85073690D01*
X20985239Y-85315595D01*
X21045715Y-85436548D01*
X21166668Y-85557500D01*
X21348096Y-85617976D01*
X21469048Y-85617976D01*
X21650477Y-85557500D01*
X21710953Y-85497024D01*
X15542381Y-82142976D02*
X15542381Y-83412976D01*
X15965714Y-82505833D01*
X16389048Y-83412976D01*
X16389048Y-82142976D01*
X16993810Y-82142976D02*
X16993810Y-83412976D01*
X17417143Y-82505833D01*
X17840477Y-83412976D01*
X17840477Y-82142976D01*
X233438286Y-88434143D02*
X233547143Y-88543000D01*
X233764857Y-88651857D01*
X234309143Y-88651857D01*
X234526857Y-88543000D01*
X234635714Y-88434143D01*
X234744571Y-88216429D01*
X234744571Y-87998714D01*
X234635714Y-87672143D01*
X233329428Y-86365857D01*
X234744571Y-86365857D01*
X235615429Y-88434143D02*
X235724286Y-88543000D01*
X235942000Y-88651857D01*
X236486286Y-88651857D01*
X236704000Y-88543000D01*
X236812857Y-88434143D01*
X236921714Y-88216429D01*
X236921714Y-87998714D01*
X236812857Y-87672143D01*
X235506571Y-86365857D01*
X236921714Y-86365857D01*
X243438286Y-88434143D02*
X243547143Y-88543000D01*
X243764857Y-88651857D01*
X244309143Y-88651857D01*
X244526857Y-88543000D01*
X244635714Y-88434143D01*
X244744571Y-88216429D01*
X244744571Y-87998714D01*
X244635714Y-87672143D01*
X243329428Y-86365857D01*
X244744571Y-86365857D01*
X245506571Y-88651857D02*
X246921714Y-88651857D01*
X246159714Y-87781000D01*
X246486286Y-87781000D01*
X246704000Y-87672143D01*
X246812857Y-87563286D01*
X246921714Y-87345571D01*
X246921714Y-86801286D01*
X246812857Y-86583571D01*
X246704000Y-86474714D01*
X246486286Y-86365857D01*
X245833143Y-86365857D01*
X245615429Y-86474714D01*
X245506571Y-86583571D01*
X253438286Y-88434143D02*
X253547143Y-88543000D01*
X253764857Y-88651857D01*
X254309143Y-88651857D01*
X254526857Y-88543000D01*
X254635714Y-88434143D01*
X254744571Y-88216429D01*
X254744571Y-87998714D01*
X254635714Y-87672143D01*
X253329428Y-86365857D01*
X254744571Y-86365857D01*
X256704000Y-87889857D02*
X256704000Y-86365857D01*
X256159714Y-88760714D02*
X255615429Y-87127857D01*
X257030571Y-87127857D01*
X283438286Y-88434143D02*
X283547143Y-88543000D01*
X283764857Y-88651857D01*
X284309143Y-88651857D01*
X284526857Y-88543000D01*
X284635714Y-88434143D01*
X284744571Y-88216429D01*
X284744571Y-87998714D01*
X284635714Y-87672143D01*
X283329428Y-86365857D01*
X284744571Y-86365857D01*
X285506571Y-88651857D02*
X287030571Y-88651857D01*
X286050857Y-86365857D01*
X273438286Y-88434143D02*
X273547143Y-88543000D01*
X273764857Y-88651857D01*
X274309143Y-88651857D01*
X274526857Y-88543000D01*
X274635714Y-88434143D01*
X274744571Y-88216429D01*
X274744571Y-87998714D01*
X274635714Y-87672143D01*
X273329428Y-86365857D01*
X274744571Y-86365857D01*
X276704000Y-88651857D02*
X276268571Y-88651857D01*
X276050857Y-88543000D01*
X275942000Y-88434143D01*
X275724286Y-88107571D01*
X275615429Y-87672143D01*
X275615429Y-86801286D01*
X275724286Y-86583571D01*
X275833143Y-86474714D01*
X276050857Y-86365857D01*
X276486286Y-86365857D01*
X276704000Y-86474714D01*
X276812857Y-86583571D01*
X276921714Y-86801286D01*
X276921714Y-87345571D01*
X276812857Y-87563286D01*
X276704000Y-87672143D01*
X276486286Y-87781000D01*
X276050857Y-87781000D01*
X275833143Y-87672143D01*
X275724286Y-87563286D01*
X275615429Y-87345571D01*
X263438286Y-88434143D02*
X263547143Y-88543000D01*
X263764857Y-88651857D01*
X264309143Y-88651857D01*
X264526857Y-88543000D01*
X264635714Y-88434143D01*
X264744571Y-88216429D01*
X264744571Y-87998714D01*
X264635714Y-87672143D01*
X263329428Y-86365857D01*
X264744571Y-86365857D01*
X266812857Y-88651857D02*
X265724286Y-88651857D01*
X265615429Y-87563286D01*
X265724286Y-87672143D01*
X265942000Y-87781000D01*
X266486286Y-87781000D01*
X266704000Y-87672143D01*
X266812857Y-87563286D01*
X266921714Y-87345571D01*
X266921714Y-86801286D01*
X266812857Y-86583571D01*
X266704000Y-86474714D01*
X266486286Y-86365857D01*
X265942000Y-86365857D01*
X265724286Y-86474714D01*
X265615429Y-86583571D01*
X313329428Y-88651857D02*
X314744571Y-88651857D01*
X313982571Y-87781000D01*
X314309143Y-87781000D01*
X314526857Y-87672143D01*
X314635714Y-87563286D01*
X314744571Y-87345571D01*
X314744571Y-86801286D01*
X314635714Y-86583571D01*
X314526857Y-86474714D01*
X314309143Y-86365857D01*
X313656000Y-86365857D01*
X313438286Y-86474714D01*
X313329428Y-86583571D01*
X316159714Y-88651857D02*
X316377429Y-88651857D01*
X316595143Y-88543000D01*
X316704000Y-88434143D01*
X316812857Y-88216429D01*
X316921714Y-87781000D01*
X316921714Y-87236714D01*
X316812857Y-86801286D01*
X316704000Y-86583571D01*
X316595143Y-86474714D01*
X316377429Y-86365857D01*
X316159714Y-86365857D01*
X315942000Y-86474714D01*
X315833143Y-86583571D01*
X315724286Y-86801286D01*
X315615429Y-87236714D01*
X315615429Y-87781000D01*
X315724286Y-88216429D01*
X315833143Y-88434143D01*
X315942000Y-88543000D01*
X316159714Y-88651857D01*
X303438286Y-88434143D02*
X303547143Y-88543000D01*
X303764857Y-88651857D01*
X304309143Y-88651857D01*
X304526857Y-88543000D01*
X304635714Y-88434143D01*
X304744571Y-88216429D01*
X304744571Y-87998714D01*
X304635714Y-87672143D01*
X303329428Y-86365857D01*
X304744571Y-86365857D01*
X305833143Y-86365857D02*
X306268571Y-86365857D01*
X306486286Y-86474714D01*
X306595143Y-86583571D01*
X306812857Y-86910143D01*
X306921714Y-87345571D01*
X306921714Y-88216429D01*
X306812857Y-88434143D01*
X306704000Y-88543000D01*
X306486286Y-88651857D01*
X306050857Y-88651857D01*
X305833143Y-88543000D01*
X305724286Y-88434143D01*
X305615429Y-88216429D01*
X305615429Y-87672143D01*
X305724286Y-87454429D01*
X305833143Y-87345571D01*
X306050857Y-87236714D01*
X306486286Y-87236714D01*
X306704000Y-87345571D01*
X306812857Y-87454429D01*
X306921714Y-87672143D01*
X293438286Y-88434143D02*
X293547143Y-88543000D01*
X293764857Y-88651857D01*
X294309143Y-88651857D01*
X294526857Y-88543000D01*
X294635714Y-88434143D01*
X294744571Y-88216429D01*
X294744571Y-87998714D01*
X294635714Y-87672143D01*
X293329428Y-86365857D01*
X294744571Y-86365857D01*
X296050857Y-87672143D02*
X295833143Y-87781000D01*
X295724286Y-87889857D01*
X295615429Y-88107571D01*
X295615429Y-88216429D01*
X295724286Y-88434143D01*
X295833143Y-88543000D01*
X296050857Y-88651857D01*
X296486286Y-88651857D01*
X296704000Y-88543000D01*
X296812857Y-88434143D01*
X296921714Y-88216429D01*
X296921714Y-88107571D01*
X296812857Y-87889857D01*
X296704000Y-87781000D01*
X296486286Y-87672143D01*
X296050857Y-87672143D01*
X295833143Y-87563286D01*
X295724286Y-87454429D01*
X295615429Y-87236714D01*
X295615429Y-86801286D01*
X295724286Y-86583571D01*
X295833143Y-86474714D01*
X296050857Y-86365857D01*
X296486286Y-86365857D01*
X296704000Y-86474714D01*
X296812857Y-86583571D01*
X296921714Y-86801286D01*
X296921714Y-87236714D01*
X296812857Y-87454429D01*
X296704000Y-87563286D01*
X296486286Y-87672143D01*
X174744571Y-86365857D02*
X173438286Y-86365857D01*
X174091428Y-86365857D02*
X174091428Y-88651857D01*
X173873714Y-88325286D01*
X173656000Y-88107571D01*
X173438286Y-87998714D01*
X176704000Y-88651857D02*
X176268571Y-88651857D01*
X176050857Y-88543000D01*
X175942000Y-88434143D01*
X175724286Y-88107571D01*
X175615429Y-87672143D01*
X175615429Y-86801286D01*
X175724286Y-86583571D01*
X175833143Y-86474714D01*
X176050857Y-86365857D01*
X176486286Y-86365857D01*
X176704000Y-86474714D01*
X176812857Y-86583571D01*
X176921714Y-86801286D01*
X176921714Y-87345571D01*
X176812857Y-87563286D01*
X176704000Y-87672143D01*
X176486286Y-87781000D01*
X176050857Y-87781000D01*
X175833143Y-87672143D01*
X175724286Y-87563286D01*
X175615429Y-87345571D01*
X184744571Y-86365857D02*
X183438286Y-86365857D01*
X184091428Y-86365857D02*
X184091428Y-88651857D01*
X183873714Y-88325286D01*
X183656000Y-88107571D01*
X183438286Y-87998714D01*
X185506571Y-88651857D02*
X187030571Y-88651857D01*
X186050857Y-86365857D01*
X194744571Y-86365857D02*
X193438286Y-86365857D01*
X194091428Y-86365857D02*
X194091428Y-88651857D01*
X193873714Y-88325286D01*
X193656000Y-88107571D01*
X193438286Y-87998714D01*
X196050857Y-87672143D02*
X195833143Y-87781000D01*
X195724286Y-87889857D01*
X195615429Y-88107571D01*
X195615429Y-88216429D01*
X195724286Y-88434143D01*
X195833143Y-88543000D01*
X196050857Y-88651857D01*
X196486286Y-88651857D01*
X196704000Y-88543000D01*
X196812857Y-88434143D01*
X196921714Y-88216429D01*
X196921714Y-88107571D01*
X196812857Y-87889857D01*
X196704000Y-87781000D01*
X196486286Y-87672143D01*
X196050857Y-87672143D01*
X195833143Y-87563286D01*
X195724286Y-87454429D01*
X195615429Y-87236714D01*
X195615429Y-86801286D01*
X195724286Y-86583571D01*
X195833143Y-86474714D01*
X196050857Y-86365857D01*
X196486286Y-86365857D01*
X196704000Y-86474714D01*
X196812857Y-86583571D01*
X196921714Y-86801286D01*
X196921714Y-87236714D01*
X196812857Y-87454429D01*
X196704000Y-87563286D01*
X196486286Y-87672143D01*
X223438286Y-88434143D02*
X223547143Y-88543000D01*
X223764857Y-88651857D01*
X224309143Y-88651857D01*
X224526857Y-88543000D01*
X224635714Y-88434143D01*
X224744571Y-88216429D01*
X224744571Y-87998714D01*
X224635714Y-87672143D01*
X223329428Y-86365857D01*
X224744571Y-86365857D01*
X226921714Y-86365857D02*
X225615429Y-86365857D01*
X226268571Y-86365857D02*
X226268571Y-88651857D01*
X226050857Y-88325286D01*
X225833143Y-88107571D01*
X225615429Y-87998714D01*
X213438286Y-88434143D02*
X213547143Y-88543000D01*
X213764857Y-88651857D01*
X214309143Y-88651857D01*
X214526857Y-88543000D01*
X214635714Y-88434143D01*
X214744571Y-88216429D01*
X214744571Y-87998714D01*
X214635714Y-87672143D01*
X213329428Y-86365857D01*
X214744571Y-86365857D01*
X216159714Y-88651857D02*
X216377429Y-88651857D01*
X216595143Y-88543000D01*
X216704000Y-88434143D01*
X216812857Y-88216429D01*
X216921714Y-87781000D01*
X216921714Y-87236714D01*
X216812857Y-86801286D01*
X216704000Y-86583571D01*
X216595143Y-86474714D01*
X216377429Y-86365857D01*
X216159714Y-86365857D01*
X215942000Y-86474714D01*
X215833143Y-86583571D01*
X215724286Y-86801286D01*
X215615429Y-87236714D01*
X215615429Y-87781000D01*
X215724286Y-88216429D01*
X215833143Y-88434143D01*
X215942000Y-88543000D01*
X216159714Y-88651857D01*
X204744571Y-86365857D02*
X203438286Y-86365857D01*
X204091428Y-86365857D02*
X204091428Y-88651857D01*
X203873714Y-88325286D01*
X203656000Y-88107571D01*
X203438286Y-87998714D01*
X205833143Y-86365857D02*
X206268571Y-86365857D01*
X206486286Y-86474714D01*
X206595143Y-86583571D01*
X206812857Y-86910143D01*
X206921714Y-87345571D01*
X206921714Y-88216429D01*
X206812857Y-88434143D01*
X206704000Y-88543000D01*
X206486286Y-88651857D01*
X206050857Y-88651857D01*
X205833143Y-88543000D01*
X205724286Y-88434143D01*
X205615429Y-88216429D01*
X205615429Y-87672143D01*
X205724286Y-87454429D01*
X205833143Y-87345571D01*
X206050857Y-87236714D01*
X206486286Y-87236714D01*
X206704000Y-87345571D01*
X206812857Y-87454429D01*
X206921714Y-87672143D01*
X144744571Y-86365857D02*
X143438286Y-86365857D01*
X144091428Y-86365857D02*
X144091428Y-88651857D01*
X143873714Y-88325286D01*
X143656000Y-88107571D01*
X143438286Y-87998714D01*
X145506571Y-88651857D02*
X146921714Y-88651857D01*
X146159714Y-87781000D01*
X146486286Y-87781000D01*
X146704000Y-87672143D01*
X146812857Y-87563286D01*
X146921714Y-87345571D01*
X146921714Y-86801286D01*
X146812857Y-86583571D01*
X146704000Y-86474714D01*
X146486286Y-86365857D01*
X145833143Y-86365857D01*
X145615429Y-86474714D01*
X145506571Y-86583571D01*
X154744571Y-86365857D02*
X153438286Y-86365857D01*
X154091428Y-86365857D02*
X154091428Y-88651857D01*
X153873714Y-88325286D01*
X153656000Y-88107571D01*
X153438286Y-87998714D01*
X156704000Y-87889857D02*
X156704000Y-86365857D01*
X156159714Y-88760714D02*
X155615429Y-87127857D01*
X157030571Y-87127857D01*
X164744571Y-86365857D02*
X163438286Y-86365857D01*
X164091428Y-86365857D02*
X164091428Y-88651857D01*
X163873714Y-88325286D01*
X163656000Y-88107571D01*
X163438286Y-87998714D01*
X166812857Y-88651857D02*
X165724286Y-88651857D01*
X165615429Y-87563286D01*
X165724286Y-87672143D01*
X165942000Y-87781000D01*
X166486286Y-87781000D01*
X166704000Y-87672143D01*
X166812857Y-87563286D01*
X166921714Y-87345571D01*
X166921714Y-86801286D01*
X166812857Y-86583571D01*
X166704000Y-86474714D01*
X166486286Y-86365857D01*
X165942000Y-86365857D01*
X165724286Y-86474714D01*
X165615429Y-86583571D01*
X134744571Y-86365857D02*
X133438286Y-86365857D01*
X134091428Y-86365857D02*
X134091428Y-88651857D01*
X133873714Y-88325286D01*
X133656000Y-88107571D01*
X133438286Y-87998714D01*
X135615429Y-88434143D02*
X135724286Y-88543000D01*
X135942000Y-88651857D01*
X136486286Y-88651857D01*
X136704000Y-88543000D01*
X136812857Y-88434143D01*
X136921714Y-88216429D01*
X136921714Y-87998714D01*
X136812857Y-87672143D01*
X135506571Y-86365857D01*
X136921714Y-86365857D01*
X124744571Y-86365857D02*
X123438286Y-86365857D01*
X124091428Y-86365857D02*
X124091428Y-88651857D01*
X123873714Y-88325286D01*
X123656000Y-88107571D01*
X123438286Y-87998714D01*
X126921714Y-86365857D02*
X125615429Y-86365857D01*
X126268571Y-86365857D02*
X126268571Y-88651857D01*
X126050857Y-88325286D01*
X125833143Y-88107571D01*
X125615429Y-87998714D01*
X106344572Y-86365857D02*
X106780000Y-86365857D01*
X106997715Y-86474714D01*
X107106572Y-86583571D01*
X107324286Y-86910143D01*
X107433143Y-87345571D01*
X107433143Y-88216429D01*
X107324286Y-88434143D01*
X107215429Y-88543000D01*
X106997715Y-88651857D01*
X106562286Y-88651857D01*
X106344572Y-88543000D01*
X106235715Y-88434143D01*
X106126858Y-88216429D01*
X106126858Y-87672143D01*
X106235715Y-87454429D01*
X106344572Y-87345571D01*
X106562286Y-87236714D01*
X106997715Y-87236714D01*
X107215429Y-87345571D01*
X107324286Y-87454429D01*
X107433143Y-87672143D01*
X114744571Y-86365857D02*
X113438286Y-86365857D01*
X114091428Y-86365857D02*
X114091428Y-88651857D01*
X113873714Y-88325286D01*
X113656000Y-88107571D01*
X113438286Y-87998714D01*
X116159714Y-88651857D02*
X116377429Y-88651857D01*
X116595143Y-88543000D01*
X116704000Y-88434143D01*
X116812857Y-88216429D01*
X116921714Y-87781000D01*
X116921714Y-87236714D01*
X116812857Y-86801286D01*
X116704000Y-86583571D01*
X116595143Y-86474714D01*
X116377429Y-86365857D01*
X116159714Y-86365857D01*
X115942000Y-86474714D01*
X115833143Y-86583571D01*
X115724286Y-86801286D01*
X115615429Y-87236714D01*
X115615429Y-87781000D01*
X115724286Y-88216429D01*
X115833143Y-88434143D01*
X115942000Y-88543000D01*
X116159714Y-88651857D01*
X96562286Y-87672143D02*
X96344572Y-87781000D01*
X96235715Y-87889857D01*
X96126858Y-88107571D01*
X96126858Y-88216429D01*
X96235715Y-88434143D01*
X96344572Y-88543000D01*
X96562286Y-88651857D01*
X96997715Y-88651857D01*
X97215429Y-88543000D01*
X97324286Y-88434143D01*
X97433143Y-88216429D01*
X97433143Y-88107571D01*
X97324286Y-87889857D01*
X97215429Y-87781000D01*
X96997715Y-87672143D01*
X96562286Y-87672143D01*
X96344572Y-87563286D01*
X96235715Y-87454429D01*
X96126858Y-87236714D01*
X96126858Y-86801286D01*
X96235715Y-86583571D01*
X96344572Y-86474714D01*
X96562286Y-86365857D01*
X96997715Y-86365857D01*
X97215429Y-86474714D01*
X97324286Y-86583571D01*
X97433143Y-86801286D01*
X97433143Y-87236714D01*
X97324286Y-87454429D01*
X97215429Y-87563286D01*
X96997715Y-87672143D01*
X57215429Y-87889857D02*
X57215429Y-86365857D01*
X56671143Y-88760714D02*
X56126858Y-87127857D01*
X57542000Y-87127857D01*
X67324286Y-88651857D02*
X66235715Y-88651857D01*
X66126858Y-87563286D01*
X66235715Y-87672143D01*
X66453429Y-87781000D01*
X66997715Y-87781000D01*
X67215429Y-87672143D01*
X67324286Y-87563286D01*
X67433143Y-87345571D01*
X67433143Y-86801286D01*
X67324286Y-86583571D01*
X67215429Y-86474714D01*
X66997715Y-86365857D01*
X66453429Y-86365857D01*
X66235715Y-86474714D01*
X66126858Y-86583571D01*
X86018000Y-88651857D02*
X87542000Y-88651857D01*
X86562286Y-86365857D01*
X77215429Y-88651857D02*
X76780000Y-88651857D01*
X76562286Y-88543000D01*
X76453429Y-88434143D01*
X76235715Y-88107571D01*
X76126858Y-87672143D01*
X76126858Y-86801286D01*
X76235715Y-86583571D01*
X76344572Y-86474714D01*
X76562286Y-86365857D01*
X76997715Y-86365857D01*
X77215429Y-86474714D01*
X77324286Y-86583571D01*
X77433143Y-86801286D01*
X77433143Y-87345571D01*
X77324286Y-87563286D01*
X77215429Y-87672143D01*
X76997715Y-87781000D01*
X76562286Y-87781000D01*
X76344572Y-87672143D01*
X76235715Y-87563286D01*
X76126858Y-87345571D01*
X36126858Y-88434143D02*
X36235715Y-88543000D01*
X36453429Y-88651857D01*
X36997715Y-88651857D01*
X37215429Y-88543000D01*
X37324286Y-88434143D01*
X37433143Y-88216429D01*
X37433143Y-87998714D01*
X37324286Y-87672143D01*
X36018000Y-86365857D01*
X37433143Y-86365857D01*
X46018000Y-88651857D02*
X47433143Y-88651857D01*
X46671143Y-87781000D01*
X46997715Y-87781000D01*
X47215429Y-87672143D01*
X47324286Y-87563286D01*
X47433143Y-87345571D01*
X47433143Y-86801286D01*
X47324286Y-86583571D01*
X47215429Y-86474714D01*
X46997715Y-86365857D01*
X46344572Y-86365857D01*
X46126858Y-86474714D01*
X46018000Y-86583571D01*
X27433143Y-86365857D02*
X26126858Y-86365857D01*
X26780000Y-86365857D02*
X26780000Y-88651857D01*
X26562286Y-88325286D01*
X26344572Y-88107571D01*
X26126858Y-87998714D01*
X16671143Y-88651857D02*
X16888858Y-88651857D01*
X17106572Y-88543000D01*
X17215429Y-88434143D01*
X17324286Y-88216429D01*
X17433143Y-87781000D01*
X17433143Y-87236714D01*
X17324286Y-86801286D01*
X17215429Y-86583571D01*
X17106572Y-86474714D01*
X16888858Y-86365857D01*
X16671143Y-86365857D01*
X16453429Y-86474714D01*
X16344572Y-86583571D01*
X16235715Y-86801286D01*
X16126858Y-87236714D01*
X16126858Y-87781000D01*
X16235715Y-88216429D01*
X16344572Y-88434143D01*
X16453429Y-88543000D01*
X16671143Y-88651857D01*
D13*
X176180000Y-89800000D02*
X176180000Y-91300000D01*
X177180000Y-89800000D02*
X177180000Y-91300000D01*
X178180000Y-89800000D02*
X178180000Y-91300000D01*
X179180000Y-89800000D02*
X179180000Y-91300000D01*
X180180000Y-88800000D02*
X180180000Y-91300000D01*
X185180000Y-86300000D02*
X185180000Y-91300000D01*
X184180000Y-89800000D02*
X184180000Y-91300000D01*
X183180000Y-89800000D02*
X183180000Y-91300000D01*
X182180000Y-89800000D02*
X182180000Y-91300000D01*
X181180000Y-89800000D02*
X181180000Y-91300000D01*
X191180000Y-89800000D02*
X191180000Y-91300000D01*
X192180000Y-89800000D02*
X192180000Y-91300000D01*
X193180000Y-89800000D02*
X193180000Y-91300000D01*
X194180000Y-89800000D02*
X194180000Y-91300000D01*
X195180000Y-86300000D02*
X195180000Y-91300000D01*
X190180000Y-88800000D02*
X190180000Y-91300000D01*
X189180000Y-89800000D02*
X189180000Y-91300000D01*
X188180000Y-89800000D02*
X188180000Y-91300000D01*
X187180000Y-89800000D02*
X187180000Y-91300000D01*
X186180000Y-89800000D02*
X186180000Y-91300000D01*
X206180000Y-89800000D02*
X206180000Y-91300000D01*
X207180000Y-89800000D02*
X207180000Y-91300000D01*
X208180000Y-89800000D02*
X208180000Y-91300000D01*
X209180000Y-89800000D02*
X209180000Y-91300000D01*
X210180000Y-88800000D02*
X210180000Y-91300000D01*
X215180000Y-86300000D02*
X215180000Y-91300000D01*
X214180000Y-89800000D02*
X214180000Y-91300000D01*
X213180000Y-89800000D02*
X213180000Y-91300000D01*
X212180000Y-89800000D02*
X212180000Y-91300000D01*
X211180000Y-89800000D02*
X211180000Y-91300000D01*
X201180000Y-89800000D02*
X201180000Y-91300000D01*
X202180000Y-89800000D02*
X202180000Y-91300000D01*
X203180000Y-89800000D02*
X203180000Y-91300000D01*
X204180000Y-89800000D02*
X204180000Y-91300000D01*
X205180000Y-86300000D02*
X205180000Y-91300000D01*
X200180000Y-88800000D02*
X200180000Y-91300000D01*
X199180000Y-89800000D02*
X199180000Y-91300000D01*
X198180000Y-89800000D02*
X198180000Y-91300000D01*
X197180000Y-89800000D02*
X197180000Y-91300000D01*
X196180000Y-89800000D02*
X196180000Y-91300000D01*
X236180000Y-89800000D02*
X236180000Y-91300000D01*
X237180000Y-89800000D02*
X237180000Y-91300000D01*
X238180000Y-89800000D02*
X238180000Y-91300000D01*
X239180000Y-89800000D02*
X239180000Y-91300000D01*
X240180000Y-88800000D02*
X240180000Y-91300000D01*
X245180000Y-86300000D02*
X245180000Y-91300000D01*
X244180000Y-89800000D02*
X244180000Y-91300000D01*
X243180000Y-89800000D02*
X243180000Y-91300000D01*
X242180000Y-89800000D02*
X242180000Y-91300000D01*
X241180000Y-89800000D02*
X241180000Y-91300000D01*
X251180000Y-89800000D02*
X251180000Y-91300000D01*
X252180000Y-89800000D02*
X252180000Y-91300000D01*
X253180000Y-89800000D02*
X253180000Y-91300000D01*
X254180000Y-89800000D02*
X254180000Y-91300000D01*
X255180000Y-86300000D02*
X255180000Y-91300000D01*
X250180000Y-88800000D02*
X250180000Y-91300000D01*
X249180000Y-89800000D02*
X249180000Y-91300000D01*
X248180000Y-89800000D02*
X248180000Y-91300000D01*
X247180000Y-89800000D02*
X247180000Y-91300000D01*
X246180000Y-89800000D02*
X246180000Y-91300000D01*
X226180000Y-89800000D02*
X226180000Y-91300000D01*
X227180000Y-89800000D02*
X227180000Y-91300000D01*
X228180000Y-89800000D02*
X228180000Y-91300000D01*
X229180000Y-89800000D02*
X229180000Y-91300000D01*
X230180000Y-88800000D02*
X230180000Y-91300000D01*
X235180000Y-86300000D02*
X235180000Y-91300000D01*
X234180000Y-89800000D02*
X234180000Y-91300000D01*
X233180000Y-89800000D02*
X233180000Y-91300000D01*
X232180000Y-89800000D02*
X232180000Y-91300000D01*
X231180000Y-89800000D02*
X231180000Y-91300000D01*
X221180000Y-89800000D02*
X221180000Y-91300000D01*
X222180000Y-89800000D02*
X222180000Y-91300000D01*
X223180000Y-89800000D02*
X223180000Y-91300000D01*
X224180000Y-89800000D02*
X224180000Y-91300000D01*
X225180000Y-86300000D02*
X225180000Y-91300000D01*
X220180000Y-88800000D02*
X220180000Y-91300000D01*
X219180000Y-89800000D02*
X219180000Y-91300000D01*
X218180000Y-89800000D02*
X218180000Y-91300000D01*
X217180000Y-89800000D02*
X217180000Y-91300000D01*
X216180000Y-89800000D02*
X216180000Y-91300000D01*
X296180000Y-89800000D02*
X296180000Y-91300000D01*
X297180000Y-89800000D02*
X297180000Y-91300000D01*
X298180000Y-89800000D02*
X298180000Y-91300000D01*
X299180000Y-89800000D02*
X299180000Y-91300000D01*
X300180000Y-88800000D02*
X300180000Y-91300000D01*
X305180000Y-86300000D02*
X305180000Y-91300000D01*
X304180000Y-89800000D02*
X304180000Y-91300000D01*
X303180000Y-89800000D02*
X303180000Y-91300000D01*
X302180000Y-89800000D02*
X302180000Y-91300000D01*
X301180000Y-89800000D02*
X301180000Y-91300000D01*
X311180000Y-89800000D02*
X311180000Y-91300000D01*
X312180000Y-89800000D02*
X312180000Y-91300000D01*
X313180000Y-89800000D02*
X313180000Y-91300000D01*
X314180000Y-89800000D02*
X314180000Y-91300000D01*
X315180000Y-86300000D02*
X315180000Y-91300000D01*
X310180000Y-88800000D02*
X310180000Y-91300000D01*
X309180000Y-89800000D02*
X309180000Y-91300000D01*
X308180000Y-89800000D02*
X308180000Y-91300000D01*
X307180000Y-89800000D02*
X307180000Y-91300000D01*
X306180000Y-89800000D02*
X306180000Y-91300000D01*
X320180000Y-88800000D02*
X320180000Y-91300000D01*
X319180000Y-89800000D02*
X319180000Y-91300000D01*
X318180000Y-89800000D02*
X318180000Y-91300000D01*
X317180000Y-89800000D02*
X317180000Y-91300000D01*
X316180000Y-89800000D02*
X316180000Y-91300000D01*
X276180000Y-89800000D02*
X276180000Y-91300000D01*
X277180000Y-89800000D02*
X277180000Y-91300000D01*
X278180000Y-89800000D02*
X278180000Y-91300000D01*
X279180000Y-89800000D02*
X279180000Y-91300000D01*
X280180000Y-88800000D02*
X280180000Y-91300000D01*
X285180000Y-86300000D02*
X285180000Y-91300000D01*
X284180000Y-89800000D02*
X284180000Y-91300000D01*
X283180000Y-89800000D02*
X283180000Y-91300000D01*
X282180000Y-89800000D02*
X282180000Y-91300000D01*
X281180000Y-89800000D02*
X281180000Y-91300000D01*
X291180000Y-89800000D02*
X291180000Y-91300000D01*
X292180000Y-89800000D02*
X292180000Y-91300000D01*
X293180000Y-89800000D02*
X293180000Y-91300000D01*
X294180000Y-89800000D02*
X294180000Y-91300000D01*
X295180000Y-86300000D02*
X295180000Y-91300000D01*
X290180000Y-88800000D02*
X290180000Y-91300000D01*
X289180000Y-89800000D02*
X289180000Y-91300000D01*
X288180000Y-89800000D02*
X288180000Y-91300000D01*
X287180000Y-89800000D02*
X287180000Y-91300000D01*
X286180000Y-89800000D02*
X286180000Y-91300000D01*
X266180000Y-89800000D02*
X266180000Y-91300000D01*
X267180000Y-89800000D02*
X267180000Y-91300000D01*
X268180000Y-89800000D02*
X268180000Y-91300000D01*
X269180000Y-89800000D02*
X269180000Y-91300000D01*
X270180000Y-88800000D02*
X270180000Y-91300000D01*
X275180000Y-86300000D02*
X275180000Y-91300000D01*
X274180000Y-89800000D02*
X274180000Y-91300000D01*
X273180000Y-89800000D02*
X273180000Y-91300000D01*
X272180000Y-89800000D02*
X272180000Y-91300000D01*
X271180000Y-89800000D02*
X271180000Y-91300000D01*
X261180000Y-89800000D02*
X261180000Y-91300000D01*
X262180000Y-89800000D02*
X262180000Y-91300000D01*
X263180000Y-89800000D02*
X263180000Y-91300000D01*
X264180000Y-89800000D02*
X264180000Y-91300000D01*
X265180000Y-86300000D02*
X265180000Y-91300000D01*
X260180000Y-88800000D02*
X260180000Y-91300000D01*
X259180000Y-89800000D02*
X259180000Y-91300000D01*
X258180000Y-89800000D02*
X258180000Y-91300000D01*
X257180000Y-89800000D02*
X257180000Y-91300000D01*
X256180000Y-89800000D02*
X256180000Y-91300000D01*
X96180000Y-89800000D02*
X96180000Y-91300000D01*
X97180000Y-89800000D02*
X97180000Y-91300000D01*
X98180000Y-89800000D02*
X98180000Y-91300000D01*
X99180000Y-89800000D02*
X99180000Y-91300000D01*
X100180000Y-88800000D02*
X100180000Y-91300000D01*
X105180000Y-86300000D02*
X105180000Y-91300000D01*
X104180000Y-89800000D02*
X104180000Y-91300000D01*
X103180000Y-89800000D02*
X103180000Y-91300000D01*
X102180000Y-89800000D02*
X102180000Y-91300000D01*
X101180000Y-89800000D02*
X101180000Y-91300000D01*
X111180000Y-89800000D02*
X111180000Y-91300000D01*
X112180000Y-89800000D02*
X112180000Y-91300000D01*
X113180000Y-89800000D02*
X113180000Y-91300000D01*
X114180000Y-89800000D02*
X114180000Y-91300000D01*
X115180000Y-86300000D02*
X115180000Y-91300000D01*
X110180000Y-88800000D02*
X110180000Y-91300000D01*
X109180000Y-89800000D02*
X109180000Y-91300000D01*
X108180000Y-89800000D02*
X108180000Y-91300000D01*
X107180000Y-89800000D02*
X107180000Y-91300000D01*
X106180000Y-89800000D02*
X106180000Y-91300000D01*
X126180000Y-89800000D02*
X126180000Y-91300000D01*
X127180000Y-89800000D02*
X127180000Y-91300000D01*
X128180000Y-89800000D02*
X128180000Y-91300000D01*
X129180000Y-89800000D02*
X129180000Y-91300000D01*
X130180000Y-88800000D02*
X130180000Y-91300000D01*
X135180000Y-86300000D02*
X135180000Y-91300000D01*
X134180000Y-89800000D02*
X134180000Y-91300000D01*
X133180000Y-89800000D02*
X133180000Y-91300000D01*
X132180000Y-89800000D02*
X132180000Y-91300000D01*
X131180000Y-89800000D02*
X131180000Y-91300000D01*
X121180000Y-89800000D02*
X121180000Y-91300000D01*
X122180000Y-89800000D02*
X122180000Y-91300000D01*
X123180000Y-89800000D02*
X123180000Y-91300000D01*
X124180000Y-89800000D02*
X124180000Y-91300000D01*
X125180000Y-86300000D02*
X125180000Y-91300000D01*
X120180000Y-88800000D02*
X120180000Y-91300000D01*
X119180000Y-89800000D02*
X119180000Y-91300000D01*
X118180000Y-89800000D02*
X118180000Y-91300000D01*
X117180000Y-89800000D02*
X117180000Y-91300000D01*
X116180000Y-89800000D02*
X116180000Y-91300000D01*
X156180000Y-89800000D02*
X156180000Y-91300000D01*
X157180000Y-89800000D02*
X157180000Y-91300000D01*
X158180000Y-89800000D02*
X158180000Y-91300000D01*
X159180000Y-89800000D02*
X159180000Y-91300000D01*
X160180000Y-88800000D02*
X160180000Y-91300000D01*
X165180000Y-86300000D02*
X165180000Y-91300000D01*
X164180000Y-89800000D02*
X164180000Y-91300000D01*
X163180000Y-89800000D02*
X163180000Y-91300000D01*
X162180000Y-89800000D02*
X162180000Y-91300000D01*
X161180000Y-89800000D02*
X161180000Y-91300000D01*
X171180000Y-89800000D02*
X171180000Y-91300000D01*
X172180000Y-89800000D02*
X172180000Y-91300000D01*
X173180000Y-89800000D02*
X173180000Y-91300000D01*
X174180000Y-89800000D02*
X174180000Y-91300000D01*
X175180000Y-86300000D02*
X175180000Y-91300000D01*
X170180000Y-88800000D02*
X170180000Y-91300000D01*
X169180000Y-89800000D02*
X169180000Y-91300000D01*
X168180000Y-89800000D02*
X168180000Y-91300000D01*
X167180000Y-89800000D02*
X167180000Y-91300000D01*
X166180000Y-89800000D02*
X166180000Y-91300000D01*
X146180000Y-89800000D02*
X146180000Y-91300000D01*
X147180000Y-89800000D02*
X147180000Y-91300000D01*
X148180000Y-89800000D02*
X148180000Y-91300000D01*
X149180000Y-89800000D02*
X149180000Y-91300000D01*
X150180000Y-88800000D02*
X150180000Y-91300000D01*
X155180000Y-86300000D02*
X155180000Y-91300000D01*
X154180000Y-89800000D02*
X154180000Y-91300000D01*
X153180000Y-89800000D02*
X153180000Y-91300000D01*
X152180000Y-89800000D02*
X152180000Y-91300000D01*
X151180000Y-89800000D02*
X151180000Y-91300000D01*
X141180000Y-89800000D02*
X141180000Y-91300000D01*
X142180000Y-89800000D02*
X142180000Y-91300000D01*
X143180000Y-89800000D02*
X143180000Y-91300000D01*
X144180000Y-89800000D02*
X144180000Y-91300000D01*
X145180000Y-86300000D02*
X145180000Y-91300000D01*
X140180000Y-88800000D02*
X140180000Y-91300000D01*
X139180000Y-89800000D02*
X139180000Y-91300000D01*
X138180000Y-89800000D02*
X138180000Y-91300000D01*
X137180000Y-89800000D02*
X137180000Y-91300000D01*
X136180000Y-89800000D02*
X136180000Y-91300000D01*
X56180000Y-89800000D02*
X56180000Y-91300000D01*
X57180000Y-89800000D02*
X57180000Y-91300000D01*
X58180000Y-89800000D02*
X58180000Y-91300000D01*
X59180000Y-89800000D02*
X59180000Y-91300000D01*
X60180000Y-88800000D02*
X60180000Y-91300000D01*
X65180000Y-86300000D02*
X65180000Y-91300000D01*
X64180000Y-89800000D02*
X64180000Y-91300000D01*
X63180000Y-89800000D02*
X63180000Y-91300000D01*
X62180000Y-89800000D02*
X62180000Y-91300000D01*
X61180000Y-89800000D02*
X61180000Y-91300000D01*
X71180000Y-89800000D02*
X71180000Y-91300000D01*
X72180000Y-89800000D02*
X72180000Y-91300000D01*
X73180000Y-89800000D02*
X73180000Y-91300000D01*
X74180000Y-89800000D02*
X74180000Y-91300000D01*
X75180000Y-86300000D02*
X75180000Y-91300000D01*
X70180000Y-88800000D02*
X70180000Y-91300000D01*
X69180000Y-89800000D02*
X69180000Y-91300000D01*
X68180000Y-89800000D02*
X68180000Y-91300000D01*
X67180000Y-89800000D02*
X67180000Y-91300000D01*
X66180000Y-89800000D02*
X66180000Y-91300000D01*
X86180000Y-89800000D02*
X86180000Y-91300000D01*
X87180000Y-89800000D02*
X87180000Y-91300000D01*
X88180000Y-89800000D02*
X88180000Y-91300000D01*
X89180000Y-89800000D02*
X89180000Y-91300000D01*
X90180000Y-88800000D02*
X90180000Y-91300000D01*
X95180000Y-86300000D02*
X95180000Y-91300000D01*
X94180000Y-89800000D02*
X94180000Y-91300000D01*
X93180000Y-89800000D02*
X93180000Y-91300000D01*
X92180000Y-89800000D02*
X92180000Y-91300000D01*
X91180000Y-89800000D02*
X91180000Y-91300000D01*
X81180000Y-89800000D02*
X81180000Y-91300000D01*
X82180000Y-89800000D02*
X82180000Y-91300000D01*
X83180000Y-89800000D02*
X83180000Y-91300000D01*
X84180000Y-89800000D02*
X84180000Y-91300000D01*
X85180000Y-86300000D02*
X85180000Y-91300000D01*
X80180000Y-88800000D02*
X80180000Y-91300000D01*
X79180000Y-89800000D02*
X79180000Y-91300000D01*
X78180000Y-89800000D02*
X78180000Y-91300000D01*
X77180000Y-89800000D02*
X77180000Y-91300000D01*
X76180000Y-89800000D02*
X76180000Y-91300000D01*
X36180000Y-89800000D02*
X36180000Y-91300000D01*
X37180000Y-89800000D02*
X37180000Y-91300000D01*
X38180000Y-89800000D02*
X38180000Y-91300000D01*
X39180000Y-89800000D02*
X39180000Y-91300000D01*
X40180000Y-88800000D02*
X40180000Y-91300000D01*
X45180000Y-86300000D02*
X45180000Y-91300000D01*
X44180000Y-89800000D02*
X44180000Y-91300000D01*
X43180000Y-89800000D02*
X43180000Y-91300000D01*
X42180000Y-89800000D02*
X42180000Y-91300000D01*
X41180000Y-89800000D02*
X41180000Y-91300000D01*
X51180000Y-89800000D02*
X51180000Y-91300000D01*
X52180000Y-89800000D02*
X52180000Y-91300000D01*
X53180000Y-89800000D02*
X53180000Y-91300000D01*
X54180000Y-89800000D02*
X54180000Y-91300000D01*
X55180000Y-86300000D02*
X55180000Y-91300000D01*
X50180000Y-88800000D02*
X50180000Y-91300000D01*
X49180000Y-89800000D02*
X49180000Y-91300000D01*
X48180000Y-89800000D02*
X48180000Y-91300000D01*
X47180000Y-89800000D02*
X47180000Y-91300000D01*
X46180000Y-89800000D02*
X46180000Y-91300000D01*
X26180000Y-89800000D02*
X26180000Y-91300000D01*
X27180000Y-89800000D02*
X27180000Y-91300000D01*
X28180000Y-89800000D02*
X28180000Y-91300000D01*
X29180000Y-89800000D02*
X29180000Y-91300000D01*
X30180000Y-88800000D02*
X30180000Y-91300000D01*
X35180000Y-86300000D02*
X35180000Y-91300000D01*
X34180000Y-89800000D02*
X34180000Y-91300000D01*
X33180000Y-89800000D02*
X33180000Y-91300000D01*
X32180000Y-89800000D02*
X32180000Y-91300000D01*
X31180000Y-89800000D02*
X31180000Y-91300000D01*
X21180000Y-89800000D02*
X21180000Y-91300000D01*
X22180000Y-89800000D02*
X22180000Y-91300000D01*
X23180000Y-89800000D02*
X23180000Y-91300000D01*
X24180000Y-89800000D02*
X24180000Y-91300000D01*
X25180000Y-86300000D02*
X25180000Y-91300000D01*
X20180000Y-88800000D02*
X20180000Y-91300000D01*
X19180000Y-89800000D02*
X19180000Y-91300000D01*
X18180000Y-89800000D02*
X18180000Y-91300000D01*
X17180000Y-89800000D02*
X17180000Y-91300000D01*
X16180000Y-89800000D02*
X16180000Y-91300000D01*
X15180000Y-86300000D02*
X15180000Y-91300000D01*
D14*
G36*
X88593898Y-54991000D02*
X88382946Y-54991024D01*
X88204872Y-54991183D01*
X88056267Y-54991612D01*
X87933724Y-54992443D01*
X87833834Y-54993810D01*
X87753190Y-54995847D01*
X87688383Y-54998686D01*
X87636005Y-55002461D01*
X87592648Y-55007306D01*
X87554905Y-55013354D01*
X87519366Y-55020737D01*
X87482625Y-55029591D01*
X87459669Y-55035389D01*
X87309796Y-55080587D01*
X87189994Y-55133572D01*
X87094354Y-55197423D01*
X87030658Y-55259091D01*
X87003099Y-55297931D01*
X86962441Y-55365566D01*
X86910811Y-55457858D01*
X86850339Y-55570665D01*
X86783152Y-55699847D01*
X86711379Y-55841266D01*
X86637148Y-55990780D01*
X86562588Y-56144250D01*
X86489827Y-56297536D01*
X86426980Y-56433358D01*
X86353140Y-56595265D01*
X86289499Y-56735072D01*
X86232795Y-56860020D01*
X86179771Y-56977348D01*
X86127166Y-57094297D01*
X86071720Y-57218106D01*
X86010175Y-57356017D01*
X85939270Y-57515269D01*
X85887895Y-57630786D01*
X85756855Y-57926060D01*
X85636549Y-58198259D01*
X85527417Y-58446366D01*
X85429896Y-58669363D01*
X85344423Y-58866234D01*
X85271438Y-59035959D01*
X85211379Y-59177522D01*
X85164683Y-59289904D01*
X85131788Y-59372090D01*
X85113133Y-59423060D01*
X85108750Y-59440530D01*
X85115854Y-59461745D01*
X85135842Y-59512494D01*
X85167151Y-59589023D01*
X85208214Y-59687582D01*
X85257466Y-59804419D01*
X85313343Y-59935782D01*
X85374278Y-60077919D01*
X85386925Y-60107286D01*
X85455470Y-60266146D01*
X85525385Y-60427832D01*
X85593982Y-60586149D01*
X85658572Y-60734906D01*
X85716467Y-60867909D01*
X85764979Y-60978966D01*
X85796489Y-61050715D01*
X85847730Y-61167019D01*
X85902080Y-61290542D01*
X85954517Y-61409856D01*
X86000017Y-61513533D01*
X86019811Y-61558715D01*
X86172238Y-61905286D01*
X86311870Y-62219271D01*
X86439239Y-62501832D01*
X86554872Y-62754134D01*
X86659300Y-62977340D01*
X86753052Y-63172614D01*
X86767390Y-63201943D01*
X86838384Y-63345232D01*
X86897454Y-63459686D01*
X86947724Y-63549490D01*
X86992320Y-63618828D01*
X87034366Y-63671883D01*
X87076988Y-63712840D01*
X87123310Y-63745881D01*
X87176457Y-63775192D01*
X87206366Y-63789661D01*
X87247031Y-63808375D01*
X87285342Y-63824342D01*
X87324440Y-63837779D01*
X87367466Y-63848906D01*
X87417561Y-63857939D01*
X87477866Y-63865097D01*
X87551522Y-63870597D01*
X87641671Y-63874658D01*
X87751452Y-63877497D01*
X87884007Y-63879333D01*
X88042478Y-63880382D01*
X88230004Y-63880864D01*
X88449727Y-63880996D01*
X88522812Y-63881000D01*
X88718373Y-63881000D01*
X88718373Y-63086722D01*
X88673209Y-63080724D01*
X88612665Y-63070117D01*
X88546676Y-63056891D01*
X88485178Y-63043042D01*
X88438107Y-63030562D01*
X88415399Y-63021443D01*
X88415293Y-63021341D01*
X88420039Y-63003645D01*
X88437396Y-62960796D01*
X88464215Y-62900325D01*
X88481123Y-62863848D01*
X88511460Y-62795981D01*
X88533375Y-62740441D01*
X88543833Y-62705273D01*
X88543766Y-62697752D01*
X88524191Y-62694399D01*
X88472581Y-62691329D01*
X88393182Y-62688639D01*
X88290244Y-62686423D01*
X88168016Y-62684780D01*
X88030746Y-62683806D01*
X87919215Y-62683572D01*
X87303429Y-62683572D01*
X87303429Y-62266286D01*
X87767898Y-62266286D01*
X87767898Y-61154161D01*
X87657945Y-61148109D01*
X87552546Y-61110043D01*
X87458103Y-61044187D01*
X87381017Y-60954767D01*
X87336221Y-60869286D01*
X87296066Y-60728984D01*
X87277423Y-60572157D01*
X87280773Y-60411854D01*
X87306601Y-60261120D01*
X87312878Y-60238674D01*
X87366902Y-60109957D01*
X87443639Y-60005622D01*
X87539826Y-59928361D01*
X87652201Y-59880863D01*
X87765233Y-59865778D01*
X87889601Y-59879311D01*
X87994351Y-59923052D01*
X88081272Y-59997912D01*
X88116772Y-60044546D01*
X88150891Y-60093204D01*
X88177704Y-60127568D01*
X88189343Y-60138793D01*
X88205817Y-60127853D01*
X88232083Y-60095310D01*
X88240989Y-60082115D01*
X88285367Y-60033891D01*
X88350049Y-59987679D01*
X88376087Y-59973501D01*
X88487705Y-59935126D01*
X88595186Y-59930600D01*
X88695254Y-59957495D01*
X88784634Y-60013384D01*
X88860051Y-60095841D01*
X88918230Y-60202439D01*
X88936286Y-60263948D01*
X88936286Y-59055000D01*
X88572091Y-59055000D01*
X88573456Y-58696679D01*
X88573841Y-58585942D01*
X88574114Y-58487616D01*
X88574264Y-58407469D01*
X88574281Y-58351267D01*
X88574155Y-58324775D01*
X88574125Y-58323764D01*
X88559355Y-58324556D01*
X88521047Y-58340185D01*
X88467100Y-58367366D01*
X88460036Y-58371201D01*
X88414523Y-58395645D01*
X88342076Y-58433994D01*
X88247986Y-58483473D01*
X88137543Y-58541308D01*
X88016039Y-58604724D01*
X87888764Y-58670946D01*
X87865857Y-58682842D01*
X87742618Y-58746965D01*
X87628271Y-58806728D01*
X87527230Y-58859803D01*
X87443913Y-58903861D01*
X87382735Y-58936572D01*
X87348112Y-58955609D01*
X87343718Y-58958208D01*
X87302365Y-58983963D01*
X87307433Y-58746163D01*
X87309764Y-58649282D01*
X87312723Y-58582240D01*
X87317539Y-58538596D01*
X87325443Y-58511909D01*
X87337666Y-58495737D01*
X87355439Y-58483639D01*
X87357857Y-58482239D01*
X87388452Y-58466220D01*
X87450568Y-58435176D01*
X87542975Y-58389706D01*
X87570911Y-58376069D01*
X87570911Y-57004858D01*
X87303429Y-57004858D01*
X87303429Y-55789286D01*
X87666286Y-55789286D01*
X87666859Y-56084108D01*
X87667433Y-56378929D01*
X87713238Y-56324501D01*
X87812895Y-56207690D01*
X87895295Y-56115413D01*
X87965137Y-56043307D01*
X88027116Y-55987012D01*
X88085929Y-55942170D01*
X88146272Y-55904419D01*
X88192429Y-55879627D01*
X88276294Y-55849898D01*
X88379729Y-55832053D01*
X88487573Y-55827469D01*
X88584664Y-55837525D01*
X88604416Y-55842198D01*
X88713989Y-55889737D01*
X88806499Y-55965995D01*
X88880148Y-56066775D01*
X88933140Y-56187879D01*
X88963680Y-56325110D01*
X88969971Y-56474268D01*
X88950216Y-56631158D01*
X88947464Y-56643886D01*
X88924815Y-56729562D01*
X88896400Y-56814119D01*
X88865703Y-56889082D01*
X88836206Y-56945975D01*
X88811394Y-56976321D01*
X88810635Y-56976809D01*
X88786635Y-56976000D01*
X88739308Y-56964804D01*
X88678894Y-56946613D01*
X88615634Y-56924819D01*
X88559769Y-56902812D01*
X88521540Y-56883985D01*
X88513983Y-56878564D01*
X88514075Y-56857072D01*
X88529594Y-56815614D01*
X88545647Y-56784148D01*
X88591730Y-56678936D01*
X88614439Y-56574890D01*
X88614775Y-56477511D01*
X88593737Y-56392304D01*
X88552328Y-56324771D01*
X88491547Y-56280415D01*
X88451816Y-56268184D01*
X88386620Y-56265542D01*
X88316788Y-56282690D01*
X88239899Y-56321395D01*
X88153538Y-56383422D01*
X88055286Y-56470540D01*
X87942725Y-56584515D01*
X87813436Y-56727114D01*
X87795021Y-56748136D01*
X87570911Y-57004858D01*
X87570911Y-58376069D01*
X87664445Y-58330407D01*
X87813749Y-58257878D01*
X87989656Y-58172717D01*
X88190939Y-58075522D01*
X88416367Y-57966891D01*
X88477640Y-57937397D01*
X88565945Y-57895694D01*
X88631226Y-57867808D01*
X88682747Y-57850996D01*
X88729770Y-57842518D01*
X88781559Y-57839633D01*
X88808747Y-57839429D01*
X88936286Y-57839429D01*
X88936286Y-59055000D01*
X88936286Y-60263948D01*
X88955896Y-60330751D01*
X88966812Y-60411236D01*
X88967263Y-60566664D01*
X88943211Y-60709119D01*
X88896979Y-60835094D01*
X88830890Y-60941083D01*
X88747267Y-61023580D01*
X88648430Y-61079078D01*
X88536705Y-61104072D01*
X88507168Y-61105143D01*
X88398050Y-61087665D01*
X88294784Y-61037784D01*
X88205176Y-60959329D01*
X88201660Y-60955270D01*
X88165748Y-60915651D01*
X88140387Y-60892038D01*
X88132831Y-60888829D01*
X88057662Y-60988941D01*
X87990704Y-61060693D01*
X87925384Y-61108864D01*
X87855131Y-61138232D01*
X87773372Y-61153576D01*
X87767898Y-61154161D01*
X87767898Y-62266286D01*
X88936286Y-62266286D01*
X88936286Y-62456715D01*
X88935865Y-62535778D01*
X88933027Y-62595393D01*
X88925409Y-62645733D01*
X88910649Y-62696974D01*
X88886384Y-62759288D01*
X88850251Y-62842850D01*
X88842541Y-62860394D01*
X88806436Y-62941667D01*
X88775057Y-63010699D01*
X88751511Y-63060774D01*
X88738902Y-63085171D01*
X88738219Y-63086116D01*
X88718373Y-63086722D01*
X88718373Y-63881000D01*
X89553143Y-63881000D01*
X89553143Y-54991000D01*
X88593898Y-54991000D01*
X88593898Y-54991000D01*
G37*
X88593898Y-54991000D02*
X88382946Y-54991024D01*
X88204872Y-54991183D01*
X88056267Y-54991612D01*
X87933724Y-54992443D01*
X87833834Y-54993810D01*
X87753190Y-54995847D01*
X87688383Y-54998686D01*
X87636005Y-55002461D01*
X87592648Y-55007306D01*
X87554905Y-55013354D01*
X87519366Y-55020737D01*
X87482625Y-55029591D01*
X87459669Y-55035389D01*
X87309796Y-55080587D01*
X87189994Y-55133572D01*
X87094354Y-55197423D01*
X87030658Y-55259091D01*
X87003099Y-55297931D01*
X86962441Y-55365566D01*
X86910811Y-55457858D01*
X86850339Y-55570665D01*
X86783152Y-55699847D01*
X86711379Y-55841266D01*
X86637148Y-55990780D01*
X86562588Y-56144250D01*
X86489827Y-56297536D01*
X86426980Y-56433358D01*
X86353140Y-56595265D01*
X86289499Y-56735072D01*
X86232795Y-56860020D01*
X86179771Y-56977348D01*
X86127166Y-57094297D01*
X86071720Y-57218106D01*
X86010175Y-57356017D01*
X85939270Y-57515269D01*
X85887895Y-57630786D01*
X85756855Y-57926060D01*
X85636549Y-58198259D01*
X85527417Y-58446366D01*
X85429896Y-58669363D01*
X85344423Y-58866234D01*
X85271438Y-59035959D01*
X85211379Y-59177522D01*
X85164683Y-59289904D01*
X85131788Y-59372090D01*
X85113133Y-59423060D01*
X85108750Y-59440530D01*
X85115854Y-59461745D01*
X85135842Y-59512494D01*
X85167151Y-59589023D01*
X85208214Y-59687582D01*
X85257466Y-59804419D01*
X85313343Y-59935782D01*
X85374278Y-60077919D01*
X85386925Y-60107286D01*
X85455470Y-60266146D01*
X85525385Y-60427832D01*
X85593982Y-60586149D01*
X85658572Y-60734906D01*
X85716467Y-60867909D01*
X85764979Y-60978966D01*
X85796489Y-61050715D01*
X85847730Y-61167019D01*
X85902080Y-61290542D01*
X85954517Y-61409856D01*
X86000017Y-61513533D01*
X86019811Y-61558715D01*
X86172238Y-61905286D01*
X86311870Y-62219271D01*
X86439239Y-62501832D01*
X86554872Y-62754134D01*
X86659300Y-62977340D01*
X86753052Y-63172614D01*
X86767390Y-63201943D01*
X86838384Y-63345232D01*
X86897454Y-63459686D01*
X86947724Y-63549490D01*
X86992320Y-63618828D01*
X87034366Y-63671883D01*
X87076988Y-63712840D01*
X87123310Y-63745881D01*
X87176457Y-63775192D01*
X87206366Y-63789661D01*
X87247031Y-63808375D01*
X87285342Y-63824342D01*
X87324440Y-63837779D01*
X87367466Y-63848906D01*
X87417561Y-63857939D01*
X87477866Y-63865097D01*
X87551522Y-63870597D01*
X87641671Y-63874658D01*
X87751452Y-63877497D01*
X87884007Y-63879333D01*
X88042478Y-63880382D01*
X88230004Y-63880864D01*
X88449727Y-63880996D01*
X88522812Y-63881000D01*
X88718373Y-63881000D01*
X88718373Y-63086722D01*
X88673209Y-63080724D01*
X88612665Y-63070117D01*
X88546676Y-63056891D01*
X88485178Y-63043042D01*
X88438107Y-63030562D01*
X88415399Y-63021443D01*
X88415293Y-63021341D01*
X88420039Y-63003645D01*
X88437396Y-62960796D01*
X88464215Y-62900325D01*
X88481123Y-62863848D01*
X88511460Y-62795981D01*
X88533375Y-62740441D01*
X88543833Y-62705273D01*
X88543766Y-62697752D01*
X88524191Y-62694399D01*
X88472581Y-62691329D01*
X88393182Y-62688639D01*
X88290244Y-62686423D01*
X88168016Y-62684780D01*
X88030746Y-62683806D01*
X87919215Y-62683572D01*
X87303429Y-62683572D01*
X87303429Y-62266286D01*
X87767898Y-62266286D01*
X87767898Y-61154161D01*
X87657945Y-61148109D01*
X87552546Y-61110043D01*
X87458103Y-61044187D01*
X87381017Y-60954767D01*
X87336221Y-60869286D01*
X87296066Y-60728984D01*
X87277423Y-60572157D01*
X87280773Y-60411854D01*
X87306601Y-60261120D01*
X87312878Y-60238674D01*
X87366902Y-60109957D01*
X87443639Y-60005622D01*
X87539826Y-59928361D01*
X87652201Y-59880863D01*
X87765233Y-59865778D01*
X87889601Y-59879311D01*
X87994351Y-59923052D01*
X88081272Y-59997912D01*
X88116772Y-60044546D01*
X88150891Y-60093204D01*
X88177704Y-60127568D01*
X88189343Y-60138793D01*
X88205817Y-60127853D01*
X88232083Y-60095310D01*
X88240989Y-60082115D01*
X88285367Y-60033891D01*
X88350049Y-59987679D01*
X88376087Y-59973501D01*
X88487705Y-59935126D01*
X88595186Y-59930600D01*
X88695254Y-59957495D01*
X88784634Y-60013384D01*
X88860051Y-60095841D01*
X88918230Y-60202439D01*
X88936286Y-60263948D01*
X88936286Y-59055000D01*
X88572091Y-59055000D01*
X88573456Y-58696679D01*
X88573841Y-58585942D01*
X88574114Y-58487616D01*
X88574264Y-58407469D01*
X88574281Y-58351267D01*
X88574155Y-58324775D01*
X88574125Y-58323764D01*
X88559355Y-58324556D01*
X88521047Y-58340185D01*
X88467100Y-58367366D01*
X88460036Y-58371201D01*
X88414523Y-58395645D01*
X88342076Y-58433994D01*
X88247986Y-58483473D01*
X88137543Y-58541308D01*
X88016039Y-58604724D01*
X87888764Y-58670946D01*
X87865857Y-58682842D01*
X87742618Y-58746965D01*
X87628271Y-58806728D01*
X87527230Y-58859803D01*
X87443913Y-58903861D01*
X87382735Y-58936572D01*
X87348112Y-58955609D01*
X87343718Y-58958208D01*
X87302365Y-58983963D01*
X87307433Y-58746163D01*
X87309764Y-58649282D01*
X87312723Y-58582240D01*
X87317539Y-58538596D01*
X87325443Y-58511909D01*
X87337666Y-58495737D01*
X87355439Y-58483639D01*
X87357857Y-58482239D01*
X87388452Y-58466220D01*
X87450568Y-58435176D01*
X87542975Y-58389706D01*
X87570911Y-58376069D01*
X87570911Y-57004858D01*
X87303429Y-57004858D01*
X87303429Y-55789286D01*
X87666286Y-55789286D01*
X87666859Y-56084108D01*
X87667433Y-56378929D01*
X87713238Y-56324501D01*
X87812895Y-56207690D01*
X87895295Y-56115413D01*
X87965137Y-56043307D01*
X88027116Y-55987012D01*
X88085929Y-55942170D01*
X88146272Y-55904419D01*
X88192429Y-55879627D01*
X88276294Y-55849898D01*
X88379729Y-55832053D01*
X88487573Y-55827469D01*
X88584664Y-55837525D01*
X88604416Y-55842198D01*
X88713989Y-55889737D01*
X88806499Y-55965995D01*
X88880148Y-56066775D01*
X88933140Y-56187879D01*
X88963680Y-56325110D01*
X88969971Y-56474268D01*
X88950216Y-56631158D01*
X88947464Y-56643886D01*
X88924815Y-56729562D01*
X88896400Y-56814119D01*
X88865703Y-56889082D01*
X88836206Y-56945975D01*
X88811394Y-56976321D01*
X88810635Y-56976809D01*
X88786635Y-56976000D01*
X88739308Y-56964804D01*
X88678894Y-56946613D01*
X88615634Y-56924819D01*
X88559769Y-56902812D01*
X88521540Y-56883985D01*
X88513983Y-56878564D01*
X88514075Y-56857072D01*
X88529594Y-56815614D01*
X88545647Y-56784148D01*
X88591730Y-56678936D01*
X88614439Y-56574890D01*
X88614775Y-56477511D01*
X88593737Y-56392304D01*
X88552328Y-56324771D01*
X88491547Y-56280415D01*
X88451816Y-56268184D01*
X88386620Y-56265542D01*
X88316788Y-56282690D01*
X88239899Y-56321395D01*
X88153538Y-56383422D01*
X88055286Y-56470540D01*
X87942725Y-56584515D01*
X87813436Y-56727114D01*
X87795021Y-56748136D01*
X87570911Y-57004858D01*
X87570911Y-58376069D01*
X87664445Y-58330407D01*
X87813749Y-58257878D01*
X87989656Y-58172717D01*
X88190939Y-58075522D01*
X88416367Y-57966891D01*
X88477640Y-57937397D01*
X88565945Y-57895694D01*
X88631226Y-57867808D01*
X88682747Y-57850996D01*
X88729770Y-57842518D01*
X88781559Y-57839633D01*
X88808747Y-57839429D01*
X88936286Y-57839429D01*
X88936286Y-59055000D01*
X88936286Y-60263948D01*
X88955896Y-60330751D01*
X88966812Y-60411236D01*
X88967263Y-60566664D01*
X88943211Y-60709119D01*
X88896979Y-60835094D01*
X88830890Y-60941083D01*
X88747267Y-61023580D01*
X88648430Y-61079078D01*
X88536705Y-61104072D01*
X88507168Y-61105143D01*
X88398050Y-61087665D01*
X88294784Y-61037784D01*
X88205176Y-60959329D01*
X88201660Y-60955270D01*
X88165748Y-60915651D01*
X88140387Y-60892038D01*
X88132831Y-60888829D01*
X88057662Y-60988941D01*
X87990704Y-61060693D01*
X87925384Y-61108864D01*
X87855131Y-61138232D01*
X87773372Y-61153576D01*
X87767898Y-61154161D01*
X87767898Y-62266286D01*
X88936286Y-62266286D01*
X88936286Y-62456715D01*
X88935865Y-62535778D01*
X88933027Y-62595393D01*
X88925409Y-62645733D01*
X88910649Y-62696974D01*
X88886384Y-62759288D01*
X88850251Y-62842850D01*
X88842541Y-62860394D01*
X88806436Y-62941667D01*
X88775057Y-63010699D01*
X88751511Y-63060774D01*
X88738902Y-63085171D01*
X88738219Y-63086116D01*
X88718373Y-63086722D01*
X88718373Y-63881000D01*
X89553143Y-63881000D01*
X89553143Y-54991000D01*
X88593898Y-54991000D01*
G36*
X93045385Y-54991000D02*
X89861055Y-54991001D01*
X89870643Y-56124929D01*
X95939429Y-56134107D01*
X95939429Y-57349572D01*
X89861422Y-57349572D01*
X89866033Y-59485893D01*
X89870643Y-61622215D01*
X90006715Y-61622420D01*
X90006715Y-61395429D01*
X90006715Y-60742174D01*
X95485857Y-60750992D01*
X95485857Y-60542715D01*
X90424000Y-60542715D01*
X90424000Y-60216143D01*
X90424000Y-58728429D01*
X90424000Y-58383588D01*
X95476786Y-58392786D01*
X95482002Y-58560608D01*
X95487219Y-58728429D01*
X90424000Y-58728429D01*
X90424000Y-60216143D01*
X95231857Y-60216143D01*
X95231857Y-60052858D01*
X90605429Y-60052858D01*
X90605429Y-59907715D01*
X90623572Y-59907715D01*
X90623572Y-59055000D01*
X90623572Y-58982429D01*
X90626621Y-58934936D01*
X90638940Y-58913928D01*
X90659857Y-58909786D01*
X90682243Y-58909776D01*
X90738698Y-58909763D01*
X90827005Y-58909748D01*
X90944947Y-58909731D01*
X91090307Y-58909712D01*
X91260870Y-58909691D01*
X91454416Y-58909669D01*
X91668731Y-58909646D01*
X91901597Y-58909622D01*
X92150797Y-58909598D01*
X92414115Y-58909574D01*
X92689333Y-58909549D01*
X92968536Y-58909525D01*
X95240929Y-58909335D01*
X95246810Y-58966658D01*
X95243858Y-59013889D01*
X95228668Y-59039213D01*
X95207850Y-59041113D01*
X95152939Y-59042949D01*
X95066127Y-59044707D01*
X94949605Y-59046371D01*
X94805566Y-59047927D01*
X94636201Y-59049360D01*
X94443704Y-59050656D01*
X94230265Y-59051800D01*
X93998078Y-59052776D01*
X93749334Y-59053572D01*
X93486225Y-59054171D01*
X93210943Y-59054559D01*
X92925681Y-59054721D01*
X92914107Y-59054723D01*
X90623572Y-59055000D01*
X90623572Y-59907715D01*
X90714286Y-59907715D01*
X90714286Y-59655182D01*
X90714286Y-59307533D01*
X90863964Y-59312802D01*
X91013643Y-59318072D01*
X91013643Y-59644643D01*
X90863964Y-59649913D01*
X90714286Y-59655182D01*
X90714286Y-59907715D01*
X95231857Y-59907715D01*
X95231857Y-60052858D01*
X95231857Y-60216143D01*
X95485857Y-60216143D01*
X95485857Y-60542715D01*
X95485857Y-60750992D01*
X95712643Y-60751358D01*
X95717597Y-61073393D01*
X95721715Y-61341030D01*
X95721715Y-58202286D01*
X90006715Y-58202286D01*
X90006715Y-57567286D01*
X95721715Y-57567286D01*
X95721715Y-58202286D01*
X95721715Y-61341030D01*
X95722552Y-61395429D01*
X90006715Y-61395429D01*
X90006715Y-61622420D01*
X92905036Y-61626804D01*
X95939429Y-61631392D01*
X95939429Y-62846858D01*
X89861572Y-62846858D01*
X89861572Y-63881000D01*
X96229714Y-63881000D01*
X96229714Y-54991000D01*
X93045385Y-54991000D01*
X93045385Y-54991000D01*
G37*
X93045385Y-54991000D02*
X89861055Y-54991001D01*
X89870643Y-56124929D01*
X95939429Y-56134107D01*
X95939429Y-57349572D01*
X89861422Y-57349572D01*
X89866033Y-59485893D01*
X89870643Y-61622215D01*
X90006715Y-61622420D01*
X90006715Y-61395429D01*
X90006715Y-60742174D01*
X95485857Y-60750992D01*
X95485857Y-60542715D01*
X90424000Y-60542715D01*
X90424000Y-60216143D01*
X90424000Y-58728429D01*
X90424000Y-58383588D01*
X95476786Y-58392786D01*
X95482002Y-58560608D01*
X95487219Y-58728429D01*
X90424000Y-58728429D01*
X90424000Y-60216143D01*
X95231857Y-60216143D01*
X95231857Y-60052858D01*
X90605429Y-60052858D01*
X90605429Y-59907715D01*
X90623572Y-59907715D01*
X90623572Y-59055000D01*
X90623572Y-58982429D01*
X90626621Y-58934936D01*
X90638940Y-58913928D01*
X90659857Y-58909786D01*
X90682243Y-58909776D01*
X90738698Y-58909763D01*
X90827005Y-58909748D01*
X90944947Y-58909731D01*
X91090307Y-58909712D01*
X91260870Y-58909691D01*
X91454416Y-58909669D01*
X91668731Y-58909646D01*
X91901597Y-58909622D01*
X92150797Y-58909598D01*
X92414115Y-58909574D01*
X92689333Y-58909549D01*
X92968536Y-58909525D01*
X95240929Y-58909335D01*
X95246810Y-58966658D01*
X95243858Y-59013889D01*
X95228668Y-59039213D01*
X95207850Y-59041113D01*
X95152939Y-59042949D01*
X95066127Y-59044707D01*
X94949605Y-59046371D01*
X94805566Y-59047927D01*
X94636201Y-59049360D01*
X94443704Y-59050656D01*
X94230265Y-59051800D01*
X93998078Y-59052776D01*
X93749334Y-59053572D01*
X93486225Y-59054171D01*
X93210943Y-59054559D01*
X92925681Y-59054721D01*
X92914107Y-59054723D01*
X90623572Y-59055000D01*
X90623572Y-59907715D01*
X90714286Y-59907715D01*
X90714286Y-59655182D01*
X90714286Y-59307533D01*
X90863964Y-59312802D01*
X91013643Y-59318072D01*
X91013643Y-59644643D01*
X90863964Y-59649913D01*
X90714286Y-59655182D01*
X90714286Y-59907715D01*
X95231857Y-59907715D01*
X95231857Y-60052858D01*
X95231857Y-60216143D01*
X95485857Y-60216143D01*
X95485857Y-60542715D01*
X95485857Y-60750992D01*
X95712643Y-60751358D01*
X95717597Y-61073393D01*
X95721715Y-61341030D01*
X95721715Y-58202286D01*
X90006715Y-58202286D01*
X90006715Y-57567286D01*
X95721715Y-57567286D01*
X95721715Y-58202286D01*
X95721715Y-61341030D01*
X95722552Y-61395429D01*
X90006715Y-61395429D01*
X90006715Y-61622420D01*
X92905036Y-61626804D01*
X95939429Y-61631392D01*
X95939429Y-62846858D01*
X89861572Y-62846858D01*
X89861572Y-63881000D01*
X96229714Y-63881000D01*
X96229714Y-54991000D01*
X93045385Y-54991000D01*
G36*
X87988748Y-60480019D02*
X87977040Y-60456559D01*
X87917700Y-60372721D01*
X87842110Y-60320440D01*
X87752072Y-60300920D01*
X87744254Y-60300810D01*
X87665277Y-60316673D01*
X87603463Y-60359747D01*
X87563259Y-60423259D01*
X87549108Y-60500437D01*
X87562785Y-60577301D01*
X87604344Y-60647449D01*
X87665883Y-60694140D01*
X87739482Y-60717113D01*
X87817216Y-60716108D01*
X87891165Y-60690863D01*
X87953406Y-60641118D01*
X87985935Y-60591227D01*
X88002480Y-60551103D01*
X88003781Y-60519542D01*
X87988748Y-60480019D01*
X87988748Y-60480019D01*
G37*
X87988748Y-60480019D02*
X87977040Y-60456559D01*
X87917700Y-60372721D01*
X87842110Y-60320440D01*
X87752072Y-60300920D01*
X87744254Y-60300810D01*
X87665277Y-60316673D01*
X87603463Y-60359747D01*
X87563259Y-60423259D01*
X87549108Y-60500437D01*
X87562785Y-60577301D01*
X87604344Y-60647449D01*
X87665883Y-60694140D01*
X87739482Y-60717113D01*
X87817216Y-60716108D01*
X87891165Y-60690863D01*
X87953406Y-60641118D01*
X87985935Y-60591227D01*
X88002480Y-60551103D01*
X88003781Y-60519542D01*
X87988748Y-60480019D01*
G36*
X88690285Y-60453559D02*
X88656522Y-60393339D01*
X88604186Y-60349621D01*
X88539110Y-60326603D01*
X88467127Y-60328481D01*
X88394071Y-60359452D01*
X88365417Y-60381309D01*
X88320651Y-60427570D01*
X88304599Y-60469737D01*
X88314226Y-60521281D01*
X88326806Y-60552686D01*
X88362752Y-60609210D01*
X88413981Y-60659663D01*
X88469408Y-60694883D01*
X88512222Y-60706001D01*
X88580957Y-60691639D01*
X88641880Y-60654312D01*
X88678754Y-60606722D01*
X88699639Y-60526085D01*
X88690285Y-60453559D01*
X88690285Y-60453559D01*
G37*
X88690285Y-60453559D02*
X88656522Y-60393339D01*
X88604186Y-60349621D01*
X88539110Y-60326603D01*
X88467127Y-60328481D01*
X88394071Y-60359452D01*
X88365417Y-60381309D01*
X88320651Y-60427570D01*
X88304599Y-60469737D01*
X88314226Y-60521281D01*
X88326806Y-60552686D01*
X88362752Y-60609210D01*
X88413981Y-60659663D01*
X88469408Y-60694883D01*
X88512222Y-60706001D01*
X88580957Y-60691639D01*
X88641880Y-60654312D01*
X88678754Y-60606722D01*
X88699639Y-60526085D01*
X88690285Y-60453559D01*
G36*
X291495321Y-69502319D02*
X291188457Y-69493883D01*
X290948391Y-69505907D01*
X290757306Y-69554304D01*
X290597379Y-69654986D01*
X290450793Y-69823867D01*
X290299726Y-70076859D01*
X290126358Y-70429875D01*
X289912871Y-70898826D01*
X289900409Y-70926524D01*
X289724685Y-71322607D01*
X289572323Y-71676506D01*
X289452615Y-71965765D01*
X289374857Y-72167929D01*
X289348335Y-72260437D01*
X289380536Y-72375114D01*
X289456735Y-72569464D01*
X289521693Y-72716572D01*
X289617619Y-72926621D01*
X289754286Y-73228482D01*
X289913297Y-73581415D01*
X290072513Y-73936324D01*
X290227303Y-74265354D01*
X290374167Y-74547544D01*
X290497600Y-74755031D01*
X290582098Y-74859950D01*
X290588893Y-74864329D01*
X290718407Y-74893908D01*
X290951477Y-74912443D01*
X291246758Y-74917314D01*
X291381894Y-74914577D01*
X291477656Y-74911551D01*
X291477656Y-74422000D01*
X291411868Y-74371665D01*
X291420614Y-74313143D01*
X291419228Y-74250037D01*
X291335189Y-74216628D01*
X291141521Y-74204824D01*
X291057756Y-74204286D01*
X290825829Y-74197398D01*
X290711645Y-74171340D01*
X290688230Y-74118019D01*
X290694899Y-74095429D01*
X290762980Y-74031222D01*
X290922538Y-73996817D01*
X291006763Y-73993705D01*
X291006763Y-73256289D01*
X290854013Y-73237454D01*
X290731399Y-73141127D01*
X290726956Y-73133858D01*
X290654645Y-72896509D01*
X290726017Y-72678069D01*
X290739286Y-72659540D01*
X290873928Y-72587286D01*
X291118521Y-72558597D01*
X291443943Y-72575509D01*
X291562636Y-72592090D01*
X291562636Y-71983318D01*
X291555715Y-71980816D01*
X291471126Y-71883689D01*
X291446857Y-71765379D01*
X291440561Y-71647535D01*
X291400803Y-71604147D01*
X291296279Y-71632755D01*
X291095684Y-71730898D01*
X291084000Y-71736858D01*
X290878477Y-71837797D01*
X290769995Y-71873072D01*
X290727819Y-71845859D01*
X290721143Y-71774366D01*
X290781198Y-71684628D01*
X290784957Y-71681774D01*
X290784957Y-70720858D01*
X290737455Y-70658389D01*
X290700558Y-70511393D01*
X290685130Y-70340485D01*
X290696105Y-70225065D01*
X290719766Y-70088836D01*
X290721143Y-70061779D01*
X290776544Y-69997040D01*
X290793714Y-69995143D01*
X290846933Y-70057614D01*
X290866286Y-70189222D01*
X290866286Y-70383301D01*
X291040156Y-70219958D01*
X291266499Y-70089618D01*
X291421156Y-70080308D01*
X291555769Y-70110711D01*
X291614591Y-70190455D01*
X291628229Y-70365043D01*
X291628286Y-70388238D01*
X291604391Y-70595291D01*
X291540280Y-70700977D01*
X291531651Y-70704688D01*
X291456698Y-70679115D01*
X291449294Y-70601879D01*
X291447420Y-70379684D01*
X291381225Y-70287541D01*
X291250957Y-70325509D01*
X291056860Y-70493649D01*
X291047714Y-70503143D01*
X290905656Y-70638983D01*
X290803022Y-70715008D01*
X290784957Y-70720858D01*
X290784957Y-71681774D01*
X290935917Y-71567133D01*
X291081588Y-71484080D01*
X291354824Y-71354704D01*
X291526732Y-71307277D01*
X291620286Y-71348809D01*
X291658461Y-71486314D01*
X291664572Y-71662008D01*
X291656356Y-71877198D01*
X291625489Y-71975190D01*
X291562636Y-71983318D01*
X291562636Y-72592090D01*
X291610143Y-72598727D01*
X291646764Y-72668948D01*
X291664310Y-72828753D01*
X291664572Y-72852829D01*
X291625424Y-73085391D01*
X291518723Y-73211359D01*
X291360583Y-73215235D01*
X291310758Y-73193126D01*
X291167300Y-73155151D01*
X291120407Y-73188090D01*
X291006763Y-73256289D01*
X291006763Y-73993705D01*
X291199782Y-73986572D01*
X291200622Y-73986572D01*
X291466785Y-73994927D01*
X291613000Y-74023604D01*
X291663693Y-74078023D01*
X291664572Y-74089493D01*
X291628353Y-74284130D01*
X291537025Y-74404291D01*
X291477656Y-74422000D01*
X291477656Y-74911551D01*
X292042026Y-74893715D01*
X292042246Y-69523429D01*
X291495321Y-69502319D01*
X291495321Y-69502319D01*
G37*
X291495321Y-69502319D02*
X291188457Y-69493883D01*
X290948391Y-69505907D01*
X290757306Y-69554304D01*
X290597379Y-69654986D01*
X290450793Y-69823867D01*
X290299726Y-70076859D01*
X290126358Y-70429875D01*
X289912871Y-70898826D01*
X289900409Y-70926524D01*
X289724685Y-71322607D01*
X289572323Y-71676506D01*
X289452615Y-71965765D01*
X289374857Y-72167929D01*
X289348335Y-72260437D01*
X289380536Y-72375114D01*
X289456735Y-72569464D01*
X289521693Y-72716572D01*
X289617619Y-72926621D01*
X289754286Y-73228482D01*
X289913297Y-73581415D01*
X290072513Y-73936324D01*
X290227303Y-74265354D01*
X290374167Y-74547544D01*
X290497600Y-74755031D01*
X290582098Y-74859950D01*
X290588893Y-74864329D01*
X290718407Y-74893908D01*
X290951477Y-74912443D01*
X291246758Y-74917314D01*
X291381894Y-74914577D01*
X291477656Y-74911551D01*
X291477656Y-74422000D01*
X291411868Y-74371665D01*
X291420614Y-74313143D01*
X291419228Y-74250037D01*
X291335189Y-74216628D01*
X291141521Y-74204824D01*
X291057756Y-74204286D01*
X290825829Y-74197398D01*
X290711645Y-74171340D01*
X290688230Y-74118019D01*
X290694899Y-74095429D01*
X290762980Y-74031222D01*
X290922538Y-73996817D01*
X291006763Y-73993705D01*
X291006763Y-73256289D01*
X290854013Y-73237454D01*
X290731399Y-73141127D01*
X290726956Y-73133858D01*
X290654645Y-72896509D01*
X290726017Y-72678069D01*
X290739286Y-72659540D01*
X290873928Y-72587286D01*
X291118521Y-72558597D01*
X291443943Y-72575509D01*
X291562636Y-72592090D01*
X291562636Y-71983318D01*
X291555715Y-71980816D01*
X291471126Y-71883689D01*
X291446857Y-71765379D01*
X291440561Y-71647535D01*
X291400803Y-71604147D01*
X291296279Y-71632755D01*
X291095684Y-71730898D01*
X291084000Y-71736858D01*
X290878477Y-71837797D01*
X290769995Y-71873072D01*
X290727819Y-71845859D01*
X290721143Y-71774366D01*
X290781198Y-71684628D01*
X290784957Y-71681774D01*
X290784957Y-70720858D01*
X290737455Y-70658389D01*
X290700558Y-70511393D01*
X290685130Y-70340485D01*
X290696105Y-70225065D01*
X290719766Y-70088836D01*
X290721143Y-70061779D01*
X290776544Y-69997040D01*
X290793714Y-69995143D01*
X290846933Y-70057614D01*
X290866286Y-70189222D01*
X290866286Y-70383301D01*
X291040156Y-70219958D01*
X291266499Y-70089618D01*
X291421156Y-70080308D01*
X291555769Y-70110711D01*
X291614591Y-70190455D01*
X291628229Y-70365043D01*
X291628286Y-70388238D01*
X291604391Y-70595291D01*
X291540280Y-70700977D01*
X291531651Y-70704688D01*
X291456698Y-70679115D01*
X291449294Y-70601879D01*
X291447420Y-70379684D01*
X291381225Y-70287541D01*
X291250957Y-70325509D01*
X291056860Y-70493649D01*
X291047714Y-70503143D01*
X290905656Y-70638983D01*
X290803022Y-70715008D01*
X290784957Y-70720858D01*
X290784957Y-71681774D01*
X290935917Y-71567133D01*
X291081588Y-71484080D01*
X291354824Y-71354704D01*
X291526732Y-71307277D01*
X291620286Y-71348809D01*
X291658461Y-71486314D01*
X291664572Y-71662008D01*
X291656356Y-71877198D01*
X291625489Y-71975190D01*
X291562636Y-71983318D01*
X291562636Y-72592090D01*
X291610143Y-72598727D01*
X291646764Y-72668948D01*
X291664310Y-72828753D01*
X291664572Y-72852829D01*
X291625424Y-73085391D01*
X291518723Y-73211359D01*
X291360583Y-73215235D01*
X291310758Y-73193126D01*
X291167300Y-73155151D01*
X291120407Y-73188090D01*
X291006763Y-73256289D01*
X291006763Y-73993705D01*
X291199782Y-73986572D01*
X291200622Y-73986572D01*
X291466785Y-73994927D01*
X291613000Y-74023604D01*
X291663693Y-74078023D01*
X291664572Y-74089493D01*
X291628353Y-74284130D01*
X291537025Y-74404291D01*
X291477656Y-74422000D01*
X291477656Y-74911551D01*
X292042026Y-74893715D01*
X292042246Y-69523429D01*
X291495321Y-69502319D01*
G36*
X296146738Y-72224434D02*
X296127715Y-69523429D01*
X292245143Y-69484773D01*
X292245143Y-70212858D01*
X295946286Y-70212858D01*
X295946286Y-70938572D01*
X292245143Y-70938572D01*
X292245143Y-73551143D01*
X295801143Y-73551143D01*
X295801143Y-73406000D01*
X292317715Y-73406000D01*
X292317715Y-73043143D01*
X294132000Y-73043143D01*
X294132000Y-72898000D01*
X293564590Y-72894643D01*
X293135251Y-72884001D01*
X292837055Y-72865222D01*
X292663073Y-72837450D01*
X292606377Y-72799833D01*
X292660038Y-72751516D01*
X292722793Y-72724336D01*
X292825715Y-72710088D01*
X292825715Y-72317429D01*
X292755252Y-72262204D01*
X292753143Y-72244858D01*
X292808368Y-72174395D01*
X292825715Y-72172286D01*
X292896177Y-72227511D01*
X292898286Y-72244858D01*
X292843061Y-72315320D01*
X292825715Y-72317429D01*
X292825715Y-72710088D01*
X292835813Y-72708690D01*
X293064616Y-72696560D01*
X293379883Y-72687947D01*
X293752297Y-72682850D01*
X294132000Y-72681352D01*
X294132000Y-72577338D01*
X293748999Y-72576295D01*
X293469733Y-72573378D01*
X293303595Y-72568900D01*
X293259978Y-72563177D01*
X293348275Y-72556524D01*
X293424429Y-72553613D01*
X293846443Y-72545205D01*
X294132000Y-72544743D01*
X294132000Y-71924195D01*
X293748999Y-71923152D01*
X293469733Y-71920235D01*
X293303595Y-71915757D01*
X293259978Y-71910034D01*
X293348275Y-71903381D01*
X293424429Y-71900470D01*
X293846443Y-71892062D01*
X294132000Y-71891600D01*
X294132000Y-71809429D01*
X293617521Y-71808186D01*
X293230863Y-71803634D01*
X292954720Y-71794536D01*
X292771785Y-71779657D01*
X292664751Y-71757759D01*
X292616312Y-71727607D01*
X292608000Y-71700572D01*
X292625397Y-71663823D01*
X292689127Y-71636205D01*
X292816495Y-71616480D01*
X293024809Y-71603414D01*
X293331375Y-71595768D01*
X293753500Y-71592308D01*
X294132000Y-71591715D01*
X294646480Y-71592957D01*
X295033138Y-71597509D01*
X295309281Y-71606607D01*
X295492216Y-71621487D01*
X295599249Y-71643384D01*
X295647688Y-71673536D01*
X295656000Y-71700572D01*
X295638603Y-71737320D01*
X295574873Y-71764939D01*
X295447505Y-71784663D01*
X295239191Y-71797730D01*
X294932625Y-71805375D01*
X294510500Y-71808835D01*
X294132000Y-71809429D01*
X294132000Y-71891600D01*
X294322863Y-71891291D01*
X294763151Y-71898158D01*
X294839572Y-71900470D01*
X294984435Y-71907412D01*
X294993549Y-71913553D01*
X294876307Y-71918577D01*
X294642101Y-71922170D01*
X294300325Y-71924016D01*
X294132000Y-71924195D01*
X294132000Y-72544743D01*
X294322863Y-72544434D01*
X294763151Y-72551300D01*
X294839572Y-72553613D01*
X294984435Y-72560555D01*
X294993549Y-72566696D01*
X294876307Y-72571720D01*
X294642101Y-72575312D01*
X294300325Y-72577159D01*
X294132000Y-72577338D01*
X294132000Y-72681352D01*
X294152540Y-72681270D01*
X294551293Y-72683207D01*
X294919240Y-72688661D01*
X295227062Y-72697631D01*
X295445442Y-72710118D01*
X295541208Y-72724336D01*
X295645268Y-72778080D01*
X295642289Y-72820715D01*
X295525344Y-72853095D01*
X295287502Y-72876075D01*
X294921836Y-72890508D01*
X294421417Y-72897247D01*
X294132000Y-72898000D01*
X294132000Y-73043143D01*
X295801143Y-73043143D01*
X295801143Y-71446572D01*
X292317715Y-71446572D01*
X292317715Y-71083715D01*
X295801143Y-71083715D01*
X295801143Y-71446572D01*
X295801143Y-73043143D01*
X295801143Y-73406000D01*
X295801143Y-73551143D01*
X295946286Y-73551143D01*
X295946286Y-74276857D01*
X292245143Y-74276857D01*
X292245095Y-74621572D01*
X292245047Y-74966286D01*
X294205405Y-74945863D01*
X296165762Y-74925439D01*
X296146738Y-72224434D01*
X296146738Y-72224434D01*
G37*
X296146738Y-72224434D02*
X296127715Y-69523429D01*
X292245143Y-69484773D01*
X292245143Y-70212858D01*
X295946286Y-70212858D01*
X295946286Y-70938572D01*
X292245143Y-70938572D01*
X292245143Y-73551143D01*
X295801143Y-73551143D01*
X295801143Y-73406000D01*
X292317715Y-73406000D01*
X292317715Y-73043143D01*
X294132000Y-73043143D01*
X294132000Y-72898000D01*
X293564590Y-72894643D01*
X293135251Y-72884001D01*
X292837055Y-72865222D01*
X292663073Y-72837450D01*
X292606377Y-72799833D01*
X292660038Y-72751516D01*
X292722793Y-72724336D01*
X292825715Y-72710088D01*
X292825715Y-72317429D01*
X292755252Y-72262204D01*
X292753143Y-72244858D01*
X292808368Y-72174395D01*
X292825715Y-72172286D01*
X292896177Y-72227511D01*
X292898286Y-72244858D01*
X292843061Y-72315320D01*
X292825715Y-72317429D01*
X292825715Y-72710088D01*
X292835813Y-72708690D01*
X293064616Y-72696560D01*
X293379883Y-72687947D01*
X293752297Y-72682850D01*
X294132000Y-72681352D01*
X294132000Y-72577338D01*
X293748999Y-72576295D01*
X293469733Y-72573378D01*
X293303595Y-72568900D01*
X293259978Y-72563177D01*
X293348275Y-72556524D01*
X293424429Y-72553613D01*
X293846443Y-72545205D01*
X294132000Y-72544743D01*
X294132000Y-71924195D01*
X293748999Y-71923152D01*
X293469733Y-71920235D01*
X293303595Y-71915757D01*
X293259978Y-71910034D01*
X293348275Y-71903381D01*
X293424429Y-71900470D01*
X293846443Y-71892062D01*
X294132000Y-71891600D01*
X294132000Y-71809429D01*
X293617521Y-71808186D01*
X293230863Y-71803634D01*
X292954720Y-71794536D01*
X292771785Y-71779657D01*
X292664751Y-71757759D01*
X292616312Y-71727607D01*
X292608000Y-71700572D01*
X292625397Y-71663823D01*
X292689127Y-71636205D01*
X292816495Y-71616480D01*
X293024809Y-71603414D01*
X293331375Y-71595768D01*
X293753500Y-71592308D01*
X294132000Y-71591715D01*
X294646480Y-71592957D01*
X295033138Y-71597509D01*
X295309281Y-71606607D01*
X295492216Y-71621487D01*
X295599249Y-71643384D01*
X295647688Y-71673536D01*
X295656000Y-71700572D01*
X295638603Y-71737320D01*
X295574873Y-71764939D01*
X295447505Y-71784663D01*
X295239191Y-71797730D01*
X294932625Y-71805375D01*
X294510500Y-71808835D01*
X294132000Y-71809429D01*
X294132000Y-71891600D01*
X294322863Y-71891291D01*
X294763151Y-71898158D01*
X294839572Y-71900470D01*
X294984435Y-71907412D01*
X294993549Y-71913553D01*
X294876307Y-71918577D01*
X294642101Y-71922170D01*
X294300325Y-71924016D01*
X294132000Y-71924195D01*
X294132000Y-72544743D01*
X294322863Y-72544434D01*
X294763151Y-72551300D01*
X294839572Y-72553613D01*
X294984435Y-72560555D01*
X294993549Y-72566696D01*
X294876307Y-72571720D01*
X294642101Y-72575312D01*
X294300325Y-72577159D01*
X294132000Y-72577338D01*
X294132000Y-72681352D01*
X294152540Y-72681270D01*
X294551293Y-72683207D01*
X294919240Y-72688661D01*
X295227062Y-72697631D01*
X295445442Y-72710118D01*
X295541208Y-72724336D01*
X295645268Y-72778080D01*
X295642289Y-72820715D01*
X295525344Y-72853095D01*
X295287502Y-72876075D01*
X294921836Y-72890508D01*
X294421417Y-72897247D01*
X294132000Y-72898000D01*
X294132000Y-73043143D01*
X295801143Y-73043143D01*
X295801143Y-71446572D01*
X292317715Y-71446572D01*
X292317715Y-71083715D01*
X295801143Y-71083715D01*
X295801143Y-71446572D01*
X295801143Y-73043143D01*
X295801143Y-73406000D01*
X295801143Y-73551143D01*
X295946286Y-73551143D01*
X295946286Y-74276857D01*
X292245143Y-74276857D01*
X292245095Y-74621572D01*
X292245047Y-74966286D01*
X294205405Y-74945863D01*
X296165762Y-74925439D01*
X296146738Y-72224434D01*
G36*
X295168633Y-65260205D02*
X295009626Y-64990032D01*
X294738525Y-64810217D01*
X294427395Y-64726114D01*
X294132000Y-64678878D01*
X294132000Y-66221429D01*
X293872418Y-66221429D01*
X293639868Y-66180438D01*
X293430785Y-66038007D01*
X293391231Y-65999824D01*
X293275277Y-65875209D01*
X293212246Y-65763145D01*
X293190315Y-65617238D01*
X293197660Y-65391094D01*
X293205828Y-65272253D01*
X293222359Y-65008852D01*
X293219731Y-64861669D01*
X293190661Y-64802264D01*
X293127861Y-64802197D01*
X293088301Y-64813444D01*
X292986607Y-64845314D01*
X292927237Y-64886079D01*
X292895265Y-64971109D01*
X292875765Y-65135779D01*
X292858350Y-65358385D01*
X292855101Y-65752883D01*
X292918018Y-66032258D01*
X292924143Y-66046155D01*
X293128237Y-66346024D01*
X293404225Y-66549070D01*
X293726761Y-66659932D01*
X294070497Y-66683245D01*
X294410086Y-66623646D01*
X294495673Y-66585593D01*
X294495673Y-66221429D01*
X294389818Y-66195890D01*
X294368459Y-66091653D01*
X294377550Y-66021857D01*
X294400359Y-65817047D01*
X294414964Y-65565072D01*
X294416318Y-65513857D01*
X294429414Y-65318878D01*
X294473882Y-65229323D01*
X294572638Y-65205722D01*
X294595368Y-65205429D01*
X294768436Y-65269798D01*
X294914956Y-65431043D01*
X294996649Y-65641372D01*
X295002857Y-65714174D01*
X294943335Y-65888680D01*
X294798318Y-66063993D01*
X294618132Y-66189781D01*
X294495673Y-66221429D01*
X294495673Y-66585593D01*
X294720182Y-66485773D01*
X294975437Y-66274261D01*
X295150505Y-65993747D01*
X295220038Y-65648868D01*
X295220300Y-65626129D01*
X295168633Y-65260205D01*
X295168633Y-65260205D01*
G37*
X295168633Y-65260205D02*
X295009626Y-64990032D01*
X294738525Y-64810217D01*
X294427395Y-64726114D01*
X294132000Y-64678878D01*
X294132000Y-66221429D01*
X293872418Y-66221429D01*
X293639868Y-66180438D01*
X293430785Y-66038007D01*
X293391231Y-65999824D01*
X293275277Y-65875209D01*
X293212246Y-65763145D01*
X293190315Y-65617238D01*
X293197660Y-65391094D01*
X293205828Y-65272253D01*
X293222359Y-65008852D01*
X293219731Y-64861669D01*
X293190661Y-64802264D01*
X293127861Y-64802197D01*
X293088301Y-64813444D01*
X292986607Y-64845314D01*
X292927237Y-64886079D01*
X292895265Y-64971109D01*
X292875765Y-65135779D01*
X292858350Y-65358385D01*
X292855101Y-65752883D01*
X292918018Y-66032258D01*
X292924143Y-66046155D01*
X293128237Y-66346024D01*
X293404225Y-66549070D01*
X293726761Y-66659932D01*
X294070497Y-66683245D01*
X294410086Y-66623646D01*
X294495673Y-66585593D01*
X294495673Y-66221429D01*
X294389818Y-66195890D01*
X294368459Y-66091653D01*
X294377550Y-66021857D01*
X294400359Y-65817047D01*
X294414964Y-65565072D01*
X294416318Y-65513857D01*
X294429414Y-65318878D01*
X294473882Y-65229323D01*
X294572638Y-65205722D01*
X294595368Y-65205429D01*
X294768436Y-65269798D01*
X294914956Y-65431043D01*
X294996649Y-65641372D01*
X295002857Y-65714174D01*
X294943335Y-65888680D01*
X294798318Y-66063993D01*
X294618132Y-66189781D01*
X294495673Y-66221429D01*
X294495673Y-66585593D01*
X294720182Y-66485773D01*
X294975437Y-66274261D01*
X295150505Y-65993747D01*
X295220038Y-65648868D01*
X295220300Y-65626129D01*
X295168633Y-65260205D01*
G36*
X295206271Y-63374426D02*
X295187200Y-63150446D01*
X295149526Y-63033038D01*
X295072518Y-62983649D01*
X294988503Y-62969403D01*
X294859786Y-62963812D01*
X294822539Y-63014797D01*
X294854182Y-63160981D01*
X294861503Y-63186638D01*
X294925381Y-63539487D01*
X294899744Y-63820523D01*
X294795096Y-63998993D01*
X294605549Y-64097446D01*
X294329195Y-64157343D01*
X294020631Y-64172860D01*
X293734455Y-64138170D01*
X293667706Y-64119306D01*
X293410574Y-63989327D01*
X293258082Y-63791434D01*
X293197636Y-63503154D01*
X293199866Y-63284473D01*
X293206924Y-63048583D01*
X293185958Y-62925432D01*
X293130249Y-62884188D01*
X293112372Y-62883044D01*
X292963537Y-62931370D01*
X292912800Y-62970229D01*
X292859264Y-63101240D01*
X292835570Y-63324518D01*
X292842370Y-63590154D01*
X292880315Y-63848239D01*
X292900333Y-63925084D01*
X293057927Y-64225107D01*
X293307356Y-64442749D01*
X293619871Y-64576409D01*
X293966719Y-64624485D01*
X294319150Y-64585377D01*
X294648413Y-64457482D01*
X294925756Y-64239199D01*
X295065911Y-64045706D01*
X295176424Y-63787416D01*
X295210242Y-63508000D01*
X295206271Y-63374426D01*
X295206271Y-63374426D01*
G37*
X295206271Y-63374426D02*
X295187200Y-63150446D01*
X295149526Y-63033038D01*
X295072518Y-62983649D01*
X294988503Y-62969403D01*
X294859786Y-62963812D01*
X294822539Y-63014797D01*
X294854182Y-63160981D01*
X294861503Y-63186638D01*
X294925381Y-63539487D01*
X294899744Y-63820523D01*
X294795096Y-63998993D01*
X294605549Y-64097446D01*
X294329195Y-64157343D01*
X294020631Y-64172860D01*
X293734455Y-64138170D01*
X293667706Y-64119306D01*
X293410574Y-63989327D01*
X293258082Y-63791434D01*
X293197636Y-63503154D01*
X293199866Y-63284473D01*
X293206924Y-63048583D01*
X293185958Y-62925432D01*
X293130249Y-62884188D01*
X293112372Y-62883044D01*
X292963537Y-62931370D01*
X292912800Y-62970229D01*
X292859264Y-63101240D01*
X292835570Y-63324518D01*
X292842370Y-63590154D01*
X292880315Y-63848239D01*
X292900333Y-63925084D01*
X293057927Y-64225107D01*
X293307356Y-64442749D01*
X293619871Y-64576409D01*
X293966719Y-64624485D01*
X294319150Y-64585377D01*
X294648413Y-64457482D01*
X294925756Y-64239199D01*
X295065911Y-64045706D01*
X295176424Y-63787416D01*
X295210242Y-63508000D01*
X295206271Y-63374426D01*
G36*
X295737937Y-66148857D02*
X295459883Y-66162841D01*
X295307723Y-66207218D01*
X295269622Y-66250620D01*
X295264881Y-66375944D01*
X295381007Y-66433310D01*
X295475419Y-66439143D01*
X295677129Y-66503832D01*
X295814361Y-66684162D01*
X295872668Y-66959528D01*
X295873715Y-67007286D01*
X295873715Y-67310000D01*
X294730714Y-67302766D01*
X294229985Y-67297648D01*
X293854600Y-67286664D01*
X293584767Y-67265544D01*
X293400695Y-67230022D01*
X293282595Y-67175829D01*
X293210675Y-67098696D01*
X293165144Y-66994356D01*
X293155421Y-66963035D01*
X293083301Y-66804612D01*
X293000146Y-66730229D01*
X292992136Y-66729429D01*
X292948735Y-66766593D01*
X292920082Y-66890440D01*
X292904014Y-67119504D01*
X292898368Y-67472317D01*
X292898286Y-67533762D01*
X292902865Y-67907418D01*
X292917720Y-68151199D01*
X292944533Y-68280121D01*
X292984983Y-68309196D01*
X292985044Y-68309176D01*
X293064698Y-68224425D01*
X293127108Y-68073457D01*
X293197446Y-67903365D01*
X293276208Y-67807154D01*
X293376817Y-67787546D01*
X293596777Y-67770527D01*
X293910302Y-67757258D01*
X294291607Y-67748903D01*
X294621857Y-67746540D01*
X295873715Y-67745429D01*
X295873715Y-68067885D01*
X295823018Y-68350570D01*
X295680288Y-68538866D01*
X295459561Y-68615429D01*
X295429903Y-68616286D01*
X295314632Y-68662658D01*
X295258662Y-68762395D01*
X295286683Y-68856425D01*
X295320898Y-68877054D01*
X295447726Y-68894916D01*
X295657784Y-68897405D01*
X295773246Y-68892340D01*
X296127715Y-68870065D01*
X296167203Y-66148857D01*
X295737937Y-66148857D01*
X295737937Y-66148857D01*
G37*
X295737937Y-66148857D02*
X295459883Y-66162841D01*
X295307723Y-66207218D01*
X295269622Y-66250620D01*
X295264881Y-66375944D01*
X295381007Y-66433310D01*
X295475419Y-66439143D01*
X295677129Y-66503832D01*
X295814361Y-66684162D01*
X295872668Y-66959528D01*
X295873715Y-67007286D01*
X295873715Y-67310000D01*
X294730714Y-67302766D01*
X294229985Y-67297648D01*
X293854600Y-67286664D01*
X293584767Y-67265544D01*
X293400695Y-67230022D01*
X293282595Y-67175829D01*
X293210675Y-67098696D01*
X293165144Y-66994356D01*
X293155421Y-66963035D01*
X293083301Y-66804612D01*
X293000146Y-66730229D01*
X292992136Y-66729429D01*
X292948735Y-66766593D01*
X292920082Y-66890440D01*
X292904014Y-67119504D01*
X292898368Y-67472317D01*
X292898286Y-67533762D01*
X292902865Y-67907418D01*
X292917720Y-68151199D01*
X292944533Y-68280121D01*
X292984983Y-68309196D01*
X292985044Y-68309176D01*
X293064698Y-68224425D01*
X293127108Y-68073457D01*
X293197446Y-67903365D01*
X293276208Y-67807154D01*
X293376817Y-67787546D01*
X293596777Y-67770527D01*
X293910302Y-67757258D01*
X294291607Y-67748903D01*
X294621857Y-67746540D01*
X295873715Y-67745429D01*
X295873715Y-68067885D01*
X295823018Y-68350570D01*
X295680288Y-68538866D01*
X295459561Y-68615429D01*
X295429903Y-68616286D01*
X295314632Y-68662658D01*
X295258662Y-68762395D01*
X295286683Y-68856425D01*
X295320898Y-68877054D01*
X295447726Y-68894916D01*
X295657784Y-68897405D01*
X295773246Y-68892340D01*
X296127715Y-68870065D01*
X296167203Y-66148857D01*
X295737937Y-66148857D01*
G36*
X296459069Y-62098860D02*
X296274827Y-62091441D01*
X296002821Y-62086511D01*
X295694473Y-62084858D01*
X294862089Y-62084858D01*
X295041330Y-61820730D01*
X295189392Y-61506949D01*
X295219184Y-61197481D01*
X295130672Y-60924231D01*
X295042442Y-60811559D01*
X294950529Y-60730167D01*
X294849060Y-60678187D01*
X294704616Y-60649089D01*
X294483779Y-60636348D01*
X294153132Y-60633434D01*
X294130528Y-60633429D01*
X293699607Y-60622799D01*
X293398070Y-60588485D01*
X293211552Y-60526856D01*
X293125685Y-60434278D01*
X293116000Y-60376876D01*
X293057853Y-60282890D01*
X293007143Y-60270572D01*
X292951289Y-60297917D01*
X292917770Y-60397134D01*
X292901751Y-60593993D01*
X292898286Y-60851143D01*
X292907906Y-61171609D01*
X292935788Y-61368641D01*
X292977651Y-61431715D01*
X293057116Y-61370953D01*
X293096429Y-61281004D01*
X293178032Y-61147053D01*
X293351402Y-61058512D01*
X293633666Y-61010053D01*
X294011720Y-60996286D01*
X294394116Y-61017537D01*
X294652207Y-61086635D01*
X294801260Y-61211598D01*
X294856543Y-61400445D01*
X294857714Y-61440601D01*
X294816022Y-61700627D01*
X294682709Y-61887646D01*
X294445424Y-62008878D01*
X294091813Y-62071543D01*
X293756184Y-62084453D01*
X293418850Y-62051098D01*
X293204908Y-61951477D01*
X293117910Y-61787430D01*
X293116000Y-61753102D01*
X293057796Y-61661414D01*
X293007143Y-61649429D01*
X292951289Y-61676774D01*
X292917770Y-61775991D01*
X292901751Y-61972850D01*
X292898286Y-62230000D01*
X292904358Y-62533854D01*
X292925209Y-62715833D01*
X292964794Y-62798802D01*
X292998679Y-62810572D01*
X293096157Y-62749770D01*
X293137028Y-62665429D01*
X293156597Y-62615666D01*
X293198503Y-62578791D01*
X293282144Y-62552879D01*
X293426916Y-62536004D01*
X293652218Y-62526239D01*
X293977446Y-62521658D01*
X294421997Y-62520336D01*
X294598735Y-62520286D01*
X296022486Y-62520286D01*
X296064959Y-62732652D01*
X296124190Y-62884632D01*
X296206373Y-62902214D01*
X296301128Y-62792264D01*
X296398073Y-62561646D01*
X296417429Y-62499569D01*
X296478695Y-62289277D01*
X296518406Y-62145313D01*
X296526857Y-62107971D01*
X296459069Y-62098860D01*
X296459069Y-62098860D01*
G37*
X296459069Y-62098860D02*
X296274827Y-62091441D01*
X296002821Y-62086511D01*
X295694473Y-62084858D01*
X294862089Y-62084858D01*
X295041330Y-61820730D01*
X295189392Y-61506949D01*
X295219184Y-61197481D01*
X295130672Y-60924231D01*
X295042442Y-60811559D01*
X294950529Y-60730167D01*
X294849060Y-60678187D01*
X294704616Y-60649089D01*
X294483779Y-60636348D01*
X294153132Y-60633434D01*
X294130528Y-60633429D01*
X293699607Y-60622799D01*
X293398070Y-60588485D01*
X293211552Y-60526856D01*
X293125685Y-60434278D01*
X293116000Y-60376876D01*
X293057853Y-60282890D01*
X293007143Y-60270572D01*
X292951289Y-60297917D01*
X292917770Y-60397134D01*
X292901751Y-60593993D01*
X292898286Y-60851143D01*
X292907906Y-61171609D01*
X292935788Y-61368641D01*
X292977651Y-61431715D01*
X293057116Y-61370953D01*
X293096429Y-61281004D01*
X293178032Y-61147053D01*
X293351402Y-61058512D01*
X293633666Y-61010053D01*
X294011720Y-60996286D01*
X294394116Y-61017537D01*
X294652207Y-61086635D01*
X294801260Y-61211598D01*
X294856543Y-61400445D01*
X294857714Y-61440601D01*
X294816022Y-61700627D01*
X294682709Y-61887646D01*
X294445424Y-62008878D01*
X294091813Y-62071543D01*
X293756184Y-62084453D01*
X293418850Y-62051098D01*
X293204908Y-61951477D01*
X293117910Y-61787430D01*
X293116000Y-61753102D01*
X293057796Y-61661414D01*
X293007143Y-61649429D01*
X292951289Y-61676774D01*
X292917770Y-61775991D01*
X292901751Y-61972850D01*
X292898286Y-62230000D01*
X292904358Y-62533854D01*
X292925209Y-62715833D01*
X292964794Y-62798802D01*
X292998679Y-62810572D01*
X293096157Y-62749770D01*
X293137028Y-62665429D01*
X293156597Y-62615666D01*
X293198503Y-62578791D01*
X293282144Y-62552879D01*
X293426916Y-62536004D01*
X293652218Y-62526239D01*
X293977446Y-62521658D01*
X294421997Y-62520336D01*
X294598735Y-62520286D01*
X296022486Y-62520286D01*
X296064959Y-62732652D01*
X296124190Y-62884632D01*
X296206373Y-62902214D01*
X296301128Y-62792264D01*
X296398073Y-62561646D01*
X296417429Y-62499569D01*
X296478695Y-62289277D01*
X296518406Y-62145313D01*
X296526857Y-62107971D01*
X296459069Y-62098860D01*
G36*
X299183812Y-78361051D02*
X299106887Y-78366879D01*
X298954791Y-78414542D01*
X298949922Y-78416381D01*
X298740286Y-78495966D01*
X298948725Y-78278185D01*
X299092638Y-78089987D01*
X299146946Y-77887009D01*
X299149960Y-77747059D01*
X299145428Y-77496611D01*
X299141395Y-77183860D01*
X299139475Y-76972999D01*
X299132336Y-76722058D01*
X299110445Y-76589125D01*
X299066281Y-76547245D01*
X299023019Y-76555714D01*
X298908099Y-76593763D01*
X298879493Y-76599143D01*
X298856071Y-76661066D01*
X298849143Y-76768400D01*
X298838363Y-76866057D01*
X298781987Y-76912224D01*
X298643959Y-76920254D01*
X298468143Y-76909502D01*
X298183445Y-76908825D01*
X297967799Y-76966457D01*
X297846919Y-77032121D01*
X297618671Y-77249825D01*
X297457794Y-77547100D01*
X297397714Y-77859048D01*
X297356571Y-78004511D01*
X297262668Y-78090182D01*
X297160295Y-78078262D01*
X297150809Y-78069762D01*
X297130370Y-77981434D01*
X297115112Y-77786178D01*
X297107730Y-77522189D01*
X297107429Y-77454606D01*
X297102854Y-77158634D01*
X297082377Y-76966550D01*
X297035868Y-76837215D01*
X296953199Y-76729490D01*
X296920669Y-76696071D01*
X296757973Y-76568187D01*
X296586506Y-76538382D01*
X296474834Y-76551353D01*
X296169764Y-76669636D01*
X295920761Y-76900213D01*
X295741079Y-77216694D01*
X295643972Y-77592689D01*
X295642693Y-78001809D01*
X295669051Y-78155792D01*
X295768500Y-78450489D01*
X295922212Y-78624222D01*
X296153042Y-78697729D01*
X296272857Y-78703715D01*
X296382238Y-78688925D01*
X296382238Y-78335254D01*
X296171396Y-78237954D01*
X296151572Y-78220753D01*
X296069776Y-78068571D01*
X296025143Y-77826628D01*
X296019464Y-77545931D01*
X296054531Y-77277484D01*
X296112458Y-77107143D01*
X296248911Y-76955134D01*
X296426070Y-76899099D01*
X296593255Y-76948648D01*
X296649791Y-77005265D01*
X296706192Y-77153015D01*
X296739555Y-77382060D01*
X296750526Y-77650631D01*
X296739754Y-77916961D01*
X296707885Y-78139284D01*
X296655566Y-78275830D01*
X296629779Y-78296807D01*
X296382238Y-78335254D01*
X296382238Y-78688925D01*
X296540187Y-78667566D01*
X296709838Y-78556857D01*
X296837835Y-78461159D01*
X296917028Y-78484286D01*
X297065263Y-78554410D01*
X297232022Y-78483216D01*
X297331089Y-78385908D01*
X297481218Y-78213244D01*
X297662239Y-78394265D01*
X297782132Y-78496493D01*
X297910077Y-78545616D01*
X298097394Y-78554215D01*
X298273630Y-78544155D01*
X298341227Y-78540033D01*
X298341227Y-78195715D01*
X298107106Y-78181558D01*
X297957956Y-78123973D01*
X297835098Y-78000288D01*
X297834958Y-78000110D01*
X297717511Y-77767352D01*
X297723403Y-77548953D01*
X297849167Y-77377190D01*
X297905715Y-77341677D01*
X298084817Y-77291549D01*
X298322629Y-77276588D01*
X298560159Y-77294719D01*
X298738418Y-77343868D01*
X298780610Y-77372439D01*
X298833887Y-77482142D01*
X298880974Y-77667651D01*
X298886308Y-77698878D01*
X298885973Y-77943320D01*
X298784493Y-78100163D01*
X298570259Y-78179989D01*
X298341227Y-78195715D01*
X298341227Y-78540033D01*
X298512660Y-78529577D01*
X298641204Y-78539167D01*
X298693538Y-78586576D01*
X298703936Y-78685455D01*
X298704000Y-78715554D01*
X298644360Y-78917735D01*
X298461839Y-79064349D01*
X298151034Y-79158509D01*
X297875655Y-79193222D01*
X297493334Y-79209542D01*
X297235939Y-79183600D01*
X297088376Y-79111360D01*
X297035553Y-78988787D01*
X297034857Y-78968427D01*
X297007406Y-78789739D01*
X296918664Y-78735707D01*
X296846334Y-78752765D01*
X296790979Y-78817757D01*
X296758552Y-78975368D01*
X296745345Y-79247892D01*
X296744572Y-79364622D01*
X296749239Y-79657174D01*
X296766905Y-79832003D01*
X296803068Y-79916335D01*
X296860223Y-79937429D01*
X296969733Y-79876431D01*
X297014412Y-79790061D01*
X297039669Y-79727180D01*
X297093262Y-79686244D01*
X297200825Y-79663565D01*
X297387995Y-79655452D01*
X297680407Y-79658214D01*
X297896618Y-79663061D01*
X298257365Y-79673121D01*
X298498218Y-79686141D01*
X298644407Y-79707463D01*
X298721161Y-79742428D01*
X298753710Y-79796378D01*
X298763458Y-79846576D01*
X298800778Y-79960288D01*
X298890456Y-79952957D01*
X298926744Y-79934737D01*
X299040504Y-79812261D01*
X299066857Y-79712390D01*
X299101503Y-79523672D01*
X299141982Y-79424658D01*
X299175223Y-79337197D01*
X299130833Y-79296151D01*
X298979663Y-79284073D01*
X298906125Y-79283481D01*
X298595143Y-79282677D01*
X298828501Y-79098749D01*
X298958096Y-78958598D01*
X299077705Y-78768835D01*
X299165748Y-78574261D01*
X299200646Y-78419680D01*
X299183812Y-78361051D01*
X299183812Y-78361051D01*
G37*
X299183812Y-78361051D02*
X299106887Y-78366879D01*
X298954791Y-78414542D01*
X298949922Y-78416381D01*
X298740286Y-78495966D01*
X298948725Y-78278185D01*
X299092638Y-78089987D01*
X299146946Y-77887009D01*
X299149960Y-77747059D01*
X299145428Y-77496611D01*
X299141395Y-77183860D01*
X299139475Y-76972999D01*
X299132336Y-76722058D01*
X299110445Y-76589125D01*
X299066281Y-76547245D01*
X299023019Y-76555714D01*
X298908099Y-76593763D01*
X298879493Y-76599143D01*
X298856071Y-76661066D01*
X298849143Y-76768400D01*
X298838363Y-76866057D01*
X298781987Y-76912224D01*
X298643959Y-76920254D01*
X298468143Y-76909502D01*
X298183445Y-76908825D01*
X297967799Y-76966457D01*
X297846919Y-77032121D01*
X297618671Y-77249825D01*
X297457794Y-77547100D01*
X297397714Y-77859048D01*
X297356571Y-78004511D01*
X297262668Y-78090182D01*
X297160295Y-78078262D01*
X297150809Y-78069762D01*
X297130370Y-77981434D01*
X297115112Y-77786178D01*
X297107730Y-77522189D01*
X297107429Y-77454606D01*
X297102854Y-77158634D01*
X297082377Y-76966550D01*
X297035868Y-76837215D01*
X296953199Y-76729490D01*
X296920669Y-76696071D01*
X296757973Y-76568187D01*
X296586506Y-76538382D01*
X296474834Y-76551353D01*
X296169764Y-76669636D01*
X295920761Y-76900213D01*
X295741079Y-77216694D01*
X295643972Y-77592689D01*
X295642693Y-78001809D01*
X295669051Y-78155792D01*
X295768500Y-78450489D01*
X295922212Y-78624222D01*
X296153042Y-78697729D01*
X296272857Y-78703715D01*
X296382238Y-78688925D01*
X296382238Y-78335254D01*
X296171396Y-78237954D01*
X296151572Y-78220753D01*
X296069776Y-78068571D01*
X296025143Y-77826628D01*
X296019464Y-77545931D01*
X296054531Y-77277484D01*
X296112458Y-77107143D01*
X296248911Y-76955134D01*
X296426070Y-76899099D01*
X296593255Y-76948648D01*
X296649791Y-77005265D01*
X296706192Y-77153015D01*
X296739555Y-77382060D01*
X296750526Y-77650631D01*
X296739754Y-77916961D01*
X296707885Y-78139284D01*
X296655566Y-78275830D01*
X296629779Y-78296807D01*
X296382238Y-78335254D01*
X296382238Y-78688925D01*
X296540187Y-78667566D01*
X296709838Y-78556857D01*
X296837835Y-78461159D01*
X296917028Y-78484286D01*
X297065263Y-78554410D01*
X297232022Y-78483216D01*
X297331089Y-78385908D01*
X297481218Y-78213244D01*
X297662239Y-78394265D01*
X297782132Y-78496493D01*
X297910077Y-78545616D01*
X298097394Y-78554215D01*
X298273630Y-78544155D01*
X298341227Y-78540033D01*
X298341227Y-78195715D01*
X298107106Y-78181558D01*
X297957956Y-78123973D01*
X297835098Y-78000288D01*
X297834958Y-78000110D01*
X297717511Y-77767352D01*
X297723403Y-77548953D01*
X297849167Y-77377190D01*
X297905715Y-77341677D01*
X298084817Y-77291549D01*
X298322629Y-77276588D01*
X298560159Y-77294719D01*
X298738418Y-77343868D01*
X298780610Y-77372439D01*
X298833887Y-77482142D01*
X298880974Y-77667651D01*
X298886308Y-77698878D01*
X298885973Y-77943320D01*
X298784493Y-78100163D01*
X298570259Y-78179989D01*
X298341227Y-78195715D01*
X298341227Y-78540033D01*
X298512660Y-78529577D01*
X298641204Y-78539167D01*
X298693538Y-78586576D01*
X298703936Y-78685455D01*
X298704000Y-78715554D01*
X298644360Y-78917735D01*
X298461839Y-79064349D01*
X298151034Y-79158509D01*
X297875655Y-79193222D01*
X297493334Y-79209542D01*
X297235939Y-79183600D01*
X297088376Y-79111360D01*
X297035553Y-78988787D01*
X297034857Y-78968427D01*
X297007406Y-78789739D01*
X296918664Y-78735707D01*
X296846334Y-78752765D01*
X296790979Y-78817757D01*
X296758552Y-78975368D01*
X296745345Y-79247892D01*
X296744572Y-79364622D01*
X296749239Y-79657174D01*
X296766905Y-79832003D01*
X296803068Y-79916335D01*
X296860223Y-79937429D01*
X296969733Y-79876431D01*
X297014412Y-79790061D01*
X297039669Y-79727180D01*
X297093262Y-79686244D01*
X297200825Y-79663565D01*
X297387995Y-79655452D01*
X297680407Y-79658214D01*
X297896618Y-79663061D01*
X298257365Y-79673121D01*
X298498218Y-79686141D01*
X298644407Y-79707463D01*
X298721161Y-79742428D01*
X298753710Y-79796378D01*
X298763458Y-79846576D01*
X298800778Y-79960288D01*
X298890456Y-79952957D01*
X298926744Y-79934737D01*
X299040504Y-79812261D01*
X299066857Y-79712390D01*
X299101503Y-79523672D01*
X299141982Y-79424658D01*
X299175223Y-79337197D01*
X299130833Y-79296151D01*
X298979663Y-79284073D01*
X298906125Y-79283481D01*
X298595143Y-79282677D01*
X298828501Y-79098749D01*
X298958096Y-78958598D01*
X299077705Y-78768835D01*
X299165748Y-78574261D01*
X299200646Y-78419680D01*
X299183812Y-78361051D01*
G36*
X299859131Y-81368104D02*
X299843080Y-81153450D01*
X299819963Y-81037389D01*
X299809340Y-81026000D01*
X299720627Y-81052594D01*
X299534393Y-81123244D01*
X299286275Y-81224255D01*
X299210626Y-81256089D01*
X298953300Y-81359541D01*
X298596051Y-81495475D01*
X298176477Y-81649965D01*
X297732177Y-81809084D01*
X297470286Y-81900668D01*
X296272857Y-82315159D01*
X296250326Y-82577850D01*
X296250048Y-82760706D01*
X296311385Y-82858447D01*
X296431755Y-82915832D01*
X296602180Y-82978382D01*
X296855069Y-83070788D01*
X297136469Y-83173334D01*
X297143715Y-83175971D01*
X297777621Y-83409254D01*
X298288475Y-83603902D01*
X298691092Y-83766658D01*
X299000284Y-83904263D01*
X299230867Y-84023460D01*
X299397656Y-84130993D01*
X299515464Y-84233604D01*
X299548675Y-84270563D01*
X299668866Y-84389380D01*
X299755864Y-84409698D01*
X299814254Y-84321250D01*
X299848618Y-84113772D01*
X299863540Y-83776995D01*
X299865143Y-83561717D01*
X299861792Y-83203599D01*
X299849747Y-82968031D01*
X299826018Y-82832536D01*
X299787617Y-82774633D01*
X299759574Y-82767715D01*
X299672015Y-82834126D01*
X299608856Y-83008750D01*
X299606840Y-83019129D01*
X299567296Y-83190767D01*
X299510296Y-83305870D01*
X299415542Y-83365716D01*
X299262734Y-83371581D01*
X299031574Y-83324743D01*
X298701764Y-83226478D01*
X298318818Y-83100160D01*
X297930668Y-82968080D01*
X297568890Y-82841513D01*
X297266724Y-82732331D01*
X297057409Y-82652404D01*
X297011746Y-82633323D01*
X296734634Y-82511899D01*
X297998227Y-82086879D01*
X298459296Y-81933916D01*
X298803846Y-81825664D01*
X299051799Y-81757337D01*
X299223076Y-81724146D01*
X299337599Y-81721305D01*
X299415290Y-81744027D01*
X299418338Y-81745626D01*
X299543439Y-81850428D01*
X299583929Y-81935697D01*
X299598524Y-82095681D01*
X299602072Y-82131721D01*
X299670988Y-82220138D01*
X299738143Y-82245899D01*
X299799842Y-82242963D01*
X299837720Y-82187416D01*
X299857406Y-82052763D01*
X299864532Y-81812508D01*
X299865143Y-81648179D01*
X299859131Y-81368104D01*
X299859131Y-81368104D01*
G37*
X299859131Y-81368104D02*
X299843080Y-81153450D01*
X299819963Y-81037389D01*
X299809340Y-81026000D01*
X299720627Y-81052594D01*
X299534393Y-81123244D01*
X299286275Y-81224255D01*
X299210626Y-81256089D01*
X298953300Y-81359541D01*
X298596051Y-81495475D01*
X298176477Y-81649965D01*
X297732177Y-81809084D01*
X297470286Y-81900668D01*
X296272857Y-82315159D01*
X296250326Y-82577850D01*
X296250048Y-82760706D01*
X296311385Y-82858447D01*
X296431755Y-82915832D01*
X296602180Y-82978382D01*
X296855069Y-83070788D01*
X297136469Y-83173334D01*
X297143715Y-83175971D01*
X297777621Y-83409254D01*
X298288475Y-83603902D01*
X298691092Y-83766658D01*
X299000284Y-83904263D01*
X299230867Y-84023460D01*
X299397656Y-84130993D01*
X299515464Y-84233604D01*
X299548675Y-84270563D01*
X299668866Y-84389380D01*
X299755864Y-84409698D01*
X299814254Y-84321250D01*
X299848618Y-84113772D01*
X299863540Y-83776995D01*
X299865143Y-83561717D01*
X299861792Y-83203599D01*
X299849747Y-82968031D01*
X299826018Y-82832536D01*
X299787617Y-82774633D01*
X299759574Y-82767715D01*
X299672015Y-82834126D01*
X299608856Y-83008750D01*
X299606840Y-83019129D01*
X299567296Y-83190767D01*
X299510296Y-83305870D01*
X299415542Y-83365716D01*
X299262734Y-83371581D01*
X299031574Y-83324743D01*
X298701764Y-83226478D01*
X298318818Y-83100160D01*
X297930668Y-82968080D01*
X297568890Y-82841513D01*
X297266724Y-82732331D01*
X297057409Y-82652404D01*
X297011746Y-82633323D01*
X296734634Y-82511899D01*
X297998227Y-82086879D01*
X298459296Y-81933916D01*
X298803846Y-81825664D01*
X299051799Y-81757337D01*
X299223076Y-81724146D01*
X299337599Y-81721305D01*
X299415290Y-81744027D01*
X299418338Y-81745626D01*
X299543439Y-81850428D01*
X299583929Y-81935697D01*
X299598524Y-82095681D01*
X299602072Y-82131721D01*
X299670988Y-82220138D01*
X299738143Y-82245899D01*
X299799842Y-82242963D01*
X299837720Y-82187416D01*
X299857406Y-82052763D01*
X299864532Y-81812508D01*
X299865143Y-81648179D01*
X299859131Y-81368104D01*
G36*
X299164963Y-70361128D02*
X299097804Y-70097501D01*
X298990325Y-69905946D01*
X298920674Y-69849443D01*
X298796943Y-69820801D01*
X298562896Y-69797559D01*
X298253329Y-69782273D01*
X297939977Y-69777429D01*
X297577345Y-69775769D01*
X297334247Y-69767924D01*
X297185089Y-69749594D01*
X297104274Y-69716479D01*
X297066207Y-69664281D01*
X297054966Y-69628772D01*
X296986541Y-69501490D01*
X296898875Y-69495800D01*
X296816433Y-69594891D01*
X296763679Y-69781948D01*
X296758542Y-69832484D01*
X296760145Y-70043807D01*
X296818075Y-70141480D01*
X296951752Y-70152228D01*
X296986908Y-70146720D01*
X296991788Y-70189987D01*
X296925176Y-70310345D01*
X296906512Y-70337698D01*
X296752357Y-70660050D01*
X296722148Y-70990140D01*
X296730871Y-71047429D01*
X296840258Y-71278304D01*
X297039636Y-71449450D01*
X297279631Y-71519060D01*
X297287930Y-71519143D01*
X297364695Y-71499079D01*
X297364695Y-71083715D01*
X297170366Y-71027376D01*
X297059093Y-70882502D01*
X297039741Y-70685303D01*
X297121172Y-70471988D01*
X297192650Y-70380821D01*
X297338879Y-70268644D01*
X297533814Y-70219727D01*
X297702125Y-70212858D01*
X298053807Y-70212858D01*
X297898734Y-70521286D01*
X297728917Y-70822174D01*
X297577600Y-71001383D01*
X297426903Y-71077744D01*
X297364695Y-71083715D01*
X297364695Y-71499079D01*
X297525505Y-71457047D01*
X297747723Y-71266517D01*
X297960582Y-70941188D01*
X298091596Y-70666429D01*
X298203447Y-70422810D01*
X298291422Y-70285770D01*
X298381765Y-70225674D01*
X298493219Y-70212858D01*
X298680487Y-70256795D01*
X298790975Y-70396916D01*
X298830104Y-70645683D01*
X298812043Y-70945593D01*
X298787965Y-71197516D01*
X298797475Y-71328580D01*
X298851816Y-71361338D01*
X298962229Y-71318341D01*
X298990438Y-71303488D01*
X299104539Y-71168007D01*
X299170329Y-70938024D01*
X299189804Y-70655184D01*
X299164963Y-70361128D01*
X299164963Y-70361128D01*
G37*
X299164963Y-70361128D02*
X299097804Y-70097501D01*
X298990325Y-69905946D01*
X298920674Y-69849443D01*
X298796943Y-69820801D01*
X298562896Y-69797559D01*
X298253329Y-69782273D01*
X297939977Y-69777429D01*
X297577345Y-69775769D01*
X297334247Y-69767924D01*
X297185089Y-69749594D01*
X297104274Y-69716479D01*
X297066207Y-69664281D01*
X297054966Y-69628772D01*
X296986541Y-69501490D01*
X296898875Y-69495800D01*
X296816433Y-69594891D01*
X296763679Y-69781948D01*
X296758542Y-69832484D01*
X296760145Y-70043807D01*
X296818075Y-70141480D01*
X296951752Y-70152228D01*
X296986908Y-70146720D01*
X296991788Y-70189987D01*
X296925176Y-70310345D01*
X296906512Y-70337698D01*
X296752357Y-70660050D01*
X296722148Y-70990140D01*
X296730871Y-71047429D01*
X296840258Y-71278304D01*
X297039636Y-71449450D01*
X297279631Y-71519060D01*
X297287930Y-71519143D01*
X297364695Y-71499079D01*
X297364695Y-71083715D01*
X297170366Y-71027376D01*
X297059093Y-70882502D01*
X297039741Y-70685303D01*
X297121172Y-70471988D01*
X297192650Y-70380821D01*
X297338879Y-70268644D01*
X297533814Y-70219727D01*
X297702125Y-70212858D01*
X298053807Y-70212858D01*
X297898734Y-70521286D01*
X297728917Y-70822174D01*
X297577600Y-71001383D01*
X297426903Y-71077744D01*
X297364695Y-71083715D01*
X297364695Y-71499079D01*
X297525505Y-71457047D01*
X297747723Y-71266517D01*
X297960582Y-70941188D01*
X298091596Y-70666429D01*
X298203447Y-70422810D01*
X298291422Y-70285770D01*
X298381765Y-70225674D01*
X298493219Y-70212858D01*
X298680487Y-70256795D01*
X298790975Y-70396916D01*
X298830104Y-70645683D01*
X298812043Y-70945593D01*
X298787965Y-71197516D01*
X298797475Y-71328580D01*
X298851816Y-71361338D01*
X298962229Y-71318341D01*
X298990438Y-71303488D01*
X299104539Y-71168007D01*
X299170329Y-70938024D01*
X299189804Y-70655184D01*
X299164963Y-70361128D01*
G36*
X299111524Y-80424239D02*
X299045489Y-80395852D01*
X298906272Y-80380498D01*
X298671740Y-80374172D01*
X298319754Y-80372868D01*
X298210400Y-80372858D01*
X297770190Y-80370286D01*
X297454779Y-80359917D01*
X297243872Y-80337764D01*
X297117176Y-80299844D01*
X297054397Y-80242172D01*
X297035240Y-80160764D01*
X297034857Y-80142058D01*
X296992483Y-80031906D01*
X296907857Y-80023592D01*
X296839231Y-80061350D01*
X296796401Y-80162481D01*
X296771273Y-80356980D01*
X296759535Y-80573199D01*
X296752937Y-80848629D01*
X296764571Y-81008583D01*
X296799840Y-81082157D01*
X296857044Y-81098572D01*
X296969145Y-81037551D01*
X297014412Y-80951204D01*
X297039724Y-80888225D01*
X297093441Y-80847270D01*
X297201249Y-80824627D01*
X297388837Y-80816585D01*
X297681891Y-80819434D01*
X297893465Y-80824204D01*
X298253337Y-80834145D01*
X298493935Y-80847029D01*
X298641105Y-80868571D01*
X298720689Y-80904486D01*
X298758530Y-80960489D01*
X298775076Y-81019160D01*
X298814323Y-81139776D01*
X298874082Y-81131573D01*
X298941514Y-81068405D01*
X299040793Y-80922319D01*
X299067848Y-80821245D01*
X299087336Y-80651883D01*
X299112598Y-80536143D01*
X299126515Y-80469668D01*
X299111524Y-80424239D01*
X299111524Y-80424239D01*
G37*
X299111524Y-80424239D02*
X299045489Y-80395852D01*
X298906272Y-80380498D01*
X298671740Y-80374172D01*
X298319754Y-80372868D01*
X298210400Y-80372858D01*
X297770190Y-80370286D01*
X297454779Y-80359917D01*
X297243872Y-80337764D01*
X297117176Y-80299844D01*
X297054397Y-80242172D01*
X297035240Y-80160764D01*
X297034857Y-80142058D01*
X296992483Y-80031906D01*
X296907857Y-80023592D01*
X296839231Y-80061350D01*
X296796401Y-80162481D01*
X296771273Y-80356980D01*
X296759535Y-80573199D01*
X296752937Y-80848629D01*
X296764571Y-81008583D01*
X296799840Y-81082157D01*
X296857044Y-81098572D01*
X296969145Y-81037551D01*
X297014412Y-80951204D01*
X297039724Y-80888225D01*
X297093441Y-80847270D01*
X297201249Y-80824627D01*
X297388837Y-80816585D01*
X297681891Y-80819434D01*
X297893465Y-80824204D01*
X298253337Y-80834145D01*
X298493935Y-80847029D01*
X298641105Y-80868571D01*
X298720689Y-80904486D01*
X298758530Y-80960489D01*
X298775076Y-81019160D01*
X298814323Y-81139776D01*
X298874082Y-81131573D01*
X298941514Y-81068405D01*
X299040793Y-80922319D01*
X299067848Y-80821245D01*
X299087336Y-80651883D01*
X299112598Y-80536143D01*
X299126515Y-80469668D01*
X299111524Y-80424239D01*
G36*
X298111322Y-75712173D02*
X297704123Y-75703501D01*
X297419408Y-75693287D01*
X297234537Y-75677536D01*
X297126873Y-75652253D01*
X297073777Y-75613445D01*
X297052610Y-75557118D01*
X297047397Y-75524473D01*
X296986472Y-75394276D01*
X296902254Y-75380099D01*
X296835575Y-75421057D01*
X296793738Y-75532121D01*
X296769115Y-75742295D01*
X296759660Y-75922456D01*
X296757160Y-76182397D01*
X296770433Y-76380525D01*
X296796638Y-76477057D01*
X296799410Y-76479327D01*
X296913077Y-76477361D01*
X297021707Y-76363989D01*
X297056016Y-76290715D01*
X297096231Y-76231785D01*
X297182655Y-76194173D01*
X297342654Y-76173359D01*
X297603591Y-76164823D01*
X297824930Y-76163715D01*
X298217162Y-76167916D01*
X298486342Y-76183984D01*
X298654408Y-76217117D01*
X298743298Y-76272512D01*
X298774949Y-76355369D01*
X298776572Y-76389193D01*
X298804624Y-76502895D01*
X298840257Y-76526572D01*
X298958029Y-76456586D01*
X299052157Y-76254982D01*
X299100974Y-76038744D01*
X299151501Y-75732345D01*
X298111322Y-75712173D01*
X298111322Y-75712173D01*
G37*
X298111322Y-75712173D02*
X297704123Y-75703501D01*
X297419408Y-75693287D01*
X297234537Y-75677536D01*
X297126873Y-75652253D01*
X297073777Y-75613445D01*
X297052610Y-75557118D01*
X297047397Y-75524473D01*
X296986472Y-75394276D01*
X296902254Y-75380099D01*
X296835575Y-75421057D01*
X296793738Y-75532121D01*
X296769115Y-75742295D01*
X296759660Y-75922456D01*
X296757160Y-76182397D01*
X296770433Y-76380525D01*
X296796638Y-76477057D01*
X296799410Y-76479327D01*
X296913077Y-76477361D01*
X297021707Y-76363989D01*
X297056016Y-76290715D01*
X297096231Y-76231785D01*
X297182655Y-76194173D01*
X297342654Y-76173359D01*
X297603591Y-76164823D01*
X297824930Y-76163715D01*
X298217162Y-76167916D01*
X298486342Y-76183984D01*
X298654408Y-76217117D01*
X298743298Y-76272512D01*
X298774949Y-76355369D01*
X298776572Y-76389193D01*
X298804624Y-76502895D01*
X298840257Y-76526572D01*
X298958029Y-76456586D01*
X299052157Y-76254982D01*
X299100974Y-76038744D01*
X299151501Y-75732345D01*
X298111322Y-75712173D01*
G36*
X299133781Y-73497745D02*
X299057612Y-73317632D01*
X298951406Y-73191634D01*
X298790446Y-73110502D01*
X298550015Y-73064986D01*
X298205394Y-73045835D01*
X297919059Y-73043143D01*
X297561625Y-73041400D01*
X297323380Y-73033197D01*
X297178382Y-73014070D01*
X297100689Y-72979557D01*
X297064360Y-72925194D01*
X297054966Y-72894486D01*
X296975351Y-72780955D01*
X296898474Y-72768256D01*
X296829542Y-72844906D01*
X296779857Y-73016983D01*
X296751229Y-73242270D01*
X296745464Y-73478550D01*
X296764370Y-73683607D01*
X296809755Y-73815222D01*
X296852527Y-73841429D01*
X296971260Y-73781857D01*
X297013699Y-73714429D01*
X297067006Y-73609630D01*
X297153075Y-73541496D01*
X297300269Y-73502284D01*
X297536953Y-73484253D01*
X297873701Y-73479683D01*
X298260447Y-73488939D01*
X298524725Y-73525622D01*
X298688283Y-73600797D01*
X298772870Y-73725529D01*
X298800235Y-73910883D01*
X298800762Y-73951323D01*
X298740643Y-74215350D01*
X298559399Y-74404937D01*
X298255699Y-74520710D01*
X297828210Y-74563290D01*
X297514005Y-74554115D01*
X297273570Y-74522573D01*
X297131208Y-74445001D01*
X297040326Y-74287106D01*
X297002949Y-74177970D01*
X296949786Y-74086868D01*
X296860025Y-74126319D01*
X296852570Y-74132427D01*
X296792814Y-74246874D01*
X296754330Y-74446082D01*
X296737180Y-74689065D01*
X296741422Y-74934837D01*
X296767116Y-75142415D01*
X296814323Y-75270811D01*
X296850875Y-75292857D01*
X296966372Y-75235237D01*
X297034857Y-75147715D01*
X297084793Y-75080643D01*
X297167462Y-75037976D01*
X297312317Y-75014337D01*
X297548809Y-75004349D01*
X297829761Y-75002572D01*
X298225580Y-75007292D01*
X298497325Y-75024230D01*
X298665841Y-75057551D01*
X298751972Y-75111420D01*
X298776564Y-75190002D01*
X298776572Y-75191765D01*
X298808180Y-75291426D01*
X298883844Y-75284019D01*
X298974828Y-75188042D01*
X299052392Y-75021997D01*
X299055370Y-75012295D01*
X299119769Y-74771855D01*
X299126187Y-74637498D01*
X299067218Y-74579259D01*
X298945350Y-74567143D01*
X298751271Y-74567143D01*
X298910797Y-74397335D01*
X299095729Y-74109619D01*
X299170426Y-73782293D01*
X299133781Y-73497745D01*
X299133781Y-73497745D01*
G37*
X299133781Y-73497745D02*
X299057612Y-73317632D01*
X298951406Y-73191634D01*
X298790446Y-73110502D01*
X298550015Y-73064986D01*
X298205394Y-73045835D01*
X297919059Y-73043143D01*
X297561625Y-73041400D01*
X297323380Y-73033197D01*
X297178382Y-73014070D01*
X297100689Y-72979557D01*
X297064360Y-72925194D01*
X297054966Y-72894486D01*
X296975351Y-72780955D01*
X296898474Y-72768256D01*
X296829542Y-72844906D01*
X296779857Y-73016983D01*
X296751229Y-73242270D01*
X296745464Y-73478550D01*
X296764370Y-73683607D01*
X296809755Y-73815222D01*
X296852527Y-73841429D01*
X296971260Y-73781857D01*
X297013699Y-73714429D01*
X297067006Y-73609630D01*
X297153075Y-73541496D01*
X297300269Y-73502284D01*
X297536953Y-73484253D01*
X297873701Y-73479683D01*
X298260447Y-73488939D01*
X298524725Y-73525622D01*
X298688283Y-73600797D01*
X298772870Y-73725529D01*
X298800235Y-73910883D01*
X298800762Y-73951323D01*
X298740643Y-74215350D01*
X298559399Y-74404937D01*
X298255699Y-74520710D01*
X297828210Y-74563290D01*
X297514005Y-74554115D01*
X297273570Y-74522573D01*
X297131208Y-74445001D01*
X297040326Y-74287106D01*
X297002949Y-74177970D01*
X296949786Y-74086868D01*
X296860025Y-74126319D01*
X296852570Y-74132427D01*
X296792814Y-74246874D01*
X296754330Y-74446082D01*
X296737180Y-74689065D01*
X296741422Y-74934837D01*
X296767116Y-75142415D01*
X296814323Y-75270811D01*
X296850875Y-75292857D01*
X296966372Y-75235237D01*
X297034857Y-75147715D01*
X297084793Y-75080643D01*
X297167462Y-75037976D01*
X297312317Y-75014337D01*
X297548809Y-75004349D01*
X297829761Y-75002572D01*
X298225580Y-75007292D01*
X298497325Y-75024230D01*
X298665841Y-75057551D01*
X298751972Y-75111420D01*
X298776564Y-75190002D01*
X298776572Y-75191765D01*
X298808180Y-75291426D01*
X298883844Y-75284019D01*
X298974828Y-75188042D01*
X299052392Y-75021997D01*
X299055370Y-75012295D01*
X299119769Y-74771855D01*
X299126187Y-74637498D01*
X299067218Y-74579259D01*
X298945350Y-74567143D01*
X298751271Y-74567143D01*
X298910797Y-74397335D01*
X299095729Y-74109619D01*
X299170426Y-73782293D01*
X299133781Y-73497745D01*
G36*
X299103039Y-71955781D02*
X298919349Y-71949944D01*
X298643759Y-71947581D01*
X298302877Y-71949111D01*
X298228918Y-71949925D01*
X297782716Y-71952147D01*
X297461739Y-71943934D01*
X297246227Y-71921630D01*
X297116420Y-71881581D01*
X297052559Y-71820133D01*
X297034883Y-71733632D01*
X297034857Y-71729093D01*
X296979890Y-71613473D01*
X296889715Y-71591715D01*
X296815505Y-71604570D01*
X296771963Y-71663188D01*
X296751068Y-71797647D01*
X296744799Y-72038025D01*
X296744572Y-72136000D01*
X296750051Y-72421928D01*
X296770139Y-72589820D01*
X296810312Y-72666498D01*
X296855706Y-72680286D01*
X296971703Y-72620764D01*
X297013699Y-72553286D01*
X297067758Y-72447422D01*
X297155191Y-72379023D01*
X297304744Y-72340076D01*
X297545162Y-72322572D01*
X297856057Y-72318540D01*
X298269887Y-72331379D01*
X298553091Y-72373816D01*
X298717794Y-72449216D01*
X298776122Y-72560945D01*
X298776572Y-72573982D01*
X298814800Y-72671170D01*
X298900685Y-72670704D01*
X298991030Y-72588117D01*
X299035934Y-72480715D01*
X299168220Y-71964676D01*
X299103039Y-71955781D01*
X299103039Y-71955781D01*
G37*
X299103039Y-71955781D02*
X298919349Y-71949944D01*
X298643759Y-71947581D01*
X298302877Y-71949111D01*
X298228918Y-71949925D01*
X297782716Y-71952147D01*
X297461739Y-71943934D01*
X297246227Y-71921630D01*
X297116420Y-71881581D01*
X297052559Y-71820133D01*
X297034883Y-71733632D01*
X297034857Y-71729093D01*
X296979890Y-71613473D01*
X296889715Y-71591715D01*
X296815505Y-71604570D01*
X296771963Y-71663188D01*
X296751068Y-71797647D01*
X296744799Y-72038025D01*
X296744572Y-72136000D01*
X296750051Y-72421928D01*
X296770139Y-72589820D01*
X296810312Y-72666498D01*
X296855706Y-72680286D01*
X296971703Y-72620764D01*
X297013699Y-72553286D01*
X297067758Y-72447422D01*
X297155191Y-72379023D01*
X297304744Y-72340076D01*
X297545162Y-72322572D01*
X297856057Y-72318540D01*
X298269887Y-72331379D01*
X298553091Y-72373816D01*
X298717794Y-72449216D01*
X298776122Y-72560945D01*
X298776572Y-72573982D01*
X298814800Y-72671170D01*
X298900685Y-72670704D01*
X298991030Y-72588117D01*
X299035934Y-72480715D01*
X299168220Y-71964676D01*
X299103039Y-71955781D01*
G36*
X299888625Y-80427286D02*
X299784512Y-80372252D01*
X299626780Y-80385843D01*
X299482128Y-80455497D01*
X299432268Y-80513229D01*
X299364041Y-80689359D01*
X299406594Y-80781103D01*
X299569653Y-80808262D01*
X299577196Y-80808286D01*
X299761581Y-80771642D01*
X299858874Y-80645229D01*
X299858961Y-80645000D01*
X299894982Y-80497840D01*
X299888625Y-80427286D01*
X299888625Y-80427286D01*
G37*
X299888625Y-80427286D02*
X299784512Y-80372252D01*
X299626780Y-80385843D01*
X299482128Y-80455497D01*
X299432268Y-80513229D01*
X299364041Y-80689359D01*
X299406594Y-80781103D01*
X299569653Y-80808262D01*
X299577196Y-80808286D01*
X299761581Y-80771642D01*
X299858874Y-80645229D01*
X299858961Y-80645000D01*
X299894982Y-80497840D01*
X299888625Y-80427286D01*
G36*
X299888625Y-75782715D02*
X299784512Y-75727681D01*
X299626780Y-75741272D01*
X299482128Y-75810926D01*
X299432268Y-75868658D01*
X299364041Y-76044787D01*
X299406594Y-76136531D01*
X299569653Y-76163691D01*
X299577196Y-76163715D01*
X299761581Y-76127071D01*
X299858874Y-76000658D01*
X299858961Y-76000429D01*
X299894982Y-75853268D01*
X299888625Y-75782715D01*
X299888625Y-75782715D01*
G37*
X299888625Y-75782715D02*
X299784512Y-75727681D01*
X299626780Y-75741272D01*
X299482128Y-75810926D01*
X299432268Y-75868658D01*
X299364041Y-76044787D01*
X299406594Y-76136531D01*
X299569653Y-76163691D01*
X299577196Y-76163715D01*
X299761581Y-76127071D01*
X299858874Y-76000658D01*
X299858961Y-76000429D01*
X299894982Y-75853268D01*
X299888625Y-75782715D01*
G36*
X299897665Y-71948482D02*
X299785622Y-71883378D01*
X299629953Y-71912018D01*
X299486133Y-72022100D01*
X299470115Y-72043291D01*
X299369225Y-72232072D01*
X299389312Y-72344753D01*
X299532662Y-72388779D01*
X299576654Y-72390000D01*
X299755647Y-72356068D01*
X299856110Y-72230460D01*
X299867458Y-72202482D01*
X299906673Y-72042015D01*
X299897665Y-71948482D01*
X299897665Y-71948482D01*
G37*
X299897665Y-71948482D02*
X299785622Y-71883378D01*
X299629953Y-71912018D01*
X299486133Y-72022100D01*
X299470115Y-72043291D01*
X299369225Y-72232072D01*
X299389312Y-72344753D01*
X299532662Y-72388779D01*
X299576654Y-72390000D01*
X299755647Y-72356068D01*
X299856110Y-72230460D01*
X299867458Y-72202482D01*
X299906673Y-72042015D01*
X299897665Y-71948482D01*
G36*
X290985817Y-72779785D02*
X290884814Y-72782376D01*
X290863210Y-72799476D01*
X290836524Y-72895782D01*
X290893035Y-72962657D01*
X290996965Y-73011651D01*
X291049445Y-72967772D01*
X291058569Y-72857737D01*
X290985817Y-72779785D01*
X290985817Y-72779785D01*
G37*
X290985817Y-72779785D02*
X290884814Y-72782376D01*
X290863210Y-72799476D01*
X290836524Y-72895782D01*
X290893035Y-72962657D01*
X290996965Y-73011651D01*
X291049445Y-72967772D01*
X291058569Y-72857737D01*
X290985817Y-72779785D01*
G36*
X291413186Y-72761781D02*
X291370003Y-72752858D01*
X291310801Y-72806361D01*
X291311015Y-72915834D01*
X291369271Y-73003758D01*
X291462477Y-72994658D01*
X291482411Y-72971756D01*
X291492126Y-72851005D01*
X291413186Y-72761781D01*
X291413186Y-72761781D01*
G37*
X291413186Y-72761781D02*
X291370003Y-72752858D01*
X291310801Y-72806361D01*
X291311015Y-72915834D01*
X291369271Y-73003758D01*
X291462477Y-72994658D01*
X291482411Y-72971756D01*
X291492126Y-72851005D01*
X291413186Y-72761781D01*
D15*
X211413000Y-62412000D03*
X218863000Y-62412000D03*
D16*
X211263000Y-66212000D03*
X219013000Y-66212000D03*
D17*
X212638000Y-63462000D03*
X217638000Y-63462000D03*
D18*
X53340000Y-65024000D03*
D19*
X53340000Y-68824000D03*
D18*
X62230000Y-66548000D03*
D19*
X62230000Y-69048000D03*
D18*
X69596000Y-67564000D03*
D19*
X69596000Y-69564000D03*
D20*
X229804000Y-64962000D03*
X238064000Y-64962000D03*
X238424000Y-70912000D03*
X229444000Y-70912000D03*
D21*
X237534000Y-63712000D03*
D22*
X230334000Y-63712000D03*
D23*
X255236000Y-76200000D03*
X243366000Y-76200000D03*
D24*
X244856000Y-69850000D03*
D25*
X246126000Y-67310000D03*
X247396000Y-69850000D03*
X248666000Y-67310000D03*
X249936000Y-69850000D03*
X251206000Y-67310000D03*
X252476000Y-69850000D03*
X253746000Y-67310000D03*
X222502000Y-70358000D03*
X219962000Y-70358000D03*
X217932000Y-70358000D03*
X215392000Y-70358000D03*
D26*
X225552000Y-73028000D03*
X211832000Y-73028000D03*
D27*
X18080000Y-76250000D03*
X18080000Y-75750000D03*
X18080000Y-75250000D03*
X18080000Y-74750000D03*
X18080000Y-74250000D03*
X18080000Y-73750000D03*
X18080000Y-73250000D03*
X18080000Y-72750000D03*
X18080000Y-72250000D03*
X18080000Y-71750000D03*
X18080000Y-71250000D03*
X18080000Y-70750000D03*
X18080000Y-70250000D03*
X18080000Y-69750000D03*
X18080000Y-69250000D03*
X18080000Y-68750000D03*
X18080000Y-68250000D03*
X18080000Y-67750000D03*
X18080000Y-67250000D03*
X18080000Y-66750000D03*
X18080000Y-66250000D03*
X18080000Y-65750000D03*
X18080000Y-65250000D03*
X18080000Y-64750000D03*
X18080000Y-64250000D03*
X18080000Y-63750000D03*
X18080000Y-63250000D03*
X18080000Y-62750000D03*
X18080000Y-62250000D03*
X18080000Y-61750000D03*
X18080000Y-61250000D03*
X18080000Y-60750000D03*
X18080000Y-60250000D03*
X18080000Y-59750000D03*
X18080000Y-59250000D03*
X18080000Y-58750000D03*
D28*
X20030000Y-56800000D03*
X20530000Y-56800000D03*
X21030000Y-56800000D03*
X21530000Y-56800000D03*
X22030000Y-56800000D03*
X22530000Y-56800000D03*
X23030000Y-56800000D03*
X23530000Y-56800000D03*
X24030000Y-56800000D03*
X24530000Y-56800000D03*
X25030000Y-56800000D03*
X25530000Y-56800000D03*
X26030000Y-56800000D03*
X26530000Y-56800000D03*
X27030000Y-56800000D03*
X27530000Y-56800000D03*
X28030000Y-56800000D03*
X28530000Y-56800000D03*
X29030000Y-56800000D03*
X29530000Y-56800000D03*
X30030000Y-56800000D03*
X30530000Y-56800000D03*
X31030000Y-56800000D03*
X31530000Y-56800000D03*
X32030000Y-56800000D03*
X32530000Y-56800000D03*
X33030000Y-56800000D03*
X33530000Y-56800000D03*
X34030000Y-56800000D03*
X34530000Y-56800000D03*
X35030000Y-56800000D03*
X35530000Y-56800000D03*
X36030000Y-56800000D03*
X36530000Y-56800000D03*
X37030000Y-56800000D03*
X37530000Y-56800000D03*
D27*
X39480000Y-58750000D03*
X39480000Y-59250000D03*
X39480000Y-59750000D03*
X39480000Y-60250000D03*
X39480000Y-60750000D03*
X39480000Y-61250000D03*
X39480000Y-61750000D03*
X39480000Y-62250000D03*
X39480000Y-62750000D03*
X39480000Y-63250000D03*
X39480000Y-63750000D03*
X39480000Y-64250000D03*
X39480000Y-64750000D03*
X39480000Y-65250000D03*
X39480000Y-65750000D03*
X39480000Y-66250000D03*
X39480000Y-66750000D03*
X39480000Y-67250000D03*
X39480000Y-67750000D03*
X39480000Y-68250000D03*
X39480000Y-68750000D03*
X39480000Y-69250000D03*
X39480000Y-69750000D03*
X39480000Y-70250000D03*
X39480000Y-70750000D03*
X39480000Y-71250000D03*
X39480000Y-71750000D03*
X39480000Y-72250000D03*
X39480000Y-72750000D03*
X39480000Y-73250000D03*
X39480000Y-73750000D03*
X39480000Y-74250000D03*
X39480000Y-74750000D03*
X39480000Y-75250000D03*
X39480000Y-75750000D03*
X39480000Y-76250000D03*
D28*
X37530000Y-78200000D03*
X37030000Y-78200000D03*
X36530000Y-78200000D03*
X36030000Y-78200000D03*
X35530000Y-78200000D03*
X35030000Y-78200000D03*
X34530000Y-78200000D03*
X34030000Y-78200000D03*
X33530000Y-78200000D03*
X33030000Y-78200000D03*
X32530000Y-78200000D03*
X32030000Y-78200000D03*
X31530000Y-78200000D03*
X31030000Y-78200000D03*
X30530000Y-78200000D03*
X30030000Y-78200000D03*
X29530000Y-78200000D03*
X29030000Y-78200000D03*
X28530000Y-78200000D03*
X28030000Y-78200000D03*
X27530000Y-78200000D03*
X27030000Y-78200000D03*
X26530000Y-78200000D03*
X26030000Y-78200000D03*
X25530000Y-78200000D03*
X25030000Y-78200000D03*
X24530000Y-78200000D03*
X24030000Y-78200000D03*
X23530000Y-78200000D03*
X23030000Y-78200000D03*
X22530000Y-78200000D03*
X22030000Y-78200000D03*
X21530000Y-78200000D03*
X21030000Y-78200000D03*
X20530000Y-78200000D03*
X20030000Y-78200000D03*
D29*
X61530000Y-61750000D03*
X61530000Y-61250000D03*
X61530000Y-60750000D03*
X61530000Y-60250000D03*
X61530000Y-59750000D03*
X61530000Y-59250000D03*
X61530000Y-58750000D03*
X61530000Y-58250000D03*
D30*
X63030000Y-56750000D03*
X63530000Y-56750000D03*
X64030000Y-56750000D03*
X64530000Y-56750000D03*
X65030000Y-56750000D03*
X65530000Y-56750000D03*
X66030000Y-56750000D03*
X66530000Y-56750000D03*
D29*
X68030000Y-58250000D03*
X68030000Y-58750000D03*
X68030000Y-59250000D03*
X68030000Y-59750000D03*
X68030000Y-60250000D03*
X68030000Y-60750000D03*
X68030000Y-61250000D03*
X68030000Y-61750000D03*
D30*
X66530000Y-63250000D03*
X66030000Y-63250000D03*
X65530000Y-63250000D03*
X65030000Y-63250000D03*
X64530000Y-63250000D03*
X64030000Y-63250000D03*
X63530000Y-63250000D03*
X63030000Y-63250000D03*
D31*
X55330000Y-81500000D03*
X55330000Y-81000000D03*
X55330000Y-80500000D03*
X55330000Y-80000000D03*
X55330000Y-79500000D03*
X55330000Y-79000000D03*
X55330000Y-78500000D03*
X55330000Y-78000000D03*
X55330000Y-77500000D03*
X55330000Y-77000000D03*
X55330000Y-76500000D03*
X55330000Y-76000000D03*
X55330000Y-75500000D03*
X55330000Y-75000000D03*
X55330000Y-74500000D03*
X55330000Y-74000000D03*
D32*
X57280000Y-72050000D03*
X57780000Y-72050000D03*
X58280000Y-72050000D03*
X58780000Y-72050000D03*
X59280000Y-72050000D03*
X59780000Y-72050000D03*
X60280000Y-72050000D03*
X60780000Y-72050000D03*
X61280000Y-72050000D03*
X61780000Y-72050000D03*
X62280000Y-72050000D03*
X62780000Y-72050000D03*
X63280000Y-72050000D03*
X63780000Y-72050000D03*
X64280000Y-72050000D03*
X64780000Y-72050000D03*
D31*
X66730000Y-74000000D03*
X66730000Y-74500000D03*
X66730000Y-75000000D03*
X66730000Y-75500000D03*
X66730000Y-76000000D03*
X66730000Y-76500000D03*
X66730000Y-77000000D03*
X66730000Y-77500000D03*
X66730000Y-78000000D03*
X66730000Y-78500000D03*
X66730000Y-79000000D03*
X66730000Y-79500000D03*
X66730000Y-80000000D03*
X66730000Y-80500000D03*
X66730000Y-81000000D03*
X66730000Y-81500000D03*
D32*
X64780000Y-83450000D03*
X64280000Y-83450000D03*
X63780000Y-83450000D03*
X63280000Y-83450000D03*
X62780000Y-83450000D03*
X62280000Y-83450000D03*
X61780000Y-83450000D03*
X61280000Y-83450000D03*
X60780000Y-83450000D03*
X60280000Y-83450000D03*
X59780000Y-83450000D03*
X59280000Y-83450000D03*
X58780000Y-83450000D03*
X58280000Y-83450000D03*
X57780000Y-83450000D03*
X57280000Y-83450000D03*
D33*
X82330000Y-81945000D03*
X82330000Y-81545000D03*
X82330000Y-81145000D03*
X82330000Y-80745000D03*
X82330000Y-80345000D03*
X82330000Y-79945000D03*
X82330000Y-79545000D03*
X82330000Y-79145000D03*
X82330000Y-78745000D03*
X82330000Y-78345000D03*
X82330000Y-77945000D03*
X82330000Y-77545000D03*
X82330000Y-77145000D03*
X82330000Y-76745000D03*
X82330000Y-76345000D03*
X82330000Y-75945000D03*
X82330000Y-75545000D03*
X82330000Y-75145000D03*
X82330000Y-74745000D03*
X82330000Y-74345000D03*
X82330000Y-73945000D03*
X82330000Y-73545000D03*
X82330000Y-73145000D03*
X82330000Y-72745000D03*
X82330000Y-72345000D03*
X82330000Y-71945000D03*
X82330000Y-71545000D03*
X82330000Y-71145000D03*
X82330000Y-70745000D03*
X82330000Y-70345000D03*
X82330000Y-69945000D03*
X82330000Y-69545000D03*
X82330000Y-69145000D03*
X82330000Y-68745000D03*
X82330000Y-68345000D03*
X82330000Y-67945000D03*
D34*
X84030000Y-66245000D03*
X84430000Y-66245000D03*
X84830000Y-66245000D03*
X85230000Y-66245000D03*
X85630000Y-66245000D03*
X86030000Y-66245000D03*
X86430000Y-66245000D03*
X86830000Y-66245000D03*
X87230000Y-66245000D03*
X87630000Y-66245000D03*
X88030000Y-66245000D03*
X88430000Y-66245000D03*
X88830000Y-66245000D03*
X89230000Y-66245000D03*
X89630000Y-66245000D03*
X90030000Y-66245000D03*
X90430000Y-66245000D03*
X90830000Y-66245000D03*
X91230000Y-66245000D03*
X91630000Y-66245000D03*
X92030000Y-66245000D03*
X92430000Y-66245000D03*
X92830000Y-66245000D03*
X93230000Y-66245000D03*
X93630000Y-66245000D03*
X94030000Y-66245000D03*
X94430000Y-66245000D03*
X94830000Y-66245000D03*
X95230000Y-66245000D03*
X95630000Y-66245000D03*
X96030000Y-66245000D03*
X96430000Y-66245000D03*
X96830000Y-66245000D03*
X97230000Y-66245000D03*
X97630000Y-66245000D03*
X98030000Y-66245000D03*
D33*
X99730000Y-67945000D03*
X99730000Y-68345000D03*
X99730000Y-68745000D03*
X99730000Y-69145000D03*
X99730000Y-69545000D03*
X99730000Y-69945000D03*
X99730000Y-70345000D03*
X99730000Y-70745000D03*
X99730000Y-71145000D03*
X99730000Y-71545000D03*
X99730000Y-71945000D03*
X99730000Y-72345000D03*
X99730000Y-72745000D03*
X99730000Y-73145000D03*
X99730000Y-73545000D03*
X99730000Y-73945000D03*
X99730000Y-74345000D03*
X99730000Y-74745000D03*
X99730000Y-75145000D03*
X99730000Y-75545000D03*
X99730000Y-75945000D03*
X99730000Y-76345000D03*
X99730000Y-76745000D03*
X99730000Y-77145000D03*
X99730000Y-77545000D03*
X99730000Y-77945000D03*
X99730000Y-78345000D03*
X99730000Y-78745000D03*
X99730000Y-79145000D03*
X99730000Y-79545000D03*
X99730000Y-79945000D03*
X99730000Y-80345000D03*
X99730000Y-80745000D03*
X99730000Y-81145000D03*
X99730000Y-81545000D03*
X99730000Y-81945000D03*
D34*
X98030000Y-83645000D03*
X97630000Y-83645000D03*
X97230000Y-83645000D03*
X96830000Y-83645000D03*
X96430000Y-83645000D03*
X96030000Y-83645000D03*
X95630000Y-83645000D03*
X95230000Y-83645000D03*
X94830000Y-83645000D03*
X94430000Y-83645000D03*
X94030000Y-83645000D03*
X93630000Y-83645000D03*
X93230000Y-83645000D03*
X92830000Y-83645000D03*
X92430000Y-83645000D03*
X92030000Y-83645000D03*
X91630000Y-83645000D03*
X91230000Y-83645000D03*
X90830000Y-83645000D03*
X90430000Y-83645000D03*
X90030000Y-83645000D03*
X89630000Y-83645000D03*
X89230000Y-83645000D03*
X88830000Y-83645000D03*
X88430000Y-83645000D03*
X88030000Y-83645000D03*
X87630000Y-83645000D03*
X87230000Y-83645000D03*
X86830000Y-83645000D03*
X86430000Y-83645000D03*
X86030000Y-83645000D03*
X85630000Y-83645000D03*
X85230000Y-83645000D03*
X84830000Y-83645000D03*
X84430000Y-83645000D03*
X84030000Y-83645000D03*
D35*
X120080000Y-76500000D03*
X120880000Y-76500000D03*
X121680000Y-76500000D03*
X124880000Y-76500000D03*
X125680000Y-76500000D03*
X126480000Y-76500000D03*
X120080000Y-75700000D03*
X120880000Y-75700000D03*
X121680000Y-75700000D03*
X124880000Y-75700000D03*
X125680000Y-75700000D03*
X126480000Y-75700000D03*
X120080000Y-74900000D03*
X120880000Y-74900000D03*
X121680000Y-74900000D03*
X124880000Y-74900000D03*
X125680000Y-74900000D03*
X126480000Y-74900000D03*
X120080000Y-74100000D03*
X120880000Y-74100000D03*
X121680000Y-74100000D03*
X124880000Y-74100000D03*
X125680000Y-74100000D03*
X126480000Y-74100000D03*
X120080000Y-73300000D03*
X120880000Y-73300000D03*
X121680000Y-73300000D03*
X124880000Y-73300000D03*
X125680000Y-73300000D03*
X126480000Y-73300000D03*
X120080000Y-72500000D03*
X120880000Y-72500000D03*
X121680000Y-72500000D03*
X124880000Y-72500000D03*
X125680000Y-72500000D03*
X126480000Y-72500000D03*
X120080000Y-71700000D03*
X120880000Y-71700000D03*
X121680000Y-71700000D03*
X124880000Y-71700000D03*
X125680000Y-71700000D03*
X126480000Y-71700000D03*
X120080000Y-70900000D03*
X120880000Y-70900000D03*
X121680000Y-70900000D03*
X124880000Y-70900000D03*
X125680000Y-70900000D03*
X126480000Y-70900000D03*
X120080000Y-70100000D03*
X120880000Y-70100000D03*
X121680000Y-70100000D03*
X124880000Y-70100000D03*
X125680000Y-70100000D03*
X126480000Y-70100000D03*
X120080000Y-69300000D03*
X120880000Y-69300000D03*
X121680000Y-69300000D03*
X124880000Y-69300000D03*
X125680000Y-69300000D03*
X126480000Y-69300000D03*
X120080000Y-68500000D03*
X120880000Y-68500000D03*
X121680000Y-68500000D03*
X124880000Y-68500000D03*
X125680000Y-68500000D03*
X126480000Y-68500000D03*
X120080000Y-67700000D03*
X120880000Y-67700000D03*
X121680000Y-67700000D03*
X124880000Y-67700000D03*
X125680000Y-67700000D03*
X126480000Y-67700000D03*
X120080000Y-66900000D03*
X120880000Y-66900000D03*
X121680000Y-66900000D03*
X124880000Y-66900000D03*
X125680000Y-66900000D03*
X126480000Y-66900000D03*
X120080000Y-66100000D03*
X120880000Y-66100000D03*
X121680000Y-66100000D03*
X124880000Y-66100000D03*
X125680000Y-66100000D03*
X126480000Y-66100000D03*
X120080000Y-65300000D03*
X120880000Y-65300000D03*
X121680000Y-65300000D03*
X124880000Y-65300000D03*
X125680000Y-65300000D03*
X126480000Y-65300000D03*
X120080000Y-64500000D03*
X120880000Y-64500000D03*
X121680000Y-64500000D03*
X124880000Y-64500000D03*
X125680000Y-64500000D03*
X126480000Y-64500000D03*
D36*
X70280000Y-81250000D03*
X70280000Y-80750000D03*
X70280000Y-80250000D03*
X70280000Y-79250000D03*
X70280000Y-78250000D03*
X70280000Y-77250000D03*
X70280000Y-76250000D03*
X70280000Y-75250000D03*
X70280000Y-74750000D03*
X70280000Y-74250000D03*
X70780000Y-81250000D03*
X70780000Y-80750000D03*
X70780000Y-80250000D03*
X70780000Y-79750000D03*
X70780000Y-79250000D03*
X70780000Y-78750000D03*
X70780000Y-78250000D03*
X70780000Y-77750000D03*
X70780000Y-77250000D03*
X70780000Y-76750000D03*
X70780000Y-76250000D03*
X70780000Y-75750000D03*
X70780000Y-75250000D03*
X70780000Y-74750000D03*
X70780000Y-74250000D03*
X71280000Y-81250000D03*
X71280000Y-80750000D03*
X71280000Y-77750000D03*
X71280000Y-74750000D03*
X71280000Y-74250000D03*
X71780000Y-80750000D03*
X71780000Y-79750000D03*
X71780000Y-79250000D03*
X71780000Y-78750000D03*
X71780000Y-78250000D03*
X71780000Y-77750000D03*
X71780000Y-77250000D03*
X71780000Y-76750000D03*
X71780000Y-76250000D03*
X71780000Y-75750000D03*
X71780000Y-74750000D03*
X72280000Y-81250000D03*
X72280000Y-80750000D03*
X72280000Y-79750000D03*
X72280000Y-79250000D03*
X72280000Y-78750000D03*
X72280000Y-78250000D03*
X72280000Y-77750000D03*
X72280000Y-77250000D03*
X72280000Y-76750000D03*
X72280000Y-76250000D03*
X72280000Y-75750000D03*
X72280000Y-74750000D03*
X72280000Y-74250000D03*
X72780000Y-80750000D03*
X72780000Y-79750000D03*
X72780000Y-79250000D03*
X72780000Y-76250000D03*
X72780000Y-75750000D03*
X72780000Y-74750000D03*
X73280000Y-81250000D03*
X73280000Y-80750000D03*
X73280000Y-79750000D03*
X73280000Y-79250000D03*
X73280000Y-78250000D03*
X73280000Y-77750000D03*
X73280000Y-77250000D03*
X73280000Y-76250000D03*
X73280000Y-75750000D03*
X73280000Y-74750000D03*
X73280000Y-74250000D03*
X73780000Y-80750000D03*
X73780000Y-80250000D03*
X73780000Y-79750000D03*
X73780000Y-79250000D03*
X73780000Y-78250000D03*
X73780000Y-77750000D03*
X73780000Y-77250000D03*
X73780000Y-76250000D03*
X73780000Y-75750000D03*
X73780000Y-75250000D03*
X73780000Y-74750000D03*
X74280000Y-81250000D03*
X74280000Y-80750000D03*
X74280000Y-79750000D03*
X74280000Y-79250000D03*
X74280000Y-78250000D03*
X74280000Y-77750000D03*
X74280000Y-77250000D03*
X74280000Y-76250000D03*
X74280000Y-75750000D03*
X74280000Y-74750000D03*
X74280000Y-74250000D03*
X74780000Y-80750000D03*
X74780000Y-79750000D03*
X74780000Y-79250000D03*
X74780000Y-76250000D03*
X74780000Y-75750000D03*
X74780000Y-74750000D03*
X75280000Y-81250000D03*
X75280000Y-80750000D03*
X75280000Y-79750000D03*
X75280000Y-79250000D03*
X75280000Y-78750000D03*
X75280000Y-78250000D03*
X75280000Y-77750000D03*
X75280000Y-77250000D03*
X75280000Y-76750000D03*
X75280000Y-76250000D03*
X75280000Y-75750000D03*
X75280000Y-74750000D03*
X75280000Y-74250000D03*
X75780000Y-80750000D03*
X75780000Y-79750000D03*
X75780000Y-79250000D03*
X75780000Y-78750000D03*
X75780000Y-78250000D03*
X75780000Y-77750000D03*
X75780000Y-77250000D03*
X75780000Y-76750000D03*
X75780000Y-76250000D03*
X75780000Y-75750000D03*
X75780000Y-74750000D03*
X76280000Y-81250000D03*
X76280000Y-80750000D03*
X76280000Y-77750000D03*
X76280000Y-74750000D03*
X76280000Y-74250000D03*
X76780000Y-81250000D03*
X76780000Y-80750000D03*
X76780000Y-80250000D03*
X76780000Y-79750000D03*
X76780000Y-79250000D03*
X76780000Y-78750000D03*
X76780000Y-78250000D03*
X76780000Y-77750000D03*
X76780000Y-77250000D03*
X76780000Y-76750000D03*
X76780000Y-76250000D03*
X76780000Y-75750000D03*
X76780000Y-75250000D03*
X76780000Y-74750000D03*
X76780000Y-74250000D03*
X77280000Y-81250000D03*
X77280000Y-80750000D03*
X77280000Y-80250000D03*
X77280000Y-79250000D03*
X77280000Y-78250000D03*
X77280000Y-77250000D03*
X77280000Y-76250000D03*
X77280000Y-75250000D03*
X77280000Y-74750000D03*
X77280000Y-74250000D03*
D37*
X43080000Y-81750000D03*
X43080000Y-81250000D03*
X43080000Y-80750000D03*
X43080000Y-80250000D03*
X43080000Y-79750000D03*
X43080000Y-79250000D03*
X43080000Y-78750000D03*
X43080000Y-78250000D03*
X43080000Y-77750000D03*
X43080000Y-77250000D03*
X43080000Y-76750000D03*
X43080000Y-76250000D03*
X43080000Y-75750000D03*
X43080000Y-75250000D03*
X43080000Y-74750000D03*
X43080000Y-74250000D03*
D38*
X43780000Y-73550000D03*
X44280000Y-73550000D03*
X44780000Y-73550000D03*
X45280000Y-73550000D03*
X45780000Y-73550000D03*
X46280000Y-73550000D03*
X46780000Y-73550000D03*
X47280000Y-73550000D03*
X47780000Y-73550000D03*
X48280000Y-73550000D03*
X48780000Y-73550000D03*
X49280000Y-73550000D03*
X49780000Y-73550000D03*
X50280000Y-73550000D03*
X50780000Y-73550000D03*
X51280000Y-73550000D03*
D37*
X51980000Y-74250000D03*
X51980000Y-74750000D03*
X51980000Y-75250000D03*
X51980000Y-75750000D03*
X51980000Y-76250000D03*
X51980000Y-76750000D03*
X51980000Y-77250000D03*
X51980000Y-77750000D03*
X51980000Y-78250000D03*
X51980000Y-78750000D03*
X51980000Y-79250000D03*
X51980000Y-79750000D03*
X51980000Y-80250000D03*
X51980000Y-80750000D03*
X51980000Y-81250000D03*
X51980000Y-81750000D03*
D38*
X51280000Y-82450000D03*
X50780000Y-82450000D03*
X50280000Y-82450000D03*
X49780000Y-82450000D03*
X49280000Y-82450000D03*
X48780000Y-82450000D03*
X48280000Y-82450000D03*
X47780000Y-82450000D03*
X47280000Y-82450000D03*
X46780000Y-82450000D03*
X46280000Y-82450000D03*
X45780000Y-82450000D03*
X45280000Y-82450000D03*
X44780000Y-82450000D03*
X44280000Y-82450000D03*
X43780000Y-82450000D03*
D39*
X50286250Y-75243750D03*
X50286250Y-77081250D03*
X50286250Y-78918750D03*
X50286250Y-80756250D03*
X48448750Y-75243750D03*
X48448750Y-77081250D03*
X48448750Y-78918750D03*
X48448750Y-80756250D03*
X46611250Y-75243750D03*
X46611250Y-77081250D03*
X46611250Y-78918750D03*
X46611250Y-80756250D03*
X44773750Y-75243750D03*
X44773750Y-77081250D03*
X44773750Y-78918750D03*
X44773750Y-80756250D03*
D40*
X44880000Y-63000000D03*
X44880000Y-62500000D03*
X44880000Y-62000000D03*
X44880000Y-61500000D03*
X44880000Y-61000000D03*
X44880000Y-60500000D03*
X44880000Y-60000000D03*
X44880000Y-59500000D03*
D41*
X45530000Y-58850000D03*
X46030000Y-58850000D03*
X46530000Y-58850000D03*
X47030000Y-58850000D03*
X47530000Y-58850000D03*
X48030000Y-58850000D03*
X48530000Y-58850000D03*
X49030000Y-58850000D03*
D40*
X49680000Y-59500000D03*
X49680000Y-60000000D03*
X49680000Y-60500000D03*
X49680000Y-61000000D03*
X49680000Y-61500000D03*
X49680000Y-62000000D03*
X49680000Y-62500000D03*
X49680000Y-63000000D03*
D41*
X49030000Y-63650000D03*
X48530000Y-63650000D03*
X48030000Y-63650000D03*
X47530000Y-63650000D03*
X47030000Y-63650000D03*
X46530000Y-63650000D03*
X46030000Y-63650000D03*
X45530000Y-63650000D03*
D42*
X48142500Y-60387500D03*
X48142500Y-62112500D03*
X46417500Y-60387500D03*
X46417500Y-62112500D03*
D43*
X104580000Y-68900000D03*
X105380000Y-68900000D03*
X106180000Y-68900000D03*
X106980000Y-68900000D03*
X107780000Y-68900000D03*
X111780000Y-68900000D03*
X112580000Y-68900000D03*
X113380000Y-68900000D03*
X114180000Y-68900000D03*
X114980000Y-68900000D03*
X104580000Y-68100000D03*
X105380000Y-68100000D03*
X106180000Y-68100000D03*
X106980000Y-68100000D03*
X107780000Y-68100000D03*
X111780000Y-68100000D03*
X112580000Y-68100000D03*
X113380000Y-68100000D03*
X114180000Y-68100000D03*
X114980000Y-68100000D03*
X104580000Y-67300000D03*
X105380000Y-67300000D03*
X106180000Y-67300000D03*
X106980000Y-67300000D03*
X107780000Y-67300000D03*
X111780000Y-67300000D03*
X112580000Y-67300000D03*
X113380000Y-67300000D03*
X114180000Y-67300000D03*
X114980000Y-67300000D03*
X104580000Y-66500000D03*
X105380000Y-66500000D03*
X106180000Y-66500000D03*
X106980000Y-66500000D03*
X107780000Y-66500000D03*
X111780000Y-66500000D03*
X112580000Y-66500000D03*
X113380000Y-66500000D03*
X114180000Y-66500000D03*
X114980000Y-66500000D03*
X104580000Y-65700000D03*
X106980000Y-65700000D03*
X107780000Y-65700000D03*
X106180000Y-65700000D03*
X105380000Y-65700000D03*
X111780000Y-65700000D03*
X112580000Y-65700000D03*
X113380000Y-65700000D03*
X114180000Y-65700000D03*
X114980000Y-65700000D03*
X104580000Y-64900000D03*
X105380000Y-64900000D03*
X106180000Y-64900000D03*
X106980000Y-64900000D03*
X107780000Y-64900000D03*
X111780000Y-64900000D03*
X112580000Y-64900000D03*
X113380000Y-64900000D03*
X114180000Y-64900000D03*
X114980000Y-64900000D03*
X104580000Y-64100000D03*
X105380000Y-64100000D03*
X106180000Y-64100000D03*
X106980000Y-64100000D03*
X107780000Y-64100000D03*
X111780000Y-64100000D03*
X112580000Y-64100000D03*
X113380000Y-64100000D03*
X114180000Y-64100000D03*
X114980000Y-64100000D03*
X104580000Y-63300000D03*
X105380000Y-63300000D03*
X106180000Y-63300000D03*
X106980000Y-63300000D03*
X107780000Y-63300000D03*
X111780000Y-63300000D03*
X112580000Y-63300000D03*
X113380000Y-63300000D03*
X114180000Y-63300000D03*
X114980000Y-63300000D03*
X104580000Y-62500000D03*
X105380000Y-62500000D03*
X106180000Y-62500000D03*
X106980000Y-62500000D03*
X107780000Y-62500000D03*
X111780000Y-62500000D03*
X112580000Y-62500000D03*
X113380000Y-62500000D03*
X114180000Y-62500000D03*
X114980000Y-62500000D03*
X104580000Y-61700000D03*
X105380000Y-61700000D03*
X106180000Y-61700000D03*
X106980000Y-61700000D03*
X107780000Y-61700000D03*
X111780000Y-61700000D03*
X112580000Y-61700000D03*
X113380000Y-61700000D03*
X114180000Y-61700000D03*
X114980000Y-61700000D03*
X104580000Y-60900000D03*
X105380000Y-60900000D03*
X106180000Y-60900000D03*
X106980000Y-60900000D03*
X107780000Y-60900000D03*
X111780000Y-60900000D03*
X112580000Y-60900000D03*
X113380000Y-60900000D03*
X114180000Y-60900000D03*
X114980000Y-60900000D03*
X104580000Y-60100000D03*
X105380000Y-60100000D03*
X106180000Y-60100000D03*
X106980000Y-60100000D03*
X107780000Y-60100000D03*
X111780000Y-60100000D03*
X112580000Y-60100000D03*
X113380000Y-60100000D03*
X114180000Y-60100000D03*
X114980000Y-60100000D03*
X104580000Y-59300000D03*
X105380000Y-59300000D03*
X106180000Y-59300000D03*
X106980000Y-59300000D03*
X107780000Y-59300000D03*
X111780000Y-59300000D03*
X112580000Y-59300000D03*
X113380000Y-59300000D03*
X114180000Y-59300000D03*
X114980000Y-59300000D03*
X104580000Y-58500000D03*
X105380000Y-58500000D03*
X106180000Y-58500000D03*
X106980000Y-58500000D03*
X107780000Y-58500000D03*
X111780000Y-58500000D03*
X112580000Y-58500000D03*
X113380000Y-58500000D03*
X114180000Y-58500000D03*
X114980000Y-58500000D03*
X104580000Y-57700000D03*
X105380000Y-57700000D03*
X106180000Y-57700000D03*
X106980000Y-57700000D03*
X107780000Y-57700000D03*
X111780000Y-57700000D03*
X112580000Y-57700000D03*
X113380000Y-57700000D03*
X114180000Y-57700000D03*
X114980000Y-57700000D03*
X104580000Y-56900000D03*
X105380000Y-56900000D03*
X106180000Y-56900000D03*
X106980000Y-56900000D03*
X107780000Y-56900000D03*
X111780000Y-56900000D03*
X112580000Y-56900000D03*
X113380000Y-56900000D03*
X114180000Y-56900000D03*
X114980000Y-56900000D03*
X104580000Y-56100000D03*
X105380000Y-56100000D03*
X106180000Y-56100000D03*
X106980000Y-56100000D03*
X107780000Y-56100000D03*
X111780000Y-56100000D03*
X112580000Y-56100000D03*
X113380000Y-56100000D03*
X114180000Y-56100000D03*
X114980000Y-56100000D03*
D44*
X106580000Y-81500000D03*
X107380000Y-81500000D03*
X108180000Y-81500000D03*
X111380000Y-81500000D03*
X112180000Y-81500000D03*
X112980000Y-81500000D03*
X106580000Y-80700000D03*
X107380000Y-80700000D03*
X108180000Y-80700000D03*
X111380000Y-80700000D03*
X112180000Y-80700000D03*
X112980000Y-80700000D03*
X106580000Y-79900000D03*
X107380000Y-79900000D03*
X108180000Y-79900000D03*
X111380000Y-79900000D03*
X112180000Y-79900000D03*
X112980000Y-79900000D03*
X106580000Y-79100000D03*
X107380000Y-79100000D03*
X108180000Y-79100000D03*
X106580000Y-78300000D03*
X106580000Y-77500000D03*
X106580000Y-76700000D03*
X106580000Y-75900000D03*
X106580000Y-75100000D03*
X106580000Y-74300000D03*
X107380000Y-74300000D03*
X107380000Y-75100000D03*
X107380000Y-75900000D03*
X107380000Y-76700000D03*
X107380000Y-77500000D03*
X107380000Y-78300000D03*
X108180000Y-78300000D03*
X108180000Y-77500000D03*
X108180000Y-76700000D03*
X108180000Y-75900000D03*
X108180000Y-75100000D03*
X108180000Y-74300000D03*
X111380000Y-79100000D03*
X112180000Y-79100000D03*
X112980000Y-79100000D03*
X112980000Y-78300000D03*
X112180000Y-78300000D03*
X111380000Y-78300000D03*
X111380000Y-77500000D03*
X112180000Y-77500000D03*
X112980000Y-77500000D03*
X112980000Y-76700000D03*
X112180000Y-76700000D03*
X111380000Y-76700000D03*
X111380000Y-75900000D03*
X112180000Y-75900000D03*
X112980000Y-75900000D03*
X112980000Y-75100000D03*
X112180000Y-75100000D03*
X111380000Y-75100000D03*
X111380000Y-74300000D03*
X112180000Y-74300000D03*
X112980000Y-74300000D03*
D35*
X131380000Y-78900000D03*
X132180000Y-78900000D03*
X132980000Y-78900000D03*
X133780000Y-78900000D03*
X134580000Y-78900000D03*
X136980000Y-78900000D03*
X137780000Y-78900000D03*
X138580000Y-78900000D03*
X139380000Y-78900000D03*
X140180000Y-78900000D03*
X131380000Y-78100000D03*
X132180000Y-78100000D03*
X132980000Y-78100000D03*
X133780000Y-78100000D03*
X134580000Y-78100000D03*
X136980000Y-78100000D03*
X137780000Y-78100000D03*
X138580000Y-78100000D03*
X139380000Y-78100000D03*
X140180000Y-78100000D03*
X131380000Y-77300000D03*
X132180000Y-77300000D03*
X132980000Y-77300000D03*
X133780000Y-77300000D03*
X134580000Y-77300000D03*
X136980000Y-77300000D03*
X137780000Y-77300000D03*
X138580000Y-77300000D03*
X139380000Y-77300000D03*
X140180000Y-77300000D03*
X131380000Y-76500000D03*
X132180000Y-76500000D03*
X132980000Y-76500000D03*
X133780000Y-76500000D03*
X134580000Y-76500000D03*
X136980000Y-76500000D03*
X137780000Y-76500000D03*
X138580000Y-76500000D03*
X139380000Y-76500000D03*
X140180000Y-76500000D03*
X131380000Y-75700000D03*
X132180000Y-75700000D03*
X132980000Y-75700000D03*
X133780000Y-75700000D03*
X134580000Y-75700000D03*
X136980000Y-75700000D03*
X137780000Y-75700000D03*
X138580000Y-75700000D03*
X139380000Y-75700000D03*
X140180000Y-75700000D03*
X131380000Y-74900000D03*
X132180000Y-74900000D03*
X132980000Y-74900000D03*
X133780000Y-74900000D03*
X134580000Y-74900000D03*
X136980000Y-74900000D03*
X137780000Y-74900000D03*
X138580000Y-74900000D03*
X139380000Y-74900000D03*
X140180000Y-74900000D03*
X131380000Y-74100000D03*
X132180000Y-74100000D03*
X132980000Y-74100000D03*
X133780000Y-74100000D03*
X134580000Y-74100000D03*
X136980000Y-74100000D03*
X137780000Y-74100000D03*
X138580000Y-74100000D03*
X139380000Y-74100000D03*
X140180000Y-74100000D03*
X131380000Y-73300000D03*
X132180000Y-73300000D03*
X132980000Y-73300000D03*
X133780000Y-73300000D03*
X134580000Y-73300000D03*
X136980000Y-73300000D03*
X137780000Y-73300000D03*
X138580000Y-73300000D03*
X139380000Y-73300000D03*
X140180000Y-73300000D03*
X131380000Y-72500000D03*
X132180000Y-72500000D03*
X132980000Y-72500000D03*
X133780000Y-72500000D03*
X134580000Y-72500000D03*
X136980000Y-72500000D03*
X137780000Y-72500000D03*
X138580000Y-72500000D03*
X139380000Y-72500000D03*
X140180000Y-72500000D03*
X131380000Y-71700000D03*
X132180000Y-71700000D03*
X132980000Y-71700000D03*
X133780000Y-71700000D03*
X134580000Y-71700000D03*
X136980000Y-71700000D03*
X137780000Y-71700000D03*
X138580000Y-71700000D03*
X139380000Y-71700000D03*
X140180000Y-71700000D03*
X131380000Y-69300000D03*
X132180000Y-69300000D03*
X132980000Y-69300000D03*
X133780000Y-69300000D03*
X134580000Y-69300000D03*
X136980000Y-69300000D03*
X137780000Y-69300000D03*
X138580000Y-69300000D03*
X139380000Y-69300000D03*
X140180000Y-69300000D03*
X131380000Y-68500000D03*
X132180000Y-68500000D03*
X132980000Y-68500000D03*
X133780000Y-68500000D03*
X134580000Y-68500000D03*
X136980000Y-68500000D03*
X137780000Y-68500000D03*
X138580000Y-68500000D03*
X139380000Y-68500000D03*
X140180000Y-68500000D03*
X131380000Y-67700000D03*
X132180000Y-67700000D03*
X132980000Y-67700000D03*
X133780000Y-67700000D03*
X134580000Y-67700000D03*
X136980000Y-67700000D03*
X137780000Y-67700000D03*
X138580000Y-67700000D03*
X139380000Y-67700000D03*
X140180000Y-67700000D03*
X131380000Y-66900000D03*
X132180000Y-66900000D03*
X132980000Y-66900000D03*
X133780000Y-66900000D03*
X134580000Y-66900000D03*
X136980000Y-66900000D03*
X137780000Y-66900000D03*
X138580000Y-66900000D03*
X139380000Y-66900000D03*
X140180000Y-66900000D03*
X131380000Y-66100000D03*
X132180000Y-66100000D03*
X132980000Y-66100000D03*
X133780000Y-66100000D03*
X134580000Y-66100000D03*
X136980000Y-66100000D03*
X137780000Y-66100000D03*
X138580000Y-66100000D03*
X139380000Y-66100000D03*
X140180000Y-66100000D03*
X131380000Y-65300000D03*
X132180000Y-65300000D03*
X132980000Y-65300000D03*
X133780000Y-65300000D03*
X134580000Y-65300000D03*
X136980000Y-65300000D03*
X137780000Y-65300000D03*
X138580000Y-65300000D03*
X139380000Y-65300000D03*
X140180000Y-65300000D03*
X131380000Y-64500000D03*
X132180000Y-64500000D03*
X132980000Y-64500000D03*
X133780000Y-64500000D03*
X134580000Y-64500000D03*
X136980000Y-64500000D03*
X137780000Y-64500000D03*
X138580000Y-64500000D03*
X139380000Y-64500000D03*
X140180000Y-64500000D03*
X131380000Y-63700000D03*
X132180000Y-63700000D03*
X132980000Y-63700000D03*
X133780000Y-63700000D03*
X134580000Y-63700000D03*
X136980000Y-63700000D03*
X137780000Y-63700000D03*
X138580000Y-63700000D03*
X139380000Y-63700000D03*
X140180000Y-63700000D03*
X131380000Y-62900000D03*
X132180000Y-62900000D03*
X132980000Y-62900000D03*
X133780000Y-62900000D03*
X134580000Y-62900000D03*
X136980000Y-62900000D03*
X137780000Y-62900000D03*
X138580000Y-62900000D03*
X139380000Y-62900000D03*
X140180000Y-62900000D03*
X131380000Y-62100000D03*
X132180000Y-62100000D03*
X132980000Y-62100000D03*
X133780000Y-62100000D03*
X134580000Y-62100000D03*
X136980000Y-62100000D03*
X137780000Y-62100000D03*
X138580000Y-62100000D03*
X139380000Y-62100000D03*
X140180000Y-62100000D03*
X154780000Y-75500000D03*
X144280000Y-62000000D03*
X144280000Y-77000000D03*
X145030000Y-77000000D03*
X146530000Y-77000000D03*
X148030000Y-77000000D03*
X149530000Y-77000000D03*
X151030000Y-77000000D03*
X152530000Y-77000000D03*
X154030000Y-77000000D03*
X155530000Y-77000000D03*
X157030000Y-77000000D03*
X157780000Y-77000000D03*
X158530000Y-77000000D03*
X159280000Y-77000000D03*
X144280000Y-76250000D03*
X145030000Y-76250000D03*
X145780000Y-76250000D03*
X146530000Y-76250000D03*
X147280000Y-76250000D03*
X148030000Y-76250000D03*
X148780000Y-76250000D03*
X149530000Y-76250000D03*
X150280000Y-76250000D03*
X151030000Y-76250000D03*
X151780000Y-76250000D03*
X152530000Y-76250000D03*
X153280000Y-76250000D03*
X154030000Y-76250000D03*
X154780000Y-76250000D03*
X155530000Y-76250000D03*
X156280000Y-76250000D03*
X157030000Y-76250000D03*
X157780000Y-76250000D03*
X158530000Y-76250000D03*
X159280000Y-76250000D03*
X145030000Y-75500000D03*
X145780000Y-75500000D03*
X146530000Y-75500000D03*
X147280000Y-75500000D03*
X148030000Y-75500000D03*
X148780000Y-75500000D03*
X149530000Y-75500000D03*
X150280000Y-75500000D03*
X151030000Y-75500000D03*
X151780000Y-75500000D03*
X152530000Y-75500000D03*
X153280000Y-75500000D03*
X154030000Y-75500000D03*
X155530000Y-75500000D03*
X156280000Y-75500000D03*
X157030000Y-75500000D03*
X157780000Y-75500000D03*
X158530000Y-75500000D03*
X159280000Y-75500000D03*
X144280000Y-74750000D03*
X145030000Y-74750000D03*
X145780000Y-74750000D03*
X146530000Y-74750000D03*
X148030000Y-74750000D03*
X149530000Y-74750000D03*
X151030000Y-74750000D03*
X152530000Y-74750000D03*
X153280000Y-74750000D03*
X154030000Y-74750000D03*
X155530000Y-74750000D03*
X157780000Y-74750000D03*
X158530000Y-74750000D03*
X145030000Y-74000000D03*
X145780000Y-74000000D03*
X146530000Y-74000000D03*
X148030000Y-74000000D03*
X149530000Y-74000000D03*
X151030000Y-74000000D03*
X152530000Y-74000000D03*
X153280000Y-74000000D03*
X154030000Y-74000000D03*
X155530000Y-74000000D03*
X157030000Y-74000000D03*
X157780000Y-74000000D03*
X158530000Y-74000000D03*
X159280000Y-74000000D03*
X144280000Y-73250000D03*
X145030000Y-73250000D03*
X145780000Y-73250000D03*
X147280000Y-73250000D03*
X148030000Y-73250000D03*
X148780000Y-73250000D03*
X149530000Y-73250000D03*
X150280000Y-73250000D03*
X151030000Y-73250000D03*
X151780000Y-73250000D03*
X152530000Y-73250000D03*
X153280000Y-73250000D03*
X154030000Y-73250000D03*
X155530000Y-73250000D03*
X156280000Y-73250000D03*
X157030000Y-73250000D03*
X157780000Y-73250000D03*
X158530000Y-73250000D03*
X145030000Y-72500000D03*
X145780000Y-72500000D03*
X146530000Y-72500000D03*
X147280000Y-72500000D03*
X155530000Y-72500000D03*
X156280000Y-72500000D03*
X157030000Y-72500000D03*
X157780000Y-72500000D03*
X158530000Y-72500000D03*
X159280000Y-72500000D03*
X144280000Y-71750000D03*
X145030000Y-71750000D03*
X145780000Y-71750000D03*
X148780000Y-71750000D03*
X149530000Y-71750000D03*
X150280000Y-71750000D03*
X151030000Y-71750000D03*
X151780000Y-71750000D03*
X152530000Y-71750000D03*
X153280000Y-71750000D03*
X155530000Y-71750000D03*
X157780000Y-71750000D03*
X158530000Y-71750000D03*
X145030000Y-71000000D03*
X145780000Y-71000000D03*
X146530000Y-71000000D03*
X147280000Y-71000000D03*
X148780000Y-71000000D03*
X149530000Y-71000000D03*
X150280000Y-71000000D03*
X151030000Y-71000000D03*
X151780000Y-71000000D03*
X152530000Y-71000000D03*
X153280000Y-71000000D03*
X155530000Y-71000000D03*
X156280000Y-71000000D03*
X157030000Y-71000000D03*
X157780000Y-71000000D03*
X158530000Y-71000000D03*
X159280000Y-71000000D03*
X144280000Y-70250000D03*
X145030000Y-70250000D03*
X145780000Y-70250000D03*
X147280000Y-70250000D03*
X148780000Y-70250000D03*
X149530000Y-70250000D03*
X150280000Y-70250000D03*
X151030000Y-70250000D03*
X151780000Y-70250000D03*
X152530000Y-70250000D03*
X153280000Y-70250000D03*
X154780000Y-70250000D03*
X155530000Y-70250000D03*
X157780000Y-70250000D03*
X158530000Y-70250000D03*
X145030000Y-69500000D03*
X145780000Y-69500000D03*
X146530000Y-69500000D03*
X147280000Y-69500000D03*
X148780000Y-69500000D03*
X149530000Y-69500000D03*
X150280000Y-69500000D03*
X151030000Y-69500000D03*
X151780000Y-69500000D03*
X152530000Y-69500000D03*
X153280000Y-69500000D03*
X155530000Y-69500000D03*
X156280000Y-69500000D03*
X157030000Y-69500000D03*
X157780000Y-69500000D03*
X158530000Y-69500000D03*
X159280000Y-69500000D03*
X144280000Y-68750000D03*
X145030000Y-68750000D03*
X145780000Y-68750000D03*
X148780000Y-68750000D03*
X149530000Y-68750000D03*
X150280000Y-68750000D03*
X151030000Y-68750000D03*
X151780000Y-68750000D03*
X152530000Y-68750000D03*
X153280000Y-68750000D03*
X155530000Y-68750000D03*
X157780000Y-68750000D03*
X158530000Y-68750000D03*
X145030000Y-68000000D03*
X145780000Y-68000000D03*
X146530000Y-68000000D03*
X147280000Y-68000000D03*
X148780000Y-68000000D03*
X149530000Y-68000000D03*
X150280000Y-68000000D03*
X151030000Y-68000000D03*
X151780000Y-68000000D03*
X152530000Y-68000000D03*
X153280000Y-68000000D03*
X154780000Y-68000000D03*
X155530000Y-68000000D03*
X156280000Y-68000000D03*
X157030000Y-68000000D03*
X157780000Y-68000000D03*
X158530000Y-68000000D03*
X159280000Y-68000000D03*
X144280000Y-67250000D03*
X145030000Y-67250000D03*
X145780000Y-67250000D03*
X146530000Y-67250000D03*
X147280000Y-67250000D03*
X148780000Y-67250000D03*
X149530000Y-67250000D03*
X150280000Y-67250000D03*
X151030000Y-67250000D03*
X151780000Y-67250000D03*
X152530000Y-67250000D03*
X153280000Y-67250000D03*
X155530000Y-67250000D03*
X157780000Y-67250000D03*
X158530000Y-67250000D03*
X145030000Y-66500000D03*
X145780000Y-66500000D03*
X147280000Y-66500000D03*
X148780000Y-66500000D03*
X149530000Y-66500000D03*
X150280000Y-66500000D03*
X151030000Y-66500000D03*
X151780000Y-66500000D03*
X152530000Y-66500000D03*
X153280000Y-66500000D03*
X155530000Y-66500000D03*
X156280000Y-66500000D03*
X157030000Y-66500000D03*
X157780000Y-66500000D03*
X158530000Y-66500000D03*
X159280000Y-66500000D03*
X144280000Y-65750000D03*
X145030000Y-65750000D03*
X145780000Y-65750000D03*
X146530000Y-65750000D03*
X147280000Y-65750000D03*
X155530000Y-65750000D03*
X157780000Y-65750000D03*
X158530000Y-65750000D03*
X144280000Y-65000000D03*
X145030000Y-65000000D03*
X145780000Y-65000000D03*
X146530000Y-65000000D03*
X147280000Y-65000000D03*
X148030000Y-65000000D03*
X148780000Y-65000000D03*
X149530000Y-65000000D03*
X150280000Y-65000000D03*
X151030000Y-65000000D03*
X151780000Y-65000000D03*
X152530000Y-65000000D03*
X153280000Y-65000000D03*
X154030000Y-65000000D03*
X154780000Y-65000000D03*
X155530000Y-65000000D03*
X156280000Y-65000000D03*
X157030000Y-65000000D03*
X157780000Y-65000000D03*
X158530000Y-65000000D03*
X159280000Y-65000000D03*
X144280000Y-64250000D03*
X145030000Y-64250000D03*
X146530000Y-64250000D03*
X148030000Y-64250000D03*
X149530000Y-64250000D03*
X151030000Y-64250000D03*
X152530000Y-64250000D03*
X154030000Y-64250000D03*
X155530000Y-64250000D03*
X157030000Y-64250000D03*
X157780000Y-64250000D03*
X158530000Y-64250000D03*
X144280000Y-63500000D03*
X145030000Y-63500000D03*
X145780000Y-63500000D03*
X146530000Y-63500000D03*
X148030000Y-63500000D03*
X149530000Y-63500000D03*
X151030000Y-63500000D03*
X152530000Y-63500000D03*
X154030000Y-63500000D03*
X155530000Y-63500000D03*
X157030000Y-63500000D03*
X157780000Y-63500000D03*
X158530000Y-63500000D03*
X159280000Y-63500000D03*
X144280000Y-62750000D03*
X145030000Y-62750000D03*
X145780000Y-62750000D03*
X146530000Y-62750000D03*
X147280000Y-62750000D03*
X148030000Y-62750000D03*
X148780000Y-62750000D03*
X149530000Y-62750000D03*
X150280000Y-62750000D03*
X151030000Y-62750000D03*
X151780000Y-62750000D03*
X152530000Y-62750000D03*
X153280000Y-62750000D03*
X154030000Y-62750000D03*
X154780000Y-62750000D03*
X155530000Y-62750000D03*
X156280000Y-62750000D03*
X157030000Y-62750000D03*
X157780000Y-62750000D03*
X158530000Y-62750000D03*
X159280000Y-62750000D03*
X145030000Y-62000000D03*
X145780000Y-62000000D03*
X146530000Y-62000000D03*
X147280000Y-62000000D03*
X148030000Y-62000000D03*
X148780000Y-62000000D03*
X149530000Y-62000000D03*
X150280000Y-62000000D03*
X151030000Y-62000000D03*
X151780000Y-62000000D03*
X152530000Y-62000000D03*
X153280000Y-62000000D03*
X154030000Y-62000000D03*
X154780000Y-62000000D03*
X155530000Y-62000000D03*
X156280000Y-62000000D03*
X157030000Y-62000000D03*
X157780000Y-62000000D03*
X158530000Y-62000000D03*
X159280000Y-62000000D03*
X163780000Y-78500000D03*
X163780000Y-77500000D03*
X163780000Y-76500000D03*
X163780000Y-75500000D03*
X163780000Y-74500000D03*
X163780000Y-66500000D03*
X163780000Y-65500000D03*
X163780000Y-64500000D03*
X163780000Y-63500000D03*
X163780000Y-62500000D03*
X164780000Y-78500000D03*
X164780000Y-77500000D03*
X164780000Y-76500000D03*
X164780000Y-75500000D03*
X164780000Y-74500000D03*
X164780000Y-66500000D03*
X164780000Y-65500000D03*
X164780000Y-64500000D03*
X164780000Y-63500000D03*
X164780000Y-62500000D03*
X165780000Y-78500000D03*
X165780000Y-77500000D03*
X165780000Y-76500000D03*
X165780000Y-75500000D03*
X165780000Y-74500000D03*
X165780000Y-73500000D03*
X165780000Y-72500000D03*
X165780000Y-71500000D03*
X165780000Y-70500000D03*
X165780000Y-69500000D03*
X165780000Y-68500000D03*
X165780000Y-67500000D03*
X165780000Y-66500000D03*
X165780000Y-65500000D03*
X165780000Y-64500000D03*
X165780000Y-63500000D03*
X165780000Y-62500000D03*
X166780000Y-78500000D03*
X166780000Y-77500000D03*
X166780000Y-76500000D03*
X166780000Y-75500000D03*
X166780000Y-74500000D03*
X166780000Y-73500000D03*
X166780000Y-72500000D03*
X166780000Y-71500000D03*
X166780000Y-70500000D03*
X166780000Y-69500000D03*
X166780000Y-68500000D03*
X166780000Y-67500000D03*
X166780000Y-66500000D03*
X166780000Y-65500000D03*
X166780000Y-64500000D03*
X166780000Y-63500000D03*
X166780000Y-62500000D03*
X167780000Y-75500000D03*
X167780000Y-74500000D03*
X167780000Y-73500000D03*
X167780000Y-72500000D03*
X167780000Y-71500000D03*
X167780000Y-70500000D03*
X167780000Y-69500000D03*
X167780000Y-68500000D03*
X167780000Y-67500000D03*
X167780000Y-66500000D03*
X167780000Y-65500000D03*
X168780000Y-75500000D03*
X168780000Y-74500000D03*
X168780000Y-73500000D03*
X168780000Y-72500000D03*
X168780000Y-71500000D03*
X168780000Y-70500000D03*
X168780000Y-69500000D03*
X168780000Y-68500000D03*
X168780000Y-67500000D03*
X168780000Y-66500000D03*
X168780000Y-65500000D03*
X170780000Y-75500000D03*
X170780000Y-74500000D03*
X170780000Y-73500000D03*
X170780000Y-72500000D03*
X170780000Y-71500000D03*
X170780000Y-70500000D03*
X170780000Y-69500000D03*
X170780000Y-68500000D03*
X170780000Y-67500000D03*
X170780000Y-66500000D03*
X170780000Y-65500000D03*
X171780000Y-75500000D03*
X171780000Y-74500000D03*
X171780000Y-73500000D03*
X171780000Y-72500000D03*
X171780000Y-71500000D03*
X171780000Y-70500000D03*
X171780000Y-69500000D03*
X171780000Y-68500000D03*
X171780000Y-67500000D03*
X171780000Y-66500000D03*
X171780000Y-65500000D03*
X172780000Y-78500000D03*
X172780000Y-77500000D03*
X172780000Y-76500000D03*
X172780000Y-75500000D03*
X172780000Y-74500000D03*
X172780000Y-73500000D03*
X172780000Y-72500000D03*
X172780000Y-71500000D03*
X172780000Y-70500000D03*
X172780000Y-69500000D03*
X172780000Y-68500000D03*
X172780000Y-67500000D03*
X172780000Y-66500000D03*
X172780000Y-65500000D03*
X172780000Y-64500000D03*
X172780000Y-63500000D03*
X172780000Y-62500000D03*
X173780000Y-78500000D03*
X173780000Y-77500000D03*
X173780000Y-76500000D03*
X173780000Y-75500000D03*
X173780000Y-74500000D03*
X173780000Y-73500000D03*
X173780000Y-72500000D03*
X173780000Y-71500000D03*
X173780000Y-70500000D03*
X173780000Y-69500000D03*
X173780000Y-68500000D03*
X173780000Y-67500000D03*
X173780000Y-66500000D03*
X173780000Y-65500000D03*
X173780000Y-64500000D03*
X173780000Y-63500000D03*
X173780000Y-62500000D03*
X174780000Y-78500000D03*
X174780000Y-77500000D03*
X174780000Y-76500000D03*
X174780000Y-75500000D03*
X174780000Y-74500000D03*
X174780000Y-66500000D03*
X174780000Y-65500000D03*
X174780000Y-64500000D03*
X174780000Y-63500000D03*
X174780000Y-62500000D03*
X175780000Y-78500000D03*
X175780000Y-77500000D03*
X175780000Y-76500000D03*
X175780000Y-75500000D03*
X175780000Y-74500000D03*
X175780000Y-66500000D03*
X175780000Y-65500000D03*
X175780000Y-64500000D03*
X175780000Y-63500000D03*
X175780000Y-62500000D03*
D45*
X54055000Y-60000000D03*
X54055000Y-59500000D03*
X54055000Y-59000000D03*
X54055000Y-58500000D03*
D46*
X54780000Y-57775000D03*
X55280000Y-57775000D03*
X55780000Y-57775000D03*
X56280000Y-57775000D03*
D45*
X57005000Y-58500000D03*
X57005000Y-59000000D03*
X57005000Y-59500000D03*
X57005000Y-60000000D03*
D46*
X56280000Y-60725000D03*
X55780000Y-60725000D03*
X55280000Y-60725000D03*
X54780000Y-60725000D03*
D47*
X55980000Y-58800000D03*
X55980000Y-59700000D03*
X55080000Y-58800000D03*
X55080000Y-59700000D03*
D48*
X316992000Y-74676000D03*
D49*
X314960000Y-78232000D03*
D50*
X307340000Y-63500000D03*
D51*
X307340000Y-72390000D03*
D50*
X307340000Y-81280000D03*
D52*
X311912000Y-81280000D03*
D53*
X316992000Y-76200000D03*
D48*
X316992000Y-70104000D03*
D49*
X314960000Y-66548000D03*
D52*
X311912000Y-63500000D03*
D53*
X316992000Y-68580000D03*
M02*
