G04 #@! TF.FileFunction,Soldermask,Bot*
%FSLAX46Y46*%
G04 Gerber Fmt 4.6, Leading zero omitted, Abs format (unit mm)*
G04 Created by KiCad (PCBNEW 4.0.4-stable) date 01/25/18 23:42:30*
%MOMM*%
%LPD*%
G01*
G04 APERTURE LIST*
%ADD10C,0.100000*%
%ADD11C,0.508000*%
%ADD12C,0.254000*%
%ADD13C,0.152400*%
%ADD14C,0.300000*%
%ADD15C,2.000000*%
%ADD16C,1.800000*%
%ADD17C,0.800000*%
%ADD18R,1.600000X1.600000*%
%ADD19C,1.600000*%
%ADD20C,1.400000*%
%ADD21C,0.950000*%
%ADD22C,0.650000*%
%ADD23C,3.650000*%
%ADD24R,1.500000X1.500000*%
%ADD25C,1.500000*%
%ADD26C,3.000000*%
%ADD27R,1.550000X0.300000*%
%ADD28R,0.300000X1.550000*%
%ADD29R,1.200000X0.280000*%
%ADD30R,0.280000X1.200000*%
%ADD31R,1.000000X0.250000*%
%ADD32R,0.250000X1.000000*%
%ADD33R,1.450000X0.200000*%
%ADD34R,0.200000X1.450000*%
%ADD35C,0.400000*%
%ADD36C,0.250000*%
%ADD37R,0.850000X0.300000*%
%ADD38R,0.300000X0.850000*%
%ADD39R,1.837500X1.837500*%
%ADD40R,0.700000X0.250000*%
%ADD41R,0.250000X0.700000*%
%ADD42R,1.725000X1.725000*%
%ADD43C,0.470000*%
%ADD44C,0.330000*%
%ADD45O,0.750000X0.300000*%
%ADD46O,0.300000X0.750000*%
%ADD47R,0.900000X0.900000*%
%ADD48C,0.762000*%
%ADD49C,1.397000*%
%ADD50C,3.810000*%
%ADD51C,11.684000*%
%ADD52C,2.286000*%
%ADD53C,1.016000*%
G04 APERTURE END LIST*
D10*
D11*
X294531143Y-82610475D02*
X297579143Y-82610475D01*
X297579143Y-81642856D01*
X297434000Y-81400951D01*
X297288857Y-81279999D01*
X296998571Y-81159047D01*
X296563143Y-81159047D01*
X296272857Y-81279999D01*
X296127714Y-81400951D01*
X295982571Y-81642856D01*
X295982571Y-82610475D01*
X294821429Y-78619047D02*
X294676286Y-78739999D01*
X294531143Y-79102856D01*
X294531143Y-79344761D01*
X294676286Y-79707618D01*
X294966571Y-79949523D01*
X295256857Y-80070475D01*
X295837429Y-80191427D01*
X296272857Y-80191427D01*
X296853429Y-80070475D01*
X297143714Y-79949523D01*
X297434000Y-79707618D01*
X297579143Y-79344761D01*
X297579143Y-79102856D01*
X297434000Y-78739999D01*
X297288857Y-78619047D01*
X296127714Y-76683808D02*
X295982571Y-76320951D01*
X295837429Y-76199999D01*
X295547143Y-76079047D01*
X295111714Y-76079047D01*
X294821429Y-76199999D01*
X294676286Y-76320951D01*
X294531143Y-76562856D01*
X294531143Y-77530475D01*
X297579143Y-77530475D01*
X297579143Y-76683808D01*
X297434000Y-76441904D01*
X297288857Y-76320951D01*
X296998571Y-76199999D01*
X296708286Y-76199999D01*
X296418000Y-76320951D01*
X296272857Y-76441904D01*
X296127714Y-76683808D01*
X296127714Y-77530475D01*
X294531143Y-71603809D02*
X295982571Y-72450475D01*
X294531143Y-73055237D02*
X297579143Y-73055237D01*
X297579143Y-72087618D01*
X297434000Y-71845713D01*
X297288857Y-71724761D01*
X296998571Y-71603809D01*
X296563143Y-71603809D01*
X296272857Y-71724761D01*
X296127714Y-71845713D01*
X295982571Y-72087618D01*
X295982571Y-73055237D01*
X297579143Y-70515237D02*
X295111714Y-70515237D01*
X294821429Y-70394285D01*
X294676286Y-70273332D01*
X294531143Y-70031428D01*
X294531143Y-69547618D01*
X294676286Y-69305713D01*
X294821429Y-69184761D01*
X295111714Y-69063809D01*
X297579143Y-69063809D01*
X294531143Y-66644761D02*
X294531143Y-67854285D01*
X297579143Y-67854285D01*
X296127714Y-65798095D02*
X296127714Y-64951428D01*
X294531143Y-64588571D02*
X294531143Y-65798095D01*
X297579143Y-65798095D01*
X297579143Y-64588571D01*
X294531143Y-62048572D02*
X295982571Y-62895238D01*
X294531143Y-63500000D02*
X297579143Y-63500000D01*
X297579143Y-62532381D01*
X297434000Y-62290476D01*
X297288857Y-62169524D01*
X296998571Y-62048572D01*
X296563143Y-62048572D01*
X296272857Y-62169524D01*
X296127714Y-62290476D01*
X295982571Y-62532381D01*
X295982571Y-63500000D01*
D12*
X292045571Y-76127429D02*
X293061571Y-76127429D01*
X292771286Y-76127429D02*
X292916429Y-76054857D01*
X292989000Y-75982286D01*
X293061571Y-75837143D01*
X293061571Y-75692000D01*
X292118143Y-74603428D02*
X292045571Y-74748571D01*
X292045571Y-75038857D01*
X292118143Y-75184000D01*
X292263286Y-75256571D01*
X292843857Y-75256571D01*
X292989000Y-75184000D01*
X293061571Y-75038857D01*
X293061571Y-74748571D01*
X292989000Y-74603428D01*
X292843857Y-74530857D01*
X292698714Y-74530857D01*
X292553571Y-75256571D01*
X293061571Y-74022857D02*
X292045571Y-73660000D01*
X293061571Y-73297142D01*
X292045571Y-70757142D02*
X292045571Y-71627999D01*
X292045571Y-71192571D02*
X293569571Y-71192571D01*
X293351857Y-71337714D01*
X293206714Y-71482856D01*
X293134143Y-71627999D01*
X292190714Y-70103999D02*
X292118143Y-70031427D01*
X292045571Y-70103999D01*
X292118143Y-70176570D01*
X292190714Y-70103999D01*
X292045571Y-70103999D01*
X293569571Y-69087999D02*
X293569571Y-68942856D01*
X293497000Y-68797713D01*
X293424429Y-68725142D01*
X293279286Y-68652571D01*
X292989000Y-68579999D01*
X292626143Y-68579999D01*
X292335857Y-68652571D01*
X292190714Y-68725142D01*
X292118143Y-68797713D01*
X292045571Y-68942856D01*
X292045571Y-69087999D01*
X292118143Y-69233142D01*
X292190714Y-69305713D01*
X292335857Y-69378285D01*
X292626143Y-69450856D01*
X292989000Y-69450856D01*
X293279286Y-69378285D01*
X293424429Y-69305713D01*
X293497000Y-69233142D01*
X293569571Y-69087999D01*
X289505571Y-77651428D02*
X290231286Y-78159428D01*
X289505571Y-78522285D02*
X291029571Y-78522285D01*
X291029571Y-77941713D01*
X290957000Y-77796571D01*
X290884429Y-77723999D01*
X290739286Y-77651428D01*
X290521571Y-77651428D01*
X290376429Y-77723999D01*
X290303857Y-77796571D01*
X290231286Y-77941713D01*
X290231286Y-78522285D01*
X289505571Y-76780571D02*
X289578143Y-76925713D01*
X289650714Y-76998285D01*
X289795857Y-77070856D01*
X290231286Y-77070856D01*
X290376429Y-76998285D01*
X290449000Y-76925713D01*
X290521571Y-76780571D01*
X290521571Y-76562856D01*
X290449000Y-76417713D01*
X290376429Y-76345142D01*
X290231286Y-76272571D01*
X289795857Y-76272571D01*
X289650714Y-76345142D01*
X289578143Y-76417713D01*
X289505571Y-76562856D01*
X289505571Y-76780571D01*
X289505571Y-75619428D02*
X291029571Y-75619428D01*
X290449000Y-75619428D02*
X290521571Y-75474285D01*
X290521571Y-75183999D01*
X290449000Y-75038856D01*
X290376429Y-74966285D01*
X290231286Y-74893714D01*
X289795857Y-74893714D01*
X289650714Y-74966285D01*
X289578143Y-75038856D01*
X289505571Y-75183999D01*
X289505571Y-75474285D01*
X289578143Y-75619428D01*
X289505571Y-74240571D02*
X290521571Y-74240571D01*
X291029571Y-74240571D02*
X290957000Y-74313142D01*
X290884429Y-74240571D01*
X290957000Y-74167999D01*
X291029571Y-74240571D01*
X290884429Y-74240571D01*
X290521571Y-73514857D02*
X289505571Y-73514857D01*
X290376429Y-73514857D02*
X290449000Y-73442285D01*
X290521571Y-73297143D01*
X290521571Y-73079428D01*
X290449000Y-72934285D01*
X290303857Y-72861714D01*
X289505571Y-72861714D01*
X290231286Y-70684571D02*
X289505571Y-70684571D01*
X291029571Y-71192571D02*
X290231286Y-70684571D01*
X291029571Y-70176571D01*
X289505571Y-69015428D02*
X290303857Y-69015428D01*
X290449000Y-69087999D01*
X290521571Y-69233142D01*
X290521571Y-69523428D01*
X290449000Y-69668571D01*
X289578143Y-69015428D02*
X289505571Y-69160571D01*
X289505571Y-69523428D01*
X289578143Y-69668571D01*
X289723286Y-69741142D01*
X289868429Y-69741142D01*
X290013571Y-69668571D01*
X290086143Y-69523428D01*
X290086143Y-69160571D01*
X290158714Y-69015428D01*
X290521571Y-68289714D02*
X289505571Y-68289714D01*
X290376429Y-68289714D02*
X290449000Y-68217142D01*
X290521571Y-68072000D01*
X290521571Y-67854285D01*
X290449000Y-67709142D01*
X290303857Y-67636571D01*
X289505571Y-67636571D01*
X290521571Y-66257714D02*
X289287857Y-66257714D01*
X289142714Y-66330285D01*
X289070143Y-66402857D01*
X288997571Y-66548000D01*
X288997571Y-66765714D01*
X289070143Y-66910857D01*
X289578143Y-66257714D02*
X289505571Y-66402857D01*
X289505571Y-66693143D01*
X289578143Y-66838285D01*
X289650714Y-66910857D01*
X289795857Y-66983428D01*
X290231286Y-66983428D01*
X290376429Y-66910857D01*
X290449000Y-66838285D01*
X290521571Y-66693143D01*
X290521571Y-66402857D01*
X290449000Y-66257714D01*
D13*
X244240000Y-83500000D02*
X244240000Y-82500000D01*
X243240000Y-83500000D02*
X244240000Y-83500000D01*
X244240000Y-79500000D02*
G75*
G03X244240000Y-83500000I2000000J-2000000D01*
G01*
X250240000Y-81500000D02*
X249240000Y-82500000D01*
X250240000Y-81500000D02*
X249240000Y-80500000D01*
X242240000Y-81500000D02*
X250240000Y-81500000D01*
X226740000Y-76000000D02*
X226740000Y-84000000D01*
X226740000Y-84000000D02*
X225740000Y-83000000D01*
X226740000Y-84000000D02*
X227740000Y-83000000D01*
X226740000Y-76000000D02*
X234740000Y-76000000D01*
X233740000Y-75000000D02*
X234740000Y-76000000D01*
X233740000Y-77000000D02*
X234740000Y-76000000D01*
X226740000Y-76000000D02*
X230740000Y-80000000D01*
X230740000Y-80000000D02*
X230740000Y-79000000D01*
X230740000Y-80000000D02*
X229740000Y-80000000D01*
X216240000Y-80000000D02*
X215240000Y-80000000D01*
X216240000Y-80000000D02*
X216240000Y-79000000D01*
X212240000Y-76000000D02*
X216240000Y-80000000D01*
X219240000Y-77000000D02*
X220240000Y-76000000D01*
X219240000Y-75000000D02*
X220240000Y-76000000D01*
X212240000Y-76000000D02*
X220240000Y-76000000D01*
X212240000Y-84000000D02*
X213240000Y-83000000D01*
X212240000Y-84000000D02*
X211240000Y-83000000D01*
X212240000Y-76000000D02*
X212240000Y-84000000D01*
X206740000Y-85500000D02*
X205740000Y-85500000D01*
X206740000Y-55500000D02*
X206740000Y-85500000D01*
X176740000Y-55500000D02*
X206740000Y-55500000D01*
X176740000Y-56500000D02*
X176740000Y-55500000D01*
X187740000Y-85500000D02*
X205740000Y-85500000D01*
X176740000Y-56500000D02*
X176740000Y-74500000D01*
X205740000Y-56500000D02*
X176740000Y-56500000D01*
X205740000Y-85500000D02*
X205740000Y-56500000D01*
X204740000Y-57500000D02*
X204740000Y-85500000D01*
X176740000Y-57500000D02*
X204740000Y-57500000D01*
X203740000Y-58500000D02*
X176740000Y-58500000D01*
X203740000Y-85500000D02*
X203740000Y-58500000D01*
X202740000Y-59500000D02*
X202740000Y-85500000D01*
X176740000Y-59500000D02*
X202740000Y-59500000D01*
X201740000Y-60500000D02*
X176740000Y-60500000D01*
X201740000Y-85500000D02*
X201740000Y-60500000D01*
X200740000Y-61500000D02*
X200740000Y-85500000D01*
X176740000Y-61500000D02*
X200740000Y-61500000D01*
X199740000Y-62500000D02*
X176740000Y-62500000D01*
X199740000Y-85500000D02*
X199740000Y-62500000D01*
X198740000Y-63500000D02*
X198740000Y-85500000D01*
X176740000Y-63500000D02*
X198740000Y-63500000D01*
X197740000Y-64500000D02*
X176740000Y-64500000D01*
X197740000Y-85500000D02*
X197740000Y-64500000D01*
X196740000Y-85500000D02*
X196740000Y-85000000D01*
X196740000Y-65500000D02*
X196740000Y-85000000D01*
X176740000Y-65500000D02*
X196740000Y-65500000D01*
X195740000Y-66500000D02*
X176740000Y-66500000D01*
X195740000Y-85500000D02*
X195740000Y-66500000D01*
X194740000Y-67500000D02*
X194740000Y-85500000D01*
X176740000Y-67500000D02*
X194740000Y-67500000D01*
X193740000Y-68500000D02*
X193740000Y-85500000D01*
X176740000Y-68500000D02*
X193740000Y-68500000D01*
X192740000Y-69500000D02*
X192740000Y-85500000D01*
X176740000Y-69500000D02*
X192740000Y-69500000D01*
X191740000Y-70500000D02*
X176740000Y-70500000D01*
X191740000Y-71000000D02*
X191740000Y-70500000D01*
X191740000Y-85500000D02*
X191740000Y-71000000D01*
X190740000Y-71500000D02*
X190740000Y-85500000D01*
X176740000Y-71500000D02*
X190740000Y-71500000D01*
X189740000Y-72500000D02*
X176740000Y-72500000D01*
X189740000Y-85500000D02*
X189740000Y-72500000D01*
X188740000Y-73500000D02*
X188740000Y-85500000D01*
X176740000Y-73500000D02*
X188740000Y-73500000D01*
X187740000Y-85500000D02*
X186740000Y-85500000D01*
X187740000Y-74500000D02*
X187740000Y-85500000D01*
X176740000Y-74500000D02*
X187740000Y-74500000D01*
X176740000Y-75500000D02*
X176740000Y-74500000D01*
X186740000Y-85500000D02*
X185740000Y-85500000D01*
X186740000Y-75500000D02*
X186740000Y-85500000D01*
X176740000Y-75500000D02*
X186740000Y-75500000D01*
X176740000Y-76500000D02*
X176740000Y-75500000D01*
X185740000Y-85500000D02*
X184740000Y-85500000D01*
X185740000Y-76500000D02*
X185740000Y-85500000D01*
X176740000Y-76500000D02*
X185740000Y-76500000D01*
X176740000Y-77500000D02*
X176740000Y-76500000D01*
X184740000Y-85500000D02*
X183740000Y-85500000D01*
X184740000Y-77500000D02*
X184740000Y-85500000D01*
X176740000Y-77500000D02*
X184740000Y-77500000D01*
X176740000Y-78500000D02*
X176740000Y-77500000D01*
X183740000Y-85500000D02*
X182740000Y-85500000D01*
X183740000Y-78500000D02*
X183740000Y-85500000D01*
X176740000Y-78500000D02*
X183740000Y-78500000D01*
X176740000Y-79500000D02*
X176740000Y-78500000D01*
X182740000Y-85500000D02*
X181740000Y-85500000D01*
X182740000Y-79500000D02*
X182740000Y-85500000D01*
X176740000Y-79500000D02*
X182740000Y-79500000D01*
X176740000Y-80500000D02*
X176740000Y-79500000D01*
X181740000Y-85500000D02*
X180740000Y-85500000D01*
X181740000Y-80500000D02*
X181740000Y-85500000D01*
X176740000Y-80500000D02*
X181740000Y-80500000D01*
X176740000Y-81500000D02*
X176740000Y-80500000D01*
X180740000Y-85500000D02*
X179740000Y-85500000D01*
X180740000Y-81500000D02*
X180740000Y-85500000D01*
X176740000Y-81500000D02*
X180740000Y-81500000D01*
X176740000Y-82500000D02*
X176740000Y-81500000D01*
X179740000Y-85500000D02*
X178740000Y-85500000D01*
X179740000Y-82500000D02*
X179740000Y-85500000D01*
X176740000Y-82500000D02*
X179740000Y-82500000D01*
X176740000Y-83500000D02*
X176740000Y-82500000D01*
X178740000Y-85500000D02*
X177740000Y-85500000D01*
X178740000Y-83500000D02*
X178740000Y-85500000D01*
X176740000Y-83500000D02*
X178740000Y-83500000D01*
X176740000Y-84500000D02*
X176740000Y-83500000D01*
X177740000Y-85500000D02*
X176740000Y-85500000D01*
X177740000Y-84500000D02*
X177740000Y-85500000D01*
X176740000Y-84500000D02*
X177740000Y-84500000D01*
X176740000Y-85500000D02*
X176740000Y-84500000D01*
D14*
X13002381Y-84347976D02*
X13002381Y-85617976D01*
X13425714Y-84710833D01*
X13849048Y-85617976D01*
X13849048Y-84347976D01*
X14453810Y-85013214D02*
X14877143Y-85013214D01*
X15058572Y-84347976D02*
X14453810Y-84347976D01*
X14453810Y-85617976D01*
X15058572Y-85617976D01*
X15421429Y-85617976D02*
X16147144Y-85617976D01*
X15784287Y-84347976D02*
X15784287Y-85617976D01*
X17296191Y-84347976D02*
X16872858Y-84952738D01*
X16570477Y-84347976D02*
X16570477Y-85617976D01*
X17054286Y-85617976D01*
X17175239Y-85557500D01*
X17235715Y-85497024D01*
X17296191Y-85376071D01*
X17296191Y-85194643D01*
X17235715Y-85073690D01*
X17175239Y-85013214D01*
X17054286Y-84952738D01*
X16570477Y-84952738D01*
X17840477Y-84347976D02*
X17840477Y-85617976D01*
X19170953Y-84468929D02*
X19110477Y-84408452D01*
X18929048Y-84347976D01*
X18808096Y-84347976D01*
X18626668Y-84408452D01*
X18505715Y-84529405D01*
X18445239Y-84650357D01*
X18384763Y-84892262D01*
X18384763Y-85073690D01*
X18445239Y-85315595D01*
X18505715Y-85436548D01*
X18626668Y-85557500D01*
X18808096Y-85617976D01*
X18929048Y-85617976D01*
X19110477Y-85557500D01*
X19170953Y-85497024D01*
X13002381Y-82142976D02*
X13002381Y-83412976D01*
X13425714Y-82505833D01*
X13849048Y-83412976D01*
X13849048Y-82142976D01*
X14453810Y-82142976D02*
X14453810Y-83412976D01*
X14877143Y-82505833D01*
X15300477Y-83412976D01*
X15300477Y-82142976D01*
X230898286Y-88434143D02*
X231007143Y-88543000D01*
X231224857Y-88651857D01*
X231769143Y-88651857D01*
X231986857Y-88543000D01*
X232095714Y-88434143D01*
X232204571Y-88216429D01*
X232204571Y-87998714D01*
X232095714Y-87672143D01*
X230789428Y-86365857D01*
X232204571Y-86365857D01*
X233075429Y-88434143D02*
X233184286Y-88543000D01*
X233402000Y-88651857D01*
X233946286Y-88651857D01*
X234164000Y-88543000D01*
X234272857Y-88434143D01*
X234381714Y-88216429D01*
X234381714Y-87998714D01*
X234272857Y-87672143D01*
X232966571Y-86365857D01*
X234381714Y-86365857D01*
X240898286Y-88434143D02*
X241007143Y-88543000D01*
X241224857Y-88651857D01*
X241769143Y-88651857D01*
X241986857Y-88543000D01*
X242095714Y-88434143D01*
X242204571Y-88216429D01*
X242204571Y-87998714D01*
X242095714Y-87672143D01*
X240789428Y-86365857D01*
X242204571Y-86365857D01*
X242966571Y-88651857D02*
X244381714Y-88651857D01*
X243619714Y-87781000D01*
X243946286Y-87781000D01*
X244164000Y-87672143D01*
X244272857Y-87563286D01*
X244381714Y-87345571D01*
X244381714Y-86801286D01*
X244272857Y-86583571D01*
X244164000Y-86474714D01*
X243946286Y-86365857D01*
X243293143Y-86365857D01*
X243075429Y-86474714D01*
X242966571Y-86583571D01*
X250898286Y-88434143D02*
X251007143Y-88543000D01*
X251224857Y-88651857D01*
X251769143Y-88651857D01*
X251986857Y-88543000D01*
X252095714Y-88434143D01*
X252204571Y-88216429D01*
X252204571Y-87998714D01*
X252095714Y-87672143D01*
X250789428Y-86365857D01*
X252204571Y-86365857D01*
X254164000Y-87889857D02*
X254164000Y-86365857D01*
X253619714Y-88760714D02*
X253075429Y-87127857D01*
X254490571Y-87127857D01*
X280898286Y-88434143D02*
X281007143Y-88543000D01*
X281224857Y-88651857D01*
X281769143Y-88651857D01*
X281986857Y-88543000D01*
X282095714Y-88434143D01*
X282204571Y-88216429D01*
X282204571Y-87998714D01*
X282095714Y-87672143D01*
X280789428Y-86365857D01*
X282204571Y-86365857D01*
X282966571Y-88651857D02*
X284490571Y-88651857D01*
X283510857Y-86365857D01*
X270898286Y-88434143D02*
X271007143Y-88543000D01*
X271224857Y-88651857D01*
X271769143Y-88651857D01*
X271986857Y-88543000D01*
X272095714Y-88434143D01*
X272204571Y-88216429D01*
X272204571Y-87998714D01*
X272095714Y-87672143D01*
X270789428Y-86365857D01*
X272204571Y-86365857D01*
X274164000Y-88651857D02*
X273728571Y-88651857D01*
X273510857Y-88543000D01*
X273402000Y-88434143D01*
X273184286Y-88107571D01*
X273075429Y-87672143D01*
X273075429Y-86801286D01*
X273184286Y-86583571D01*
X273293143Y-86474714D01*
X273510857Y-86365857D01*
X273946286Y-86365857D01*
X274164000Y-86474714D01*
X274272857Y-86583571D01*
X274381714Y-86801286D01*
X274381714Y-87345571D01*
X274272857Y-87563286D01*
X274164000Y-87672143D01*
X273946286Y-87781000D01*
X273510857Y-87781000D01*
X273293143Y-87672143D01*
X273184286Y-87563286D01*
X273075429Y-87345571D01*
X260898286Y-88434143D02*
X261007143Y-88543000D01*
X261224857Y-88651857D01*
X261769143Y-88651857D01*
X261986857Y-88543000D01*
X262095714Y-88434143D01*
X262204571Y-88216429D01*
X262204571Y-87998714D01*
X262095714Y-87672143D01*
X260789428Y-86365857D01*
X262204571Y-86365857D01*
X264272857Y-88651857D02*
X263184286Y-88651857D01*
X263075429Y-87563286D01*
X263184286Y-87672143D01*
X263402000Y-87781000D01*
X263946286Y-87781000D01*
X264164000Y-87672143D01*
X264272857Y-87563286D01*
X264381714Y-87345571D01*
X264381714Y-86801286D01*
X264272857Y-86583571D01*
X264164000Y-86474714D01*
X263946286Y-86365857D01*
X263402000Y-86365857D01*
X263184286Y-86474714D01*
X263075429Y-86583571D01*
X310789428Y-88651857D02*
X312204571Y-88651857D01*
X311442571Y-87781000D01*
X311769143Y-87781000D01*
X311986857Y-87672143D01*
X312095714Y-87563286D01*
X312204571Y-87345571D01*
X312204571Y-86801286D01*
X312095714Y-86583571D01*
X311986857Y-86474714D01*
X311769143Y-86365857D01*
X311116000Y-86365857D01*
X310898286Y-86474714D01*
X310789428Y-86583571D01*
X313619714Y-88651857D02*
X313837429Y-88651857D01*
X314055143Y-88543000D01*
X314164000Y-88434143D01*
X314272857Y-88216429D01*
X314381714Y-87781000D01*
X314381714Y-87236714D01*
X314272857Y-86801286D01*
X314164000Y-86583571D01*
X314055143Y-86474714D01*
X313837429Y-86365857D01*
X313619714Y-86365857D01*
X313402000Y-86474714D01*
X313293143Y-86583571D01*
X313184286Y-86801286D01*
X313075429Y-87236714D01*
X313075429Y-87781000D01*
X313184286Y-88216429D01*
X313293143Y-88434143D01*
X313402000Y-88543000D01*
X313619714Y-88651857D01*
X300898286Y-88434143D02*
X301007143Y-88543000D01*
X301224857Y-88651857D01*
X301769143Y-88651857D01*
X301986857Y-88543000D01*
X302095714Y-88434143D01*
X302204571Y-88216429D01*
X302204571Y-87998714D01*
X302095714Y-87672143D01*
X300789428Y-86365857D01*
X302204571Y-86365857D01*
X303293143Y-86365857D02*
X303728571Y-86365857D01*
X303946286Y-86474714D01*
X304055143Y-86583571D01*
X304272857Y-86910143D01*
X304381714Y-87345571D01*
X304381714Y-88216429D01*
X304272857Y-88434143D01*
X304164000Y-88543000D01*
X303946286Y-88651857D01*
X303510857Y-88651857D01*
X303293143Y-88543000D01*
X303184286Y-88434143D01*
X303075429Y-88216429D01*
X303075429Y-87672143D01*
X303184286Y-87454429D01*
X303293143Y-87345571D01*
X303510857Y-87236714D01*
X303946286Y-87236714D01*
X304164000Y-87345571D01*
X304272857Y-87454429D01*
X304381714Y-87672143D01*
X290898286Y-88434143D02*
X291007143Y-88543000D01*
X291224857Y-88651857D01*
X291769143Y-88651857D01*
X291986857Y-88543000D01*
X292095714Y-88434143D01*
X292204571Y-88216429D01*
X292204571Y-87998714D01*
X292095714Y-87672143D01*
X290789428Y-86365857D01*
X292204571Y-86365857D01*
X293510857Y-87672143D02*
X293293143Y-87781000D01*
X293184286Y-87889857D01*
X293075429Y-88107571D01*
X293075429Y-88216429D01*
X293184286Y-88434143D01*
X293293143Y-88543000D01*
X293510857Y-88651857D01*
X293946286Y-88651857D01*
X294164000Y-88543000D01*
X294272857Y-88434143D01*
X294381714Y-88216429D01*
X294381714Y-88107571D01*
X294272857Y-87889857D01*
X294164000Y-87781000D01*
X293946286Y-87672143D01*
X293510857Y-87672143D01*
X293293143Y-87563286D01*
X293184286Y-87454429D01*
X293075429Y-87236714D01*
X293075429Y-86801286D01*
X293184286Y-86583571D01*
X293293143Y-86474714D01*
X293510857Y-86365857D01*
X293946286Y-86365857D01*
X294164000Y-86474714D01*
X294272857Y-86583571D01*
X294381714Y-86801286D01*
X294381714Y-87236714D01*
X294272857Y-87454429D01*
X294164000Y-87563286D01*
X293946286Y-87672143D01*
X172204571Y-86365857D02*
X170898286Y-86365857D01*
X171551428Y-86365857D02*
X171551428Y-88651857D01*
X171333714Y-88325286D01*
X171116000Y-88107571D01*
X170898286Y-87998714D01*
X174164000Y-88651857D02*
X173728571Y-88651857D01*
X173510857Y-88543000D01*
X173402000Y-88434143D01*
X173184286Y-88107571D01*
X173075429Y-87672143D01*
X173075429Y-86801286D01*
X173184286Y-86583571D01*
X173293143Y-86474714D01*
X173510857Y-86365857D01*
X173946286Y-86365857D01*
X174164000Y-86474714D01*
X174272857Y-86583571D01*
X174381714Y-86801286D01*
X174381714Y-87345571D01*
X174272857Y-87563286D01*
X174164000Y-87672143D01*
X173946286Y-87781000D01*
X173510857Y-87781000D01*
X173293143Y-87672143D01*
X173184286Y-87563286D01*
X173075429Y-87345571D01*
X182204571Y-86365857D02*
X180898286Y-86365857D01*
X181551428Y-86365857D02*
X181551428Y-88651857D01*
X181333714Y-88325286D01*
X181116000Y-88107571D01*
X180898286Y-87998714D01*
X182966571Y-88651857D02*
X184490571Y-88651857D01*
X183510857Y-86365857D01*
X192204571Y-86365857D02*
X190898286Y-86365857D01*
X191551428Y-86365857D02*
X191551428Y-88651857D01*
X191333714Y-88325286D01*
X191116000Y-88107571D01*
X190898286Y-87998714D01*
X193510857Y-87672143D02*
X193293143Y-87781000D01*
X193184286Y-87889857D01*
X193075429Y-88107571D01*
X193075429Y-88216429D01*
X193184286Y-88434143D01*
X193293143Y-88543000D01*
X193510857Y-88651857D01*
X193946286Y-88651857D01*
X194164000Y-88543000D01*
X194272857Y-88434143D01*
X194381714Y-88216429D01*
X194381714Y-88107571D01*
X194272857Y-87889857D01*
X194164000Y-87781000D01*
X193946286Y-87672143D01*
X193510857Y-87672143D01*
X193293143Y-87563286D01*
X193184286Y-87454429D01*
X193075429Y-87236714D01*
X193075429Y-86801286D01*
X193184286Y-86583571D01*
X193293143Y-86474714D01*
X193510857Y-86365857D01*
X193946286Y-86365857D01*
X194164000Y-86474714D01*
X194272857Y-86583571D01*
X194381714Y-86801286D01*
X194381714Y-87236714D01*
X194272857Y-87454429D01*
X194164000Y-87563286D01*
X193946286Y-87672143D01*
X220898286Y-88434143D02*
X221007143Y-88543000D01*
X221224857Y-88651857D01*
X221769143Y-88651857D01*
X221986857Y-88543000D01*
X222095714Y-88434143D01*
X222204571Y-88216429D01*
X222204571Y-87998714D01*
X222095714Y-87672143D01*
X220789428Y-86365857D01*
X222204571Y-86365857D01*
X224381714Y-86365857D02*
X223075429Y-86365857D01*
X223728571Y-86365857D02*
X223728571Y-88651857D01*
X223510857Y-88325286D01*
X223293143Y-88107571D01*
X223075429Y-87998714D01*
X210898286Y-88434143D02*
X211007143Y-88543000D01*
X211224857Y-88651857D01*
X211769143Y-88651857D01*
X211986857Y-88543000D01*
X212095714Y-88434143D01*
X212204571Y-88216429D01*
X212204571Y-87998714D01*
X212095714Y-87672143D01*
X210789428Y-86365857D01*
X212204571Y-86365857D01*
X213619714Y-88651857D02*
X213837429Y-88651857D01*
X214055143Y-88543000D01*
X214164000Y-88434143D01*
X214272857Y-88216429D01*
X214381714Y-87781000D01*
X214381714Y-87236714D01*
X214272857Y-86801286D01*
X214164000Y-86583571D01*
X214055143Y-86474714D01*
X213837429Y-86365857D01*
X213619714Y-86365857D01*
X213402000Y-86474714D01*
X213293143Y-86583571D01*
X213184286Y-86801286D01*
X213075429Y-87236714D01*
X213075429Y-87781000D01*
X213184286Y-88216429D01*
X213293143Y-88434143D01*
X213402000Y-88543000D01*
X213619714Y-88651857D01*
X202204571Y-86365857D02*
X200898286Y-86365857D01*
X201551428Y-86365857D02*
X201551428Y-88651857D01*
X201333714Y-88325286D01*
X201116000Y-88107571D01*
X200898286Y-87998714D01*
X203293143Y-86365857D02*
X203728571Y-86365857D01*
X203946286Y-86474714D01*
X204055143Y-86583571D01*
X204272857Y-86910143D01*
X204381714Y-87345571D01*
X204381714Y-88216429D01*
X204272857Y-88434143D01*
X204164000Y-88543000D01*
X203946286Y-88651857D01*
X203510857Y-88651857D01*
X203293143Y-88543000D01*
X203184286Y-88434143D01*
X203075429Y-88216429D01*
X203075429Y-87672143D01*
X203184286Y-87454429D01*
X203293143Y-87345571D01*
X203510857Y-87236714D01*
X203946286Y-87236714D01*
X204164000Y-87345571D01*
X204272857Y-87454429D01*
X204381714Y-87672143D01*
X142204571Y-86365857D02*
X140898286Y-86365857D01*
X141551428Y-86365857D02*
X141551428Y-88651857D01*
X141333714Y-88325286D01*
X141116000Y-88107571D01*
X140898286Y-87998714D01*
X142966571Y-88651857D02*
X144381714Y-88651857D01*
X143619714Y-87781000D01*
X143946286Y-87781000D01*
X144164000Y-87672143D01*
X144272857Y-87563286D01*
X144381714Y-87345571D01*
X144381714Y-86801286D01*
X144272857Y-86583571D01*
X144164000Y-86474714D01*
X143946286Y-86365857D01*
X143293143Y-86365857D01*
X143075429Y-86474714D01*
X142966571Y-86583571D01*
X152204571Y-86365857D02*
X150898286Y-86365857D01*
X151551428Y-86365857D02*
X151551428Y-88651857D01*
X151333714Y-88325286D01*
X151116000Y-88107571D01*
X150898286Y-87998714D01*
X154164000Y-87889857D02*
X154164000Y-86365857D01*
X153619714Y-88760714D02*
X153075429Y-87127857D01*
X154490571Y-87127857D01*
X162204571Y-86365857D02*
X160898286Y-86365857D01*
X161551428Y-86365857D02*
X161551428Y-88651857D01*
X161333714Y-88325286D01*
X161116000Y-88107571D01*
X160898286Y-87998714D01*
X164272857Y-88651857D02*
X163184286Y-88651857D01*
X163075429Y-87563286D01*
X163184286Y-87672143D01*
X163402000Y-87781000D01*
X163946286Y-87781000D01*
X164164000Y-87672143D01*
X164272857Y-87563286D01*
X164381714Y-87345571D01*
X164381714Y-86801286D01*
X164272857Y-86583571D01*
X164164000Y-86474714D01*
X163946286Y-86365857D01*
X163402000Y-86365857D01*
X163184286Y-86474714D01*
X163075429Y-86583571D01*
X132204571Y-86365857D02*
X130898286Y-86365857D01*
X131551428Y-86365857D02*
X131551428Y-88651857D01*
X131333714Y-88325286D01*
X131116000Y-88107571D01*
X130898286Y-87998714D01*
X133075429Y-88434143D02*
X133184286Y-88543000D01*
X133402000Y-88651857D01*
X133946286Y-88651857D01*
X134164000Y-88543000D01*
X134272857Y-88434143D01*
X134381714Y-88216429D01*
X134381714Y-87998714D01*
X134272857Y-87672143D01*
X132966571Y-86365857D01*
X134381714Y-86365857D01*
X122204571Y-86365857D02*
X120898286Y-86365857D01*
X121551428Y-86365857D02*
X121551428Y-88651857D01*
X121333714Y-88325286D01*
X121116000Y-88107571D01*
X120898286Y-87998714D01*
X124381714Y-86365857D02*
X123075429Y-86365857D01*
X123728571Y-86365857D02*
X123728571Y-88651857D01*
X123510857Y-88325286D01*
X123293143Y-88107571D01*
X123075429Y-87998714D01*
X103804572Y-86365857D02*
X104240000Y-86365857D01*
X104457715Y-86474714D01*
X104566572Y-86583571D01*
X104784286Y-86910143D01*
X104893143Y-87345571D01*
X104893143Y-88216429D01*
X104784286Y-88434143D01*
X104675429Y-88543000D01*
X104457715Y-88651857D01*
X104022286Y-88651857D01*
X103804572Y-88543000D01*
X103695715Y-88434143D01*
X103586858Y-88216429D01*
X103586858Y-87672143D01*
X103695715Y-87454429D01*
X103804572Y-87345571D01*
X104022286Y-87236714D01*
X104457715Y-87236714D01*
X104675429Y-87345571D01*
X104784286Y-87454429D01*
X104893143Y-87672143D01*
X112204571Y-86365857D02*
X110898286Y-86365857D01*
X111551428Y-86365857D02*
X111551428Y-88651857D01*
X111333714Y-88325286D01*
X111116000Y-88107571D01*
X110898286Y-87998714D01*
X113619714Y-88651857D02*
X113837429Y-88651857D01*
X114055143Y-88543000D01*
X114164000Y-88434143D01*
X114272857Y-88216429D01*
X114381714Y-87781000D01*
X114381714Y-87236714D01*
X114272857Y-86801286D01*
X114164000Y-86583571D01*
X114055143Y-86474714D01*
X113837429Y-86365857D01*
X113619714Y-86365857D01*
X113402000Y-86474714D01*
X113293143Y-86583571D01*
X113184286Y-86801286D01*
X113075429Y-87236714D01*
X113075429Y-87781000D01*
X113184286Y-88216429D01*
X113293143Y-88434143D01*
X113402000Y-88543000D01*
X113619714Y-88651857D01*
X94022286Y-87672143D02*
X93804572Y-87781000D01*
X93695715Y-87889857D01*
X93586858Y-88107571D01*
X93586858Y-88216429D01*
X93695715Y-88434143D01*
X93804572Y-88543000D01*
X94022286Y-88651857D01*
X94457715Y-88651857D01*
X94675429Y-88543000D01*
X94784286Y-88434143D01*
X94893143Y-88216429D01*
X94893143Y-88107571D01*
X94784286Y-87889857D01*
X94675429Y-87781000D01*
X94457715Y-87672143D01*
X94022286Y-87672143D01*
X93804572Y-87563286D01*
X93695715Y-87454429D01*
X93586858Y-87236714D01*
X93586858Y-86801286D01*
X93695715Y-86583571D01*
X93804572Y-86474714D01*
X94022286Y-86365857D01*
X94457715Y-86365857D01*
X94675429Y-86474714D01*
X94784286Y-86583571D01*
X94893143Y-86801286D01*
X94893143Y-87236714D01*
X94784286Y-87454429D01*
X94675429Y-87563286D01*
X94457715Y-87672143D01*
X54675429Y-87889857D02*
X54675429Y-86365857D01*
X54131143Y-88760714D02*
X53586858Y-87127857D01*
X55002000Y-87127857D01*
X64784286Y-88651857D02*
X63695715Y-88651857D01*
X63586858Y-87563286D01*
X63695715Y-87672143D01*
X63913429Y-87781000D01*
X64457715Y-87781000D01*
X64675429Y-87672143D01*
X64784286Y-87563286D01*
X64893143Y-87345571D01*
X64893143Y-86801286D01*
X64784286Y-86583571D01*
X64675429Y-86474714D01*
X64457715Y-86365857D01*
X63913429Y-86365857D01*
X63695715Y-86474714D01*
X63586858Y-86583571D01*
X83478000Y-88651857D02*
X85002000Y-88651857D01*
X84022286Y-86365857D01*
X74675429Y-88651857D02*
X74240000Y-88651857D01*
X74022286Y-88543000D01*
X73913429Y-88434143D01*
X73695715Y-88107571D01*
X73586858Y-87672143D01*
X73586858Y-86801286D01*
X73695715Y-86583571D01*
X73804572Y-86474714D01*
X74022286Y-86365857D01*
X74457715Y-86365857D01*
X74675429Y-86474714D01*
X74784286Y-86583571D01*
X74893143Y-86801286D01*
X74893143Y-87345571D01*
X74784286Y-87563286D01*
X74675429Y-87672143D01*
X74457715Y-87781000D01*
X74022286Y-87781000D01*
X73804572Y-87672143D01*
X73695715Y-87563286D01*
X73586858Y-87345571D01*
X33586858Y-88434143D02*
X33695715Y-88543000D01*
X33913429Y-88651857D01*
X34457715Y-88651857D01*
X34675429Y-88543000D01*
X34784286Y-88434143D01*
X34893143Y-88216429D01*
X34893143Y-87998714D01*
X34784286Y-87672143D01*
X33478000Y-86365857D01*
X34893143Y-86365857D01*
X43478000Y-88651857D02*
X44893143Y-88651857D01*
X44131143Y-87781000D01*
X44457715Y-87781000D01*
X44675429Y-87672143D01*
X44784286Y-87563286D01*
X44893143Y-87345571D01*
X44893143Y-86801286D01*
X44784286Y-86583571D01*
X44675429Y-86474714D01*
X44457715Y-86365857D01*
X43804572Y-86365857D01*
X43586858Y-86474714D01*
X43478000Y-86583571D01*
X24893143Y-86365857D02*
X23586858Y-86365857D01*
X24240000Y-86365857D02*
X24240000Y-88651857D01*
X24022286Y-88325286D01*
X23804572Y-88107571D01*
X23586858Y-87998714D01*
X14131143Y-88651857D02*
X14348858Y-88651857D01*
X14566572Y-88543000D01*
X14675429Y-88434143D01*
X14784286Y-88216429D01*
X14893143Y-87781000D01*
X14893143Y-87236714D01*
X14784286Y-86801286D01*
X14675429Y-86583571D01*
X14566572Y-86474714D01*
X14348858Y-86365857D01*
X14131143Y-86365857D01*
X13913429Y-86474714D01*
X13804572Y-86583571D01*
X13695715Y-86801286D01*
X13586858Y-87236714D01*
X13586858Y-87781000D01*
X13695715Y-88216429D01*
X13804572Y-88434143D01*
X13913429Y-88543000D01*
X14131143Y-88651857D01*
D12*
X173640000Y-89800000D02*
X173640000Y-91300000D01*
X174640000Y-89800000D02*
X174640000Y-91300000D01*
X175640000Y-89800000D02*
X175640000Y-91300000D01*
X176640000Y-89800000D02*
X176640000Y-91300000D01*
X177640000Y-88800000D02*
X177640000Y-91300000D01*
X182640000Y-86300000D02*
X182640000Y-91300000D01*
X181640000Y-89800000D02*
X181640000Y-91300000D01*
X180640000Y-89800000D02*
X180640000Y-91300000D01*
X179640000Y-89800000D02*
X179640000Y-91300000D01*
X178640000Y-89800000D02*
X178640000Y-91300000D01*
X188640000Y-89800000D02*
X188640000Y-91300000D01*
X189640000Y-89800000D02*
X189640000Y-91300000D01*
X190640000Y-89800000D02*
X190640000Y-91300000D01*
X191640000Y-89800000D02*
X191640000Y-91300000D01*
X192640000Y-86300000D02*
X192640000Y-91300000D01*
X187640000Y-88800000D02*
X187640000Y-91300000D01*
X186640000Y-89800000D02*
X186640000Y-91300000D01*
X185640000Y-89800000D02*
X185640000Y-91300000D01*
X184640000Y-89800000D02*
X184640000Y-91300000D01*
X183640000Y-89800000D02*
X183640000Y-91300000D01*
X203640000Y-89800000D02*
X203640000Y-91300000D01*
X204640000Y-89800000D02*
X204640000Y-91300000D01*
X205640000Y-89800000D02*
X205640000Y-91300000D01*
X206640000Y-89800000D02*
X206640000Y-91300000D01*
X207640000Y-88800000D02*
X207640000Y-91300000D01*
X212640000Y-86300000D02*
X212640000Y-91300000D01*
X211640000Y-89800000D02*
X211640000Y-91300000D01*
X210640000Y-89800000D02*
X210640000Y-91300000D01*
X209640000Y-89800000D02*
X209640000Y-91300000D01*
X208640000Y-89800000D02*
X208640000Y-91300000D01*
X198640000Y-89800000D02*
X198640000Y-91300000D01*
X199640000Y-89800000D02*
X199640000Y-91300000D01*
X200640000Y-89800000D02*
X200640000Y-91300000D01*
X201640000Y-89800000D02*
X201640000Y-91300000D01*
X202640000Y-86300000D02*
X202640000Y-91300000D01*
X197640000Y-88800000D02*
X197640000Y-91300000D01*
X196640000Y-89800000D02*
X196640000Y-91300000D01*
X195640000Y-89800000D02*
X195640000Y-91300000D01*
X194640000Y-89800000D02*
X194640000Y-91300000D01*
X193640000Y-89800000D02*
X193640000Y-91300000D01*
X233640000Y-89800000D02*
X233640000Y-91300000D01*
X234640000Y-89800000D02*
X234640000Y-91300000D01*
X235640000Y-89800000D02*
X235640000Y-91300000D01*
X236640000Y-89800000D02*
X236640000Y-91300000D01*
X237640000Y-88800000D02*
X237640000Y-91300000D01*
X242640000Y-86300000D02*
X242640000Y-91300000D01*
X241640000Y-89800000D02*
X241640000Y-91300000D01*
X240640000Y-89800000D02*
X240640000Y-91300000D01*
X239640000Y-89800000D02*
X239640000Y-91300000D01*
X238640000Y-89800000D02*
X238640000Y-91300000D01*
X248640000Y-89800000D02*
X248640000Y-91300000D01*
X249640000Y-89800000D02*
X249640000Y-91300000D01*
X250640000Y-89800000D02*
X250640000Y-91300000D01*
X251640000Y-89800000D02*
X251640000Y-91300000D01*
X252640000Y-86300000D02*
X252640000Y-91300000D01*
X247640000Y-88800000D02*
X247640000Y-91300000D01*
X246640000Y-89800000D02*
X246640000Y-91300000D01*
X245640000Y-89800000D02*
X245640000Y-91300000D01*
X244640000Y-89800000D02*
X244640000Y-91300000D01*
X243640000Y-89800000D02*
X243640000Y-91300000D01*
X223640000Y-89800000D02*
X223640000Y-91300000D01*
X224640000Y-89800000D02*
X224640000Y-91300000D01*
X225640000Y-89800000D02*
X225640000Y-91300000D01*
X226640000Y-89800000D02*
X226640000Y-91300000D01*
X227640000Y-88800000D02*
X227640000Y-91300000D01*
X232640000Y-86300000D02*
X232640000Y-91300000D01*
X231640000Y-89800000D02*
X231640000Y-91300000D01*
X230640000Y-89800000D02*
X230640000Y-91300000D01*
X229640000Y-89800000D02*
X229640000Y-91300000D01*
X228640000Y-89800000D02*
X228640000Y-91300000D01*
X218640000Y-89800000D02*
X218640000Y-91300000D01*
X219640000Y-89800000D02*
X219640000Y-91300000D01*
X220640000Y-89800000D02*
X220640000Y-91300000D01*
X221640000Y-89800000D02*
X221640000Y-91300000D01*
X222640000Y-86300000D02*
X222640000Y-91300000D01*
X217640000Y-88800000D02*
X217640000Y-91300000D01*
X216640000Y-89800000D02*
X216640000Y-91300000D01*
X215640000Y-89800000D02*
X215640000Y-91300000D01*
X214640000Y-89800000D02*
X214640000Y-91300000D01*
X213640000Y-89800000D02*
X213640000Y-91300000D01*
X293640000Y-89800000D02*
X293640000Y-91300000D01*
X294640000Y-89800000D02*
X294640000Y-91300000D01*
X295640000Y-89800000D02*
X295640000Y-91300000D01*
X296640000Y-89800000D02*
X296640000Y-91300000D01*
X297640000Y-88800000D02*
X297640000Y-91300000D01*
X302640000Y-86300000D02*
X302640000Y-91300000D01*
X301640000Y-89800000D02*
X301640000Y-91300000D01*
X300640000Y-89800000D02*
X300640000Y-91300000D01*
X299640000Y-89800000D02*
X299640000Y-91300000D01*
X298640000Y-89800000D02*
X298640000Y-91300000D01*
X308640000Y-89800000D02*
X308640000Y-91300000D01*
X309640000Y-89800000D02*
X309640000Y-91300000D01*
X310640000Y-89800000D02*
X310640000Y-91300000D01*
X311640000Y-89800000D02*
X311640000Y-91300000D01*
X312640000Y-86300000D02*
X312640000Y-91300000D01*
X307640000Y-88800000D02*
X307640000Y-91300000D01*
X306640000Y-89800000D02*
X306640000Y-91300000D01*
X305640000Y-89800000D02*
X305640000Y-91300000D01*
X304640000Y-89800000D02*
X304640000Y-91300000D01*
X303640000Y-89800000D02*
X303640000Y-91300000D01*
X317640000Y-88800000D02*
X317640000Y-91300000D01*
X316640000Y-89800000D02*
X316640000Y-91300000D01*
X315640000Y-89800000D02*
X315640000Y-91300000D01*
X314640000Y-89800000D02*
X314640000Y-91300000D01*
X313640000Y-89800000D02*
X313640000Y-91300000D01*
X273640000Y-89800000D02*
X273640000Y-91300000D01*
X274640000Y-89800000D02*
X274640000Y-91300000D01*
X275640000Y-89800000D02*
X275640000Y-91300000D01*
X276640000Y-89800000D02*
X276640000Y-91300000D01*
X277640000Y-88800000D02*
X277640000Y-91300000D01*
X282640000Y-86300000D02*
X282640000Y-91300000D01*
X281640000Y-89800000D02*
X281640000Y-91300000D01*
X280640000Y-89800000D02*
X280640000Y-91300000D01*
X279640000Y-89800000D02*
X279640000Y-91300000D01*
X278640000Y-89800000D02*
X278640000Y-91300000D01*
X288640000Y-89800000D02*
X288640000Y-91300000D01*
X289640000Y-89800000D02*
X289640000Y-91300000D01*
X290640000Y-89800000D02*
X290640000Y-91300000D01*
X291640000Y-89800000D02*
X291640000Y-91300000D01*
X292640000Y-86300000D02*
X292640000Y-91300000D01*
X287640000Y-88800000D02*
X287640000Y-91300000D01*
X286640000Y-89800000D02*
X286640000Y-91300000D01*
X285640000Y-89800000D02*
X285640000Y-91300000D01*
X284640000Y-89800000D02*
X284640000Y-91300000D01*
X283640000Y-89800000D02*
X283640000Y-91300000D01*
X263640000Y-89800000D02*
X263640000Y-91300000D01*
X264640000Y-89800000D02*
X264640000Y-91300000D01*
X265640000Y-89800000D02*
X265640000Y-91300000D01*
X266640000Y-89800000D02*
X266640000Y-91300000D01*
X267640000Y-88800000D02*
X267640000Y-91300000D01*
X272640000Y-86300000D02*
X272640000Y-91300000D01*
X271640000Y-89800000D02*
X271640000Y-91300000D01*
X270640000Y-89800000D02*
X270640000Y-91300000D01*
X269640000Y-89800000D02*
X269640000Y-91300000D01*
X268640000Y-89800000D02*
X268640000Y-91300000D01*
X258640000Y-89800000D02*
X258640000Y-91300000D01*
X259640000Y-89800000D02*
X259640000Y-91300000D01*
X260640000Y-89800000D02*
X260640000Y-91300000D01*
X261640000Y-89800000D02*
X261640000Y-91300000D01*
X262640000Y-86300000D02*
X262640000Y-91300000D01*
X257640000Y-88800000D02*
X257640000Y-91300000D01*
X256640000Y-89800000D02*
X256640000Y-91300000D01*
X255640000Y-89800000D02*
X255640000Y-91300000D01*
X254640000Y-89800000D02*
X254640000Y-91300000D01*
X253640000Y-89800000D02*
X253640000Y-91300000D01*
X93640000Y-89800000D02*
X93640000Y-91300000D01*
X94640000Y-89800000D02*
X94640000Y-91300000D01*
X95640000Y-89800000D02*
X95640000Y-91300000D01*
X96640000Y-89800000D02*
X96640000Y-91300000D01*
X97640000Y-88800000D02*
X97640000Y-91300000D01*
X102640000Y-86300000D02*
X102640000Y-91300000D01*
X101640000Y-89800000D02*
X101640000Y-91300000D01*
X100640000Y-89800000D02*
X100640000Y-91300000D01*
X99640000Y-89800000D02*
X99640000Y-91300000D01*
X98640000Y-89800000D02*
X98640000Y-91300000D01*
X108640000Y-89800000D02*
X108640000Y-91300000D01*
X109640000Y-89800000D02*
X109640000Y-91300000D01*
X110640000Y-89800000D02*
X110640000Y-91300000D01*
X111640000Y-89800000D02*
X111640000Y-91300000D01*
X112640000Y-86300000D02*
X112640000Y-91300000D01*
X107640000Y-88800000D02*
X107640000Y-91300000D01*
X106640000Y-89800000D02*
X106640000Y-91300000D01*
X105640000Y-89800000D02*
X105640000Y-91300000D01*
X104640000Y-89800000D02*
X104640000Y-91300000D01*
X103640000Y-89800000D02*
X103640000Y-91300000D01*
X123640000Y-89800000D02*
X123640000Y-91300000D01*
X124640000Y-89800000D02*
X124640000Y-91300000D01*
X125640000Y-89800000D02*
X125640000Y-91300000D01*
X126640000Y-89800000D02*
X126640000Y-91300000D01*
X127640000Y-88800000D02*
X127640000Y-91300000D01*
X132640000Y-86300000D02*
X132640000Y-91300000D01*
X131640000Y-89800000D02*
X131640000Y-91300000D01*
X130640000Y-89800000D02*
X130640000Y-91300000D01*
X129640000Y-89800000D02*
X129640000Y-91300000D01*
X128640000Y-89800000D02*
X128640000Y-91300000D01*
X118640000Y-89800000D02*
X118640000Y-91300000D01*
X119640000Y-89800000D02*
X119640000Y-91300000D01*
X120640000Y-89800000D02*
X120640000Y-91300000D01*
X121640000Y-89800000D02*
X121640000Y-91300000D01*
X122640000Y-86300000D02*
X122640000Y-91300000D01*
X117640000Y-88800000D02*
X117640000Y-91300000D01*
X116640000Y-89800000D02*
X116640000Y-91300000D01*
X115640000Y-89800000D02*
X115640000Y-91300000D01*
X114640000Y-89800000D02*
X114640000Y-91300000D01*
X113640000Y-89800000D02*
X113640000Y-91300000D01*
X153640000Y-89800000D02*
X153640000Y-91300000D01*
X154640000Y-89800000D02*
X154640000Y-91300000D01*
X155640000Y-89800000D02*
X155640000Y-91300000D01*
X156640000Y-89800000D02*
X156640000Y-91300000D01*
X157640000Y-88800000D02*
X157640000Y-91300000D01*
X162640000Y-86300000D02*
X162640000Y-91300000D01*
X161640000Y-89800000D02*
X161640000Y-91300000D01*
X160640000Y-89800000D02*
X160640000Y-91300000D01*
X159640000Y-89800000D02*
X159640000Y-91300000D01*
X158640000Y-89800000D02*
X158640000Y-91300000D01*
X168640000Y-89800000D02*
X168640000Y-91300000D01*
X169640000Y-89800000D02*
X169640000Y-91300000D01*
X170640000Y-89800000D02*
X170640000Y-91300000D01*
X171640000Y-89800000D02*
X171640000Y-91300000D01*
X172640000Y-86300000D02*
X172640000Y-91300000D01*
X167640000Y-88800000D02*
X167640000Y-91300000D01*
X166640000Y-89800000D02*
X166640000Y-91300000D01*
X165640000Y-89800000D02*
X165640000Y-91300000D01*
X164640000Y-89800000D02*
X164640000Y-91300000D01*
X163640000Y-89800000D02*
X163640000Y-91300000D01*
X143640000Y-89800000D02*
X143640000Y-91300000D01*
X144640000Y-89800000D02*
X144640000Y-91300000D01*
X145640000Y-89800000D02*
X145640000Y-91300000D01*
X146640000Y-89800000D02*
X146640000Y-91300000D01*
X147640000Y-88800000D02*
X147640000Y-91300000D01*
X152640000Y-86300000D02*
X152640000Y-91300000D01*
X151640000Y-89800000D02*
X151640000Y-91300000D01*
X150640000Y-89800000D02*
X150640000Y-91300000D01*
X149640000Y-89800000D02*
X149640000Y-91300000D01*
X148640000Y-89800000D02*
X148640000Y-91300000D01*
X138640000Y-89800000D02*
X138640000Y-91300000D01*
X139640000Y-89800000D02*
X139640000Y-91300000D01*
X140640000Y-89800000D02*
X140640000Y-91300000D01*
X141640000Y-89800000D02*
X141640000Y-91300000D01*
X142640000Y-86300000D02*
X142640000Y-91300000D01*
X137640000Y-88800000D02*
X137640000Y-91300000D01*
X136640000Y-89800000D02*
X136640000Y-91300000D01*
X135640000Y-89800000D02*
X135640000Y-91300000D01*
X134640000Y-89800000D02*
X134640000Y-91300000D01*
X133640000Y-89800000D02*
X133640000Y-91300000D01*
X53640000Y-89800000D02*
X53640000Y-91300000D01*
X54640000Y-89800000D02*
X54640000Y-91300000D01*
X55640000Y-89800000D02*
X55640000Y-91300000D01*
X56640000Y-89800000D02*
X56640000Y-91300000D01*
X57640000Y-88800000D02*
X57640000Y-91300000D01*
X62640000Y-86300000D02*
X62640000Y-91300000D01*
X61640000Y-89800000D02*
X61640000Y-91300000D01*
X60640000Y-89800000D02*
X60640000Y-91300000D01*
X59640000Y-89800000D02*
X59640000Y-91300000D01*
X58640000Y-89800000D02*
X58640000Y-91300000D01*
X68640000Y-89800000D02*
X68640000Y-91300000D01*
X69640000Y-89800000D02*
X69640000Y-91300000D01*
X70640000Y-89800000D02*
X70640000Y-91300000D01*
X71640000Y-89800000D02*
X71640000Y-91300000D01*
X72640000Y-86300000D02*
X72640000Y-91300000D01*
X67640000Y-88800000D02*
X67640000Y-91300000D01*
X66640000Y-89800000D02*
X66640000Y-91300000D01*
X65640000Y-89800000D02*
X65640000Y-91300000D01*
X64640000Y-89800000D02*
X64640000Y-91300000D01*
X63640000Y-89800000D02*
X63640000Y-91300000D01*
X83640000Y-89800000D02*
X83640000Y-91300000D01*
X84640000Y-89800000D02*
X84640000Y-91300000D01*
X85640000Y-89800000D02*
X85640000Y-91300000D01*
X86640000Y-89800000D02*
X86640000Y-91300000D01*
X87640000Y-88800000D02*
X87640000Y-91300000D01*
X92640000Y-86300000D02*
X92640000Y-91300000D01*
X91640000Y-89800000D02*
X91640000Y-91300000D01*
X90640000Y-89800000D02*
X90640000Y-91300000D01*
X89640000Y-89800000D02*
X89640000Y-91300000D01*
X88640000Y-89800000D02*
X88640000Y-91300000D01*
X78640000Y-89800000D02*
X78640000Y-91300000D01*
X79640000Y-89800000D02*
X79640000Y-91300000D01*
X80640000Y-89800000D02*
X80640000Y-91300000D01*
X81640000Y-89800000D02*
X81640000Y-91300000D01*
X82640000Y-86300000D02*
X82640000Y-91300000D01*
X77640000Y-88800000D02*
X77640000Y-91300000D01*
X76640000Y-89800000D02*
X76640000Y-91300000D01*
X75640000Y-89800000D02*
X75640000Y-91300000D01*
X74640000Y-89800000D02*
X74640000Y-91300000D01*
X73640000Y-89800000D02*
X73640000Y-91300000D01*
X33640000Y-89800000D02*
X33640000Y-91300000D01*
X34640000Y-89800000D02*
X34640000Y-91300000D01*
X35640000Y-89800000D02*
X35640000Y-91300000D01*
X36640000Y-89800000D02*
X36640000Y-91300000D01*
X37640000Y-88800000D02*
X37640000Y-91300000D01*
X42640000Y-86300000D02*
X42640000Y-91300000D01*
X41640000Y-89800000D02*
X41640000Y-91300000D01*
X40640000Y-89800000D02*
X40640000Y-91300000D01*
X39640000Y-89800000D02*
X39640000Y-91300000D01*
X38640000Y-89800000D02*
X38640000Y-91300000D01*
X48640000Y-89800000D02*
X48640000Y-91300000D01*
X49640000Y-89800000D02*
X49640000Y-91300000D01*
X50640000Y-89800000D02*
X50640000Y-91300000D01*
X51640000Y-89800000D02*
X51640000Y-91300000D01*
X52640000Y-86300000D02*
X52640000Y-91300000D01*
X47640000Y-88800000D02*
X47640000Y-91300000D01*
X46640000Y-89800000D02*
X46640000Y-91300000D01*
X45640000Y-89800000D02*
X45640000Y-91300000D01*
X44640000Y-89800000D02*
X44640000Y-91300000D01*
X43640000Y-89800000D02*
X43640000Y-91300000D01*
X23640000Y-89800000D02*
X23640000Y-91300000D01*
X24640000Y-89800000D02*
X24640000Y-91300000D01*
X25640000Y-89800000D02*
X25640000Y-91300000D01*
X26640000Y-89800000D02*
X26640000Y-91300000D01*
X27640000Y-88800000D02*
X27640000Y-91300000D01*
X32640000Y-86300000D02*
X32640000Y-91300000D01*
X31640000Y-89800000D02*
X31640000Y-91300000D01*
X30640000Y-89800000D02*
X30640000Y-91300000D01*
X29640000Y-89800000D02*
X29640000Y-91300000D01*
X28640000Y-89800000D02*
X28640000Y-91300000D01*
X18640000Y-89800000D02*
X18640000Y-91300000D01*
X19640000Y-89800000D02*
X19640000Y-91300000D01*
X20640000Y-89800000D02*
X20640000Y-91300000D01*
X21640000Y-89800000D02*
X21640000Y-91300000D01*
X22640000Y-86300000D02*
X22640000Y-91300000D01*
X17640000Y-88800000D02*
X17640000Y-91300000D01*
X16640000Y-89800000D02*
X16640000Y-91300000D01*
X15640000Y-89800000D02*
X15640000Y-91300000D01*
X14640000Y-89800000D02*
X14640000Y-91300000D01*
X13640000Y-89800000D02*
X13640000Y-91300000D01*
X12640000Y-86300000D02*
X12640000Y-91300000D01*
D15*
X208873000Y-62412000D03*
X216323000Y-62412000D03*
D16*
X208723000Y-66212000D03*
X216473000Y-66212000D03*
D17*
X210098000Y-63462000D03*
X215098000Y-63462000D03*
D18*
X50800000Y-65024000D03*
D19*
X50800000Y-68824000D03*
D18*
X59690000Y-66548000D03*
D19*
X59690000Y-69048000D03*
D18*
X67056000Y-67564000D03*
D19*
X67056000Y-69564000D03*
D20*
X227264000Y-64962000D03*
X235524000Y-64962000D03*
X235884000Y-70912000D03*
X226904000Y-70912000D03*
D21*
X234994000Y-63712000D03*
D22*
X227794000Y-63712000D03*
D23*
X252696000Y-76200000D03*
X240826000Y-76200000D03*
D24*
X242316000Y-69850000D03*
D25*
X243586000Y-67310000D03*
X244856000Y-69850000D03*
X246126000Y-67310000D03*
X247396000Y-69850000D03*
X248666000Y-67310000D03*
X249936000Y-69850000D03*
X251206000Y-67310000D03*
X219962000Y-70358000D03*
X217422000Y-70358000D03*
X215392000Y-70358000D03*
X212852000Y-70358000D03*
D26*
X223012000Y-73028000D03*
X209292000Y-73028000D03*
D27*
X15540000Y-76250000D03*
X15540000Y-75750000D03*
X15540000Y-75250000D03*
X15540000Y-74750000D03*
X15540000Y-74250000D03*
X15540000Y-73750000D03*
X15540000Y-73250000D03*
X15540000Y-72750000D03*
X15540000Y-72250000D03*
X15540000Y-71750000D03*
X15540000Y-71250000D03*
X15540000Y-70750000D03*
X15540000Y-70250000D03*
X15540000Y-69750000D03*
X15540000Y-69250000D03*
X15540000Y-68750000D03*
X15540000Y-68250000D03*
X15540000Y-67750000D03*
X15540000Y-67250000D03*
X15540000Y-66750000D03*
X15540000Y-66250000D03*
X15540000Y-65750000D03*
X15540000Y-65250000D03*
X15540000Y-64750000D03*
X15540000Y-64250000D03*
X15540000Y-63750000D03*
X15540000Y-63250000D03*
X15540000Y-62750000D03*
X15540000Y-62250000D03*
X15540000Y-61750000D03*
X15540000Y-61250000D03*
X15540000Y-60750000D03*
X15540000Y-60250000D03*
X15540000Y-59750000D03*
X15540000Y-59250000D03*
X15540000Y-58750000D03*
D28*
X17490000Y-56800000D03*
X17990000Y-56800000D03*
X18490000Y-56800000D03*
X18990000Y-56800000D03*
X19490000Y-56800000D03*
X19990000Y-56800000D03*
X20490000Y-56800000D03*
X20990000Y-56800000D03*
X21490000Y-56800000D03*
X21990000Y-56800000D03*
X22490000Y-56800000D03*
X22990000Y-56800000D03*
X23490000Y-56800000D03*
X23990000Y-56800000D03*
X24490000Y-56800000D03*
X24990000Y-56800000D03*
X25490000Y-56800000D03*
X25990000Y-56800000D03*
X26490000Y-56800000D03*
X26990000Y-56800000D03*
X27490000Y-56800000D03*
X27990000Y-56800000D03*
X28490000Y-56800000D03*
X28990000Y-56800000D03*
X29490000Y-56800000D03*
X29990000Y-56800000D03*
X30490000Y-56800000D03*
X30990000Y-56800000D03*
X31490000Y-56800000D03*
X31990000Y-56800000D03*
X32490000Y-56800000D03*
X32990000Y-56800000D03*
X33490000Y-56800000D03*
X33990000Y-56800000D03*
X34490000Y-56800000D03*
X34990000Y-56800000D03*
D27*
X36940000Y-58750000D03*
X36940000Y-59250000D03*
X36940000Y-59750000D03*
X36940000Y-60250000D03*
X36940000Y-60750000D03*
X36940000Y-61250000D03*
X36940000Y-61750000D03*
X36940000Y-62250000D03*
X36940000Y-62750000D03*
X36940000Y-63250000D03*
X36940000Y-63750000D03*
X36940000Y-64250000D03*
X36940000Y-64750000D03*
X36940000Y-65250000D03*
X36940000Y-65750000D03*
X36940000Y-66250000D03*
X36940000Y-66750000D03*
X36940000Y-67250000D03*
X36940000Y-67750000D03*
X36940000Y-68250000D03*
X36940000Y-68750000D03*
X36940000Y-69250000D03*
X36940000Y-69750000D03*
X36940000Y-70250000D03*
X36940000Y-70750000D03*
X36940000Y-71250000D03*
X36940000Y-71750000D03*
X36940000Y-72250000D03*
X36940000Y-72750000D03*
X36940000Y-73250000D03*
X36940000Y-73750000D03*
X36940000Y-74250000D03*
X36940000Y-74750000D03*
X36940000Y-75250000D03*
X36940000Y-75750000D03*
X36940000Y-76250000D03*
D28*
X34990000Y-78200000D03*
X34490000Y-78200000D03*
X33990000Y-78200000D03*
X33490000Y-78200000D03*
X32990000Y-78200000D03*
X32490000Y-78200000D03*
X31990000Y-78200000D03*
X31490000Y-78200000D03*
X30990000Y-78200000D03*
X30490000Y-78200000D03*
X29990000Y-78200000D03*
X29490000Y-78200000D03*
X28990000Y-78200000D03*
X28490000Y-78200000D03*
X27990000Y-78200000D03*
X27490000Y-78200000D03*
X26990000Y-78200000D03*
X26490000Y-78200000D03*
X25990000Y-78200000D03*
X25490000Y-78200000D03*
X24990000Y-78200000D03*
X24490000Y-78200000D03*
X23990000Y-78200000D03*
X23490000Y-78200000D03*
X22990000Y-78200000D03*
X22490000Y-78200000D03*
X21990000Y-78200000D03*
X21490000Y-78200000D03*
X20990000Y-78200000D03*
X20490000Y-78200000D03*
X19990000Y-78200000D03*
X19490000Y-78200000D03*
X18990000Y-78200000D03*
X18490000Y-78200000D03*
X17990000Y-78200000D03*
X17490000Y-78200000D03*
D29*
X58990000Y-61750000D03*
X58990000Y-61250000D03*
X58990000Y-60750000D03*
X58990000Y-60250000D03*
X58990000Y-59750000D03*
X58990000Y-59250000D03*
X58990000Y-58750000D03*
X58990000Y-58250000D03*
D30*
X60490000Y-56750000D03*
X60990000Y-56750000D03*
X61490000Y-56750000D03*
X61990000Y-56750000D03*
X62490000Y-56750000D03*
X62990000Y-56750000D03*
X63490000Y-56750000D03*
X63990000Y-56750000D03*
D29*
X65490000Y-58250000D03*
X65490000Y-58750000D03*
X65490000Y-59250000D03*
X65490000Y-59750000D03*
X65490000Y-60250000D03*
X65490000Y-60750000D03*
X65490000Y-61250000D03*
X65490000Y-61750000D03*
D30*
X63990000Y-63250000D03*
X63490000Y-63250000D03*
X62990000Y-63250000D03*
X62490000Y-63250000D03*
X61990000Y-63250000D03*
X61490000Y-63250000D03*
X60990000Y-63250000D03*
X60490000Y-63250000D03*
D31*
X52790000Y-81500000D03*
X52790000Y-81000000D03*
X52790000Y-80500000D03*
X52790000Y-80000000D03*
X52790000Y-79500000D03*
X52790000Y-79000000D03*
X52790000Y-78500000D03*
X52790000Y-78000000D03*
X52790000Y-77500000D03*
X52790000Y-77000000D03*
X52790000Y-76500000D03*
X52790000Y-76000000D03*
X52790000Y-75500000D03*
X52790000Y-75000000D03*
X52790000Y-74500000D03*
X52790000Y-74000000D03*
D32*
X54740000Y-72050000D03*
X55240000Y-72050000D03*
X55740000Y-72050000D03*
X56240000Y-72050000D03*
X56740000Y-72050000D03*
X57240000Y-72050000D03*
X57740000Y-72050000D03*
X58240000Y-72050000D03*
X58740000Y-72050000D03*
X59240000Y-72050000D03*
X59740000Y-72050000D03*
X60240000Y-72050000D03*
X60740000Y-72050000D03*
X61240000Y-72050000D03*
X61740000Y-72050000D03*
X62240000Y-72050000D03*
D31*
X64190000Y-74000000D03*
X64190000Y-74500000D03*
X64190000Y-75000000D03*
X64190000Y-75500000D03*
X64190000Y-76000000D03*
X64190000Y-76500000D03*
X64190000Y-77000000D03*
X64190000Y-77500000D03*
X64190000Y-78000000D03*
X64190000Y-78500000D03*
X64190000Y-79000000D03*
X64190000Y-79500000D03*
X64190000Y-80000000D03*
X64190000Y-80500000D03*
X64190000Y-81000000D03*
X64190000Y-81500000D03*
D32*
X62240000Y-83450000D03*
X61740000Y-83450000D03*
X61240000Y-83450000D03*
X60740000Y-83450000D03*
X60240000Y-83450000D03*
X59740000Y-83450000D03*
X59240000Y-83450000D03*
X58740000Y-83450000D03*
X58240000Y-83450000D03*
X57740000Y-83450000D03*
X57240000Y-83450000D03*
X56740000Y-83450000D03*
X56240000Y-83450000D03*
X55740000Y-83450000D03*
X55240000Y-83450000D03*
X54740000Y-83450000D03*
D33*
X79790000Y-81945000D03*
X79790000Y-81545000D03*
X79790000Y-81145000D03*
X79790000Y-80745000D03*
X79790000Y-80345000D03*
X79790000Y-79945000D03*
X79790000Y-79545000D03*
X79790000Y-79145000D03*
X79790000Y-78745000D03*
X79790000Y-78345000D03*
X79790000Y-77945000D03*
X79790000Y-77545000D03*
X79790000Y-77145000D03*
X79790000Y-76745000D03*
X79790000Y-76345000D03*
X79790000Y-75945000D03*
X79790000Y-75545000D03*
X79790000Y-75145000D03*
X79790000Y-74745000D03*
X79790000Y-74345000D03*
X79790000Y-73945000D03*
X79790000Y-73545000D03*
X79790000Y-73145000D03*
X79790000Y-72745000D03*
X79790000Y-72345000D03*
X79790000Y-71945000D03*
X79790000Y-71545000D03*
X79790000Y-71145000D03*
X79790000Y-70745000D03*
X79790000Y-70345000D03*
X79790000Y-69945000D03*
X79790000Y-69545000D03*
X79790000Y-69145000D03*
X79790000Y-68745000D03*
X79790000Y-68345000D03*
X79790000Y-67945000D03*
D34*
X81490000Y-66245000D03*
X81890000Y-66245000D03*
X82290000Y-66245000D03*
X82690000Y-66245000D03*
X83090000Y-66245000D03*
X83490000Y-66245000D03*
X83890000Y-66245000D03*
X84290000Y-66245000D03*
X84690000Y-66245000D03*
X85090000Y-66245000D03*
X85490000Y-66245000D03*
X85890000Y-66245000D03*
X86290000Y-66245000D03*
X86690000Y-66245000D03*
X87090000Y-66245000D03*
X87490000Y-66245000D03*
X87890000Y-66245000D03*
X88290000Y-66245000D03*
X88690000Y-66245000D03*
X89090000Y-66245000D03*
X89490000Y-66245000D03*
X89890000Y-66245000D03*
X90290000Y-66245000D03*
X90690000Y-66245000D03*
X91090000Y-66245000D03*
X91490000Y-66245000D03*
X91890000Y-66245000D03*
X92290000Y-66245000D03*
X92690000Y-66245000D03*
X93090000Y-66245000D03*
X93490000Y-66245000D03*
X93890000Y-66245000D03*
X94290000Y-66245000D03*
X94690000Y-66245000D03*
X95090000Y-66245000D03*
X95490000Y-66245000D03*
D33*
X97190000Y-67945000D03*
X97190000Y-68345000D03*
X97190000Y-68745000D03*
X97190000Y-69145000D03*
X97190000Y-69545000D03*
X97190000Y-69945000D03*
X97190000Y-70345000D03*
X97190000Y-70745000D03*
X97190000Y-71145000D03*
X97190000Y-71545000D03*
X97190000Y-71945000D03*
X97190000Y-72345000D03*
X97190000Y-72745000D03*
X97190000Y-73145000D03*
X97190000Y-73545000D03*
X97190000Y-73945000D03*
X97190000Y-74345000D03*
X97190000Y-74745000D03*
X97190000Y-75145000D03*
X97190000Y-75545000D03*
X97190000Y-75945000D03*
X97190000Y-76345000D03*
X97190000Y-76745000D03*
X97190000Y-77145000D03*
X97190000Y-77545000D03*
X97190000Y-77945000D03*
X97190000Y-78345000D03*
X97190000Y-78745000D03*
X97190000Y-79145000D03*
X97190000Y-79545000D03*
X97190000Y-79945000D03*
X97190000Y-80345000D03*
X97190000Y-80745000D03*
X97190000Y-81145000D03*
X97190000Y-81545000D03*
X97190000Y-81945000D03*
D34*
X95490000Y-83645000D03*
X95090000Y-83645000D03*
X94690000Y-83645000D03*
X94290000Y-83645000D03*
X93890000Y-83645000D03*
X93490000Y-83645000D03*
X93090000Y-83645000D03*
X92690000Y-83645000D03*
X92290000Y-83645000D03*
X91890000Y-83645000D03*
X91490000Y-83645000D03*
X91090000Y-83645000D03*
X90690000Y-83645000D03*
X90290000Y-83645000D03*
X89890000Y-83645000D03*
X89490000Y-83645000D03*
X89090000Y-83645000D03*
X88690000Y-83645000D03*
X88290000Y-83645000D03*
X87890000Y-83645000D03*
X87490000Y-83645000D03*
X87090000Y-83645000D03*
X86690000Y-83645000D03*
X86290000Y-83645000D03*
X85890000Y-83645000D03*
X85490000Y-83645000D03*
X85090000Y-83645000D03*
X84690000Y-83645000D03*
X84290000Y-83645000D03*
X83890000Y-83645000D03*
X83490000Y-83645000D03*
X83090000Y-83645000D03*
X82690000Y-83645000D03*
X82290000Y-83645000D03*
X81890000Y-83645000D03*
X81490000Y-83645000D03*
D35*
X117540000Y-76500000D03*
X118340000Y-76500000D03*
X119140000Y-76500000D03*
X122340000Y-76500000D03*
X123140000Y-76500000D03*
X123940000Y-76500000D03*
X117540000Y-75700000D03*
X118340000Y-75700000D03*
X119140000Y-75700000D03*
X122340000Y-75700000D03*
X123140000Y-75700000D03*
X123940000Y-75700000D03*
X117540000Y-74900000D03*
X118340000Y-74900000D03*
X119140000Y-74900000D03*
X122340000Y-74900000D03*
X123140000Y-74900000D03*
X123940000Y-74900000D03*
X117540000Y-74100000D03*
X118340000Y-74100000D03*
X119140000Y-74100000D03*
X122340000Y-74100000D03*
X123140000Y-74100000D03*
X123940000Y-74100000D03*
X117540000Y-73300000D03*
X118340000Y-73300000D03*
X119140000Y-73300000D03*
X122340000Y-73300000D03*
X123140000Y-73300000D03*
X123940000Y-73300000D03*
X117540000Y-72500000D03*
X118340000Y-72500000D03*
X119140000Y-72500000D03*
X122340000Y-72500000D03*
X123140000Y-72500000D03*
X123940000Y-72500000D03*
X117540000Y-71700000D03*
X118340000Y-71700000D03*
X119140000Y-71700000D03*
X122340000Y-71700000D03*
X123140000Y-71700000D03*
X123940000Y-71700000D03*
X117540000Y-70900000D03*
X118340000Y-70900000D03*
X119140000Y-70900000D03*
X122340000Y-70900000D03*
X123140000Y-70900000D03*
X123940000Y-70900000D03*
X117540000Y-70100000D03*
X118340000Y-70100000D03*
X119140000Y-70100000D03*
X122340000Y-70100000D03*
X123140000Y-70100000D03*
X123940000Y-70100000D03*
X117540000Y-69300000D03*
X118340000Y-69300000D03*
X119140000Y-69300000D03*
X122340000Y-69300000D03*
X123140000Y-69300000D03*
X123940000Y-69300000D03*
X117540000Y-68500000D03*
X118340000Y-68500000D03*
X119140000Y-68500000D03*
X122340000Y-68500000D03*
X123140000Y-68500000D03*
X123940000Y-68500000D03*
X117540000Y-67700000D03*
X118340000Y-67700000D03*
X119140000Y-67700000D03*
X122340000Y-67700000D03*
X123140000Y-67700000D03*
X123940000Y-67700000D03*
X117540000Y-66900000D03*
X118340000Y-66900000D03*
X119140000Y-66900000D03*
X122340000Y-66900000D03*
X123140000Y-66900000D03*
X123940000Y-66900000D03*
X117540000Y-66100000D03*
X118340000Y-66100000D03*
X119140000Y-66100000D03*
X122340000Y-66100000D03*
X123140000Y-66100000D03*
X123940000Y-66100000D03*
X117540000Y-65300000D03*
X118340000Y-65300000D03*
X119140000Y-65300000D03*
X122340000Y-65300000D03*
X123140000Y-65300000D03*
X123940000Y-65300000D03*
X117540000Y-64500000D03*
X118340000Y-64500000D03*
X119140000Y-64500000D03*
X122340000Y-64500000D03*
X123140000Y-64500000D03*
X123940000Y-64500000D03*
D36*
X67740000Y-81250000D03*
X67740000Y-80750000D03*
X67740000Y-80250000D03*
X67740000Y-79250000D03*
X67740000Y-78250000D03*
X67740000Y-77250000D03*
X67740000Y-76250000D03*
X67740000Y-75250000D03*
X67740000Y-74750000D03*
X67740000Y-74250000D03*
X68240000Y-81250000D03*
X68240000Y-80750000D03*
X68240000Y-80250000D03*
X68240000Y-79750000D03*
X68240000Y-79250000D03*
X68240000Y-78750000D03*
X68240000Y-78250000D03*
X68240000Y-77750000D03*
X68240000Y-77250000D03*
X68240000Y-76750000D03*
X68240000Y-76250000D03*
X68240000Y-75750000D03*
X68240000Y-75250000D03*
X68240000Y-74750000D03*
X68240000Y-74250000D03*
X68740000Y-81250000D03*
X68740000Y-80750000D03*
X68740000Y-77750000D03*
X68740000Y-74750000D03*
X68740000Y-74250000D03*
X69240000Y-80750000D03*
X69240000Y-79750000D03*
X69240000Y-79250000D03*
X69240000Y-78750000D03*
X69240000Y-78250000D03*
X69240000Y-77750000D03*
X69240000Y-77250000D03*
X69240000Y-76750000D03*
X69240000Y-76250000D03*
X69240000Y-75750000D03*
X69240000Y-74750000D03*
X69740000Y-81250000D03*
X69740000Y-80750000D03*
X69740000Y-79750000D03*
X69740000Y-79250000D03*
X69740000Y-78750000D03*
X69740000Y-78250000D03*
X69740000Y-77750000D03*
X69740000Y-77250000D03*
X69740000Y-76750000D03*
X69740000Y-76250000D03*
X69740000Y-75750000D03*
X69740000Y-74750000D03*
X69740000Y-74250000D03*
X70240000Y-80750000D03*
X70240000Y-79750000D03*
X70240000Y-79250000D03*
X70240000Y-76250000D03*
X70240000Y-75750000D03*
X70240000Y-74750000D03*
X70740000Y-81250000D03*
X70740000Y-80750000D03*
X70740000Y-79750000D03*
X70740000Y-79250000D03*
X70740000Y-78250000D03*
X70740000Y-77750000D03*
X70740000Y-77250000D03*
X70740000Y-76250000D03*
X70740000Y-75750000D03*
X70740000Y-74750000D03*
X70740000Y-74250000D03*
X71240000Y-80750000D03*
X71240000Y-80250000D03*
X71240000Y-79750000D03*
X71240000Y-79250000D03*
X71240000Y-78250000D03*
X71240000Y-77750000D03*
X71240000Y-77250000D03*
X71240000Y-76250000D03*
X71240000Y-75750000D03*
X71240000Y-75250000D03*
X71240000Y-74750000D03*
X71740000Y-81250000D03*
X71740000Y-80750000D03*
X71740000Y-79750000D03*
X71740000Y-79250000D03*
X71740000Y-78250000D03*
X71740000Y-77750000D03*
X71740000Y-77250000D03*
X71740000Y-76250000D03*
X71740000Y-75750000D03*
X71740000Y-74750000D03*
X71740000Y-74250000D03*
X72240000Y-80750000D03*
X72240000Y-79750000D03*
X72240000Y-79250000D03*
X72240000Y-76250000D03*
X72240000Y-75750000D03*
X72240000Y-74750000D03*
X72740000Y-81250000D03*
X72740000Y-80750000D03*
X72740000Y-79750000D03*
X72740000Y-79250000D03*
X72740000Y-78750000D03*
X72740000Y-78250000D03*
X72740000Y-77750000D03*
X72740000Y-77250000D03*
X72740000Y-76750000D03*
X72740000Y-76250000D03*
X72740000Y-75750000D03*
X72740000Y-74750000D03*
X72740000Y-74250000D03*
X73240000Y-80750000D03*
X73240000Y-79750000D03*
X73240000Y-79250000D03*
X73240000Y-78750000D03*
X73240000Y-78250000D03*
X73240000Y-77750000D03*
X73240000Y-77250000D03*
X73240000Y-76750000D03*
X73240000Y-76250000D03*
X73240000Y-75750000D03*
X73240000Y-74750000D03*
X73740000Y-81250000D03*
X73740000Y-80750000D03*
X73740000Y-77750000D03*
X73740000Y-74750000D03*
X73740000Y-74250000D03*
X74240000Y-81250000D03*
X74240000Y-80750000D03*
X74240000Y-80250000D03*
X74240000Y-79750000D03*
X74240000Y-79250000D03*
X74240000Y-78750000D03*
X74240000Y-78250000D03*
X74240000Y-77750000D03*
X74240000Y-77250000D03*
X74240000Y-76750000D03*
X74240000Y-76250000D03*
X74240000Y-75750000D03*
X74240000Y-75250000D03*
X74240000Y-74750000D03*
X74240000Y-74250000D03*
X74740000Y-81250000D03*
X74740000Y-80750000D03*
X74740000Y-80250000D03*
X74740000Y-79250000D03*
X74740000Y-78250000D03*
X74740000Y-77250000D03*
X74740000Y-76250000D03*
X74740000Y-75250000D03*
X74740000Y-74750000D03*
X74740000Y-74250000D03*
D37*
X40540000Y-81750000D03*
X40540000Y-81250000D03*
X40540000Y-80750000D03*
X40540000Y-80250000D03*
X40540000Y-79750000D03*
X40540000Y-79250000D03*
X40540000Y-78750000D03*
X40540000Y-78250000D03*
X40540000Y-77750000D03*
X40540000Y-77250000D03*
X40540000Y-76750000D03*
X40540000Y-76250000D03*
X40540000Y-75750000D03*
X40540000Y-75250000D03*
X40540000Y-74750000D03*
X40540000Y-74250000D03*
D38*
X41240000Y-73550000D03*
X41740000Y-73550000D03*
X42240000Y-73550000D03*
X42740000Y-73550000D03*
X43240000Y-73550000D03*
X43740000Y-73550000D03*
X44240000Y-73550000D03*
X44740000Y-73550000D03*
X45240000Y-73550000D03*
X45740000Y-73550000D03*
X46240000Y-73550000D03*
X46740000Y-73550000D03*
X47240000Y-73550000D03*
X47740000Y-73550000D03*
X48240000Y-73550000D03*
X48740000Y-73550000D03*
D37*
X49440000Y-74250000D03*
X49440000Y-74750000D03*
X49440000Y-75250000D03*
X49440000Y-75750000D03*
X49440000Y-76250000D03*
X49440000Y-76750000D03*
X49440000Y-77250000D03*
X49440000Y-77750000D03*
X49440000Y-78250000D03*
X49440000Y-78750000D03*
X49440000Y-79250000D03*
X49440000Y-79750000D03*
X49440000Y-80250000D03*
X49440000Y-80750000D03*
X49440000Y-81250000D03*
X49440000Y-81750000D03*
D38*
X48740000Y-82450000D03*
X48240000Y-82450000D03*
X47740000Y-82450000D03*
X47240000Y-82450000D03*
X46740000Y-82450000D03*
X46240000Y-82450000D03*
X45740000Y-82450000D03*
X45240000Y-82450000D03*
X44740000Y-82450000D03*
X44240000Y-82450000D03*
X43740000Y-82450000D03*
X43240000Y-82450000D03*
X42740000Y-82450000D03*
X42240000Y-82450000D03*
X41740000Y-82450000D03*
X41240000Y-82450000D03*
D39*
X47746250Y-75243750D03*
X47746250Y-77081250D03*
X47746250Y-78918750D03*
X47746250Y-80756250D03*
X45908750Y-75243750D03*
X45908750Y-77081250D03*
X45908750Y-78918750D03*
X45908750Y-80756250D03*
X44071250Y-75243750D03*
X44071250Y-77081250D03*
X44071250Y-78918750D03*
X44071250Y-80756250D03*
X42233750Y-75243750D03*
X42233750Y-77081250D03*
X42233750Y-78918750D03*
X42233750Y-80756250D03*
D40*
X42340000Y-63000000D03*
X42340000Y-62500000D03*
X42340000Y-62000000D03*
X42340000Y-61500000D03*
X42340000Y-61000000D03*
X42340000Y-60500000D03*
X42340000Y-60000000D03*
X42340000Y-59500000D03*
D41*
X42990000Y-58850000D03*
X43490000Y-58850000D03*
X43990000Y-58850000D03*
X44490000Y-58850000D03*
X44990000Y-58850000D03*
X45490000Y-58850000D03*
X45990000Y-58850000D03*
X46490000Y-58850000D03*
D40*
X47140000Y-59500000D03*
X47140000Y-60000000D03*
X47140000Y-60500000D03*
X47140000Y-61000000D03*
X47140000Y-61500000D03*
X47140000Y-62000000D03*
X47140000Y-62500000D03*
X47140000Y-63000000D03*
D41*
X46490000Y-63650000D03*
X45990000Y-63650000D03*
X45490000Y-63650000D03*
X44990000Y-63650000D03*
X44490000Y-63650000D03*
X43990000Y-63650000D03*
X43490000Y-63650000D03*
X42990000Y-63650000D03*
D42*
X45602500Y-60387500D03*
X45602500Y-62112500D03*
X43877500Y-60387500D03*
X43877500Y-62112500D03*
D43*
X102040000Y-68900000D03*
X102840000Y-68900000D03*
X103640000Y-68900000D03*
X104440000Y-68900000D03*
X105240000Y-68900000D03*
X109240000Y-68900000D03*
X110040000Y-68900000D03*
X110840000Y-68900000D03*
X111640000Y-68900000D03*
X112440000Y-68900000D03*
X102040000Y-68100000D03*
X102840000Y-68100000D03*
X103640000Y-68100000D03*
X104440000Y-68100000D03*
X105240000Y-68100000D03*
X109240000Y-68100000D03*
X110040000Y-68100000D03*
X110840000Y-68100000D03*
X111640000Y-68100000D03*
X112440000Y-68100000D03*
X102040000Y-67300000D03*
X102840000Y-67300000D03*
X103640000Y-67300000D03*
X104440000Y-67300000D03*
X105240000Y-67300000D03*
X109240000Y-67300000D03*
X110040000Y-67300000D03*
X110840000Y-67300000D03*
X111640000Y-67300000D03*
X112440000Y-67300000D03*
X102040000Y-66500000D03*
X102840000Y-66500000D03*
X103640000Y-66500000D03*
X104440000Y-66500000D03*
X105240000Y-66500000D03*
X109240000Y-66500000D03*
X110040000Y-66500000D03*
X110840000Y-66500000D03*
X111640000Y-66500000D03*
X112440000Y-66500000D03*
X102040000Y-65700000D03*
X104440000Y-65700000D03*
X105240000Y-65700000D03*
X103640000Y-65700000D03*
X102840000Y-65700000D03*
X109240000Y-65700000D03*
X110040000Y-65700000D03*
X110840000Y-65700000D03*
X111640000Y-65700000D03*
X112440000Y-65700000D03*
X102040000Y-64900000D03*
X102840000Y-64900000D03*
X103640000Y-64900000D03*
X104440000Y-64900000D03*
X105240000Y-64900000D03*
X109240000Y-64900000D03*
X110040000Y-64900000D03*
X110840000Y-64900000D03*
X111640000Y-64900000D03*
X112440000Y-64900000D03*
X102040000Y-64100000D03*
X102840000Y-64100000D03*
X103640000Y-64100000D03*
X104440000Y-64100000D03*
X105240000Y-64100000D03*
X109240000Y-64100000D03*
X110040000Y-64100000D03*
X110840000Y-64100000D03*
X111640000Y-64100000D03*
X112440000Y-64100000D03*
X102040000Y-63300000D03*
X102840000Y-63300000D03*
X103640000Y-63300000D03*
X104440000Y-63300000D03*
X105240000Y-63300000D03*
X109240000Y-63300000D03*
X110040000Y-63300000D03*
X110840000Y-63300000D03*
X111640000Y-63300000D03*
X112440000Y-63300000D03*
X102040000Y-62500000D03*
X102840000Y-62500000D03*
X103640000Y-62500000D03*
X104440000Y-62500000D03*
X105240000Y-62500000D03*
X109240000Y-62500000D03*
X110040000Y-62500000D03*
X110840000Y-62500000D03*
X111640000Y-62500000D03*
X112440000Y-62500000D03*
X102040000Y-61700000D03*
X102840000Y-61700000D03*
X103640000Y-61700000D03*
X104440000Y-61700000D03*
X105240000Y-61700000D03*
X109240000Y-61700000D03*
X110040000Y-61700000D03*
X110840000Y-61700000D03*
X111640000Y-61700000D03*
X112440000Y-61700000D03*
X102040000Y-60900000D03*
X102840000Y-60900000D03*
X103640000Y-60900000D03*
X104440000Y-60900000D03*
X105240000Y-60900000D03*
X109240000Y-60900000D03*
X110040000Y-60900000D03*
X110840000Y-60900000D03*
X111640000Y-60900000D03*
X112440000Y-60900000D03*
X102040000Y-60100000D03*
X102840000Y-60100000D03*
X103640000Y-60100000D03*
X104440000Y-60100000D03*
X105240000Y-60100000D03*
X109240000Y-60100000D03*
X110040000Y-60100000D03*
X110840000Y-60100000D03*
X111640000Y-60100000D03*
X112440000Y-60100000D03*
X102040000Y-59300000D03*
X102840000Y-59300000D03*
X103640000Y-59300000D03*
X104440000Y-59300000D03*
X105240000Y-59300000D03*
X109240000Y-59300000D03*
X110040000Y-59300000D03*
X110840000Y-59300000D03*
X111640000Y-59300000D03*
X112440000Y-59300000D03*
X102040000Y-58500000D03*
X102840000Y-58500000D03*
X103640000Y-58500000D03*
X104440000Y-58500000D03*
X105240000Y-58500000D03*
X109240000Y-58500000D03*
X110040000Y-58500000D03*
X110840000Y-58500000D03*
X111640000Y-58500000D03*
X112440000Y-58500000D03*
X102040000Y-57700000D03*
X102840000Y-57700000D03*
X103640000Y-57700000D03*
X104440000Y-57700000D03*
X105240000Y-57700000D03*
X109240000Y-57700000D03*
X110040000Y-57700000D03*
X110840000Y-57700000D03*
X111640000Y-57700000D03*
X112440000Y-57700000D03*
X102040000Y-56900000D03*
X102840000Y-56900000D03*
X103640000Y-56900000D03*
X104440000Y-56900000D03*
X105240000Y-56900000D03*
X109240000Y-56900000D03*
X110040000Y-56900000D03*
X110840000Y-56900000D03*
X111640000Y-56900000D03*
X112440000Y-56900000D03*
X102040000Y-56100000D03*
X102840000Y-56100000D03*
X103640000Y-56100000D03*
X104440000Y-56100000D03*
X105240000Y-56100000D03*
X109240000Y-56100000D03*
X110040000Y-56100000D03*
X110840000Y-56100000D03*
X111640000Y-56100000D03*
X112440000Y-56100000D03*
D44*
X104040000Y-81500000D03*
X104840000Y-81500000D03*
X105640000Y-81500000D03*
X108840000Y-81500000D03*
X109640000Y-81500000D03*
X110440000Y-81500000D03*
X104040000Y-80700000D03*
X104840000Y-80700000D03*
X105640000Y-80700000D03*
X108840000Y-80700000D03*
X109640000Y-80700000D03*
X110440000Y-80700000D03*
X104040000Y-79900000D03*
X104840000Y-79900000D03*
X105640000Y-79900000D03*
X108840000Y-79900000D03*
X109640000Y-79900000D03*
X110440000Y-79900000D03*
X104040000Y-79100000D03*
X104840000Y-79100000D03*
X105640000Y-79100000D03*
X104040000Y-78300000D03*
X104040000Y-77500000D03*
X104040000Y-76700000D03*
X104040000Y-75900000D03*
X104040000Y-75100000D03*
X104040000Y-74300000D03*
X104840000Y-74300000D03*
X104840000Y-75100000D03*
X104840000Y-75900000D03*
X104840000Y-76700000D03*
X104840000Y-77500000D03*
X104840000Y-78300000D03*
X105640000Y-78300000D03*
X105640000Y-77500000D03*
X105640000Y-76700000D03*
X105640000Y-75900000D03*
X105640000Y-75100000D03*
X105640000Y-74300000D03*
X108840000Y-79100000D03*
X109640000Y-79100000D03*
X110440000Y-79100000D03*
X110440000Y-78300000D03*
X109640000Y-78300000D03*
X108840000Y-78300000D03*
X108840000Y-77500000D03*
X109640000Y-77500000D03*
X110440000Y-77500000D03*
X110440000Y-76700000D03*
X109640000Y-76700000D03*
X108840000Y-76700000D03*
X108840000Y-75900000D03*
X109640000Y-75900000D03*
X110440000Y-75900000D03*
X110440000Y-75100000D03*
X109640000Y-75100000D03*
X108840000Y-75100000D03*
X108840000Y-74300000D03*
X109640000Y-74300000D03*
X110440000Y-74300000D03*
D35*
X128840000Y-78900000D03*
X129640000Y-78900000D03*
X130440000Y-78900000D03*
X131240000Y-78900000D03*
X132040000Y-78900000D03*
X134440000Y-78900000D03*
X135240000Y-78900000D03*
X136040000Y-78900000D03*
X136840000Y-78900000D03*
X137640000Y-78900000D03*
X128840000Y-78100000D03*
X129640000Y-78100000D03*
X130440000Y-78100000D03*
X131240000Y-78100000D03*
X132040000Y-78100000D03*
X134440000Y-78100000D03*
X135240000Y-78100000D03*
X136040000Y-78100000D03*
X136840000Y-78100000D03*
X137640000Y-78100000D03*
X128840000Y-77300000D03*
X129640000Y-77300000D03*
X130440000Y-77300000D03*
X131240000Y-77300000D03*
X132040000Y-77300000D03*
X134440000Y-77300000D03*
X135240000Y-77300000D03*
X136040000Y-77300000D03*
X136840000Y-77300000D03*
X137640000Y-77300000D03*
X128840000Y-76500000D03*
X129640000Y-76500000D03*
X130440000Y-76500000D03*
X131240000Y-76500000D03*
X132040000Y-76500000D03*
X134440000Y-76500000D03*
X135240000Y-76500000D03*
X136040000Y-76500000D03*
X136840000Y-76500000D03*
X137640000Y-76500000D03*
X128840000Y-75700000D03*
X129640000Y-75700000D03*
X130440000Y-75700000D03*
X131240000Y-75700000D03*
X132040000Y-75700000D03*
X134440000Y-75700000D03*
X135240000Y-75700000D03*
X136040000Y-75700000D03*
X136840000Y-75700000D03*
X137640000Y-75700000D03*
X128840000Y-74900000D03*
X129640000Y-74900000D03*
X130440000Y-74900000D03*
X131240000Y-74900000D03*
X132040000Y-74900000D03*
X134440000Y-74900000D03*
X135240000Y-74900000D03*
X136040000Y-74900000D03*
X136840000Y-74900000D03*
X137640000Y-74900000D03*
X128840000Y-74100000D03*
X129640000Y-74100000D03*
X130440000Y-74100000D03*
X131240000Y-74100000D03*
X132040000Y-74100000D03*
X134440000Y-74100000D03*
X135240000Y-74100000D03*
X136040000Y-74100000D03*
X136840000Y-74100000D03*
X137640000Y-74100000D03*
X128840000Y-73300000D03*
X129640000Y-73300000D03*
X130440000Y-73300000D03*
X131240000Y-73300000D03*
X132040000Y-73300000D03*
X134440000Y-73300000D03*
X135240000Y-73300000D03*
X136040000Y-73300000D03*
X136840000Y-73300000D03*
X137640000Y-73300000D03*
X128840000Y-72500000D03*
X129640000Y-72500000D03*
X130440000Y-72500000D03*
X131240000Y-72500000D03*
X132040000Y-72500000D03*
X134440000Y-72500000D03*
X135240000Y-72500000D03*
X136040000Y-72500000D03*
X136840000Y-72500000D03*
X137640000Y-72500000D03*
X128840000Y-71700000D03*
X129640000Y-71700000D03*
X130440000Y-71700000D03*
X131240000Y-71700000D03*
X132040000Y-71700000D03*
X134440000Y-71700000D03*
X135240000Y-71700000D03*
X136040000Y-71700000D03*
X136840000Y-71700000D03*
X137640000Y-71700000D03*
X128840000Y-69300000D03*
X129640000Y-69300000D03*
X130440000Y-69300000D03*
X131240000Y-69300000D03*
X132040000Y-69300000D03*
X134440000Y-69300000D03*
X135240000Y-69300000D03*
X136040000Y-69300000D03*
X136840000Y-69300000D03*
X137640000Y-69300000D03*
X128840000Y-68500000D03*
X129640000Y-68500000D03*
X130440000Y-68500000D03*
X131240000Y-68500000D03*
X132040000Y-68500000D03*
X134440000Y-68500000D03*
X135240000Y-68500000D03*
X136040000Y-68500000D03*
X136840000Y-68500000D03*
X137640000Y-68500000D03*
X128840000Y-67700000D03*
X129640000Y-67700000D03*
X130440000Y-67700000D03*
X131240000Y-67700000D03*
X132040000Y-67700000D03*
X134440000Y-67700000D03*
X135240000Y-67700000D03*
X136040000Y-67700000D03*
X136840000Y-67700000D03*
X137640000Y-67700000D03*
X128840000Y-66900000D03*
X129640000Y-66900000D03*
X130440000Y-66900000D03*
X131240000Y-66900000D03*
X132040000Y-66900000D03*
X134440000Y-66900000D03*
X135240000Y-66900000D03*
X136040000Y-66900000D03*
X136840000Y-66900000D03*
X137640000Y-66900000D03*
X128840000Y-66100000D03*
X129640000Y-66100000D03*
X130440000Y-66100000D03*
X131240000Y-66100000D03*
X132040000Y-66100000D03*
X134440000Y-66100000D03*
X135240000Y-66100000D03*
X136040000Y-66100000D03*
X136840000Y-66100000D03*
X137640000Y-66100000D03*
X128840000Y-65300000D03*
X129640000Y-65300000D03*
X130440000Y-65300000D03*
X131240000Y-65300000D03*
X132040000Y-65300000D03*
X134440000Y-65300000D03*
X135240000Y-65300000D03*
X136040000Y-65300000D03*
X136840000Y-65300000D03*
X137640000Y-65300000D03*
X128840000Y-64500000D03*
X129640000Y-64500000D03*
X130440000Y-64500000D03*
X131240000Y-64500000D03*
X132040000Y-64500000D03*
X134440000Y-64500000D03*
X135240000Y-64500000D03*
X136040000Y-64500000D03*
X136840000Y-64500000D03*
X137640000Y-64500000D03*
X128840000Y-63700000D03*
X129640000Y-63700000D03*
X130440000Y-63700000D03*
X131240000Y-63700000D03*
X132040000Y-63700000D03*
X134440000Y-63700000D03*
X135240000Y-63700000D03*
X136040000Y-63700000D03*
X136840000Y-63700000D03*
X137640000Y-63700000D03*
X128840000Y-62900000D03*
X129640000Y-62900000D03*
X130440000Y-62900000D03*
X131240000Y-62900000D03*
X132040000Y-62900000D03*
X134440000Y-62900000D03*
X135240000Y-62900000D03*
X136040000Y-62900000D03*
X136840000Y-62900000D03*
X137640000Y-62900000D03*
X128840000Y-62100000D03*
X129640000Y-62100000D03*
X130440000Y-62100000D03*
X131240000Y-62100000D03*
X132040000Y-62100000D03*
X134440000Y-62100000D03*
X135240000Y-62100000D03*
X136040000Y-62100000D03*
X136840000Y-62100000D03*
X137640000Y-62100000D03*
X152240000Y-75500000D03*
X141740000Y-62000000D03*
X141740000Y-77000000D03*
X142490000Y-77000000D03*
X143990000Y-77000000D03*
X145490000Y-77000000D03*
X146990000Y-77000000D03*
X148490000Y-77000000D03*
X149990000Y-77000000D03*
X151490000Y-77000000D03*
X152990000Y-77000000D03*
X154490000Y-77000000D03*
X155240000Y-77000000D03*
X155990000Y-77000000D03*
X156740000Y-77000000D03*
X141740000Y-76250000D03*
X142490000Y-76250000D03*
X143240000Y-76250000D03*
X143990000Y-76250000D03*
X144740000Y-76250000D03*
X145490000Y-76250000D03*
X146240000Y-76250000D03*
X146990000Y-76250000D03*
X147740000Y-76250000D03*
X148490000Y-76250000D03*
X149240000Y-76250000D03*
X149990000Y-76250000D03*
X150740000Y-76250000D03*
X151490000Y-76250000D03*
X152240000Y-76250000D03*
X152990000Y-76250000D03*
X153740000Y-76250000D03*
X154490000Y-76250000D03*
X155240000Y-76250000D03*
X155990000Y-76250000D03*
X156740000Y-76250000D03*
X142490000Y-75500000D03*
X143240000Y-75500000D03*
X143990000Y-75500000D03*
X144740000Y-75500000D03*
X145490000Y-75500000D03*
X146240000Y-75500000D03*
X146990000Y-75500000D03*
X147740000Y-75500000D03*
X148490000Y-75500000D03*
X149240000Y-75500000D03*
X149990000Y-75500000D03*
X150740000Y-75500000D03*
X151490000Y-75500000D03*
X152990000Y-75500000D03*
X153740000Y-75500000D03*
X154490000Y-75500000D03*
X155240000Y-75500000D03*
X155990000Y-75500000D03*
X156740000Y-75500000D03*
X141740000Y-74750000D03*
X142490000Y-74750000D03*
X143240000Y-74750000D03*
X143990000Y-74750000D03*
X145490000Y-74750000D03*
X146990000Y-74750000D03*
X148490000Y-74750000D03*
X149990000Y-74750000D03*
X150740000Y-74750000D03*
X151490000Y-74750000D03*
X152990000Y-74750000D03*
X155240000Y-74750000D03*
X155990000Y-74750000D03*
X142490000Y-74000000D03*
X143240000Y-74000000D03*
X143990000Y-74000000D03*
X145490000Y-74000000D03*
X146990000Y-74000000D03*
X148490000Y-74000000D03*
X149990000Y-74000000D03*
X150740000Y-74000000D03*
X151490000Y-74000000D03*
X152990000Y-74000000D03*
X154490000Y-74000000D03*
X155240000Y-74000000D03*
X155990000Y-74000000D03*
X156740000Y-74000000D03*
X141740000Y-73250000D03*
X142490000Y-73250000D03*
X143240000Y-73250000D03*
X144740000Y-73250000D03*
X145490000Y-73250000D03*
X146240000Y-73250000D03*
X146990000Y-73250000D03*
X147740000Y-73250000D03*
X148490000Y-73250000D03*
X149240000Y-73250000D03*
X149990000Y-73250000D03*
X150740000Y-73250000D03*
X151490000Y-73250000D03*
X152990000Y-73250000D03*
X153740000Y-73250000D03*
X154490000Y-73250000D03*
X155240000Y-73250000D03*
X155990000Y-73250000D03*
X142490000Y-72500000D03*
X143240000Y-72500000D03*
X143990000Y-72500000D03*
X144740000Y-72500000D03*
X152990000Y-72500000D03*
X153740000Y-72500000D03*
X154490000Y-72500000D03*
X155240000Y-72500000D03*
X155990000Y-72500000D03*
X156740000Y-72500000D03*
X141740000Y-71750000D03*
X142490000Y-71750000D03*
X143240000Y-71750000D03*
X146240000Y-71750000D03*
X146990000Y-71750000D03*
X147740000Y-71750000D03*
X148490000Y-71750000D03*
X149240000Y-71750000D03*
X149990000Y-71750000D03*
X150740000Y-71750000D03*
X152990000Y-71750000D03*
X155240000Y-71750000D03*
X155990000Y-71750000D03*
X142490000Y-71000000D03*
X143240000Y-71000000D03*
X143990000Y-71000000D03*
X144740000Y-71000000D03*
X146240000Y-71000000D03*
X146990000Y-71000000D03*
X147740000Y-71000000D03*
X148490000Y-71000000D03*
X149240000Y-71000000D03*
X149990000Y-71000000D03*
X150740000Y-71000000D03*
X152990000Y-71000000D03*
X153740000Y-71000000D03*
X154490000Y-71000000D03*
X155240000Y-71000000D03*
X155990000Y-71000000D03*
X156740000Y-71000000D03*
X141740000Y-70250000D03*
X142490000Y-70250000D03*
X143240000Y-70250000D03*
X144740000Y-70250000D03*
X146240000Y-70250000D03*
X146990000Y-70250000D03*
X147740000Y-70250000D03*
X148490000Y-70250000D03*
X149240000Y-70250000D03*
X149990000Y-70250000D03*
X150740000Y-70250000D03*
X152240000Y-70250000D03*
X152990000Y-70250000D03*
X155240000Y-70250000D03*
X155990000Y-70250000D03*
X142490000Y-69500000D03*
X143240000Y-69500000D03*
X143990000Y-69500000D03*
X144740000Y-69500000D03*
X146240000Y-69500000D03*
X146990000Y-69500000D03*
X147740000Y-69500000D03*
X148490000Y-69500000D03*
X149240000Y-69500000D03*
X149990000Y-69500000D03*
X150740000Y-69500000D03*
X152990000Y-69500000D03*
X153740000Y-69500000D03*
X154490000Y-69500000D03*
X155240000Y-69500000D03*
X155990000Y-69500000D03*
X156740000Y-69500000D03*
X141740000Y-68750000D03*
X142490000Y-68750000D03*
X143240000Y-68750000D03*
X146240000Y-68750000D03*
X146990000Y-68750000D03*
X147740000Y-68750000D03*
X148490000Y-68750000D03*
X149240000Y-68750000D03*
X149990000Y-68750000D03*
X150740000Y-68750000D03*
X152990000Y-68750000D03*
X155240000Y-68750000D03*
X155990000Y-68750000D03*
X142490000Y-68000000D03*
X143240000Y-68000000D03*
X143990000Y-68000000D03*
X144740000Y-68000000D03*
X146240000Y-68000000D03*
X146990000Y-68000000D03*
X147740000Y-68000000D03*
X148490000Y-68000000D03*
X149240000Y-68000000D03*
X149990000Y-68000000D03*
X150740000Y-68000000D03*
X152240000Y-68000000D03*
X152990000Y-68000000D03*
X153740000Y-68000000D03*
X154490000Y-68000000D03*
X155240000Y-68000000D03*
X155990000Y-68000000D03*
X156740000Y-68000000D03*
X141740000Y-67250000D03*
X142490000Y-67250000D03*
X143240000Y-67250000D03*
X143990000Y-67250000D03*
X144740000Y-67250000D03*
X146240000Y-67250000D03*
X146990000Y-67250000D03*
X147740000Y-67250000D03*
X148490000Y-67250000D03*
X149240000Y-67250000D03*
X149990000Y-67250000D03*
X150740000Y-67250000D03*
X152990000Y-67250000D03*
X155240000Y-67250000D03*
X155990000Y-67250000D03*
X142490000Y-66500000D03*
X143240000Y-66500000D03*
X144740000Y-66500000D03*
X146240000Y-66500000D03*
X146990000Y-66500000D03*
X147740000Y-66500000D03*
X148490000Y-66500000D03*
X149240000Y-66500000D03*
X149990000Y-66500000D03*
X150740000Y-66500000D03*
X152990000Y-66500000D03*
X153740000Y-66500000D03*
X154490000Y-66500000D03*
X155240000Y-66500000D03*
X155990000Y-66500000D03*
X156740000Y-66500000D03*
X141740000Y-65750000D03*
X142490000Y-65750000D03*
X143240000Y-65750000D03*
X143990000Y-65750000D03*
X144740000Y-65750000D03*
X152990000Y-65750000D03*
X155240000Y-65750000D03*
X155990000Y-65750000D03*
X141740000Y-65000000D03*
X142490000Y-65000000D03*
X143240000Y-65000000D03*
X143990000Y-65000000D03*
X144740000Y-65000000D03*
X145490000Y-65000000D03*
X146240000Y-65000000D03*
X146990000Y-65000000D03*
X147740000Y-65000000D03*
X148490000Y-65000000D03*
X149240000Y-65000000D03*
X149990000Y-65000000D03*
X150740000Y-65000000D03*
X151490000Y-65000000D03*
X152240000Y-65000000D03*
X152990000Y-65000000D03*
X153740000Y-65000000D03*
X154490000Y-65000000D03*
X155240000Y-65000000D03*
X155990000Y-65000000D03*
X156740000Y-65000000D03*
X141740000Y-64250000D03*
X142490000Y-64250000D03*
X143990000Y-64250000D03*
X145490000Y-64250000D03*
X146990000Y-64250000D03*
X148490000Y-64250000D03*
X149990000Y-64250000D03*
X151490000Y-64250000D03*
X152990000Y-64250000D03*
X154490000Y-64250000D03*
X155240000Y-64250000D03*
X155990000Y-64250000D03*
X141740000Y-63500000D03*
X142490000Y-63500000D03*
X143240000Y-63500000D03*
X143990000Y-63500000D03*
X145490000Y-63500000D03*
X146990000Y-63500000D03*
X148490000Y-63500000D03*
X149990000Y-63500000D03*
X151490000Y-63500000D03*
X152990000Y-63500000D03*
X154490000Y-63500000D03*
X155240000Y-63500000D03*
X155990000Y-63500000D03*
X156740000Y-63500000D03*
X141740000Y-62750000D03*
X142490000Y-62750000D03*
X143240000Y-62750000D03*
X143990000Y-62750000D03*
X144740000Y-62750000D03*
X145490000Y-62750000D03*
X146240000Y-62750000D03*
X146990000Y-62750000D03*
X147740000Y-62750000D03*
X148490000Y-62750000D03*
X149240000Y-62750000D03*
X149990000Y-62750000D03*
X150740000Y-62750000D03*
X151490000Y-62750000D03*
X152240000Y-62750000D03*
X152990000Y-62750000D03*
X153740000Y-62750000D03*
X154490000Y-62750000D03*
X155240000Y-62750000D03*
X155990000Y-62750000D03*
X156740000Y-62750000D03*
X142490000Y-62000000D03*
X143240000Y-62000000D03*
X143990000Y-62000000D03*
X144740000Y-62000000D03*
X145490000Y-62000000D03*
X146240000Y-62000000D03*
X146990000Y-62000000D03*
X147740000Y-62000000D03*
X148490000Y-62000000D03*
X149240000Y-62000000D03*
X149990000Y-62000000D03*
X150740000Y-62000000D03*
X151490000Y-62000000D03*
X152240000Y-62000000D03*
X152990000Y-62000000D03*
X153740000Y-62000000D03*
X154490000Y-62000000D03*
X155240000Y-62000000D03*
X155990000Y-62000000D03*
X156740000Y-62000000D03*
X161240000Y-78500000D03*
X161240000Y-77500000D03*
X161240000Y-76500000D03*
X161240000Y-75500000D03*
X161240000Y-74500000D03*
X161240000Y-66500000D03*
X161240000Y-65500000D03*
X161240000Y-64500000D03*
X161240000Y-63500000D03*
X161240000Y-62500000D03*
X162240000Y-78500000D03*
X162240000Y-77500000D03*
X162240000Y-76500000D03*
X162240000Y-75500000D03*
X162240000Y-74500000D03*
X162240000Y-66500000D03*
X162240000Y-65500000D03*
X162240000Y-64500000D03*
X162240000Y-63500000D03*
X162240000Y-62500000D03*
X163240000Y-78500000D03*
X163240000Y-77500000D03*
X163240000Y-76500000D03*
X163240000Y-75500000D03*
X163240000Y-74500000D03*
X163240000Y-73500000D03*
X163240000Y-72500000D03*
X163240000Y-71500000D03*
X163240000Y-70500000D03*
X163240000Y-69500000D03*
X163240000Y-68500000D03*
X163240000Y-67500000D03*
X163240000Y-66500000D03*
X163240000Y-65500000D03*
X163240000Y-64500000D03*
X163240000Y-63500000D03*
X163240000Y-62500000D03*
X164240000Y-78500000D03*
X164240000Y-77500000D03*
X164240000Y-76500000D03*
X164240000Y-75500000D03*
X164240000Y-74500000D03*
X164240000Y-73500000D03*
X164240000Y-72500000D03*
X164240000Y-71500000D03*
X164240000Y-70500000D03*
X164240000Y-69500000D03*
X164240000Y-68500000D03*
X164240000Y-67500000D03*
X164240000Y-66500000D03*
X164240000Y-65500000D03*
X164240000Y-64500000D03*
X164240000Y-63500000D03*
X164240000Y-62500000D03*
X165240000Y-75500000D03*
X165240000Y-74500000D03*
X165240000Y-73500000D03*
X165240000Y-72500000D03*
X165240000Y-71500000D03*
X165240000Y-70500000D03*
X165240000Y-69500000D03*
X165240000Y-68500000D03*
X165240000Y-67500000D03*
X165240000Y-66500000D03*
X165240000Y-65500000D03*
X166240000Y-75500000D03*
X166240000Y-74500000D03*
X166240000Y-73500000D03*
X166240000Y-72500000D03*
X166240000Y-71500000D03*
X166240000Y-70500000D03*
X166240000Y-69500000D03*
X166240000Y-68500000D03*
X166240000Y-67500000D03*
X166240000Y-66500000D03*
X166240000Y-65500000D03*
X168240000Y-75500000D03*
X168240000Y-74500000D03*
X168240000Y-73500000D03*
X168240000Y-72500000D03*
X168240000Y-71500000D03*
X168240000Y-70500000D03*
X168240000Y-69500000D03*
X168240000Y-68500000D03*
X168240000Y-67500000D03*
X168240000Y-66500000D03*
X168240000Y-65500000D03*
X169240000Y-75500000D03*
X169240000Y-74500000D03*
X169240000Y-73500000D03*
X169240000Y-72500000D03*
X169240000Y-71500000D03*
X169240000Y-70500000D03*
X169240000Y-69500000D03*
X169240000Y-68500000D03*
X169240000Y-67500000D03*
X169240000Y-66500000D03*
X169240000Y-65500000D03*
X170240000Y-78500000D03*
X170240000Y-77500000D03*
X170240000Y-76500000D03*
X170240000Y-75500000D03*
X170240000Y-74500000D03*
X170240000Y-73500000D03*
X170240000Y-72500000D03*
X170240000Y-71500000D03*
X170240000Y-70500000D03*
X170240000Y-69500000D03*
X170240000Y-68500000D03*
X170240000Y-67500000D03*
X170240000Y-66500000D03*
X170240000Y-65500000D03*
X170240000Y-64500000D03*
X170240000Y-63500000D03*
X170240000Y-62500000D03*
X171240000Y-78500000D03*
X171240000Y-77500000D03*
X171240000Y-76500000D03*
X171240000Y-75500000D03*
X171240000Y-74500000D03*
X171240000Y-73500000D03*
X171240000Y-72500000D03*
X171240000Y-71500000D03*
X171240000Y-70500000D03*
X171240000Y-69500000D03*
X171240000Y-68500000D03*
X171240000Y-67500000D03*
X171240000Y-66500000D03*
X171240000Y-65500000D03*
X171240000Y-64500000D03*
X171240000Y-63500000D03*
X171240000Y-62500000D03*
X172240000Y-78500000D03*
X172240000Y-77500000D03*
X172240000Y-76500000D03*
X172240000Y-75500000D03*
X172240000Y-74500000D03*
X172240000Y-66500000D03*
X172240000Y-65500000D03*
X172240000Y-64500000D03*
X172240000Y-63500000D03*
X172240000Y-62500000D03*
X173240000Y-78500000D03*
X173240000Y-77500000D03*
X173240000Y-76500000D03*
X173240000Y-75500000D03*
X173240000Y-74500000D03*
X173240000Y-66500000D03*
X173240000Y-65500000D03*
X173240000Y-64500000D03*
X173240000Y-63500000D03*
X173240000Y-62500000D03*
D45*
X51515000Y-60000000D03*
X51515000Y-59500000D03*
X51515000Y-59000000D03*
X51515000Y-58500000D03*
D46*
X52240000Y-57775000D03*
X52740000Y-57775000D03*
X53240000Y-57775000D03*
X53740000Y-57775000D03*
D45*
X54465000Y-58500000D03*
X54465000Y-59000000D03*
X54465000Y-59500000D03*
X54465000Y-60000000D03*
D46*
X53740000Y-60725000D03*
X53240000Y-60725000D03*
X52740000Y-60725000D03*
X52240000Y-60725000D03*
D47*
X53440000Y-58800000D03*
X53440000Y-59700000D03*
X52540000Y-58800000D03*
X52540000Y-59700000D03*
D48*
X314452000Y-74676000D03*
D49*
X312420000Y-78232000D03*
D50*
X304800000Y-63500000D03*
D51*
X304800000Y-72390000D03*
D50*
X304800000Y-81280000D03*
D52*
X309372000Y-81280000D03*
D53*
X314452000Y-76200000D03*
D48*
X314452000Y-70104000D03*
D49*
X312420000Y-66548000D03*
D52*
X309372000Y-63500000D03*
D53*
X314452000Y-68580000D03*
M02*
