G04 #@! TF.FileFunction,Soldermask,Top*
%FSLAX46Y46*%
G04 Gerber Fmt 4.6, Leading zero omitted, Abs format (unit mm)*
G04 Created by KiCad (PCBNEW 4.0.7) date 01/26/18 15:57:06*
%MOMM*%
%LPD*%
G01*
G04 APERTURE LIST*
%ADD10C,0.100000*%
%ADD11C,0.152400*%
%ADD12C,0.254000*%
%ADD13C,0.300000*%
%ADD14R,1.600000X1.600000*%
%ADD15R,0.450000X1.300000*%
%ADD16C,2.000000*%
%ADD17C,1.800000*%
%ADD18C,0.800000*%
%ADD19R,1.000000X1.250000*%
%ADD20R,0.600000X0.500000*%
%ADD21R,0.800000X0.750000*%
%ADD22R,1.000000X1.600000*%
%ADD23R,1.000000X2.500000*%
%ADD24R,1.000000X3.200000*%
%ADD25R,1.600000X3.500000*%
%ADD26R,2.500000X4.000000*%
%ADD27C,1.600000*%
%ADD28R,1.600000X3.000000*%
%ADD29R,1.950000X1.500000*%
%ADD30R,1.950000X2.500000*%
%ADD31R,2.550000X2.500000*%
%ADD32R,2.550000X2.700000*%
%ADD33R,2.550000X4.400000*%
%ADD34R,0.280000X0.430000*%
%ADD35R,0.800000X2.900000*%
%ADD36R,1.200000X3.900000*%
%ADD37R,1.600000X5.900000*%
%ADD38R,0.650000X2.000000*%
%ADD39R,1.800000X7.700000*%
%ADD40R,1.600000X1.500000*%
%ADD41R,1.400000X1.200000*%
%ADD42R,1.800000X2.000000*%
%ADD43R,1.800000X1.000000*%
%ADD44R,0.800000X0.900000*%
%ADD45R,0.650000X1.060000*%
%ADD46R,0.400000X1.060000*%
%ADD47R,0.450000X0.700000*%
%ADD48R,0.400000X0.650000*%
%ADD49R,0.800000X2.200000*%
%ADD50R,5.800000X6.400000*%
%ADD51R,3.800000X2.000000*%
%ADD52R,1.500000X2.000000*%
%ADD53R,0.600000X2.200000*%
%ADD54R,3.450000X2.150000*%
%ADD55R,0.650000X1.220000*%
%ADD56R,0.500000X0.800000*%
%ADD57R,0.400000X0.800000*%
%ADD58R,0.890000X0.420000*%
%ADD59R,0.840000X0.940000*%
%ADD60R,1.400000X0.300000*%
%ADD61R,1.650000X2.850000*%
%ADD62R,1.450000X0.450000*%
%ADD63R,1.200000X0.400000*%
%ADD64R,1.550000X0.600000*%
%ADD65R,1.500000X0.600000*%
%ADD66R,0.850000X0.300000*%
%ADD67R,1.600000X0.300000*%
%ADD68C,1.400000*%
%ADD69R,0.300000X0.700000*%
%ADD70C,0.950000*%
%ADD71C,0.650000*%
%ADD72C,3.650000*%
%ADD73R,1.500000X1.500000*%
%ADD74C,1.500000*%
%ADD75C,3.000000*%
%ADD76C,0.762000*%
%ADD77C,1.397000*%
%ADD78C,3.810000*%
%ADD79C,11.684000*%
%ADD80C,2.286000*%
%ADD81C,1.016000*%
G04 APERTURE END LIST*
D10*
D11*
X286385000Y-84455000D02*
X286131000Y-82550000D01*
X290195000Y-84455000D02*
X290449000Y-82550000D01*
X295503600Y-82245200D02*
X296824400Y-80924400D01*
X293979600Y-81076800D02*
X295503600Y-82245200D01*
X281089100Y-82219800D02*
X279882600Y-81013300D01*
X278447500Y-79578200D02*
X278676100Y-79806800D01*
X278447500Y-79578200D02*
X278574500Y-79413100D01*
X292987959Y-73158392D02*
G75*
G02X289052000Y-77089000I-4697959J768392D01*
G01*
X292989000Y-73152000D02*
X296545000Y-73152000D01*
X292989000Y-71628000D02*
X296545000Y-71628000D01*
X296542947Y-71606073D02*
G75*
G03X289052000Y-64135000I-8252947J-783927D01*
G01*
X296542947Y-73173927D02*
G75*
G02X289052000Y-80645000I-8252947J783927D01*
G01*
X287473524Y-80642722D02*
G75*
G02X280924000Y-76200000I816476J8252722D01*
G01*
X283839546Y-74079589D02*
G75*
G03X287528000Y-77089000I4450454J1689589D01*
G01*
X292987959Y-71621608D02*
G75*
G03X289052000Y-67691000I-4697959J-768392D01*
G01*
X283839546Y-70700411D02*
G75*
G02X287528000Y-67691000I4450454J-1689589D01*
G01*
X289052000Y-77089000D02*
X289052000Y-80645000D01*
X287528000Y-77089000D02*
X287528000Y-80645000D01*
X289052000Y-64135000D02*
X289052000Y-67691000D01*
X291090133Y-73356145D02*
G75*
G02X285750000Y-73914000I-2800133J966145D01*
G01*
X291090133Y-71423855D02*
G75*
G03X285750000Y-70866000I-2800133J-966145D01*
G01*
X287528000Y-67691000D02*
X287528000Y-64135000D01*
X287473524Y-64137278D02*
G75*
G03X280924000Y-68580000I816476J-8252722D01*
G01*
X298145200Y-79603600D02*
X296976800Y-78079600D01*
X296824400Y-80924400D02*
X298145200Y-79603600D01*
X281089100Y-82219800D02*
X282613100Y-81051400D01*
X281076400Y-62534800D02*
X279857200Y-63754000D01*
X278434800Y-65176400D02*
X278587200Y-65379600D01*
X278434800Y-65176400D02*
X278688800Y-64922400D01*
X281076400Y-62534800D02*
X282600400Y-63703200D01*
X300355000Y-74295000D02*
X298450000Y-74549000D01*
X300355000Y-70485000D02*
X298450000Y-70231000D01*
X298145200Y-65176400D02*
X296976800Y-66700400D01*
X295503600Y-62534800D02*
X293979600Y-63703200D01*
X290195000Y-60325000D02*
X290449000Y-62230000D01*
X286385000Y-60325000D02*
X286131000Y-62230000D01*
X296824400Y-63855600D02*
X295503600Y-62534800D01*
X296824400Y-63855600D02*
X298145200Y-65176400D01*
X298661045Y-72655026D02*
G75*
G02X280289000Y-78994000I-10371045J265026D01*
G01*
X290195000Y-60325000D02*
X286385000Y-60325000D01*
X300355000Y-70485000D02*
X300355000Y-74295000D01*
X286385000Y-84455000D02*
X290195000Y-84455000D01*
X298654781Y-72214558D02*
G75*
G03X280352500Y-65722500I-10364781J-175442D01*
G01*
X270764000Y-72390000D02*
X300355000Y-72390000D01*
X270764000Y-72390000D02*
X277495000Y-74295000D01*
X277495000Y-70485000D02*
X270764000Y-72390000D01*
X277495000Y-74295000D02*
X281305000Y-70485000D01*
X277495000Y-70485000D02*
X281305000Y-74295000D01*
X279400000Y-72390000D02*
X279400000Y-83185000D01*
X279400000Y-72390000D02*
X279400000Y-61595000D01*
X279400000Y-83185000D02*
X277495000Y-74295000D01*
X281305000Y-74295000D02*
X279400000Y-83185000D01*
X300355000Y-72390000D02*
X281305000Y-74295000D01*
X281305000Y-70485000D02*
X300355000Y-72390000D01*
X279400000Y-61595000D02*
X281305000Y-70485000D01*
X277495000Y-70485000D02*
X279400000Y-61595000D01*
D12*
X266700000Y-91313000D02*
X266700000Y-89789000D01*
X264160000Y-91313000D02*
X264160000Y-89789000D01*
X261620000Y-91313000D02*
X261620000Y-89789000D01*
X259080000Y-91313000D02*
X259080000Y-89789000D01*
X256540000Y-91313000D02*
X256540000Y-88773000D01*
X254000000Y-91313000D02*
X254000000Y-89789000D01*
X251460000Y-91313000D02*
X251460000Y-89789000D01*
X248920000Y-91313000D02*
X248920000Y-89789000D01*
X246380000Y-91313000D02*
X246380000Y-89789000D01*
X269240000Y-86233000D02*
X269240000Y-91313000D01*
X294640000Y-86233000D02*
X294640000Y-91313000D01*
X271780000Y-91313000D02*
X271780000Y-89789000D01*
X274320000Y-91313000D02*
X274320000Y-89789000D01*
X276860000Y-91313000D02*
X276860000Y-89789000D01*
X279400000Y-91313000D02*
X279400000Y-89789000D01*
X281940000Y-91313000D02*
X281940000Y-88773000D01*
X284480000Y-91313000D02*
X284480000Y-89789000D01*
X287020000Y-91313000D02*
X287020000Y-89789000D01*
X289560000Y-91313000D02*
X289560000Y-89789000D01*
X292100000Y-91313000D02*
X292100000Y-89789000D01*
X317500000Y-91313000D02*
X317500000Y-89789000D01*
X314960000Y-91313000D02*
X314960000Y-89789000D01*
X312420000Y-91313000D02*
X312420000Y-89789000D01*
X309880000Y-91313000D02*
X309880000Y-89789000D01*
X307340000Y-91313000D02*
X307340000Y-88773000D01*
X304800000Y-91313000D02*
X304800000Y-89789000D01*
X302260000Y-91313000D02*
X302260000Y-89789000D01*
X299720000Y-91313000D02*
X299720000Y-89789000D01*
X297180000Y-91313000D02*
X297180000Y-89789000D01*
X320040000Y-86233000D02*
X320040000Y-91313000D01*
X243840000Y-86233000D02*
X243840000Y-91313000D01*
X220980000Y-91313000D02*
X220980000Y-89789000D01*
X223520000Y-91313000D02*
X223520000Y-89789000D01*
X226060000Y-91313000D02*
X226060000Y-89789000D01*
X228600000Y-91313000D02*
X228600000Y-89789000D01*
X231140000Y-91313000D02*
X231140000Y-88773000D01*
X233680000Y-91313000D02*
X233680000Y-89789000D01*
X236220000Y-91313000D02*
X236220000Y-89789000D01*
X238760000Y-91313000D02*
X238760000Y-89789000D01*
X241300000Y-91313000D02*
X241300000Y-89789000D01*
X215900000Y-91313000D02*
X215900000Y-89789000D01*
X213360000Y-91313000D02*
X213360000Y-89789000D01*
X210820000Y-91313000D02*
X210820000Y-89789000D01*
X208280000Y-91313000D02*
X208280000Y-89789000D01*
X205740000Y-91313000D02*
X205740000Y-88773000D01*
X203200000Y-91313000D02*
X203200000Y-89789000D01*
X200660000Y-91313000D02*
X200660000Y-89789000D01*
X198120000Y-91313000D02*
X198120000Y-89789000D01*
X195580000Y-91313000D02*
X195580000Y-89789000D01*
X218440000Y-86233000D02*
X218440000Y-91313000D01*
X193040000Y-86233000D02*
X193040000Y-91313000D01*
X170180000Y-91313000D02*
X170180000Y-89789000D01*
X172720000Y-91313000D02*
X172720000Y-89789000D01*
X175260000Y-91313000D02*
X175260000Y-89789000D01*
X177800000Y-91313000D02*
X177800000Y-89789000D01*
X180340000Y-91313000D02*
X180340000Y-88773000D01*
X182880000Y-91313000D02*
X182880000Y-89789000D01*
X185420000Y-91313000D02*
X185420000Y-89789000D01*
X187960000Y-91313000D02*
X187960000Y-89789000D01*
X190500000Y-91313000D02*
X190500000Y-89789000D01*
X114300000Y-91313000D02*
X114300000Y-89789000D01*
X111760000Y-91313000D02*
X111760000Y-89789000D01*
X109220000Y-91313000D02*
X109220000Y-89789000D01*
X106680000Y-91313000D02*
X106680000Y-89789000D01*
X104140000Y-91313000D02*
X104140000Y-88773000D01*
X101600000Y-91313000D02*
X101600000Y-89789000D01*
X99060000Y-91313000D02*
X99060000Y-89789000D01*
X96520000Y-91313000D02*
X96520000Y-89789000D01*
X93980000Y-91313000D02*
X93980000Y-89789000D01*
X116840000Y-86233000D02*
X116840000Y-91313000D01*
X142240000Y-86233000D02*
X142240000Y-91313000D01*
X119380000Y-91313000D02*
X119380000Y-89789000D01*
X121920000Y-91313000D02*
X121920000Y-89789000D01*
X124460000Y-91313000D02*
X124460000Y-89789000D01*
X127000000Y-91313000D02*
X127000000Y-89789000D01*
X129540000Y-91313000D02*
X129540000Y-88773000D01*
X132080000Y-91313000D02*
X132080000Y-89789000D01*
X134620000Y-91313000D02*
X134620000Y-89789000D01*
X137160000Y-91313000D02*
X137160000Y-89789000D01*
X139700000Y-91313000D02*
X139700000Y-89789000D01*
X165100000Y-91313000D02*
X165100000Y-89789000D01*
X162560000Y-91313000D02*
X162560000Y-89789000D01*
X160020000Y-91313000D02*
X160020000Y-89789000D01*
X157480000Y-91313000D02*
X157480000Y-89789000D01*
X154940000Y-91313000D02*
X154940000Y-88773000D01*
X152400000Y-91313000D02*
X152400000Y-89789000D01*
X149860000Y-91313000D02*
X149860000Y-89789000D01*
X147320000Y-91313000D02*
X147320000Y-89789000D01*
X144780000Y-91313000D02*
X144780000Y-89789000D01*
X167640000Y-86233000D02*
X167640000Y-91313000D01*
X91440000Y-86233000D02*
X91440000Y-91313000D01*
X68580000Y-91313000D02*
X68580000Y-89789000D01*
X71120000Y-91313000D02*
X71120000Y-89789000D01*
X73660000Y-91313000D02*
X73660000Y-89789000D01*
X76200000Y-91313000D02*
X76200000Y-89789000D01*
X78740000Y-91313000D02*
X78740000Y-88773000D01*
X81280000Y-91313000D02*
X81280000Y-89789000D01*
X83820000Y-91313000D02*
X83820000Y-89789000D01*
X86360000Y-91313000D02*
X86360000Y-89789000D01*
X88900000Y-91313000D02*
X88900000Y-89789000D01*
X63500000Y-91313000D02*
X63500000Y-89789000D01*
X60960000Y-91313000D02*
X60960000Y-89789000D01*
X58420000Y-91313000D02*
X58420000Y-89789000D01*
X55880000Y-91313000D02*
X55880000Y-89789000D01*
X53340000Y-91313000D02*
X53340000Y-88773000D01*
X50800000Y-91313000D02*
X50800000Y-89789000D01*
X48260000Y-91313000D02*
X48260000Y-89789000D01*
X45720000Y-91313000D02*
X45720000Y-89789000D01*
X43180000Y-91313000D02*
X43180000Y-89789000D01*
X66040000Y-86233000D02*
X66040000Y-91313000D01*
X293052500Y-53467000D02*
X293052500Y-54991000D01*
X291465000Y-53467000D02*
X291465000Y-56007000D01*
X289877500Y-53467000D02*
X289877500Y-54991000D01*
X288290000Y-53467000D02*
X288290000Y-56007000D01*
X281940000Y-53467000D02*
X281940000Y-57023000D01*
X283527500Y-53467000D02*
X283527500Y-54991000D01*
X285115000Y-53467000D02*
X285115000Y-56007000D01*
X286702500Y-53467000D02*
X286702500Y-54991000D01*
X274002500Y-53467000D02*
X274002500Y-54991000D01*
X272415000Y-53467000D02*
X272415000Y-56007000D01*
X270827500Y-53467000D02*
X270827500Y-54991000D01*
X275590000Y-53467000D02*
X275590000Y-56007000D01*
X277177500Y-53467000D02*
X277177500Y-54991000D01*
X278765000Y-53467000D02*
X278765000Y-56007000D01*
X280352500Y-53467000D02*
X280352500Y-54991000D01*
X294640000Y-53467000D02*
X294640000Y-58547000D01*
X320040000Y-53467000D02*
X320040000Y-58547000D01*
X305752500Y-53467000D02*
X305752500Y-54991000D01*
X304165000Y-53467000D02*
X304165000Y-56007000D01*
X302577500Y-53467000D02*
X302577500Y-54991000D01*
X300990000Y-53467000D02*
X300990000Y-56007000D01*
X296227500Y-53467000D02*
X296227500Y-54991000D01*
X297815000Y-53467000D02*
X297815000Y-56007000D01*
X299402500Y-53467000D02*
X299402500Y-54991000D01*
X312102500Y-53467000D02*
X312102500Y-54991000D01*
X310515000Y-53467000D02*
X310515000Y-56007000D01*
X308927500Y-53467000D02*
X308927500Y-54991000D01*
X307340000Y-53467000D02*
X307340000Y-57023000D01*
X313690000Y-53467000D02*
X313690000Y-56007000D01*
X315277500Y-53467000D02*
X315277500Y-54991000D01*
X316865000Y-53467000D02*
X316865000Y-56007000D01*
X318452500Y-53467000D02*
X318452500Y-54991000D01*
X267652500Y-53467000D02*
X267652500Y-54991000D01*
X266065000Y-53467000D02*
X266065000Y-56007000D01*
X264477500Y-53467000D02*
X264477500Y-54991000D01*
X262890000Y-53467000D02*
X262890000Y-56007000D01*
X256540000Y-53467000D02*
X256540000Y-57023000D01*
X258127500Y-53467000D02*
X258127500Y-54991000D01*
X259715000Y-53467000D02*
X259715000Y-56007000D01*
X261302500Y-53467000D02*
X261302500Y-54991000D01*
X248602500Y-53467000D02*
X248602500Y-54991000D01*
X247015000Y-53467000D02*
X247015000Y-56007000D01*
X245427500Y-53467000D02*
X245427500Y-54991000D01*
X250190000Y-53467000D02*
X250190000Y-56007000D01*
X251777500Y-53467000D02*
X251777500Y-54991000D01*
X253365000Y-53467000D02*
X253365000Y-56007000D01*
X254952500Y-53467000D02*
X254952500Y-54991000D01*
X269240000Y-53467000D02*
X269240000Y-58547000D01*
X243840000Y-53467000D02*
X243840000Y-58547000D01*
X229552500Y-53467000D02*
X229552500Y-54991000D01*
X227965000Y-53467000D02*
X227965000Y-56007000D01*
X226377500Y-53467000D02*
X226377500Y-54991000D01*
X224790000Y-53467000D02*
X224790000Y-56007000D01*
X220027500Y-53467000D02*
X220027500Y-54991000D01*
X221615000Y-53467000D02*
X221615000Y-56007000D01*
X223202500Y-53467000D02*
X223202500Y-54991000D01*
X235902500Y-53467000D02*
X235902500Y-54991000D01*
X234315000Y-53467000D02*
X234315000Y-56007000D01*
X232727500Y-53467000D02*
X232727500Y-54991000D01*
X231140000Y-53467000D02*
X231140000Y-57023000D01*
X237490000Y-53467000D02*
X237490000Y-56007000D01*
X239077500Y-53467000D02*
X239077500Y-54991000D01*
X240665000Y-53467000D02*
X240665000Y-56007000D01*
X242252500Y-53467000D02*
X242252500Y-54991000D01*
X140652500Y-53467000D02*
X140652500Y-54991000D01*
X139065000Y-53467000D02*
X139065000Y-56007000D01*
X137477500Y-53467000D02*
X137477500Y-54991000D01*
X135890000Y-53467000D02*
X135890000Y-56007000D01*
X129540000Y-53467000D02*
X129540000Y-57023000D01*
X131127500Y-53467000D02*
X131127500Y-54991000D01*
X132715000Y-53467000D02*
X132715000Y-56007000D01*
X134302500Y-53467000D02*
X134302500Y-54991000D01*
X121602500Y-53467000D02*
X121602500Y-54991000D01*
X120015000Y-53467000D02*
X120015000Y-56007000D01*
X118427500Y-53467000D02*
X118427500Y-54991000D01*
X123190000Y-53467000D02*
X123190000Y-56007000D01*
X124777500Y-53467000D02*
X124777500Y-54991000D01*
X126365000Y-53467000D02*
X126365000Y-56007000D01*
X127952500Y-53467000D02*
X127952500Y-54991000D01*
X142240000Y-53467000D02*
X142240000Y-58547000D01*
X167640000Y-53467000D02*
X167640000Y-58547000D01*
X153352500Y-53467000D02*
X153352500Y-54991000D01*
X151765000Y-53467000D02*
X151765000Y-56007000D01*
X150177500Y-53467000D02*
X150177500Y-54991000D01*
X148590000Y-53467000D02*
X148590000Y-56007000D01*
X143827500Y-53467000D02*
X143827500Y-54991000D01*
X145415000Y-53467000D02*
X145415000Y-56007000D01*
X147002500Y-53467000D02*
X147002500Y-54991000D01*
X159702500Y-53467000D02*
X159702500Y-54991000D01*
X158115000Y-53467000D02*
X158115000Y-56007000D01*
X156527500Y-53467000D02*
X156527500Y-54991000D01*
X154940000Y-53467000D02*
X154940000Y-57023000D01*
X161290000Y-53467000D02*
X161290000Y-56007000D01*
X162877500Y-53467000D02*
X162877500Y-54991000D01*
X164465000Y-53467000D02*
X164465000Y-56007000D01*
X166052500Y-53467000D02*
X166052500Y-54991000D01*
X216852500Y-53467000D02*
X216852500Y-54991000D01*
X215265000Y-53467000D02*
X215265000Y-56007000D01*
X213677500Y-53467000D02*
X213677500Y-54991000D01*
X212090000Y-53467000D02*
X212090000Y-56007000D01*
X205740000Y-53467000D02*
X205740000Y-57023000D01*
X207327500Y-53467000D02*
X207327500Y-54991000D01*
X208915000Y-53467000D02*
X208915000Y-56007000D01*
X210502500Y-53467000D02*
X210502500Y-54991000D01*
X197802500Y-53467000D02*
X197802500Y-54991000D01*
X196215000Y-53467000D02*
X196215000Y-56007000D01*
X194627500Y-53467000D02*
X194627500Y-54991000D01*
X199390000Y-53467000D02*
X199390000Y-56007000D01*
X200977500Y-53467000D02*
X200977500Y-54991000D01*
X202565000Y-53467000D02*
X202565000Y-56007000D01*
X204152500Y-53467000D02*
X204152500Y-54991000D01*
X218440000Y-53467000D02*
X218440000Y-58547000D01*
X193040000Y-53467000D02*
X193040000Y-58547000D01*
X178752500Y-53467000D02*
X178752500Y-54991000D01*
X177165000Y-53467000D02*
X177165000Y-56007000D01*
X175577500Y-53467000D02*
X175577500Y-54991000D01*
X173990000Y-53467000D02*
X173990000Y-56007000D01*
X169227500Y-53467000D02*
X169227500Y-54991000D01*
X170815000Y-53467000D02*
X170815000Y-56007000D01*
X172402500Y-53467000D02*
X172402500Y-54991000D01*
X185102500Y-53467000D02*
X185102500Y-54991000D01*
X183515000Y-53467000D02*
X183515000Y-56007000D01*
X181927500Y-53467000D02*
X181927500Y-54991000D01*
X180340000Y-53467000D02*
X180340000Y-57023000D01*
X186690000Y-53467000D02*
X186690000Y-56007000D01*
X188277500Y-53467000D02*
X188277500Y-54991000D01*
X189865000Y-53467000D02*
X189865000Y-56007000D01*
X191452500Y-53467000D02*
X191452500Y-54991000D01*
X89852500Y-53467000D02*
X89852500Y-54991000D01*
X88265000Y-53467000D02*
X88265000Y-56007000D01*
X86677500Y-53467000D02*
X86677500Y-54991000D01*
X85090000Y-53467000D02*
X85090000Y-56007000D01*
X78740000Y-53467000D02*
X78740000Y-57023000D01*
X80327500Y-53467000D02*
X80327500Y-54991000D01*
X81915000Y-53467000D02*
X81915000Y-56007000D01*
X83502500Y-53467000D02*
X83502500Y-54991000D01*
X70802500Y-53467000D02*
X70802500Y-54991000D01*
X69215000Y-53467000D02*
X69215000Y-56007000D01*
X67627500Y-53467000D02*
X67627500Y-54991000D01*
X72390000Y-53467000D02*
X72390000Y-56007000D01*
X73977500Y-53467000D02*
X73977500Y-54991000D01*
X75565000Y-53467000D02*
X75565000Y-56007000D01*
X77152500Y-53467000D02*
X77152500Y-54991000D01*
X91440000Y-53467000D02*
X91440000Y-58547000D01*
X116840000Y-53467000D02*
X116840000Y-58547000D01*
X102552500Y-53467000D02*
X102552500Y-54991000D01*
X100965000Y-53467000D02*
X100965000Y-56007000D01*
X99377500Y-53467000D02*
X99377500Y-54991000D01*
X97790000Y-53467000D02*
X97790000Y-56007000D01*
X93027500Y-53467000D02*
X93027500Y-54991000D01*
X94615000Y-53467000D02*
X94615000Y-56007000D01*
X96202500Y-53467000D02*
X96202500Y-54991000D01*
X108902500Y-53467000D02*
X108902500Y-54991000D01*
X107315000Y-53467000D02*
X107315000Y-56007000D01*
X105727500Y-53467000D02*
X105727500Y-54991000D01*
X104140000Y-53467000D02*
X104140000Y-57023000D01*
X110490000Y-53467000D02*
X110490000Y-56007000D01*
X112077500Y-53467000D02*
X112077500Y-54991000D01*
X113665000Y-53467000D02*
X113665000Y-56007000D01*
X115252500Y-53467000D02*
X115252500Y-54991000D01*
X64452500Y-53467000D02*
X64452500Y-54991000D01*
X62865000Y-53467000D02*
X62865000Y-56007000D01*
X61277500Y-53467000D02*
X61277500Y-54991000D01*
X59690000Y-53467000D02*
X59690000Y-56007000D01*
X53340000Y-53467000D02*
X53340000Y-57023000D01*
X54927500Y-53467000D02*
X54927500Y-54991000D01*
X56515000Y-53467000D02*
X56515000Y-56007000D01*
X58102500Y-53467000D02*
X58102500Y-54991000D01*
X45402500Y-53467000D02*
X45402500Y-54991000D01*
X43815000Y-53467000D02*
X43815000Y-56007000D01*
X42227500Y-53467000D02*
X42227500Y-54991000D01*
X46990000Y-53467000D02*
X46990000Y-56007000D01*
X48577500Y-53467000D02*
X48577500Y-54991000D01*
X50165000Y-53467000D02*
X50165000Y-56007000D01*
X51752500Y-53467000D02*
X51752500Y-54991000D01*
X66040000Y-53467000D02*
X66040000Y-58547000D01*
D13*
X319072381Y-84347976D02*
X319798095Y-84347976D01*
X319435238Y-84347976D02*
X319435238Y-85617976D01*
X319556190Y-85436548D01*
X319677143Y-85315595D01*
X319798095Y-85255119D01*
X317620952Y-85678452D02*
X318709524Y-84045595D01*
X316532381Y-84347976D02*
X317258095Y-84347976D01*
X316895238Y-84347976D02*
X316895238Y-85617976D01*
X317016190Y-85436548D01*
X317137143Y-85315595D01*
X317258095Y-85255119D01*
X315746190Y-85617976D02*
X315625238Y-85617976D01*
X315504286Y-85557500D01*
X315443809Y-85497024D01*
X315383333Y-85376071D01*
X315322857Y-85134167D01*
X315322857Y-84831786D01*
X315383333Y-84589881D01*
X315443809Y-84468929D01*
X315504286Y-84408452D01*
X315625238Y-84347976D01*
X315746190Y-84347976D01*
X315867143Y-84408452D01*
X315927619Y-84468929D01*
X315988095Y-84589881D01*
X316048571Y-84831786D01*
X316048571Y-85134167D01*
X315988095Y-85376071D01*
X315927619Y-85497024D01*
X315867143Y-85557500D01*
X315746190Y-85617976D01*
X319737619Y-82142976D02*
X319737619Y-83412976D01*
X319132857Y-82142976D02*
X319132857Y-83412976D01*
X318407143Y-82142976D01*
X318407143Y-83412976D01*
X317076667Y-82263929D02*
X317137143Y-82203452D01*
X317318572Y-82142976D01*
X317439524Y-82142976D01*
X317620952Y-82203452D01*
X317741905Y-82324405D01*
X317802381Y-82445357D01*
X317862857Y-82687262D01*
X317862857Y-82868690D01*
X317802381Y-83110595D01*
X317741905Y-83231548D01*
X317620952Y-83352500D01*
X317439524Y-83412976D01*
X317318572Y-83412976D01*
X317137143Y-83352500D01*
X317076667Y-83292024D01*
X316532381Y-82142976D02*
X316532381Y-83412976D01*
X316532381Y-82808214D02*
X315806667Y-82808214D01*
X315806667Y-82142976D02*
X315806667Y-83412976D01*
X315201905Y-82808214D02*
X314778572Y-82808214D01*
X314597143Y-82142976D02*
X315201905Y-82142976D01*
X315201905Y-83412976D01*
X314597143Y-83412976D01*
X314113333Y-82203452D02*
X313931905Y-82142976D01*
X313629524Y-82142976D01*
X313508571Y-82203452D01*
X313448095Y-82263929D01*
X313387619Y-82384881D01*
X313387619Y-82505833D01*
X313448095Y-82626786D01*
X313508571Y-82687262D01*
X313629524Y-82747738D01*
X313871428Y-82808214D01*
X313992381Y-82868690D01*
X314052857Y-82929167D01*
X314113333Y-83050119D01*
X314113333Y-83171071D01*
X314052857Y-83292024D01*
X313992381Y-83352500D01*
X313871428Y-83412976D01*
X313569048Y-83412976D01*
X313387619Y-83352500D01*
X16401143Y-56152143D02*
X16618858Y-56152143D01*
X16836572Y-56261000D01*
X16945429Y-56369857D01*
X17054286Y-56587571D01*
X17163143Y-57023000D01*
X17163143Y-57567286D01*
X17054286Y-58002714D01*
X16945429Y-58220429D01*
X16836572Y-58329286D01*
X16618858Y-58438143D01*
X16401143Y-58438143D01*
X16183429Y-58329286D01*
X16074572Y-58220429D01*
X15965715Y-58002714D01*
X15856858Y-57567286D01*
X15856858Y-57023000D01*
X15965715Y-56587571D01*
X16074572Y-56369857D01*
X16183429Y-56261000D01*
X16401143Y-56152143D01*
X15542381Y-60432024D02*
X15542381Y-59162024D01*
X16147143Y-60432024D02*
X16147143Y-59162024D01*
X16872857Y-60432024D01*
X16872857Y-59162024D01*
X18203333Y-60311071D02*
X18142857Y-60371548D01*
X17961428Y-60432024D01*
X17840476Y-60432024D01*
X17659048Y-60371548D01*
X17538095Y-60250595D01*
X17477619Y-60129643D01*
X17417143Y-59887738D01*
X17417143Y-59706310D01*
X17477619Y-59464405D01*
X17538095Y-59343452D01*
X17659048Y-59222500D01*
X17840476Y-59162024D01*
X17961428Y-59162024D01*
X18142857Y-59222500D01*
X18203333Y-59282976D01*
X18747619Y-60432024D02*
X18747619Y-59162024D01*
X18747619Y-59766786D02*
X19473333Y-59766786D01*
X19473333Y-60432024D02*
X19473333Y-59162024D01*
X20078095Y-59766786D02*
X20501428Y-59766786D01*
X20682857Y-60432024D02*
X20078095Y-60432024D01*
X20078095Y-59162024D01*
X20682857Y-59162024D01*
X21166667Y-60371548D02*
X21348095Y-60432024D01*
X21650476Y-60432024D01*
X21771429Y-60371548D01*
X21831905Y-60311071D01*
X21892381Y-60190119D01*
X21892381Y-60069167D01*
X21831905Y-59948214D01*
X21771429Y-59887738D01*
X21650476Y-59827262D01*
X21408572Y-59766786D01*
X21287619Y-59706310D01*
X21227143Y-59645833D01*
X21166667Y-59524881D01*
X21166667Y-59403929D01*
X21227143Y-59282976D01*
X21287619Y-59222500D01*
X21408572Y-59162024D01*
X21710952Y-59162024D01*
X21892381Y-59222500D01*
X16207619Y-62637024D02*
X15481905Y-62637024D01*
X15844762Y-62637024D02*
X15844762Y-61367024D01*
X15723810Y-61548452D01*
X15602857Y-61669405D01*
X15481905Y-61729881D01*
X17659048Y-61306548D02*
X16570476Y-62939405D01*
X18747619Y-62637024D02*
X18021905Y-62637024D01*
X18384762Y-62637024D02*
X18384762Y-61367024D01*
X18263810Y-61548452D01*
X18142857Y-61669405D01*
X18021905Y-61729881D01*
X19836191Y-61367024D02*
X19594286Y-61367024D01*
X19473334Y-61427500D01*
X19412857Y-61487976D01*
X19291905Y-61669405D01*
X19231429Y-61911310D01*
X19231429Y-62395119D01*
X19291905Y-62516071D01*
X19352381Y-62576548D01*
X19473334Y-62637024D01*
X19715238Y-62637024D01*
X19836191Y-62576548D01*
X19896667Y-62516071D01*
X19957143Y-62395119D01*
X19957143Y-62092738D01*
X19896667Y-61971786D01*
X19836191Y-61911310D01*
X19715238Y-61850833D01*
X19473334Y-61850833D01*
X19352381Y-61911310D01*
X19291905Y-61971786D01*
X19231429Y-62092738D01*
X17961429Y-86341857D02*
X19267714Y-86341857D01*
X18614572Y-86341857D02*
X18614572Y-88627857D01*
X18832286Y-88301286D01*
X19050000Y-88083571D01*
X19267714Y-87974714D01*
X17090571Y-88410143D02*
X16981714Y-88519000D01*
X16764000Y-88627857D01*
X16219714Y-88627857D01*
X16002000Y-88519000D01*
X15893143Y-88410143D01*
X15784286Y-88192429D01*
X15784286Y-87974714D01*
X15893143Y-87648143D01*
X17199429Y-86341857D01*
X15784286Y-86341857D01*
X41075429Y-86341857D02*
X42381714Y-86341857D01*
X41728572Y-86341857D02*
X41728572Y-88627857D01*
X41946286Y-88301286D01*
X42164000Y-88083571D01*
X42381714Y-87974714D01*
X38898286Y-86341857D02*
X40204571Y-86341857D01*
X39551429Y-86341857D02*
X39551429Y-88627857D01*
X39769143Y-88301286D01*
X39986857Y-88083571D01*
X40204571Y-87974714D01*
X66475429Y-86341857D02*
X67781714Y-86341857D01*
X67128572Y-86341857D02*
X67128572Y-88627857D01*
X67346286Y-88301286D01*
X67564000Y-88083571D01*
X67781714Y-87974714D01*
X65060286Y-88627857D02*
X64842571Y-88627857D01*
X64624857Y-88519000D01*
X64516000Y-88410143D01*
X64407143Y-88192429D01*
X64298286Y-87757000D01*
X64298286Y-87212714D01*
X64407143Y-86777286D01*
X64516000Y-86559571D01*
X64624857Y-86450714D01*
X64842571Y-86341857D01*
X65060286Y-86341857D01*
X65278000Y-86450714D01*
X65386857Y-86559571D01*
X65495714Y-86777286D01*
X65604571Y-87212714D01*
X65604571Y-87757000D01*
X65495714Y-88192429D01*
X65386857Y-88410143D01*
X65278000Y-88519000D01*
X65060286Y-88627857D01*
X90605428Y-86341857D02*
X90170000Y-86341857D01*
X89952285Y-86450714D01*
X89843428Y-86559571D01*
X89625714Y-86886143D01*
X89516857Y-87321571D01*
X89516857Y-88192429D01*
X89625714Y-88410143D01*
X89734571Y-88519000D01*
X89952285Y-88627857D01*
X90387714Y-88627857D01*
X90605428Y-88519000D01*
X90714285Y-88410143D01*
X90823142Y-88192429D01*
X90823142Y-87648143D01*
X90714285Y-87430429D01*
X90605428Y-87321571D01*
X90387714Y-87212714D01*
X89952285Y-87212714D01*
X89734571Y-87321571D01*
X89625714Y-87430429D01*
X89516857Y-87648143D01*
X115787714Y-87648143D02*
X116005428Y-87757000D01*
X116114285Y-87865857D01*
X116223142Y-88083571D01*
X116223142Y-88192429D01*
X116114285Y-88410143D01*
X116005428Y-88519000D01*
X115787714Y-88627857D01*
X115352285Y-88627857D01*
X115134571Y-88519000D01*
X115025714Y-88410143D01*
X114916857Y-88192429D01*
X114916857Y-88083571D01*
X115025714Y-87865857D01*
X115134571Y-87757000D01*
X115352285Y-87648143D01*
X115787714Y-87648143D01*
X116005428Y-87539286D01*
X116114285Y-87430429D01*
X116223142Y-87212714D01*
X116223142Y-86777286D01*
X116114285Y-86559571D01*
X116005428Y-86450714D01*
X115787714Y-86341857D01*
X115352285Y-86341857D01*
X115134571Y-86450714D01*
X115025714Y-86559571D01*
X114916857Y-86777286D01*
X114916857Y-87212714D01*
X115025714Y-87430429D01*
X115134571Y-87539286D01*
X115352285Y-87648143D01*
X141732000Y-88627857D02*
X140208000Y-88627857D01*
X141187714Y-86341857D01*
X165934571Y-88627857D02*
X166370000Y-88627857D01*
X166587714Y-88519000D01*
X166696571Y-88410143D01*
X166914285Y-88083571D01*
X167023142Y-87648143D01*
X167023142Y-86777286D01*
X166914285Y-86559571D01*
X166805428Y-86450714D01*
X166587714Y-86341857D01*
X166152285Y-86341857D01*
X165934571Y-86450714D01*
X165825714Y-86559571D01*
X165716857Y-86777286D01*
X165716857Y-87321571D01*
X165825714Y-87539286D01*
X165934571Y-87648143D01*
X166152285Y-87757000D01*
X166587714Y-87757000D01*
X166805428Y-87648143D01*
X166914285Y-87539286D01*
X167023142Y-87321571D01*
X191225714Y-88627857D02*
X192314285Y-88627857D01*
X192423142Y-87539286D01*
X192314285Y-87648143D01*
X192096571Y-87757000D01*
X191552285Y-87757000D01*
X191334571Y-87648143D01*
X191225714Y-87539286D01*
X191116857Y-87321571D01*
X191116857Y-86777286D01*
X191225714Y-86559571D01*
X191334571Y-86450714D01*
X191552285Y-86341857D01*
X192096571Y-86341857D01*
X192314285Y-86450714D01*
X192423142Y-86559571D01*
X216734571Y-87865857D02*
X216734571Y-86341857D01*
X217278857Y-88736714D02*
X217823142Y-87103857D01*
X216408000Y-87103857D01*
X243332000Y-88627857D02*
X241916857Y-88627857D01*
X242678857Y-87757000D01*
X242352285Y-87757000D01*
X242134571Y-87648143D01*
X242025714Y-87539286D01*
X241916857Y-87321571D01*
X241916857Y-86777286D01*
X242025714Y-86559571D01*
X242134571Y-86450714D01*
X242352285Y-86341857D01*
X243005428Y-86341857D01*
X243223142Y-86450714D01*
X243332000Y-86559571D01*
X268623142Y-88410143D02*
X268514285Y-88519000D01*
X268296571Y-88627857D01*
X267752285Y-88627857D01*
X267534571Y-88519000D01*
X267425714Y-88410143D01*
X267316857Y-88192429D01*
X267316857Y-87974714D01*
X267425714Y-87648143D01*
X268732000Y-86341857D01*
X267316857Y-86341857D01*
X292716857Y-86341857D02*
X294023142Y-86341857D01*
X293370000Y-86341857D02*
X293370000Y-88627857D01*
X293587714Y-88301286D01*
X293805428Y-88083571D01*
X294023142Y-87974714D01*
X318878857Y-88627857D02*
X318661142Y-88627857D01*
X318443428Y-88519000D01*
X318334571Y-88410143D01*
X318225714Y-88192429D01*
X318116857Y-87757000D01*
X318116857Y-87212714D01*
X318225714Y-86777286D01*
X318334571Y-86559571D01*
X318443428Y-86450714D01*
X318661142Y-86341857D01*
X318878857Y-86341857D01*
X319096571Y-86450714D01*
X319205428Y-86559571D01*
X319314285Y-86777286D01*
X319423142Y-87212714D01*
X319423142Y-87757000D01*
X319314285Y-88192429D01*
X319205428Y-88410143D01*
X319096571Y-88519000D01*
X318878857Y-88627857D01*
X317064571Y-58438143D02*
X315758286Y-58438143D01*
X316411428Y-58438143D02*
X316411428Y-56152143D01*
X316193714Y-56478714D01*
X315976000Y-56696429D01*
X315758286Y-56805286D01*
X317935429Y-56369857D02*
X318044286Y-56261000D01*
X318262000Y-56152143D01*
X318806286Y-56152143D01*
X319024000Y-56261000D01*
X319132857Y-56369857D01*
X319241714Y-56587571D01*
X319241714Y-56805286D01*
X319132857Y-57131857D01*
X317826571Y-58438143D01*
X319241714Y-58438143D01*
X294204571Y-58438143D02*
X292898286Y-58438143D01*
X293551428Y-58438143D02*
X293551428Y-56152143D01*
X293333714Y-56478714D01*
X293116000Y-56696429D01*
X292898286Y-56805286D01*
X296381714Y-58438143D02*
X295075429Y-58438143D01*
X295728571Y-58438143D02*
X295728571Y-56152143D01*
X295510857Y-56478714D01*
X295293143Y-56696429D01*
X295075429Y-56805286D01*
X268804571Y-58438143D02*
X267498286Y-58438143D01*
X268151428Y-58438143D02*
X268151428Y-56152143D01*
X267933714Y-56478714D01*
X267716000Y-56696429D01*
X267498286Y-56805286D01*
X270219714Y-56152143D02*
X270437429Y-56152143D01*
X270655143Y-56261000D01*
X270764000Y-56369857D01*
X270872857Y-56587571D01*
X270981714Y-57023000D01*
X270981714Y-57567286D01*
X270872857Y-58002714D01*
X270764000Y-58220429D01*
X270655143Y-58329286D01*
X270437429Y-58438143D01*
X270219714Y-58438143D01*
X270002000Y-58329286D01*
X269893143Y-58220429D01*
X269784286Y-58002714D01*
X269675429Y-57567286D01*
X269675429Y-57023000D01*
X269784286Y-56587571D01*
X269893143Y-56369857D01*
X270002000Y-56261000D01*
X270219714Y-56152143D01*
X244674572Y-58438143D02*
X245110000Y-58438143D01*
X245327715Y-58329286D01*
X245436572Y-58220429D01*
X245654286Y-57893857D01*
X245763143Y-57458429D01*
X245763143Y-56587571D01*
X245654286Y-56369857D01*
X245545429Y-56261000D01*
X245327715Y-56152143D01*
X244892286Y-56152143D01*
X244674572Y-56261000D01*
X244565715Y-56369857D01*
X244456858Y-56587571D01*
X244456858Y-57131857D01*
X244565715Y-57349571D01*
X244674572Y-57458429D01*
X244892286Y-57567286D01*
X245327715Y-57567286D01*
X245545429Y-57458429D01*
X245654286Y-57349571D01*
X245763143Y-57131857D01*
X219492286Y-57131857D02*
X219274572Y-57023000D01*
X219165715Y-56914143D01*
X219056858Y-56696429D01*
X219056858Y-56587571D01*
X219165715Y-56369857D01*
X219274572Y-56261000D01*
X219492286Y-56152143D01*
X219927715Y-56152143D01*
X220145429Y-56261000D01*
X220254286Y-56369857D01*
X220363143Y-56587571D01*
X220363143Y-56696429D01*
X220254286Y-56914143D01*
X220145429Y-57023000D01*
X219927715Y-57131857D01*
X219492286Y-57131857D01*
X219274572Y-57240714D01*
X219165715Y-57349571D01*
X219056858Y-57567286D01*
X219056858Y-58002714D01*
X219165715Y-58220429D01*
X219274572Y-58329286D01*
X219492286Y-58438143D01*
X219927715Y-58438143D01*
X220145429Y-58329286D01*
X220254286Y-58220429D01*
X220363143Y-58002714D01*
X220363143Y-57567286D01*
X220254286Y-57349571D01*
X220145429Y-57240714D01*
X219927715Y-57131857D01*
X193548000Y-56152143D02*
X195072000Y-56152143D01*
X194092286Y-58438143D01*
X169345429Y-56152143D02*
X168910000Y-56152143D01*
X168692286Y-56261000D01*
X168583429Y-56369857D01*
X168365715Y-56696429D01*
X168256858Y-57131857D01*
X168256858Y-58002714D01*
X168365715Y-58220429D01*
X168474572Y-58329286D01*
X168692286Y-58438143D01*
X169127715Y-58438143D01*
X169345429Y-58329286D01*
X169454286Y-58220429D01*
X169563143Y-58002714D01*
X169563143Y-57458429D01*
X169454286Y-57240714D01*
X169345429Y-57131857D01*
X169127715Y-57023000D01*
X168692286Y-57023000D01*
X168474572Y-57131857D01*
X168365715Y-57240714D01*
X168256858Y-57458429D01*
X144054286Y-56152143D02*
X142965715Y-56152143D01*
X142856858Y-57240714D01*
X142965715Y-57131857D01*
X143183429Y-57023000D01*
X143727715Y-57023000D01*
X143945429Y-57131857D01*
X144054286Y-57240714D01*
X144163143Y-57458429D01*
X144163143Y-58002714D01*
X144054286Y-58220429D01*
X143945429Y-58329286D01*
X143727715Y-58438143D01*
X143183429Y-58438143D01*
X142965715Y-58329286D01*
X142856858Y-58220429D01*
X118545429Y-56914143D02*
X118545429Y-58438143D01*
X118001143Y-56043286D02*
X117456858Y-57676143D01*
X118872000Y-57676143D01*
X91948000Y-56152143D02*
X93363143Y-56152143D01*
X92601143Y-57023000D01*
X92927715Y-57023000D01*
X93145429Y-57131857D01*
X93254286Y-57240714D01*
X93363143Y-57458429D01*
X93363143Y-58002714D01*
X93254286Y-58220429D01*
X93145429Y-58329286D01*
X92927715Y-58438143D01*
X92274572Y-58438143D01*
X92056858Y-58329286D01*
X91948000Y-58220429D01*
X66656858Y-56369857D02*
X66765715Y-56261000D01*
X66983429Y-56152143D01*
X67527715Y-56152143D01*
X67745429Y-56261000D01*
X67854286Y-56369857D01*
X67963143Y-56587571D01*
X67963143Y-56805286D01*
X67854286Y-57131857D01*
X66548000Y-58438143D01*
X67963143Y-58438143D01*
X42563143Y-58438143D02*
X41256858Y-58438143D01*
X41910000Y-58438143D02*
X41910000Y-56152143D01*
X41692286Y-56478714D01*
X41474572Y-56696429D01*
X41256858Y-56805286D01*
D12*
X40640000Y-86233000D02*
X40640000Y-91313000D01*
X15240000Y-86233000D02*
X15240000Y-91313000D01*
X17780000Y-91313000D02*
X17780000Y-89789000D01*
X20320000Y-91313000D02*
X20320000Y-89789000D01*
X22860000Y-91313000D02*
X22860000Y-89789000D01*
X25400000Y-91313000D02*
X25400000Y-89789000D01*
X27940000Y-91313000D02*
X27940000Y-88773000D01*
X30480000Y-91313000D02*
X30480000Y-89789000D01*
X33020000Y-91313000D02*
X33020000Y-89789000D01*
X35560000Y-91313000D02*
X35560000Y-89789000D01*
X38100000Y-91313000D02*
X38100000Y-89789000D01*
X40640000Y-53467000D02*
X40640000Y-58547000D01*
X26352500Y-53467000D02*
X26352500Y-54991000D01*
X24765000Y-53467000D02*
X24765000Y-56007000D01*
X23177500Y-53467000D02*
X23177500Y-54991000D01*
X21590000Y-53467000D02*
X21590000Y-56007000D01*
X15240000Y-53467000D02*
X15240000Y-58547000D01*
X16827500Y-53467000D02*
X16827500Y-54991000D01*
X18415000Y-53467000D02*
X18415000Y-56007000D01*
X20002500Y-53467000D02*
X20002500Y-54991000D01*
X32702500Y-53467000D02*
X32702500Y-54991000D01*
X31115000Y-53467000D02*
X31115000Y-56007000D01*
X29527500Y-53467000D02*
X29527500Y-54991000D01*
X27940000Y-53467000D02*
X27940000Y-57023000D01*
X34290000Y-53467000D02*
X34290000Y-56007000D01*
X35877500Y-53467000D02*
X35877500Y-54991000D01*
X37465000Y-53467000D02*
X37465000Y-56007000D01*
X39052500Y-53467000D02*
X39052500Y-54991000D01*
D14*
X197104000Y-65024000D03*
X204724000Y-82804000D03*
X197104000Y-67564000D03*
X204724000Y-80264000D03*
X197104000Y-70104000D03*
X204724000Y-77724000D03*
X197104000Y-72644000D03*
X204724000Y-75184000D03*
X197104000Y-75184000D03*
X204724000Y-72644000D03*
X197104000Y-77724000D03*
X204724000Y-70104000D03*
X197104000Y-80264000D03*
X204724000Y-67564000D03*
X197104000Y-82804000D03*
X204724000Y-65024000D03*
D15*
X213838000Y-62362000D03*
X214488000Y-62362000D03*
X215138000Y-62362000D03*
X215788000Y-62362000D03*
X216438000Y-62362000D03*
D16*
X211413000Y-62412000D03*
X218863000Y-62412000D03*
D17*
X211263000Y-66212000D03*
X219013000Y-66212000D03*
D18*
X212638000Y-63462000D03*
X217638000Y-63462000D03*
D19*
X29448000Y-78486000D03*
X27448000Y-78486000D03*
D20*
X28998000Y-70358000D03*
X27898000Y-70358000D03*
D21*
X27698000Y-74168000D03*
X29198000Y-74168000D03*
D22*
X29948000Y-83058000D03*
X26948000Y-83058000D03*
D23*
X41124000Y-67056000D03*
X38124000Y-67056000D03*
D24*
X42724000Y-82804000D03*
X36524000Y-82804000D03*
D23*
X42074000Y-77724000D03*
X37174000Y-77724000D03*
D25*
X42064000Y-72390000D03*
X37184000Y-72390000D03*
D26*
X53340000Y-75690000D03*
X53340000Y-81790000D03*
D14*
X53340000Y-65024000D03*
D27*
X53340000Y-68824000D03*
D28*
X69596000Y-75270000D03*
X69596000Y-79670000D03*
D25*
X62230000Y-75532000D03*
X62230000Y-80932000D03*
D14*
X62230000Y-66548000D03*
D27*
X62230000Y-69048000D03*
D14*
X69596000Y-67564000D03*
D27*
X69596000Y-69564000D03*
D29*
X78381000Y-67818000D03*
X81131000Y-67818000D03*
D30*
X78231000Y-74422000D03*
X81281000Y-74422000D03*
D31*
X77231000Y-81788000D03*
X82281000Y-81788000D03*
D32*
X89535000Y-69596000D03*
X95885000Y-69596000D03*
D33*
X89535000Y-79502000D03*
X95885000Y-79502000D03*
D34*
X28188000Y-66802000D03*
X28708000Y-66802000D03*
D35*
X103548000Y-74422000D03*
X105748000Y-74422000D03*
D36*
X103248000Y-81534000D03*
X106048000Y-81534000D03*
D37*
X110426000Y-70104000D03*
X115126000Y-70104000D03*
D38*
X103973000Y-68072000D03*
X105323000Y-68072000D03*
D39*
X109976000Y-79502000D03*
X115576000Y-79502000D03*
D40*
X125730000Y-74760000D03*
X128270000Y-74760000D03*
X128270000Y-72560000D03*
X125730000Y-72560000D03*
D41*
X128848000Y-68514000D03*
X131248000Y-68514000D03*
X131248000Y-66614000D03*
X128848000Y-66614000D03*
D42*
X124460000Y-83126000D03*
X129540000Y-83126000D03*
X129540000Y-78926000D03*
X124460000Y-78926000D03*
D43*
X123952000Y-68814000D03*
X123952000Y-66314000D03*
D44*
X138242000Y-64754000D03*
X140142000Y-64754000D03*
X139192000Y-62754000D03*
D45*
X138242000Y-70950000D03*
X139192000Y-70950000D03*
X140142000Y-70950000D03*
X140142000Y-68750000D03*
X138242000Y-68750000D03*
X138242000Y-77046000D03*
X139192000Y-77046000D03*
X140142000Y-77046000D03*
X140142000Y-74846000D03*
X138242000Y-74846000D03*
X139192000Y-74846000D03*
D46*
X138212000Y-83396000D03*
X138862000Y-83396000D03*
X139522000Y-83396000D03*
X140172000Y-83396000D03*
X140172000Y-81196000D03*
X139522000Y-81196000D03*
X138862000Y-81196000D03*
X138212000Y-81196000D03*
D47*
X145146000Y-64754000D03*
X146446000Y-64754000D03*
X145796000Y-62754000D03*
D48*
X145146000Y-70546000D03*
X146446000Y-70546000D03*
X145796000Y-68646000D03*
X145796000Y-70546000D03*
X146446000Y-68646000D03*
X145146000Y-68646000D03*
D49*
X145040000Y-82940000D03*
X146180000Y-82940000D03*
X147320000Y-82940000D03*
X148460000Y-82940000D03*
X149600000Y-82940000D03*
D50*
X147320000Y-76640000D03*
D51*
X163830000Y-76606000D03*
D52*
X163830000Y-82906000D03*
X166130000Y-82906000D03*
X161530000Y-82906000D03*
D53*
X156718000Y-82893500D03*
X154178000Y-82893500D03*
D54*
X155448000Y-76593500D03*
D53*
X155448000Y-82893500D03*
X157988000Y-82893500D03*
X152908000Y-82893500D03*
D55*
X151450000Y-65826000D03*
X153350000Y-65826000D03*
X152400000Y-63206000D03*
D56*
X151200000Y-70750000D03*
D57*
X152800000Y-70750000D03*
X152000000Y-70750000D03*
D56*
X153600000Y-70750000D03*
D57*
X152000000Y-68950000D03*
D56*
X151200000Y-68950000D03*
D57*
X152800000Y-68950000D03*
D56*
X153600000Y-68950000D03*
D58*
X181429000Y-83017000D03*
X181429000Y-82367000D03*
X181429000Y-81717000D03*
X181429000Y-81067000D03*
X177219000Y-81067000D03*
X177219000Y-81717000D03*
X177219000Y-82367000D03*
X177219000Y-83017000D03*
D59*
X178904000Y-81572000D03*
X178904000Y-82512000D03*
X179744000Y-81572000D03*
X179744000Y-82512000D03*
D60*
X169504000Y-79784000D03*
X169504000Y-80284000D03*
X169504000Y-80784000D03*
X169504000Y-81284000D03*
X169504000Y-81784000D03*
X173904000Y-81784000D03*
X173904000Y-81284000D03*
X173904000Y-80784000D03*
X173904000Y-80284000D03*
X173904000Y-79784000D03*
X169504000Y-82284000D03*
X169504000Y-82784000D03*
X169504000Y-83284000D03*
X173904000Y-82284000D03*
X173904000Y-82784000D03*
X173904000Y-83284000D03*
D61*
X171704000Y-81434000D03*
D60*
X169504000Y-71910000D03*
X169504000Y-72410000D03*
X169504000Y-72910000D03*
X169504000Y-73410000D03*
X169504000Y-73910000D03*
X173904000Y-73910000D03*
X173904000Y-73410000D03*
X173904000Y-72910000D03*
X173904000Y-72410000D03*
X173904000Y-71910000D03*
X169504000Y-74410000D03*
X169504000Y-74910000D03*
X169504000Y-75410000D03*
X173904000Y-74410000D03*
X173904000Y-74910000D03*
X173904000Y-75410000D03*
D62*
X177124000Y-74717000D03*
X177124000Y-75367000D03*
X177124000Y-76017000D03*
X177124000Y-76667000D03*
X181524000Y-76667000D03*
X181524000Y-76017000D03*
X181524000Y-75367000D03*
X181524000Y-74717000D03*
D63*
X176724000Y-66103500D03*
X176724000Y-66738500D03*
X176724000Y-67373500D03*
X176724000Y-68008500D03*
X176724000Y-68643500D03*
X176724000Y-69278500D03*
X176724000Y-69913500D03*
X176724000Y-70548500D03*
X181924000Y-70548500D03*
X181924000Y-69913500D03*
X181924000Y-69278500D03*
X181924000Y-68643500D03*
X181924000Y-68008500D03*
X181924000Y-67373500D03*
X181924000Y-66738500D03*
X181924000Y-66103500D03*
D64*
X169004000Y-63373000D03*
X169004000Y-64643000D03*
X169004000Y-65913000D03*
X169004000Y-67183000D03*
X174404000Y-67183000D03*
X174404000Y-65913000D03*
X174404000Y-64643000D03*
X174404000Y-63373000D03*
D65*
X160622000Y-63119000D03*
X160622000Y-64389000D03*
X160622000Y-65659000D03*
X160622000Y-66929000D03*
X160622000Y-68199000D03*
X160622000Y-69469000D03*
X160622000Y-70739000D03*
X160622000Y-72009000D03*
X166022000Y-72009000D03*
X166022000Y-70739000D03*
X166022000Y-69469000D03*
X166022000Y-68199000D03*
X166022000Y-66929000D03*
X166022000Y-65659000D03*
X166022000Y-64389000D03*
X166022000Y-63119000D03*
D14*
X185166000Y-75184000D03*
X192786000Y-82804000D03*
X185166000Y-77724000D03*
X192786000Y-80264000D03*
X185166000Y-80264000D03*
X192786000Y-77724000D03*
X185166000Y-82804000D03*
X192786000Y-75184000D03*
D66*
X191328000Y-68592000D03*
X191328000Y-69092000D03*
X191328000Y-69592000D03*
X191328000Y-70092000D03*
X193228000Y-70092000D03*
X193228000Y-69592000D03*
X193228000Y-69092000D03*
X193228000Y-68592000D03*
D67*
X185498000Y-68367000D03*
X185498000Y-69017000D03*
X185498000Y-69667000D03*
X185498000Y-70317000D03*
X188898000Y-70317000D03*
X188898000Y-69667000D03*
X188898000Y-69017000D03*
X188898000Y-68367000D03*
D68*
X229804000Y-64962000D03*
D69*
X231184000Y-63052000D03*
X231684000Y-63052000D03*
X232184000Y-63052000D03*
X232684000Y-63052000D03*
X233184000Y-63052000D03*
X233684000Y-63052000D03*
X234184000Y-63052000D03*
X236684000Y-63052000D03*
X235684000Y-63052000D03*
X235184000Y-63052000D03*
X234684000Y-63052000D03*
X236184000Y-63052000D03*
X236434000Y-64752000D03*
D68*
X238064000Y-64962000D03*
X238424000Y-70912000D03*
X229444000Y-70912000D03*
D70*
X237534000Y-63712000D03*
D71*
X230334000Y-63712000D03*
D69*
X235934000Y-64752000D03*
X235434000Y-64752000D03*
X234934000Y-64752000D03*
X234434000Y-64752000D03*
X233934000Y-64752000D03*
X233434000Y-64752000D03*
X232934000Y-64752000D03*
X232434000Y-64752000D03*
X231934000Y-64752000D03*
X231434000Y-64752000D03*
X230934000Y-64752000D03*
D72*
X255236000Y-76200000D03*
X243366000Y-76200000D03*
D73*
X244856000Y-69850000D03*
D74*
X246126000Y-67310000D03*
X247396000Y-69850000D03*
X248666000Y-67310000D03*
X249936000Y-69850000D03*
X251206000Y-67310000D03*
X252476000Y-69850000D03*
X253746000Y-67310000D03*
X222502000Y-70358000D03*
X219962000Y-70358000D03*
X217932000Y-70358000D03*
X215392000Y-70358000D03*
D75*
X225552000Y-73028000D03*
X211832000Y-73028000D03*
D76*
X316992000Y-74676000D03*
D77*
X314960000Y-78232000D03*
D78*
X307340000Y-63500000D03*
D79*
X307340000Y-72390000D03*
D78*
X307340000Y-81280000D03*
D80*
X311912000Y-81280000D03*
D81*
X316992000Y-76200000D03*
D76*
X316992000Y-70104000D03*
D77*
X314960000Y-66548000D03*
D80*
X311912000Y-63500000D03*
D81*
X316992000Y-68580000D03*
M02*
