G04 #@! TF.FileFunction,Soldermask,Top*
%FSLAX46Y46*%
G04 Gerber Fmt 4.6, Leading zero omitted, Abs format (unit mm)*
G04 Created by KiCad (PCBNEW 4.0.4-stable) date 01/25/18 23:42:30*
%MOMM*%
%LPD*%
G01*
G04 APERTURE LIST*
%ADD10C,0.100000*%
%ADD11C,0.152400*%
%ADD12C,0.254000*%
%ADD13C,0.300000*%
%ADD14R,1.600000X1.600000*%
%ADD15R,0.450000X1.300000*%
%ADD16C,2.000000*%
%ADD17C,1.800000*%
%ADD18C,0.800000*%
%ADD19R,1.000000X1.250000*%
%ADD20R,0.600000X0.500000*%
%ADD21R,0.800000X0.750000*%
%ADD22R,1.000000X1.600000*%
%ADD23R,1.000000X2.500000*%
%ADD24R,1.000000X3.200000*%
%ADD25R,1.600000X3.500000*%
%ADD26R,2.500000X4.000000*%
%ADD27C,1.600000*%
%ADD28R,1.600000X3.000000*%
%ADD29R,1.950000X1.500000*%
%ADD30R,1.950000X2.500000*%
%ADD31R,2.550000X2.500000*%
%ADD32R,2.550000X2.700000*%
%ADD33R,2.550000X4.400000*%
%ADD34R,0.280000X0.430000*%
%ADD35R,0.800000X2.900000*%
%ADD36R,1.200000X3.900000*%
%ADD37R,1.600000X5.900000*%
%ADD38R,0.650000X2.000000*%
%ADD39R,1.800000X7.700000*%
%ADD40R,1.600000X1.500000*%
%ADD41R,1.400000X1.200000*%
%ADD42R,1.800000X2.000000*%
%ADD43R,1.800000X1.000000*%
%ADD44R,0.800000X0.900000*%
%ADD45R,0.650000X1.060000*%
%ADD46R,0.400000X1.060000*%
%ADD47R,0.450000X0.700000*%
%ADD48R,0.400000X0.650000*%
%ADD49R,0.800000X2.200000*%
%ADD50R,5.800000X6.400000*%
%ADD51R,3.800000X2.000000*%
%ADD52R,1.500000X2.000000*%
%ADD53R,0.600000X2.200000*%
%ADD54R,3.450000X2.150000*%
%ADD55R,0.650000X1.220000*%
%ADD56R,0.500000X0.800000*%
%ADD57R,0.400000X0.800000*%
%ADD58R,0.890000X0.420000*%
%ADD59R,0.840000X0.940000*%
%ADD60R,1.400000X0.300000*%
%ADD61R,1.650000X2.850000*%
%ADD62R,1.450000X0.450000*%
%ADD63R,1.200000X0.400000*%
%ADD64R,1.550000X0.600000*%
%ADD65R,1.500000X0.600000*%
%ADD66R,0.850000X0.300000*%
%ADD67R,1.600000X0.300000*%
%ADD68C,1.400000*%
%ADD69R,0.300000X0.700000*%
%ADD70C,0.950000*%
%ADD71C,0.650000*%
%ADD72C,3.650000*%
%ADD73R,1.500000X1.500000*%
%ADD74C,1.500000*%
%ADD75C,3.000000*%
%ADD76C,0.762000*%
%ADD77C,1.397000*%
%ADD78C,3.810000*%
%ADD79C,11.684000*%
%ADD80C,2.286000*%
%ADD81C,1.016000*%
G04 APERTURE END LIST*
D10*
D11*
X268224000Y-72390000D02*
X297815000Y-72390000D01*
X268224000Y-72390000D02*
X274955000Y-74295000D01*
X274955000Y-70485000D02*
X268224000Y-72390000D01*
X274955000Y-74295000D02*
X278765000Y-70485000D01*
X274955000Y-70485000D02*
X278765000Y-74295000D01*
X290575230Y-73159407D02*
G75*
G02X279400000Y-78740000I-7365230J769407D01*
G01*
X290575230Y-71620593D02*
G75*
G03X279400000Y-66040000I-7365230J-769407D01*
G01*
X289068142Y-73325468D02*
G75*
G02X279400000Y-78740000I-6874142J935468D01*
G01*
X289068142Y-71454532D02*
G75*
G03X279400000Y-66040000I-6874142J-935468D01*
G01*
X294724785Y-72703406D02*
G75*
G02X279400000Y-78740000I-8974785J313406D01*
G01*
X294724785Y-72076594D02*
G75*
G03X279400000Y-66040000I-8974785J-313406D01*
G01*
X276860000Y-72390000D02*
X276860000Y-83185000D01*
X276860000Y-72390000D02*
X276860000Y-61595000D01*
X276860000Y-83185000D02*
X274955000Y-74295000D01*
X278765000Y-74295000D02*
X276860000Y-83185000D01*
X297815000Y-72390000D02*
X278765000Y-74295000D01*
X278765000Y-70485000D02*
X297815000Y-72390000D01*
X276860000Y-61595000D02*
X278765000Y-70485000D01*
X274955000Y-70485000D02*
X276860000Y-61595000D01*
D12*
X264160000Y-91313000D02*
X264160000Y-89789000D01*
X261620000Y-91313000D02*
X261620000Y-89789000D01*
X259080000Y-91313000D02*
X259080000Y-89789000D01*
X256540000Y-91313000D02*
X256540000Y-89789000D01*
X254000000Y-91313000D02*
X254000000Y-88773000D01*
X251460000Y-91313000D02*
X251460000Y-89789000D01*
X248920000Y-91313000D02*
X248920000Y-89789000D01*
X246380000Y-91313000D02*
X246380000Y-89789000D01*
X243840000Y-91313000D02*
X243840000Y-89789000D01*
X266700000Y-86233000D02*
X266700000Y-91313000D01*
X292100000Y-86233000D02*
X292100000Y-91313000D01*
X269240000Y-91313000D02*
X269240000Y-89789000D01*
X271780000Y-91313000D02*
X271780000Y-89789000D01*
X274320000Y-91313000D02*
X274320000Y-89789000D01*
X276860000Y-91313000D02*
X276860000Y-89789000D01*
X279400000Y-91313000D02*
X279400000Y-88773000D01*
X281940000Y-91313000D02*
X281940000Y-89789000D01*
X284480000Y-91313000D02*
X284480000Y-89789000D01*
X287020000Y-91313000D02*
X287020000Y-89789000D01*
X289560000Y-91313000D02*
X289560000Y-89789000D01*
X314960000Y-91313000D02*
X314960000Y-89789000D01*
X312420000Y-91313000D02*
X312420000Y-89789000D01*
X309880000Y-91313000D02*
X309880000Y-89789000D01*
X307340000Y-91313000D02*
X307340000Y-89789000D01*
X304800000Y-91313000D02*
X304800000Y-88773000D01*
X302260000Y-91313000D02*
X302260000Y-89789000D01*
X299720000Y-91313000D02*
X299720000Y-89789000D01*
X297180000Y-91313000D02*
X297180000Y-89789000D01*
X294640000Y-91313000D02*
X294640000Y-89789000D01*
X317500000Y-86233000D02*
X317500000Y-91313000D01*
X241300000Y-86233000D02*
X241300000Y-91313000D01*
X218440000Y-91313000D02*
X218440000Y-89789000D01*
X220980000Y-91313000D02*
X220980000Y-89789000D01*
X223520000Y-91313000D02*
X223520000Y-89789000D01*
X226060000Y-91313000D02*
X226060000Y-89789000D01*
X228600000Y-91313000D02*
X228600000Y-88773000D01*
X231140000Y-91313000D02*
X231140000Y-89789000D01*
X233680000Y-91313000D02*
X233680000Y-89789000D01*
X236220000Y-91313000D02*
X236220000Y-89789000D01*
X238760000Y-91313000D02*
X238760000Y-89789000D01*
X213360000Y-91313000D02*
X213360000Y-89789000D01*
X210820000Y-91313000D02*
X210820000Y-89789000D01*
X208280000Y-91313000D02*
X208280000Y-89789000D01*
X205740000Y-91313000D02*
X205740000Y-89789000D01*
X203200000Y-91313000D02*
X203200000Y-88773000D01*
X200660000Y-91313000D02*
X200660000Y-89789000D01*
X198120000Y-91313000D02*
X198120000Y-89789000D01*
X195580000Y-91313000D02*
X195580000Y-89789000D01*
X193040000Y-91313000D02*
X193040000Y-89789000D01*
X215900000Y-86233000D02*
X215900000Y-91313000D01*
X190500000Y-86233000D02*
X190500000Y-91313000D01*
X167640000Y-91313000D02*
X167640000Y-89789000D01*
X170180000Y-91313000D02*
X170180000Y-89789000D01*
X172720000Y-91313000D02*
X172720000Y-89789000D01*
X175260000Y-91313000D02*
X175260000Y-89789000D01*
X177800000Y-91313000D02*
X177800000Y-88773000D01*
X180340000Y-91313000D02*
X180340000Y-89789000D01*
X182880000Y-91313000D02*
X182880000Y-89789000D01*
X185420000Y-91313000D02*
X185420000Y-89789000D01*
X187960000Y-91313000D02*
X187960000Y-89789000D01*
X111760000Y-91313000D02*
X111760000Y-89789000D01*
X109220000Y-91313000D02*
X109220000Y-89789000D01*
X106680000Y-91313000D02*
X106680000Y-89789000D01*
X104140000Y-91313000D02*
X104140000Y-89789000D01*
X101600000Y-91313000D02*
X101600000Y-88773000D01*
X99060000Y-91313000D02*
X99060000Y-89789000D01*
X96520000Y-91313000D02*
X96520000Y-89789000D01*
X93980000Y-91313000D02*
X93980000Y-89789000D01*
X91440000Y-91313000D02*
X91440000Y-89789000D01*
X114300000Y-86233000D02*
X114300000Y-91313000D01*
X139700000Y-86233000D02*
X139700000Y-91313000D01*
X116840000Y-91313000D02*
X116840000Y-89789000D01*
X119380000Y-91313000D02*
X119380000Y-89789000D01*
X121920000Y-91313000D02*
X121920000Y-89789000D01*
X124460000Y-91313000D02*
X124460000Y-89789000D01*
X127000000Y-91313000D02*
X127000000Y-88773000D01*
X129540000Y-91313000D02*
X129540000Y-89789000D01*
X132080000Y-91313000D02*
X132080000Y-89789000D01*
X134620000Y-91313000D02*
X134620000Y-89789000D01*
X137160000Y-91313000D02*
X137160000Y-89789000D01*
X162560000Y-91313000D02*
X162560000Y-89789000D01*
X160020000Y-91313000D02*
X160020000Y-89789000D01*
X157480000Y-91313000D02*
X157480000Y-89789000D01*
X154940000Y-91313000D02*
X154940000Y-89789000D01*
X152400000Y-91313000D02*
X152400000Y-88773000D01*
X149860000Y-91313000D02*
X149860000Y-89789000D01*
X147320000Y-91313000D02*
X147320000Y-89789000D01*
X144780000Y-91313000D02*
X144780000Y-89789000D01*
X142240000Y-91313000D02*
X142240000Y-89789000D01*
X165100000Y-86233000D02*
X165100000Y-91313000D01*
X88900000Y-86233000D02*
X88900000Y-91313000D01*
X66040000Y-91313000D02*
X66040000Y-89789000D01*
X68580000Y-91313000D02*
X68580000Y-89789000D01*
X71120000Y-91313000D02*
X71120000Y-89789000D01*
X73660000Y-91313000D02*
X73660000Y-89789000D01*
X76200000Y-91313000D02*
X76200000Y-88773000D01*
X78740000Y-91313000D02*
X78740000Y-89789000D01*
X81280000Y-91313000D02*
X81280000Y-89789000D01*
X83820000Y-91313000D02*
X83820000Y-89789000D01*
X86360000Y-91313000D02*
X86360000Y-89789000D01*
X60960000Y-91313000D02*
X60960000Y-89789000D01*
X58420000Y-91313000D02*
X58420000Y-89789000D01*
X55880000Y-91313000D02*
X55880000Y-89789000D01*
X53340000Y-91313000D02*
X53340000Y-89789000D01*
X50800000Y-91313000D02*
X50800000Y-88773000D01*
X48260000Y-91313000D02*
X48260000Y-89789000D01*
X45720000Y-91313000D02*
X45720000Y-89789000D01*
X43180000Y-91313000D02*
X43180000Y-89789000D01*
X40640000Y-91313000D02*
X40640000Y-89789000D01*
X63500000Y-86233000D02*
X63500000Y-91313000D01*
X290512500Y-53467000D02*
X290512500Y-54991000D01*
X288925000Y-53467000D02*
X288925000Y-56007000D01*
X287337500Y-53467000D02*
X287337500Y-54991000D01*
X285750000Y-53467000D02*
X285750000Y-56007000D01*
X279400000Y-53467000D02*
X279400000Y-57023000D01*
X280987500Y-53467000D02*
X280987500Y-54991000D01*
X282575000Y-53467000D02*
X282575000Y-56007000D01*
X284162500Y-53467000D02*
X284162500Y-54991000D01*
X271462500Y-53467000D02*
X271462500Y-54991000D01*
X269875000Y-53467000D02*
X269875000Y-56007000D01*
X268287500Y-53467000D02*
X268287500Y-54991000D01*
X273050000Y-53467000D02*
X273050000Y-56007000D01*
X274637500Y-53467000D02*
X274637500Y-54991000D01*
X276225000Y-53467000D02*
X276225000Y-56007000D01*
X277812500Y-53467000D02*
X277812500Y-54991000D01*
X292100000Y-53467000D02*
X292100000Y-58547000D01*
X317500000Y-53467000D02*
X317500000Y-58547000D01*
X303212500Y-53467000D02*
X303212500Y-54991000D01*
X301625000Y-53467000D02*
X301625000Y-56007000D01*
X300037500Y-53467000D02*
X300037500Y-54991000D01*
X298450000Y-53467000D02*
X298450000Y-56007000D01*
X293687500Y-53467000D02*
X293687500Y-54991000D01*
X295275000Y-53467000D02*
X295275000Y-56007000D01*
X296862500Y-53467000D02*
X296862500Y-54991000D01*
X309562500Y-53467000D02*
X309562500Y-54991000D01*
X307975000Y-53467000D02*
X307975000Y-56007000D01*
X306387500Y-53467000D02*
X306387500Y-54991000D01*
X304800000Y-53467000D02*
X304800000Y-57023000D01*
X311150000Y-53467000D02*
X311150000Y-56007000D01*
X312737500Y-53467000D02*
X312737500Y-54991000D01*
X314325000Y-53467000D02*
X314325000Y-56007000D01*
X315912500Y-53467000D02*
X315912500Y-54991000D01*
X265112500Y-53467000D02*
X265112500Y-54991000D01*
X263525000Y-53467000D02*
X263525000Y-56007000D01*
X261937500Y-53467000D02*
X261937500Y-54991000D01*
X260350000Y-53467000D02*
X260350000Y-56007000D01*
X254000000Y-53467000D02*
X254000000Y-57023000D01*
X255587500Y-53467000D02*
X255587500Y-54991000D01*
X257175000Y-53467000D02*
X257175000Y-56007000D01*
X258762500Y-53467000D02*
X258762500Y-54991000D01*
X246062500Y-53467000D02*
X246062500Y-54991000D01*
X244475000Y-53467000D02*
X244475000Y-56007000D01*
X242887500Y-53467000D02*
X242887500Y-54991000D01*
X247650000Y-53467000D02*
X247650000Y-56007000D01*
X249237500Y-53467000D02*
X249237500Y-54991000D01*
X250825000Y-53467000D02*
X250825000Y-56007000D01*
X252412500Y-53467000D02*
X252412500Y-54991000D01*
X266700000Y-53467000D02*
X266700000Y-58547000D01*
X241300000Y-53467000D02*
X241300000Y-58547000D01*
X227012500Y-53467000D02*
X227012500Y-54991000D01*
X225425000Y-53467000D02*
X225425000Y-56007000D01*
X223837500Y-53467000D02*
X223837500Y-54991000D01*
X222250000Y-53467000D02*
X222250000Y-56007000D01*
X217487500Y-53467000D02*
X217487500Y-54991000D01*
X219075000Y-53467000D02*
X219075000Y-56007000D01*
X220662500Y-53467000D02*
X220662500Y-54991000D01*
X233362500Y-53467000D02*
X233362500Y-54991000D01*
X231775000Y-53467000D02*
X231775000Y-56007000D01*
X230187500Y-53467000D02*
X230187500Y-54991000D01*
X228600000Y-53467000D02*
X228600000Y-57023000D01*
X234950000Y-53467000D02*
X234950000Y-56007000D01*
X236537500Y-53467000D02*
X236537500Y-54991000D01*
X238125000Y-53467000D02*
X238125000Y-56007000D01*
X239712500Y-53467000D02*
X239712500Y-54991000D01*
X138112500Y-53467000D02*
X138112500Y-54991000D01*
X136525000Y-53467000D02*
X136525000Y-56007000D01*
X134937500Y-53467000D02*
X134937500Y-54991000D01*
X133350000Y-53467000D02*
X133350000Y-56007000D01*
X127000000Y-53467000D02*
X127000000Y-57023000D01*
X128587500Y-53467000D02*
X128587500Y-54991000D01*
X130175000Y-53467000D02*
X130175000Y-56007000D01*
X131762500Y-53467000D02*
X131762500Y-54991000D01*
X119062500Y-53467000D02*
X119062500Y-54991000D01*
X117475000Y-53467000D02*
X117475000Y-56007000D01*
X115887500Y-53467000D02*
X115887500Y-54991000D01*
X120650000Y-53467000D02*
X120650000Y-56007000D01*
X122237500Y-53467000D02*
X122237500Y-54991000D01*
X123825000Y-53467000D02*
X123825000Y-56007000D01*
X125412500Y-53467000D02*
X125412500Y-54991000D01*
X139700000Y-53467000D02*
X139700000Y-58547000D01*
X165100000Y-53467000D02*
X165100000Y-58547000D01*
X150812500Y-53467000D02*
X150812500Y-54991000D01*
X149225000Y-53467000D02*
X149225000Y-56007000D01*
X147637500Y-53467000D02*
X147637500Y-54991000D01*
X146050000Y-53467000D02*
X146050000Y-56007000D01*
X141287500Y-53467000D02*
X141287500Y-54991000D01*
X142875000Y-53467000D02*
X142875000Y-56007000D01*
X144462500Y-53467000D02*
X144462500Y-54991000D01*
X157162500Y-53467000D02*
X157162500Y-54991000D01*
X155575000Y-53467000D02*
X155575000Y-56007000D01*
X153987500Y-53467000D02*
X153987500Y-54991000D01*
X152400000Y-53467000D02*
X152400000Y-57023000D01*
X158750000Y-53467000D02*
X158750000Y-56007000D01*
X160337500Y-53467000D02*
X160337500Y-54991000D01*
X161925000Y-53467000D02*
X161925000Y-56007000D01*
X163512500Y-53467000D02*
X163512500Y-54991000D01*
X214312500Y-53467000D02*
X214312500Y-54991000D01*
X212725000Y-53467000D02*
X212725000Y-56007000D01*
X211137500Y-53467000D02*
X211137500Y-54991000D01*
X209550000Y-53467000D02*
X209550000Y-56007000D01*
X203200000Y-53467000D02*
X203200000Y-57023000D01*
X204787500Y-53467000D02*
X204787500Y-54991000D01*
X206375000Y-53467000D02*
X206375000Y-56007000D01*
X207962500Y-53467000D02*
X207962500Y-54991000D01*
X195262500Y-53467000D02*
X195262500Y-54991000D01*
X193675000Y-53467000D02*
X193675000Y-56007000D01*
X192087500Y-53467000D02*
X192087500Y-54991000D01*
X196850000Y-53467000D02*
X196850000Y-56007000D01*
X198437500Y-53467000D02*
X198437500Y-54991000D01*
X200025000Y-53467000D02*
X200025000Y-56007000D01*
X201612500Y-53467000D02*
X201612500Y-54991000D01*
X215900000Y-53467000D02*
X215900000Y-58547000D01*
X190500000Y-53467000D02*
X190500000Y-58547000D01*
X176212500Y-53467000D02*
X176212500Y-54991000D01*
X174625000Y-53467000D02*
X174625000Y-56007000D01*
X173037500Y-53467000D02*
X173037500Y-54991000D01*
X171450000Y-53467000D02*
X171450000Y-56007000D01*
X166687500Y-53467000D02*
X166687500Y-54991000D01*
X168275000Y-53467000D02*
X168275000Y-56007000D01*
X169862500Y-53467000D02*
X169862500Y-54991000D01*
X182562500Y-53467000D02*
X182562500Y-54991000D01*
X180975000Y-53467000D02*
X180975000Y-56007000D01*
X179387500Y-53467000D02*
X179387500Y-54991000D01*
X177800000Y-53467000D02*
X177800000Y-57023000D01*
X184150000Y-53467000D02*
X184150000Y-56007000D01*
X185737500Y-53467000D02*
X185737500Y-54991000D01*
X187325000Y-53467000D02*
X187325000Y-56007000D01*
X188912500Y-53467000D02*
X188912500Y-54991000D01*
X87312500Y-53467000D02*
X87312500Y-54991000D01*
X85725000Y-53467000D02*
X85725000Y-56007000D01*
X84137500Y-53467000D02*
X84137500Y-54991000D01*
X82550000Y-53467000D02*
X82550000Y-56007000D01*
X76200000Y-53467000D02*
X76200000Y-57023000D01*
X77787500Y-53467000D02*
X77787500Y-54991000D01*
X79375000Y-53467000D02*
X79375000Y-56007000D01*
X80962500Y-53467000D02*
X80962500Y-54991000D01*
X68262500Y-53467000D02*
X68262500Y-54991000D01*
X66675000Y-53467000D02*
X66675000Y-56007000D01*
X65087500Y-53467000D02*
X65087500Y-54991000D01*
X69850000Y-53467000D02*
X69850000Y-56007000D01*
X71437500Y-53467000D02*
X71437500Y-54991000D01*
X73025000Y-53467000D02*
X73025000Y-56007000D01*
X74612500Y-53467000D02*
X74612500Y-54991000D01*
X88900000Y-53467000D02*
X88900000Y-58547000D01*
X114300000Y-53467000D02*
X114300000Y-58547000D01*
X100012500Y-53467000D02*
X100012500Y-54991000D01*
X98425000Y-53467000D02*
X98425000Y-56007000D01*
X96837500Y-53467000D02*
X96837500Y-54991000D01*
X95250000Y-53467000D02*
X95250000Y-56007000D01*
X90487500Y-53467000D02*
X90487500Y-54991000D01*
X92075000Y-53467000D02*
X92075000Y-56007000D01*
X93662500Y-53467000D02*
X93662500Y-54991000D01*
X106362500Y-53467000D02*
X106362500Y-54991000D01*
X104775000Y-53467000D02*
X104775000Y-56007000D01*
X103187500Y-53467000D02*
X103187500Y-54991000D01*
X101600000Y-53467000D02*
X101600000Y-57023000D01*
X107950000Y-53467000D02*
X107950000Y-56007000D01*
X109537500Y-53467000D02*
X109537500Y-54991000D01*
X111125000Y-53467000D02*
X111125000Y-56007000D01*
X112712500Y-53467000D02*
X112712500Y-54991000D01*
X61912500Y-53467000D02*
X61912500Y-54991000D01*
X60325000Y-53467000D02*
X60325000Y-56007000D01*
X58737500Y-53467000D02*
X58737500Y-54991000D01*
X57150000Y-53467000D02*
X57150000Y-56007000D01*
X50800000Y-53467000D02*
X50800000Y-57023000D01*
X52387500Y-53467000D02*
X52387500Y-54991000D01*
X53975000Y-53467000D02*
X53975000Y-56007000D01*
X55562500Y-53467000D02*
X55562500Y-54991000D01*
X42862500Y-53467000D02*
X42862500Y-54991000D01*
X41275000Y-53467000D02*
X41275000Y-56007000D01*
X39687500Y-53467000D02*
X39687500Y-54991000D01*
X44450000Y-53467000D02*
X44450000Y-56007000D01*
X46037500Y-53467000D02*
X46037500Y-54991000D01*
X47625000Y-53467000D02*
X47625000Y-56007000D01*
X49212500Y-53467000D02*
X49212500Y-54991000D01*
X63500000Y-53467000D02*
X63500000Y-58547000D01*
D13*
X316532381Y-84347976D02*
X317258095Y-84347976D01*
X316895238Y-84347976D02*
X316895238Y-85617976D01*
X317016190Y-85436548D01*
X317137143Y-85315595D01*
X317258095Y-85255119D01*
X315080952Y-85678452D02*
X316169524Y-84045595D01*
X313992381Y-84347976D02*
X314718095Y-84347976D01*
X314355238Y-84347976D02*
X314355238Y-85617976D01*
X314476190Y-85436548D01*
X314597143Y-85315595D01*
X314718095Y-85255119D01*
X313206190Y-85617976D02*
X313085238Y-85617976D01*
X312964286Y-85557500D01*
X312903809Y-85497024D01*
X312843333Y-85376071D01*
X312782857Y-85134167D01*
X312782857Y-84831786D01*
X312843333Y-84589881D01*
X312903809Y-84468929D01*
X312964286Y-84408452D01*
X313085238Y-84347976D01*
X313206190Y-84347976D01*
X313327143Y-84408452D01*
X313387619Y-84468929D01*
X313448095Y-84589881D01*
X313508571Y-84831786D01*
X313508571Y-85134167D01*
X313448095Y-85376071D01*
X313387619Y-85497024D01*
X313327143Y-85557500D01*
X313206190Y-85617976D01*
X317197619Y-82142976D02*
X317197619Y-83412976D01*
X316592857Y-82142976D02*
X316592857Y-83412976D01*
X315867143Y-82142976D01*
X315867143Y-83412976D01*
X314536667Y-82263929D02*
X314597143Y-82203452D01*
X314778572Y-82142976D01*
X314899524Y-82142976D01*
X315080952Y-82203452D01*
X315201905Y-82324405D01*
X315262381Y-82445357D01*
X315322857Y-82687262D01*
X315322857Y-82868690D01*
X315262381Y-83110595D01*
X315201905Y-83231548D01*
X315080952Y-83352500D01*
X314899524Y-83412976D01*
X314778572Y-83412976D01*
X314597143Y-83352500D01*
X314536667Y-83292024D01*
X313992381Y-82142976D02*
X313992381Y-83412976D01*
X313992381Y-82808214D02*
X313266667Y-82808214D01*
X313266667Y-82142976D02*
X313266667Y-83412976D01*
X312661905Y-82808214D02*
X312238572Y-82808214D01*
X312057143Y-82142976D02*
X312661905Y-82142976D01*
X312661905Y-83412976D01*
X312057143Y-83412976D01*
X311573333Y-82203452D02*
X311391905Y-82142976D01*
X311089524Y-82142976D01*
X310968571Y-82203452D01*
X310908095Y-82263929D01*
X310847619Y-82384881D01*
X310847619Y-82505833D01*
X310908095Y-82626786D01*
X310968571Y-82687262D01*
X311089524Y-82747738D01*
X311331428Y-82808214D01*
X311452381Y-82868690D01*
X311512857Y-82929167D01*
X311573333Y-83050119D01*
X311573333Y-83171071D01*
X311512857Y-83292024D01*
X311452381Y-83352500D01*
X311331428Y-83412976D01*
X311029048Y-83412976D01*
X310847619Y-83352500D01*
X13861143Y-56152143D02*
X14078858Y-56152143D01*
X14296572Y-56261000D01*
X14405429Y-56369857D01*
X14514286Y-56587571D01*
X14623143Y-57023000D01*
X14623143Y-57567286D01*
X14514286Y-58002714D01*
X14405429Y-58220429D01*
X14296572Y-58329286D01*
X14078858Y-58438143D01*
X13861143Y-58438143D01*
X13643429Y-58329286D01*
X13534572Y-58220429D01*
X13425715Y-58002714D01*
X13316858Y-57567286D01*
X13316858Y-57023000D01*
X13425715Y-56587571D01*
X13534572Y-56369857D01*
X13643429Y-56261000D01*
X13861143Y-56152143D01*
X13002381Y-60432024D02*
X13002381Y-59162024D01*
X13607143Y-60432024D02*
X13607143Y-59162024D01*
X14332857Y-60432024D01*
X14332857Y-59162024D01*
X15663333Y-60311071D02*
X15602857Y-60371548D01*
X15421428Y-60432024D01*
X15300476Y-60432024D01*
X15119048Y-60371548D01*
X14998095Y-60250595D01*
X14937619Y-60129643D01*
X14877143Y-59887738D01*
X14877143Y-59706310D01*
X14937619Y-59464405D01*
X14998095Y-59343452D01*
X15119048Y-59222500D01*
X15300476Y-59162024D01*
X15421428Y-59162024D01*
X15602857Y-59222500D01*
X15663333Y-59282976D01*
X16207619Y-60432024D02*
X16207619Y-59162024D01*
X16207619Y-59766786D02*
X16933333Y-59766786D01*
X16933333Y-60432024D02*
X16933333Y-59162024D01*
X17538095Y-59766786D02*
X17961428Y-59766786D01*
X18142857Y-60432024D02*
X17538095Y-60432024D01*
X17538095Y-59162024D01*
X18142857Y-59162024D01*
X18626667Y-60371548D02*
X18808095Y-60432024D01*
X19110476Y-60432024D01*
X19231429Y-60371548D01*
X19291905Y-60311071D01*
X19352381Y-60190119D01*
X19352381Y-60069167D01*
X19291905Y-59948214D01*
X19231429Y-59887738D01*
X19110476Y-59827262D01*
X18868572Y-59766786D01*
X18747619Y-59706310D01*
X18687143Y-59645833D01*
X18626667Y-59524881D01*
X18626667Y-59403929D01*
X18687143Y-59282976D01*
X18747619Y-59222500D01*
X18868572Y-59162024D01*
X19170952Y-59162024D01*
X19352381Y-59222500D01*
X13667619Y-62637024D02*
X12941905Y-62637024D01*
X13304762Y-62637024D02*
X13304762Y-61367024D01*
X13183810Y-61548452D01*
X13062857Y-61669405D01*
X12941905Y-61729881D01*
X15119048Y-61306548D02*
X14030476Y-62939405D01*
X16207619Y-62637024D02*
X15481905Y-62637024D01*
X15844762Y-62637024D02*
X15844762Y-61367024D01*
X15723810Y-61548452D01*
X15602857Y-61669405D01*
X15481905Y-61729881D01*
X17296191Y-61367024D02*
X17054286Y-61367024D01*
X16933334Y-61427500D01*
X16872857Y-61487976D01*
X16751905Y-61669405D01*
X16691429Y-61911310D01*
X16691429Y-62395119D01*
X16751905Y-62516071D01*
X16812381Y-62576548D01*
X16933334Y-62637024D01*
X17175238Y-62637024D01*
X17296191Y-62576548D01*
X17356667Y-62516071D01*
X17417143Y-62395119D01*
X17417143Y-62092738D01*
X17356667Y-61971786D01*
X17296191Y-61911310D01*
X17175238Y-61850833D01*
X16933334Y-61850833D01*
X16812381Y-61911310D01*
X16751905Y-61971786D01*
X16691429Y-62092738D01*
X15421429Y-86341857D02*
X16727714Y-86341857D01*
X16074572Y-86341857D02*
X16074572Y-88627857D01*
X16292286Y-88301286D01*
X16510000Y-88083571D01*
X16727714Y-87974714D01*
X14550571Y-88410143D02*
X14441714Y-88519000D01*
X14224000Y-88627857D01*
X13679714Y-88627857D01*
X13462000Y-88519000D01*
X13353143Y-88410143D01*
X13244286Y-88192429D01*
X13244286Y-87974714D01*
X13353143Y-87648143D01*
X14659429Y-86341857D01*
X13244286Y-86341857D01*
X38535429Y-86341857D02*
X39841714Y-86341857D01*
X39188572Y-86341857D02*
X39188572Y-88627857D01*
X39406286Y-88301286D01*
X39624000Y-88083571D01*
X39841714Y-87974714D01*
X36358286Y-86341857D02*
X37664571Y-86341857D01*
X37011429Y-86341857D02*
X37011429Y-88627857D01*
X37229143Y-88301286D01*
X37446857Y-88083571D01*
X37664571Y-87974714D01*
X63935429Y-86341857D02*
X65241714Y-86341857D01*
X64588572Y-86341857D02*
X64588572Y-88627857D01*
X64806286Y-88301286D01*
X65024000Y-88083571D01*
X65241714Y-87974714D01*
X62520286Y-88627857D02*
X62302571Y-88627857D01*
X62084857Y-88519000D01*
X61976000Y-88410143D01*
X61867143Y-88192429D01*
X61758286Y-87757000D01*
X61758286Y-87212714D01*
X61867143Y-86777286D01*
X61976000Y-86559571D01*
X62084857Y-86450714D01*
X62302571Y-86341857D01*
X62520286Y-86341857D01*
X62738000Y-86450714D01*
X62846857Y-86559571D01*
X62955714Y-86777286D01*
X63064571Y-87212714D01*
X63064571Y-87757000D01*
X62955714Y-88192429D01*
X62846857Y-88410143D01*
X62738000Y-88519000D01*
X62520286Y-88627857D01*
X88065428Y-86341857D02*
X87630000Y-86341857D01*
X87412285Y-86450714D01*
X87303428Y-86559571D01*
X87085714Y-86886143D01*
X86976857Y-87321571D01*
X86976857Y-88192429D01*
X87085714Y-88410143D01*
X87194571Y-88519000D01*
X87412285Y-88627857D01*
X87847714Y-88627857D01*
X88065428Y-88519000D01*
X88174285Y-88410143D01*
X88283142Y-88192429D01*
X88283142Y-87648143D01*
X88174285Y-87430429D01*
X88065428Y-87321571D01*
X87847714Y-87212714D01*
X87412285Y-87212714D01*
X87194571Y-87321571D01*
X87085714Y-87430429D01*
X86976857Y-87648143D01*
X113247714Y-87648143D02*
X113465428Y-87757000D01*
X113574285Y-87865857D01*
X113683142Y-88083571D01*
X113683142Y-88192429D01*
X113574285Y-88410143D01*
X113465428Y-88519000D01*
X113247714Y-88627857D01*
X112812285Y-88627857D01*
X112594571Y-88519000D01*
X112485714Y-88410143D01*
X112376857Y-88192429D01*
X112376857Y-88083571D01*
X112485714Y-87865857D01*
X112594571Y-87757000D01*
X112812285Y-87648143D01*
X113247714Y-87648143D01*
X113465428Y-87539286D01*
X113574285Y-87430429D01*
X113683142Y-87212714D01*
X113683142Y-86777286D01*
X113574285Y-86559571D01*
X113465428Y-86450714D01*
X113247714Y-86341857D01*
X112812285Y-86341857D01*
X112594571Y-86450714D01*
X112485714Y-86559571D01*
X112376857Y-86777286D01*
X112376857Y-87212714D01*
X112485714Y-87430429D01*
X112594571Y-87539286D01*
X112812285Y-87648143D01*
X139192000Y-88627857D02*
X137668000Y-88627857D01*
X138647714Y-86341857D01*
X163394571Y-88627857D02*
X163830000Y-88627857D01*
X164047714Y-88519000D01*
X164156571Y-88410143D01*
X164374285Y-88083571D01*
X164483142Y-87648143D01*
X164483142Y-86777286D01*
X164374285Y-86559571D01*
X164265428Y-86450714D01*
X164047714Y-86341857D01*
X163612285Y-86341857D01*
X163394571Y-86450714D01*
X163285714Y-86559571D01*
X163176857Y-86777286D01*
X163176857Y-87321571D01*
X163285714Y-87539286D01*
X163394571Y-87648143D01*
X163612285Y-87757000D01*
X164047714Y-87757000D01*
X164265428Y-87648143D01*
X164374285Y-87539286D01*
X164483142Y-87321571D01*
X188685714Y-88627857D02*
X189774285Y-88627857D01*
X189883142Y-87539286D01*
X189774285Y-87648143D01*
X189556571Y-87757000D01*
X189012285Y-87757000D01*
X188794571Y-87648143D01*
X188685714Y-87539286D01*
X188576857Y-87321571D01*
X188576857Y-86777286D01*
X188685714Y-86559571D01*
X188794571Y-86450714D01*
X189012285Y-86341857D01*
X189556571Y-86341857D01*
X189774285Y-86450714D01*
X189883142Y-86559571D01*
X214194571Y-87865857D02*
X214194571Y-86341857D01*
X214738857Y-88736714D02*
X215283142Y-87103857D01*
X213868000Y-87103857D01*
X240792000Y-88627857D02*
X239376857Y-88627857D01*
X240138857Y-87757000D01*
X239812285Y-87757000D01*
X239594571Y-87648143D01*
X239485714Y-87539286D01*
X239376857Y-87321571D01*
X239376857Y-86777286D01*
X239485714Y-86559571D01*
X239594571Y-86450714D01*
X239812285Y-86341857D01*
X240465428Y-86341857D01*
X240683142Y-86450714D01*
X240792000Y-86559571D01*
X266083142Y-88410143D02*
X265974285Y-88519000D01*
X265756571Y-88627857D01*
X265212285Y-88627857D01*
X264994571Y-88519000D01*
X264885714Y-88410143D01*
X264776857Y-88192429D01*
X264776857Y-87974714D01*
X264885714Y-87648143D01*
X266192000Y-86341857D01*
X264776857Y-86341857D01*
X290176857Y-86341857D02*
X291483142Y-86341857D01*
X290830000Y-86341857D02*
X290830000Y-88627857D01*
X291047714Y-88301286D01*
X291265428Y-88083571D01*
X291483142Y-87974714D01*
X316338857Y-88627857D02*
X316121142Y-88627857D01*
X315903428Y-88519000D01*
X315794571Y-88410143D01*
X315685714Y-88192429D01*
X315576857Y-87757000D01*
X315576857Y-87212714D01*
X315685714Y-86777286D01*
X315794571Y-86559571D01*
X315903428Y-86450714D01*
X316121142Y-86341857D01*
X316338857Y-86341857D01*
X316556571Y-86450714D01*
X316665428Y-86559571D01*
X316774285Y-86777286D01*
X316883142Y-87212714D01*
X316883142Y-87757000D01*
X316774285Y-88192429D01*
X316665428Y-88410143D01*
X316556571Y-88519000D01*
X316338857Y-88627857D01*
X314524571Y-58438143D02*
X313218286Y-58438143D01*
X313871428Y-58438143D02*
X313871428Y-56152143D01*
X313653714Y-56478714D01*
X313436000Y-56696429D01*
X313218286Y-56805286D01*
X315395429Y-56369857D02*
X315504286Y-56261000D01*
X315722000Y-56152143D01*
X316266286Y-56152143D01*
X316484000Y-56261000D01*
X316592857Y-56369857D01*
X316701714Y-56587571D01*
X316701714Y-56805286D01*
X316592857Y-57131857D01*
X315286571Y-58438143D01*
X316701714Y-58438143D01*
X291664571Y-58438143D02*
X290358286Y-58438143D01*
X291011428Y-58438143D02*
X291011428Y-56152143D01*
X290793714Y-56478714D01*
X290576000Y-56696429D01*
X290358286Y-56805286D01*
X293841714Y-58438143D02*
X292535429Y-58438143D01*
X293188571Y-58438143D02*
X293188571Y-56152143D01*
X292970857Y-56478714D01*
X292753143Y-56696429D01*
X292535429Y-56805286D01*
X266264571Y-58438143D02*
X264958286Y-58438143D01*
X265611428Y-58438143D02*
X265611428Y-56152143D01*
X265393714Y-56478714D01*
X265176000Y-56696429D01*
X264958286Y-56805286D01*
X267679714Y-56152143D02*
X267897429Y-56152143D01*
X268115143Y-56261000D01*
X268224000Y-56369857D01*
X268332857Y-56587571D01*
X268441714Y-57023000D01*
X268441714Y-57567286D01*
X268332857Y-58002714D01*
X268224000Y-58220429D01*
X268115143Y-58329286D01*
X267897429Y-58438143D01*
X267679714Y-58438143D01*
X267462000Y-58329286D01*
X267353143Y-58220429D01*
X267244286Y-58002714D01*
X267135429Y-57567286D01*
X267135429Y-57023000D01*
X267244286Y-56587571D01*
X267353143Y-56369857D01*
X267462000Y-56261000D01*
X267679714Y-56152143D01*
X242134572Y-58438143D02*
X242570000Y-58438143D01*
X242787715Y-58329286D01*
X242896572Y-58220429D01*
X243114286Y-57893857D01*
X243223143Y-57458429D01*
X243223143Y-56587571D01*
X243114286Y-56369857D01*
X243005429Y-56261000D01*
X242787715Y-56152143D01*
X242352286Y-56152143D01*
X242134572Y-56261000D01*
X242025715Y-56369857D01*
X241916858Y-56587571D01*
X241916858Y-57131857D01*
X242025715Y-57349571D01*
X242134572Y-57458429D01*
X242352286Y-57567286D01*
X242787715Y-57567286D01*
X243005429Y-57458429D01*
X243114286Y-57349571D01*
X243223143Y-57131857D01*
X216952286Y-57131857D02*
X216734572Y-57023000D01*
X216625715Y-56914143D01*
X216516858Y-56696429D01*
X216516858Y-56587571D01*
X216625715Y-56369857D01*
X216734572Y-56261000D01*
X216952286Y-56152143D01*
X217387715Y-56152143D01*
X217605429Y-56261000D01*
X217714286Y-56369857D01*
X217823143Y-56587571D01*
X217823143Y-56696429D01*
X217714286Y-56914143D01*
X217605429Y-57023000D01*
X217387715Y-57131857D01*
X216952286Y-57131857D01*
X216734572Y-57240714D01*
X216625715Y-57349571D01*
X216516858Y-57567286D01*
X216516858Y-58002714D01*
X216625715Y-58220429D01*
X216734572Y-58329286D01*
X216952286Y-58438143D01*
X217387715Y-58438143D01*
X217605429Y-58329286D01*
X217714286Y-58220429D01*
X217823143Y-58002714D01*
X217823143Y-57567286D01*
X217714286Y-57349571D01*
X217605429Y-57240714D01*
X217387715Y-57131857D01*
X191008000Y-56152143D02*
X192532000Y-56152143D01*
X191552286Y-58438143D01*
X166805429Y-56152143D02*
X166370000Y-56152143D01*
X166152286Y-56261000D01*
X166043429Y-56369857D01*
X165825715Y-56696429D01*
X165716858Y-57131857D01*
X165716858Y-58002714D01*
X165825715Y-58220429D01*
X165934572Y-58329286D01*
X166152286Y-58438143D01*
X166587715Y-58438143D01*
X166805429Y-58329286D01*
X166914286Y-58220429D01*
X167023143Y-58002714D01*
X167023143Y-57458429D01*
X166914286Y-57240714D01*
X166805429Y-57131857D01*
X166587715Y-57023000D01*
X166152286Y-57023000D01*
X165934572Y-57131857D01*
X165825715Y-57240714D01*
X165716858Y-57458429D01*
X141514286Y-56152143D02*
X140425715Y-56152143D01*
X140316858Y-57240714D01*
X140425715Y-57131857D01*
X140643429Y-57023000D01*
X141187715Y-57023000D01*
X141405429Y-57131857D01*
X141514286Y-57240714D01*
X141623143Y-57458429D01*
X141623143Y-58002714D01*
X141514286Y-58220429D01*
X141405429Y-58329286D01*
X141187715Y-58438143D01*
X140643429Y-58438143D01*
X140425715Y-58329286D01*
X140316858Y-58220429D01*
X116005429Y-56914143D02*
X116005429Y-58438143D01*
X115461143Y-56043286D02*
X114916858Y-57676143D01*
X116332000Y-57676143D01*
X89408000Y-56152143D02*
X90823143Y-56152143D01*
X90061143Y-57023000D01*
X90387715Y-57023000D01*
X90605429Y-57131857D01*
X90714286Y-57240714D01*
X90823143Y-57458429D01*
X90823143Y-58002714D01*
X90714286Y-58220429D01*
X90605429Y-58329286D01*
X90387715Y-58438143D01*
X89734572Y-58438143D01*
X89516858Y-58329286D01*
X89408000Y-58220429D01*
X64116858Y-56369857D02*
X64225715Y-56261000D01*
X64443429Y-56152143D01*
X64987715Y-56152143D01*
X65205429Y-56261000D01*
X65314286Y-56369857D01*
X65423143Y-56587571D01*
X65423143Y-56805286D01*
X65314286Y-57131857D01*
X64008000Y-58438143D01*
X65423143Y-58438143D01*
X40023143Y-58438143D02*
X38716858Y-58438143D01*
X39370000Y-58438143D02*
X39370000Y-56152143D01*
X39152286Y-56478714D01*
X38934572Y-56696429D01*
X38716858Y-56805286D01*
D12*
X38100000Y-86233000D02*
X38100000Y-91313000D01*
X12700000Y-86233000D02*
X12700000Y-91313000D01*
X15240000Y-91313000D02*
X15240000Y-89789000D01*
X17780000Y-91313000D02*
X17780000Y-89789000D01*
X20320000Y-91313000D02*
X20320000Y-89789000D01*
X22860000Y-91313000D02*
X22860000Y-89789000D01*
X25400000Y-91313000D02*
X25400000Y-88773000D01*
X27940000Y-91313000D02*
X27940000Y-89789000D01*
X30480000Y-91313000D02*
X30480000Y-89789000D01*
X33020000Y-91313000D02*
X33020000Y-89789000D01*
X35560000Y-91313000D02*
X35560000Y-89789000D01*
X38100000Y-53467000D02*
X38100000Y-58547000D01*
X23812500Y-53467000D02*
X23812500Y-54991000D01*
X22225000Y-53467000D02*
X22225000Y-56007000D01*
X20637500Y-53467000D02*
X20637500Y-54991000D01*
X19050000Y-53467000D02*
X19050000Y-56007000D01*
X12700000Y-53467000D02*
X12700000Y-58547000D01*
X14287500Y-53467000D02*
X14287500Y-54991000D01*
X15875000Y-53467000D02*
X15875000Y-56007000D01*
X17462500Y-53467000D02*
X17462500Y-54991000D01*
X30162500Y-53467000D02*
X30162500Y-54991000D01*
X28575000Y-53467000D02*
X28575000Y-56007000D01*
X26987500Y-53467000D02*
X26987500Y-54991000D01*
X25400000Y-53467000D02*
X25400000Y-57023000D01*
X31750000Y-53467000D02*
X31750000Y-56007000D01*
X33337500Y-53467000D02*
X33337500Y-54991000D01*
X34925000Y-53467000D02*
X34925000Y-56007000D01*
X36512500Y-53467000D02*
X36512500Y-54991000D01*
D14*
X194564000Y-65024000D03*
X202184000Y-82804000D03*
X194564000Y-67564000D03*
X202184000Y-80264000D03*
X194564000Y-70104000D03*
X202184000Y-77724000D03*
X194564000Y-72644000D03*
X202184000Y-75184000D03*
X194564000Y-75184000D03*
X202184000Y-72644000D03*
X194564000Y-77724000D03*
X202184000Y-70104000D03*
X194564000Y-80264000D03*
X202184000Y-67564000D03*
X194564000Y-82804000D03*
X202184000Y-65024000D03*
D15*
X211298000Y-62362000D03*
X211948000Y-62362000D03*
X212598000Y-62362000D03*
X213248000Y-62362000D03*
X213898000Y-62362000D03*
D16*
X208873000Y-62412000D03*
X216323000Y-62412000D03*
D17*
X208723000Y-66212000D03*
X216473000Y-66212000D03*
D18*
X210098000Y-63462000D03*
X215098000Y-63462000D03*
D19*
X26908000Y-78486000D03*
X24908000Y-78486000D03*
D20*
X26458000Y-70358000D03*
X25358000Y-70358000D03*
D21*
X25158000Y-74168000D03*
X26658000Y-74168000D03*
D22*
X27408000Y-83058000D03*
X24408000Y-83058000D03*
D23*
X38584000Y-67056000D03*
X35584000Y-67056000D03*
D24*
X40184000Y-82804000D03*
X33984000Y-82804000D03*
D23*
X39534000Y-77724000D03*
X34634000Y-77724000D03*
D25*
X39524000Y-72390000D03*
X34644000Y-72390000D03*
D26*
X50800000Y-75690000D03*
X50800000Y-81790000D03*
D14*
X50800000Y-65024000D03*
D27*
X50800000Y-68824000D03*
D28*
X67056000Y-75270000D03*
X67056000Y-79670000D03*
D25*
X59690000Y-75532000D03*
X59690000Y-80932000D03*
D14*
X59690000Y-66548000D03*
D27*
X59690000Y-69048000D03*
D14*
X67056000Y-67564000D03*
D27*
X67056000Y-69564000D03*
D29*
X75841000Y-67818000D03*
X78591000Y-67818000D03*
D30*
X75691000Y-74422000D03*
X78741000Y-74422000D03*
D31*
X74691000Y-81788000D03*
X79741000Y-81788000D03*
D32*
X86995000Y-69596000D03*
X93345000Y-69596000D03*
D33*
X86995000Y-79502000D03*
X93345000Y-79502000D03*
D34*
X25648000Y-66802000D03*
X26168000Y-66802000D03*
D35*
X101008000Y-74422000D03*
X103208000Y-74422000D03*
D36*
X100708000Y-81534000D03*
X103508000Y-81534000D03*
D37*
X107886000Y-70104000D03*
X112586000Y-70104000D03*
D38*
X101433000Y-68072000D03*
X102783000Y-68072000D03*
D39*
X107436000Y-79502000D03*
X113036000Y-79502000D03*
D40*
X123190000Y-74760000D03*
X125730000Y-74760000D03*
X125730000Y-72560000D03*
X123190000Y-72560000D03*
D41*
X126308000Y-68514000D03*
X128708000Y-68514000D03*
X128708000Y-66614000D03*
X126308000Y-66614000D03*
D42*
X121920000Y-83126000D03*
X127000000Y-83126000D03*
X127000000Y-78926000D03*
X121920000Y-78926000D03*
D43*
X121412000Y-68814000D03*
X121412000Y-66314000D03*
D44*
X135702000Y-64754000D03*
X137602000Y-64754000D03*
X136652000Y-62754000D03*
D45*
X135702000Y-70950000D03*
X136652000Y-70950000D03*
X137602000Y-70950000D03*
X137602000Y-68750000D03*
X135702000Y-68750000D03*
X135702000Y-77046000D03*
X136652000Y-77046000D03*
X137602000Y-77046000D03*
X137602000Y-74846000D03*
X135702000Y-74846000D03*
X136652000Y-74846000D03*
D46*
X135672000Y-83396000D03*
X136322000Y-83396000D03*
X136982000Y-83396000D03*
X137632000Y-83396000D03*
X137632000Y-81196000D03*
X136982000Y-81196000D03*
X136322000Y-81196000D03*
X135672000Y-81196000D03*
D47*
X142606000Y-64754000D03*
X143906000Y-64754000D03*
X143256000Y-62754000D03*
D48*
X142606000Y-70546000D03*
X143906000Y-70546000D03*
X143256000Y-68646000D03*
X143256000Y-70546000D03*
X143906000Y-68646000D03*
X142606000Y-68646000D03*
D49*
X142500000Y-82940000D03*
X143640000Y-82940000D03*
X144780000Y-82940000D03*
X145920000Y-82940000D03*
X147060000Y-82940000D03*
D50*
X144780000Y-76640000D03*
D51*
X161290000Y-76606000D03*
D52*
X161290000Y-82906000D03*
X163590000Y-82906000D03*
X158990000Y-82906000D03*
D53*
X154178000Y-82893500D03*
X151638000Y-82893500D03*
D54*
X152908000Y-76593500D03*
D53*
X152908000Y-82893500D03*
X155448000Y-82893500D03*
X150368000Y-82893500D03*
D55*
X148910000Y-65826000D03*
X150810000Y-65826000D03*
X149860000Y-63206000D03*
D56*
X148660000Y-70750000D03*
D57*
X150260000Y-70750000D03*
X149460000Y-70750000D03*
D56*
X151060000Y-70750000D03*
D57*
X149460000Y-68950000D03*
D56*
X148660000Y-68950000D03*
D57*
X150260000Y-68950000D03*
D56*
X151060000Y-68950000D03*
D58*
X178889000Y-83017000D03*
X178889000Y-82367000D03*
X178889000Y-81717000D03*
X178889000Y-81067000D03*
X174679000Y-81067000D03*
X174679000Y-81717000D03*
X174679000Y-82367000D03*
X174679000Y-83017000D03*
D59*
X176364000Y-81572000D03*
X176364000Y-82512000D03*
X177204000Y-81572000D03*
X177204000Y-82512000D03*
D60*
X166964000Y-79784000D03*
X166964000Y-80284000D03*
X166964000Y-80784000D03*
X166964000Y-81284000D03*
X166964000Y-81784000D03*
X171364000Y-81784000D03*
X171364000Y-81284000D03*
X171364000Y-80784000D03*
X171364000Y-80284000D03*
X171364000Y-79784000D03*
X166964000Y-82284000D03*
X166964000Y-82784000D03*
X166964000Y-83284000D03*
X171364000Y-82284000D03*
X171364000Y-82784000D03*
X171364000Y-83284000D03*
D61*
X169164000Y-81434000D03*
D60*
X166964000Y-71910000D03*
X166964000Y-72410000D03*
X166964000Y-72910000D03*
X166964000Y-73410000D03*
X166964000Y-73910000D03*
X171364000Y-73910000D03*
X171364000Y-73410000D03*
X171364000Y-72910000D03*
X171364000Y-72410000D03*
X171364000Y-71910000D03*
X166964000Y-74410000D03*
X166964000Y-74910000D03*
X166964000Y-75410000D03*
X171364000Y-74410000D03*
X171364000Y-74910000D03*
X171364000Y-75410000D03*
D62*
X174584000Y-74717000D03*
X174584000Y-75367000D03*
X174584000Y-76017000D03*
X174584000Y-76667000D03*
X178984000Y-76667000D03*
X178984000Y-76017000D03*
X178984000Y-75367000D03*
X178984000Y-74717000D03*
D63*
X174184000Y-66103500D03*
X174184000Y-66738500D03*
X174184000Y-67373500D03*
X174184000Y-68008500D03*
X174184000Y-68643500D03*
X174184000Y-69278500D03*
X174184000Y-69913500D03*
X174184000Y-70548500D03*
X179384000Y-70548500D03*
X179384000Y-69913500D03*
X179384000Y-69278500D03*
X179384000Y-68643500D03*
X179384000Y-68008500D03*
X179384000Y-67373500D03*
X179384000Y-66738500D03*
X179384000Y-66103500D03*
D64*
X166464000Y-63373000D03*
X166464000Y-64643000D03*
X166464000Y-65913000D03*
X166464000Y-67183000D03*
X171864000Y-67183000D03*
X171864000Y-65913000D03*
X171864000Y-64643000D03*
X171864000Y-63373000D03*
D65*
X158082000Y-63119000D03*
X158082000Y-64389000D03*
X158082000Y-65659000D03*
X158082000Y-66929000D03*
X158082000Y-68199000D03*
X158082000Y-69469000D03*
X158082000Y-70739000D03*
X158082000Y-72009000D03*
X163482000Y-72009000D03*
X163482000Y-70739000D03*
X163482000Y-69469000D03*
X163482000Y-68199000D03*
X163482000Y-66929000D03*
X163482000Y-65659000D03*
X163482000Y-64389000D03*
X163482000Y-63119000D03*
D14*
X182626000Y-75184000D03*
X190246000Y-82804000D03*
X182626000Y-77724000D03*
X190246000Y-80264000D03*
X182626000Y-80264000D03*
X190246000Y-77724000D03*
X182626000Y-82804000D03*
X190246000Y-75184000D03*
D66*
X188788000Y-68592000D03*
X188788000Y-69092000D03*
X188788000Y-69592000D03*
X188788000Y-70092000D03*
X190688000Y-70092000D03*
X190688000Y-69592000D03*
X190688000Y-69092000D03*
X190688000Y-68592000D03*
D67*
X182958000Y-68367000D03*
X182958000Y-69017000D03*
X182958000Y-69667000D03*
X182958000Y-70317000D03*
X186358000Y-70317000D03*
X186358000Y-69667000D03*
X186358000Y-69017000D03*
X186358000Y-68367000D03*
D68*
X227264000Y-64962000D03*
D69*
X228644000Y-63052000D03*
X229144000Y-63052000D03*
X229644000Y-63052000D03*
X230144000Y-63052000D03*
X230644000Y-63052000D03*
X231144000Y-63052000D03*
X231644000Y-63052000D03*
X234144000Y-63052000D03*
X233144000Y-63052000D03*
X232644000Y-63052000D03*
X232144000Y-63052000D03*
X233644000Y-63052000D03*
X233894000Y-64752000D03*
D68*
X235524000Y-64962000D03*
X235884000Y-70912000D03*
X226904000Y-70912000D03*
D70*
X234994000Y-63712000D03*
D71*
X227794000Y-63712000D03*
D69*
X233394000Y-64752000D03*
X232894000Y-64752000D03*
X232394000Y-64752000D03*
X231894000Y-64752000D03*
X231394000Y-64752000D03*
X230894000Y-64752000D03*
X230394000Y-64752000D03*
X229894000Y-64752000D03*
X229394000Y-64752000D03*
X228894000Y-64752000D03*
X228394000Y-64752000D03*
D72*
X252696000Y-76200000D03*
X240826000Y-76200000D03*
D73*
X242316000Y-69850000D03*
D74*
X243586000Y-67310000D03*
X244856000Y-69850000D03*
X246126000Y-67310000D03*
X247396000Y-69850000D03*
X248666000Y-67310000D03*
X249936000Y-69850000D03*
X251206000Y-67310000D03*
X219962000Y-70358000D03*
X217422000Y-70358000D03*
X215392000Y-70358000D03*
X212852000Y-70358000D03*
D75*
X223012000Y-73028000D03*
X209292000Y-73028000D03*
D76*
X314452000Y-74676000D03*
D77*
X312420000Y-78232000D03*
D78*
X304800000Y-63500000D03*
D79*
X304800000Y-72390000D03*
D78*
X304800000Y-81280000D03*
D80*
X309372000Y-81280000D03*
D81*
X314452000Y-76200000D03*
D76*
X314452000Y-70104000D03*
D77*
X312420000Y-66548000D03*
D80*
X309372000Y-63500000D03*
D81*
X314452000Y-68580000D03*
M02*
